<svg width="60" height="61" viewBox="0 0 60 61" fill="none" xmlns="http://www.w3.org/2000/svg">
<path d="M49.075 9.48075C48.7846 9.2458 48.4452 9.07893 48.0818 8.9924C47.7183 8.90588 47.3402 8.90189 46.975 8.98075C44.3036 9.54061 41.5459 9.54774 38.8716 9.00171C36.1973 8.45567 33.6631 7.36803 31.425 5.80575C31.0065 5.51543 30.5093 5.35986 30 5.35986C29.4907 5.35986 28.9935 5.51543 28.575 5.80575C26.3369 7.36803 23.8027 8.45567 21.1284 9.00171C18.4542 9.54774 15.6964 9.54061 13.025 8.98075C12.6599 8.90189 12.2817 8.90588 11.9183 8.9924C11.5549 9.07893 11.2155 9.2458 10.925 9.48075C10.635 9.71604 10.4013 10.0133 10.2412 10.3508C10.0812 10.6882 9.99874 11.0572 10 11.4307V30.0557C9.99779 33.6401 10.8519 37.1731 12.4914 40.3606C14.1308 43.5481 16.508 46.2978 19.425 48.3807L28.55 54.8807C28.9734 55.1822 29.4803 55.3442 30 55.3442C30.5198 55.3442 31.0266 55.1822 31.45 54.8807L40.575 48.3807C43.4921 46.2978 45.8693 43.5481 47.5087 40.3606C49.1481 37.1731 50.0022 33.6401 50 30.0557V11.4307C50.0013 11.0572 49.9189 10.6882 49.7588 10.3508C49.5987 10.0133 49.3651 9.71604 49.075 9.48075ZM45 30.0557C45.0019 32.8426 44.3382 35.5897 43.0641 38.0683C41.7901 40.5469 39.9424 42.6853 37.675 44.3057L30 49.7807L22.325 44.3057C20.0576 42.6853 18.21 40.5469 16.9359 38.0683C15.6618 35.5897 14.9981 32.8426 15 30.0557V14.3057C20.2411 14.7543 25.4901 13.5383 30 10.8307C34.5099 13.5383 39.7589 14.7543 45 14.3057V30.0557ZM33.85 24.3307L27.125 31.0807L24.9 28.8307C24.4293 28.36 23.7908 28.0955 23.125 28.0955C22.4593 28.0955 21.8208 28.36 21.35 28.8307C20.8793 29.3015 20.6148 29.94 20.6148 30.6057C20.6148 31.2715 20.8793 31.91 21.35 32.3807L25.35 36.3807C25.5824 36.615 25.8589 36.801 26.1636 36.928C26.4682 37.0549 26.795 37.1202 27.125 37.1202C27.455 37.1202 27.7818 37.0549 28.0865 36.928C28.3911 36.801 28.6676 36.615 28.9 36.3807L37.5 27.8557C37.9708 27.385 38.2352 26.7465 38.2352 26.0807C38.2352 25.415 37.9708 24.7765 37.5 24.3057C37.0293 23.835 36.3908 23.5705 35.725 23.5705C35.0593 23.5705 34.4208 23.835 33.95 24.3057L33.85 24.3307Z" fill="#6E9CF9"/>
</svg>
