<svg width="29" height="27" viewBox="0 0 29 27" fill="none" xmlns="http://www.w3.org/2000/svg">
<path d="M14.2248 24.2704C20.1402 24.2704 24.9357 19.475 24.9357 13.5595C24.9357 7.64407 20.1402 2.84863 14.2248 2.84863C8.30929 2.84863 3.51385 7.64407 3.51385 13.5595C3.51385 19.475 8.30929 24.2704 14.2248 24.2704Z" fill="white"/>
<path fill-rule="evenodd" clip-rule="evenodd" d="M27.2677 13.5601C27.2677 20.7398 21.4281 26.5601 14.2246 26.5601C11.6073 26.5601 9.17012 25.7918 7.12761 24.469L0.670044 24.9669L2.42373 19.1043C1.62702 17.4226 1.1815 15.5431 1.1815 13.5601C1.1815 6.38035 7.0211 0.560059 14.2246 0.560059C21.4281 0.560059 27.2677 6.38035 27.2677 13.5601ZM7.38337 14.9621L9.04573 12.413L12.3704 14.9621L18.9559 6.86889L21.0018 8.20712L13.0098 20.2512L7.38337 14.9621Z" fill="url(#paint0_linear_1_6246)"/>
<defs>
<linearGradient id="paint0_linear_1_6246" x1="2.71598" y1="4.25614" x2="23.047" y2="23.8234" gradientUnits="userSpaceOnUse">
<stop stop-color="#CE408C"/>
<stop offset="0.477037" stop-color="#C44499"/>
<stop offset="1" stop-color="#B54E9D"/>
</linearGradient>
</defs>
</svg>
