<svg width="60" height="60" viewBox="0 0 60 60" fill="none" xmlns="http://www.w3.org/2000/svg">
<path d="M34.1 22.1431L33.375 26.4681C33.2547 27.1941 33.3436 27.9395 33.6314 28.6168C33.9191 29.2942 34.3939 29.8756 35 30.2931C35.5671 30.7063 36.2413 30.9473 36.9419 30.9872C37.6424 31.0271 38.3396 30.8642 38.95 30.5181L42.5 28.4931L46.1 30.4681C46.7 30.8111 47.385 30.9768 48.0754 30.9458C48.7658 30.9148 49.4332 30.6885 50 30.2931C50.5885 29.8734 51.0479 29.2974 51.3262 28.6303C51.6045 27.9632 51.6907 27.2316 51.575 26.5181L50.85 22.1931L53.85 19.1431C54.3451 18.6399 54.6923 18.0103 54.8537 17.3231C55.015 16.6359 54.9844 15.9175 54.765 15.2466C54.5457 14.5756 54.1461 13.9779 53.6099 13.5187C53.0738 13.0596 52.4217 12.7566 51.725 12.6431L47.675 12.0431L45.85 8.16807C45.5486 7.52037 45.0686 6.97223 44.4662 6.58814C43.8639 6.20405 43.1644 6 42.45 6C41.7356 6 41.0361 6.20405 40.4338 6.58814C39.8315 6.97223 39.3514 7.52037 39.05 8.16807L37.225 12.0431L33.175 12.6431C32.4783 12.7566 31.8262 13.0596 31.2901 13.5187C30.7539 13.9779 30.3543 14.5756 30.135 15.2466C29.9156 15.9175 29.885 16.6359 30.0463 17.3231C30.2077 18.0103 30.5549 18.6399 31.05 19.1431L34.1 22.1431ZM38.675 16.8181C39.288 16.7252 39.8687 16.4827 40.3658 16.1121C40.8629 15.7414 41.261 15.2541 41.525 14.6931L42.5 12.6181L43.475 14.6931C43.7429 15.2537 44.1416 15.7416 44.6377 16.1158C45.1337 16.49 45.7124 16.7394 46.325 16.8431L48.825 17.1931L47 19.0431C46.577 19.4816 46.2618 20.0127 46.0796 20.5941C45.8973 21.1756 45.853 21.7915 45.95 22.3931L46.35 24.8931L44.375 23.8181C43.8246 23.5116 43.205 23.3507 42.575 23.3507C41.945 23.3507 41.3254 23.5116 40.775 23.8181L38.8 24.8931L39.2 22.3931C39.299 21.7953 39.2554 21.1827 39.073 20.6049C38.8905 20.0271 38.5743 19.5006 38.15 19.0681L36.325 17.1931L38.675 16.8181ZM52.5 35.9431C51.837 35.9431 51.2011 36.2065 50.7322 36.6753C50.2634 37.1441 50 37.78 50 38.4431V45.9431C50 46.6061 49.7366 47.242 49.2678 47.7108C48.7989 48.1797 48.163 48.4431 47.5 48.4431H12.5C11.837 48.4431 11.2011 48.1797 10.7322 47.7108C10.2634 47.242 10 46.6061 10 45.9431V21.9681L24.7 36.6681C25.3849 37.3654 26.2019 37.9192 27.1034 38.2969C28.0048 38.6747 28.9726 38.8689 29.95 38.8681H30.625C31.2844 38.8108 31.8941 38.4945 32.3206 37.9883C32.7471 37.4822 32.9554 36.8276 32.9 36.1681C32.8717 35.8393 32.7787 35.5193 32.6262 35.2267C32.4736 34.934 32.2647 34.6745 32.0114 34.463C31.758 34.2515 31.4653 34.0922 31.1502 33.9944C30.835 33.8966 30.5036 33.8622 30.175 33.8931C29.8221 33.9293 29.4656 33.8851 29.1322 33.7638C28.7988 33.6426 28.4972 33.4475 28.25 33.1931L13.525 18.4431H22.5C23.163 18.4431 23.7989 18.1797 24.2678 17.7108C24.7366 17.242 25 16.6061 25 15.9431C25 15.28 24.7366 14.6441 24.2678 14.1753C23.7989 13.7065 23.163 13.4431 22.5 13.4431H12.5C10.5109 13.4431 8.60322 14.2332 7.1967 15.6398C5.79018 17.0463 5 18.9539 5 20.9431V45.9431C5 47.9322 5.79018 49.8399 7.1967 51.2464C8.60322 52.6529 10.5109 53.4431 12.5 53.4431H47.5C49.4891 53.4431 51.3968 52.6529 52.8033 51.2464C54.2098 49.8399 55 47.9322 55 45.9431V38.4431C55 37.78 54.7366 37.1441 54.2678 36.6753C53.7989 36.2065 53.163 35.9431 52.5 35.9431Z" fill="#6E9CF9"/>
</svg>
