<svg width="60" height="61" viewBox="0 0 60 61" fill="none" xmlns="http://www.w3.org/2000/svg">
<path d="M35 28.8744H41.05C41.379 28.8763 41.7052 28.8132 42.0098 28.6888C42.3144 28.5644 42.5914 28.3811 42.825 28.1494L54.275 16.6994C54.5093 16.467 54.6953 16.1905 54.8222 15.8858C54.9492 15.5812 55.0145 15.2544 55.0145 14.9244C55.0145 14.5944 54.9492 14.2676 54.8222 13.963C54.6953 13.6583 54.5093 13.3818 54.275 13.1494L48.225 7.09936C47.9926 6.86503 47.7161 6.67905 47.4114 6.55213C47.1068 6.42521 46.78 6.35986 46.45 6.35986C46.12 6.35986 45.7932 6.42521 45.4886 6.55213C45.1839 6.67905 44.9074 6.86503 44.675 7.09936L33.225 18.5494C32.7682 19.0285 32.5092 19.6625 32.5 20.3244V26.3744C32.5 27.0374 32.7634 27.6733 33.2322 28.1422C33.7011 28.611 34.337 28.8744 35 28.8744ZM37.5 21.3744L46.45 12.4244L48.95 14.9244L40 23.8744H37.5V21.3744ZM52.5 26.3744C51.837 26.3744 51.2011 26.6378 50.7322 27.1066C50.2634 27.5755 50 28.2114 50 28.8744V46.3744C50 47.0374 49.7366 47.6733 49.2678 48.1422C48.7989 48.611 48.163 48.8744 47.5 48.8744H12.5C11.837 48.8744 11.2011 48.611 10.7322 48.1422C10.2634 47.6733 10 47.0374 10 46.3744V22.3494L24.7 37.0744C25.3977 37.7811 26.2287 38.3423 27.145 38.7253C28.0612 39.1083 29.0444 39.3055 30.0375 39.3055C31.0306 39.3055 32.0138 39.1083 32.93 38.7253C33.8463 38.3423 34.6773 37.7811 35.375 37.0744C35.8331 36.6071 36.0896 35.9788 36.0896 35.3244C36.0896 34.67 35.8331 34.0417 35.375 33.5744C35.1422 33.3363 34.8641 33.1471 34.5572 33.0179C34.2502 32.8887 33.9205 32.8222 33.5875 32.8222C33.2545 32.8222 32.9248 32.8887 32.6178 33.0179C32.3109 33.1471 32.0328 33.3363 31.8 33.5744C31.3327 34.0325 30.7044 34.289 30.05 34.289C29.3956 34.289 28.7673 34.0325 28.3 33.5744L13.525 18.8244H25C25.663 18.8244 26.2989 18.561 26.7678 18.0922C27.2366 17.6233 27.5 16.9874 27.5 16.3244C27.5 15.6614 27.2366 15.0255 26.7678 14.5566C26.2989 14.0878 25.663 13.8244 25 13.8244H12.5C10.5109 13.8244 8.60322 14.6146 7.1967 16.0211C5.79018 17.4276 5 19.3353 5 21.3244V46.3244C5 48.3135 5.79018 50.2212 7.1967 51.6277C8.60322 53.0342 10.5109 53.8244 12.5 53.8244H47.5C49.4891 53.8244 51.3968 53.0342 52.8033 51.6277C54.2098 50.2212 55 48.3135 55 46.3244V28.8244C55 28.1614 54.7366 27.5255 54.2678 27.0566C53.7989 26.5878 53.163 26.3244 52.5 26.3244V26.3744Z" fill="#6E9CF9"/>
</svg>
