<svg width="60" height="61" viewBox="0 0 60 61" fill="none" xmlns="http://www.w3.org/2000/svg">
<path d="M20.6695 21.4667L20.6639 21.4713L20.6585 21.4765L20.6695 21.4667ZM45.5548 21.0004C45.3808 20.8328 45.1879 20.6861 44.9798 20.5634C44.6852 20.39 44.3583 20.279 44.0191 20.237C43.6799 20.195 43.3358 20.2231 43.0079 20.3194C42.6799 20.4158 42.3753 20.5783 42.1127 20.7971C41.8501 21.0158 41.6352 21.2861 41.4813 21.5912C40.6201 23.288 39.4324 24.798 37.9863 26.0346C38.2074 24.7886 38.3189 23.5256 38.3195 22.2602C38.3242 18.4104 37.3086 14.6282 35.3761 11.2986C33.4437 7.96894 30.6635 5.21086 27.3185 3.30515C26.95 3.09626 26.5345 2.98442 26.111 2.98011C25.6874 2.9758 25.2697 3.07916 24.8971 3.2805C24.5244 3.48184 24.209 3.77455 23.9805 4.13117C23.752 4.48779 23.6178 4.89663 23.5905 5.31932C23.4506 7.68976 22.8309 10.0071 21.769 12.131C20.707 14.2549 19.225 16.1411 17.4126 17.6752L16.8364 18.144C14.9412 19.4192 13.2636 20.9912 11.8682 22.7997C9.69894 25.5325 8.19627 28.7331 7.47929 32.1477C6.76232 35.5623 6.85078 39.097 7.73764 42.4714C8.6245 45.8459 10.2854 48.9673 12.5886 51.5881C14.8918 54.209 17.7739 56.2572 21.0064 57.5703C21.386 57.7254 21.7979 57.7847 22.2057 57.7429C22.6136 57.7012 23.005 57.5598 23.3453 57.3311C23.6855 57.1024 23.9643 56.7934 24.157 56.4315C24.3497 56.0696 24.4503 55.6658 24.4501 55.2558C24.4483 54.9906 24.4063 54.7272 24.3256 54.4746C23.7663 52.3721 23.6052 50.1836 23.8507 48.0219C26.2163 52.4837 30.0135 56.0204 34.632 58.0634C35.1957 58.3156 35.833 58.3495 36.4203 58.1586C40.0692 56.9809 43.3564 54.8897 45.9694 52.0838C48.5825 49.2778 50.4347 45.8503 51.35 42.1269C52.2653 38.4035 52.2133 34.5079 51.199 30.8102C50.1847 27.1126 48.2418 23.7357 45.5548 21.0004ZM35.7928 53.0781C33.6136 51.9736 31.6912 50.4229 30.1507 48.5267C28.6102 46.6306 27.4859 44.4314 26.8512 42.0722C26.6573 41.2779 26.5073 40.4734 26.4019 39.6625C26.3305 39.1462 26.0995 38.665 25.7412 38.2864C25.383 37.9077 24.9153 37.6505 24.4037 37.5507C24.246 37.5196 24.0857 37.5041 23.9251 37.5043C23.4857 37.5042 23.054 37.6199 22.6736 37.8398C22.2932 38.0597 21.9775 38.376 21.7583 38.7568C19.684 42.3346 18.6408 46.4169 18.7444 50.5513C16.92 49.1328 15.3953 47.3663 14.2586 45.3542C13.1219 43.3422 12.3959 41.1245 12.1226 38.8298C11.8493 36.535 12.0341 34.2089 12.6665 31.9861C13.2988 29.7633 14.366 27.6882 15.8062 25.8809C16.8997 24.4605 18.2189 23.2291 19.7112 22.2359C19.7758 22.1942 19.8378 22.1485 19.8967 22.0991C19.8967 22.0991 20.6386 21.4853 20.6639 21.4713C24.2256 18.4587 26.7588 14.4102 27.9107 9.88965C30.6346 12.4077 32.4509 15.7547 33.0775 19.4109C33.7042 23.0671 33.1061 26.8279 31.3762 30.1094C31.1477 30.5473 31.0539 31.043 31.1068 31.5341C31.1597 32.0252 31.3568 32.4897 31.6733 32.8689C31.9898 33.2481 32.4115 33.525 32.8853 33.6648C33.359 33.8046 33.8635 33.801 34.3352 33.6544C38.1647 32.454 41.5345 30.1092 43.991 26.9356C45.4674 29.1164 46.4326 31.6022 46.8147 34.2078C47.1969 36.8134 46.9861 39.4717 46.1981 41.9845C45.41 44.4973 44.0651 46.7999 42.2635 48.7207C40.4619 50.6415 38.2501 52.131 35.7928 53.0781Z" fill="#6E9CF9"/>
</svg>
