<svg width="60" height="61" viewBox="0 0 60 61" fill="none" xmlns="http://www.w3.org/2000/svg">
<path d="M29.5 30.98C28.0166 30.98 26.5666 31.4199 25.3332 32.244C24.0999 33.0681 23.1386 34.2394 22.5709 35.6099C22.0032 36.9803 21.8547 38.4883 22.1441 39.9432C22.4335 41.398 23.1478 42.7344 24.1967 43.7833C25.2456 44.8322 26.582 45.5465 28.0368 45.8359C29.4917 46.1253 30.9997 45.9768 32.3701 45.4091C33.7406 44.8414 34.9119 43.8801 35.736 42.6468C36.5601 41.4134 37 39.9634 37 38.48C37 36.4909 36.2098 34.5832 34.8033 33.1767C33.3968 31.7702 31.4891 30.98 29.5 30.98ZM29.5 40.98C29.0055 40.98 28.5222 40.8334 28.1111 40.5587C27.7 40.284 27.3795 39.8935 27.1903 39.4367C27.0011 38.9799 26.9516 38.4772 27.048 37.9923C27.1445 37.5073 27.3826 37.0619 27.7322 36.7122C28.0819 36.3626 28.5273 36.1245 29.0123 36.028C29.4972 35.9316 29.9999 35.9811 30.4567 36.1703C30.9135 36.3595 31.304 36.68 31.5787 37.0911C31.8534 37.5022 32 37.9855 32 38.48C32 39.143 31.7366 39.7789 31.2678 40.2478C30.7989 40.7166 30.163 40.98 29.5 40.98ZM27.725 25.255C27.9628 25.4826 28.2431 25.661 28.55 25.78C28.8493 25.9123 29.1728 25.9806 29.5 25.9806C29.8272 25.9806 30.1507 25.9123 30.45 25.78C30.7569 25.661 31.0372 25.4826 31.275 25.255L37 19.63C37.484 19.146 37.7559 18.4895 37.7559 17.805C37.7559 17.1205 37.484 16.464 37 15.98C36.516 15.496 35.8595 15.2241 35.175 15.2241C34.4905 15.2241 33.834 15.496 33.35 15.98L32 17.455V8.47998C32 7.81694 31.7366 7.18105 31.2678 6.71221C30.7989 6.24337 30.163 5.97998 29.5 5.97998C28.837 5.97998 28.2011 6.24337 27.7322 6.71221C27.2634 7.18105 27 7.81694 27 8.47998V17.455L25.65 15.98C25.166 15.496 24.5095 15.2241 23.825 15.2241C23.1405 15.2241 22.484 15.496 22 15.98C21.516 16.464 21.2441 17.1205 21.2441 17.805C21.2441 18.4895 21.516 19.146 22 19.63L27.725 25.255ZM47 38.48C47 37.9855 46.8534 37.5022 46.5787 37.0911C46.304 36.68 45.9135 36.3595 45.4567 36.1703C44.9999 35.9811 44.4972 35.9316 44.0123 36.028C43.5273 36.1245 43.0819 36.3626 42.7322 36.7122C42.3826 37.0619 42.1445 37.5073 42.048 37.9923C41.9516 38.4772 42.0011 38.9799 42.1903 39.4367C42.3795 39.8935 42.7 40.284 43.1111 40.5587C43.5222 40.8334 44.0055 40.98 44.5 40.98C45.163 40.98 45.7989 40.7166 46.2678 40.2478C46.7366 39.7789 47 39.143 47 38.48ZM49.5 20.98H42C41.337 20.98 40.7011 21.2434 40.2322 21.7122C39.7634 22.1811 39.5 22.817 39.5 23.48C39.5 24.143 39.7634 24.7789 40.2322 25.2478C40.7011 25.7166 41.337 25.98 42 25.98H49.5C50.163 25.98 50.7989 26.2434 51.2678 26.7122C51.7366 27.1811 52 27.817 52 28.48V48.48C52 49.143 51.7366 49.7789 51.2678 50.2478C50.7989 50.7166 50.163 50.98 49.5 50.98H9.5C8.83696 50.98 8.20107 50.7166 7.73223 50.2478C7.26339 49.7789 7 49.143 7 48.48V28.48C7 27.817 7.26339 27.1811 7.73223 26.7122C8.20107 26.2434 8.83696 25.98 9.5 25.98H17C17.663 25.98 18.2989 25.7166 18.7678 25.2478C19.2366 24.7789 19.5 24.143 19.5 23.48C19.5 22.817 19.2366 22.1811 18.7678 21.7122C18.2989 21.2434 17.663 20.98 17 20.98H9.5C7.51088 20.98 5.60322 21.7702 4.1967 23.1767C2.79018 24.5832 2 26.4909 2 28.48V48.48C2 50.4691 2.79018 52.3768 4.1967 53.7833C5.60322 55.1898 7.51088 55.98 9.5 55.98H49.5C51.4891 55.98 53.3968 55.1898 54.8033 53.7833C56.2098 52.3768 57 50.4691 57 48.48V28.48C57 26.4909 56.2098 24.5832 54.8033 23.1767C53.3968 21.7702 51.4891 20.98 49.5 20.98ZM12 38.48C12 38.9745 12.1466 39.4578 12.4213 39.8689C12.696 40.28 13.0865 40.6005 13.5433 40.7897C14.0001 40.9789 14.5028 41.0284 14.9877 40.932C15.4727 40.8355 15.9181 40.5974 16.2678 40.2478C16.6174 39.8981 16.8555 39.4527 16.952 38.9677C17.0484 38.4828 16.9989 37.9801 16.8097 37.5233C16.6205 37.0665 16.3 36.676 15.8889 36.4013C15.4778 36.1266 14.9945 35.98 14.5 35.98C13.837 35.98 13.2011 36.2434 12.7322 36.7122C12.2634 37.1811 12 37.817 12 38.48Z" fill="#6E9CF9"/>
</svg>
