<svg width="60" height="60" viewBox="0 0 60 60" fill="none" xmlns="http://www.w3.org/2000/svg">
<path d="M49.9503 25.475C48.1521 25.1496 46.3277 24.9906 44.5003 25C43.4503 25 42.4253 25 41.4003 25.2C40.1243 23.4972 38.4955 22.0901 36.6253 21.075C38.2317 19.3206 39.1235 17.0287 39.1253 14.65C39.1253 12.0907 38.1086 9.63615 36.2989 7.82642C34.4892 6.01669 32.0347 5 29.4753 5C26.916 5 24.4615 6.01669 22.6518 7.82642C20.842 9.63615 19.8253 12.0907 19.8253 14.65C19.8272 17.0287 20.719 19.3206 22.3253 21.075C20.4663 22.0954 18.8401 23.4917 17.5503 25.175C16.5753 25 15.5503 25 14.5003 25C12.6714 25.0071 10.847 25.1828 9.05033 25.525C8.46794 25.6315 7.94224 25.9412 7.56683 26.399C7.19142 26.8568 6.99068 27.433 7.00033 28.025V48.65C6.99974 49.0173 7.08007 49.3802 7.23562 49.7129C7.39118 50.0456 7.61813 50.3399 7.90033 50.575C8.18076 50.8115 8.50979 50.9833 8.86407 51.0784C9.21835 51.1734 9.58921 51.1893 9.95033 51.125C11.4464 50.7992 12.9698 50.615 14.5003 50.575C19.3431 50.5697 24.0807 51.9867 28.1253 54.65L28.4503 54.775C28.7819 54.9189 29.1389 54.9954 29.5003 55C29.7389 54.997 29.9754 54.9548 30.2003 54.875H30.3753L30.7003 54.75C34.7834 52.0183 39.5877 50.5648 44.5003 50.575C46.0277 50.5821 47.5511 50.7328 49.0503 51.025C49.4115 51.0893 49.7823 51.0734 50.1366 50.9784C50.4909 50.8833 50.8199 50.7115 51.1003 50.475C51.3825 50.2399 51.6095 49.9456 51.765 49.6129C51.9206 49.2802 52.0009 48.9173 52.0003 48.55V27.925C51.9982 27.3416 51.7921 26.7773 51.4177 26.3299C51.0433 25.8824 50.5242 25.58 49.9503 25.475ZM29.5003 10C30.6715 10.086 31.7667 10.612 32.566 11.4722C33.3653 12.3324 33.8096 13.4632 33.8096 14.6375C33.8096 15.8118 33.3653 16.9426 32.566 17.8028C31.7667 18.663 30.6715 19.189 29.5003 19.275C28.3292 19.189 27.234 18.663 26.4347 17.8028C25.6353 16.9426 25.1911 15.8118 25.1911 14.6375C25.1911 13.4632 25.6353 12.3324 26.4347 11.4722C27.234 10.612 28.3292 10.086 29.5003 10ZM27.0003 48.325C23.082 46.5138 18.817 45.5755 14.5003 45.575C13.6753 45.575 12.8503 45.575 12.0003 45.7V30C14.0967 29.7655 16.2149 29.8075 18.3003 30.125H18.5753C21.5543 30.6725 24.409 31.7568 27.0003 33.325V48.325ZM29.5003 29C28.3886 28.3587 27.2362 27.7908 26.0503 27.3H25.9003C25.0753 26.975 24.2503 26.65 23.4003 26.4C25.1361 25.0184 27.282 24.2533 29.5003 24.225C31.7128 24.239 33.8581 24.9864 35.6003 26.35C33.4781 27.0126 31.433 27.901 29.5003 29ZM47.0003 45.7C41.867 45.1842 36.6889 46.0472 32.0003 48.2V33.2C34.5963 31.672 37.4528 30.6379 40.4253 30.15H40.9253C42.9353 29.837 44.9774 29.7866 47.0003 30V45.7Z" fill="#6E9CF9"/>
</svg>
