<svg width="28" height="29" viewBox="0 0 28 29" fill="none" xmlns="http://www.w3.org/2000/svg">
<path d="M7.67529 28.0773C7.42063 28.0773 7.18681 27.9894 7.01703 27.8137C6.82565 27.638 6.71918 27.3967 6.71918 27.1108C6.71918 26.8464 6.80481 26.6044 6.97459 26.4071L10.5414 22.5395C10.7335 22.3413 10.9666 22.2319 11.2428 22.2319C11.4976 22.2319 11.7313 22.3198 11.9011 22.4955C12.0925 22.6712 12.199 22.9348 12.199 23.1984C12.199 23.462 12.1134 23.7048 11.9435 23.9021L8.376 27.7698C8.18462 27.9679 7.95155 28.0773 7.67529 28.0773Z" fill="url(#paint0_linear_1_6228)"/>
<path d="M1.76836 22.2782C1.51369 22.2782 1.27987 22.1687 1.08851 21.993C0.897878 21.8173 0.812988 21.5537 0.812988 21.2893C0.812988 21.0258 0.918727 20.7837 1.08851 20.5864L4.44384 17.0919C4.61363 16.8945 4.86829 16.8066 5.1237 16.8066C5.37837 16.8066 5.61144 16.9161 5.80281 17.0919C5.99418 17.2676 6.07833 17.5312 6.07833 17.7955C6.07833 18.0591 5.9726 18.3004 5.80281 18.4984L2.44747 21.9938C2.2777 22.1695 2.02302 22.2782 1.76836 22.2782Z" fill="url(#paint1_linear_1_6228)"/>
<path d="M2.10371 28.0224C1.84755 28.0224 1.61299 27.9121 1.42088 27.7356C1.22876 27.5592 1.14313 27.2948 1.14313 27.0305C1.14313 26.7661 1.22876 26.5241 1.42088 26.3253L8.16582 19.2512C8.35794 19.0532 8.5925 18.9653 8.84865 18.9653C9.10481 18.9653 9.34012 19.0755 9.53149 19.2512C9.91569 19.6257 9.91569 20.2647 9.55308 20.6616L2.80813 27.7356C2.6202 27.9202 2.36709 28.0232 2.10371 28.0224Z" fill="url(#paint2_linear_1_6228)"/>
<path d="M6.17986 13.5882C8.35644 11.6268 15.0798 6.09563 22.4219 5.32418C22.4709 5.31952 22.5202 5.32631 22.5662 5.34401C22.612 5.36169 22.6531 5.38982 22.6863 5.42614C22.7195 5.46247 22.7437 5.50601 22.7571 5.55332C22.7706 5.60063 22.7728 5.65041 22.7637 5.69874C22.5075 7.54991 21.0771 15.0424 14.7387 21.7197C14.6698 21.7924 14.5834 21.8462 14.488 21.8764C14.3924 21.9066 14.2908 21.912 14.1926 21.8921C14.0944 21.8722 14.0029 21.8277 13.9266 21.7627C13.8504 21.6978 13.7918 21.6146 13.7566 21.5208L12.3045 18.0836L10.4913 18.5676C10.4079 18.588 10.3204 18.5859 10.238 18.5613C10.1557 18.5367 10.0814 18.4908 10.0227 18.428C9.96403 18.3652 9.92319 18.2879 9.90417 18.2041C9.88524 18.1203 9.88901 18.0329 9.91498 17.951L10.4057 16.21L6.35038 14.624C5.94455 14.4691 5.83882 13.8965 6.17986 13.5882Z" fill="url(#paint3_linear_1_6228)"/>
<path d="M26.4568 20.089L19.2003 20.2216C18.9442 20.2216 18.7089 20.3533 18.5599 20.5961C17.8339 21.8076 15.4011 25.7743 13.5008 27.5153C13.0533 27.9345 12.3697 27.8243 12.0495 27.2949C11.9979 27.2079 11.9482 27.1198 11.9006 27.0306C11.4524 25.9954 11.1113 25.3774 10.5134 24.3201C10.001 23.4168 8.97641 22.1383 8.37847 21.3675C7.6532 20.4636 6.11626 19.0532 5.3262 18.4806C3.85405 17.3785 2.48764 16.7396 1.50621 16.3874C0.801775 16.1224 0.609658 15.1752 1.16442 14.6465C2.76539 13.0812 5.49747 10.5033 7.20492 9.62163C7.46108 9.48982 7.61001 9.20314 7.61001 8.91645L7.48193 1.84238C7.48193 1.26975 8.03743 0.872863 8.54973 1.11561C10.086 1.79845 12.9676 3.25273 14.6111 5.14858C14.8032 5.369 15.1026 5.45686 15.3796 5.369C16.6172 4.99369 20.1393 3.98024 23.5542 3.78217C24.0233 3.75983 24.4076 4.15672 24.3436 4.64148C24.173 6.31692 23.7254 9.92991 22.9563 12.3105C22.8713 12.5526 22.9138 12.8169 23.0843 13.0372C23.8313 14.0068 26.0301 16.96 27.0756 18.943C27.375 19.4501 27.0332 20.0898 26.4576 20.0898L26.4568 20.089Z" fill="url(#paint4_linear_1_6228)"/>
<path d="M11.4302 18.3266L10.4905 18.5686C10.4069 18.5891 10.3194 18.587 10.237 18.5624C10.1546 18.5378 10.0801 18.4917 10.0215 18.4288C9.96276 18.366 9.92182 18.2885 9.90299 18.2046C9.88407 18.1207 9.88803 18.0333 9.9141 17.9513L10.4055 16.2111L6.35029 14.6243C5.92286 14.4478 5.81637 13.8752 6.15817 13.5669C8.334 11.6048 15.0581 6.07358 22.4003 5.30214C22.4491 5.2976 22.4985 5.30448 22.5441 5.32222C22.59 5.33998 22.631 5.36812 22.664 5.40443C22.6972 5.44074 22.7213 5.48423 22.7347 5.53148C22.7481 5.57872 22.7504 5.62843 22.7413 5.67669C22.4851 7.52786 21.0554 15.0197 14.7163 21.6968C14.6475 21.7695 14.5611 21.8235 14.4656 21.8537C14.3702 21.8839 14.2686 21.8894 14.1704 21.8697C14.0723 21.8498 13.9807 21.8054 13.9044 21.7405C13.8281 21.6757 13.7695 21.5925 13.7341 21.4988L12.2828 18.0608L11.4295 18.3259L11.4302 18.3266Z" fill="#FFFFFC"/>
<path d="M17.0223 13.1252C18.225 13.1252 19.1997 12.1193 19.1997 10.8779C19.1997 9.63588 18.225 8.62988 17.0223 8.62988C15.8206 8.62988 14.8458 9.63588 14.8458 10.8779C14.8458 12.1193 15.8206 13.1252 17.0223 13.1252Z" fill="url(#paint5_linear_1_6228)"/>
<defs>
<linearGradient id="paint0_linear_1_6228" x1="6.25154" y1="28.8435" x2="10.7655" y2="24.3169" gradientUnits="userSpaceOnUse">
<stop offset="0.188" stop-color="#25E2EA"/>
<stop offset="1" stop-color="#19A6D1"/>
</linearGradient>
<linearGradient id="paint1_linear_1_6228" x1="0.0683489" y1="23.2709" x2="5.58463" y2="17.7143" gradientUnits="userSpaceOnUse">
<stop offset="0.396" stop-color="#E55EC4"/>
<stop offset="1" stop-color="#8225D0"/>
</linearGradient>
<linearGradient id="paint2_linear_1_6228" x1="6.94312" y1="22.2626" x2="2.94366" y2="25.3067" gradientUnits="userSpaceOnUse">
<stop stop-color="#A443FD"/>
<stop offset="1" stop-color="#A959F3"/>
</linearGradient>
<linearGradient id="paint3_linear_1_6228" x1="5.46649" y1="23.9476" x2="46.6346" y2="-24.1173" gradientUnits="userSpaceOnUse">
<stop offset="0.102" stop-color="white" stop-opacity="0.7"/>
<stop offset="0.481" stop-color="white" stop-opacity="0"/>
</linearGradient>
<linearGradient id="paint4_linear_1_6228" x1="26.4129" y1="2.65702" x2="6.73282" y2="18.7643" gradientUnits="userSpaceOnUse">
<stop offset="0.174" stop-color="#52BFCA"/>
<stop offset="0.916" stop-color="#7238DF"/>
</linearGradient>
<linearGradient id="paint5_linear_1_6228" x1="24.2334" y1="2.07259" x2="8.29667" y2="20.2745" gradientUnits="userSpaceOnUse">
<stop stop-color="#52BFCA"/>
<stop offset="1" stop-color="#7238DF"/>
</linearGradient>
</defs>
</svg>
