<svg width="60" height="60" viewBox="0 0 60 60" fill="none" xmlns="http://www.w3.org/2000/svg">
<path d="M55 27.35C54.974 27.1203 54.9237 26.8941 54.85 26.675V26.45C54.7298 26.1929 54.5695 25.9567 54.375 25.75L39.375 10.75C39.1683 10.5555 38.9321 10.3952 38.675 10.275H38.425C38.1819 10.145 37.9207 10.0523 37.65 10H12.5C10.5109 10 8.60322 10.7902 7.1967 12.1967C5.79018 13.6032 5 15.5109 5 17.5V42.5C5 44.4891 5.79018 46.3968 7.1967 47.8033C8.60322 49.2098 10.5109 50 12.5 50H47.5C49.4891 50 51.3968 49.2098 52.8033 47.8033C54.2098 46.3968 55 44.4891 55 42.5V27.5C55 27.5 55 27.5 55 27.35ZM40 18.525L46.475 25H42.5C41.837 25 41.2011 24.7366 40.7322 24.2678C40.2634 23.7989 40 23.163 40 22.5V18.525ZM50 42.5C50 43.163 49.7366 43.7989 49.2678 44.2678C48.7989 44.7366 48.163 45 47.5 45H12.5C11.837 45 11.2011 44.7366 10.7322 44.2678C10.2634 43.7989 10 43.163 10 42.5V17.5C10 16.837 10.2634 16.2011 10.7322 15.7322C11.2011 15.2634 11.837 15 12.5 15H35V22.5C35 24.4891 35.7902 26.3968 37.1967 27.8033C38.6032 29.2098 40.5109 30 42.5 30H50V42.5ZM17.5 30H27.5C28.163 30 28.7989 29.7366 29.2678 29.2678C29.7366 28.7989 30 28.163 30 27.5C30 26.837 29.7366 26.2011 29.2678 25.7322C28.7989 25.2634 28.163 25 27.5 25H17.5C16.837 25 16.2011 25.2634 15.7322 25.7322C15.2634 26.2011 15 26.837 15 27.5C15 28.163 15.2634 28.7989 15.7322 29.2678C16.2011 29.7366 16.837 30 17.5 30ZM17.5 35C16.837 35 16.2011 35.2634 15.7322 35.7322C15.2634 36.2011 15 36.837 15 37.5C15 38.163 15.2634 38.7989 15.7322 39.2678C16.2011 39.7366 16.837 40 17.5 40H42.5C43.163 40 43.7989 39.7366 44.2678 39.2678C44.7366 38.7989 45 38.163 45 37.5C45 36.837 44.7366 36.2011 44.2678 35.7322C43.7989 35.2634 43.163 35 42.5 35H17.5Z" fill="#6E9CF9"/>
</svg>
