<svg width="23" height="22" viewBox="0 0 23 22" fill="none" xmlns="http://www.w3.org/2000/svg">
<mask id="path-1-inside-1_1_5478" fill="white">
<path d="M-74 -27.2402H204.8V48.7598H-74V-27.2402Z"/>
</mask>
<path d="M204.8 47.7598H-74V49.7598H204.8V47.7598Z" fill="#C4D3F8" mask="url(#path-1-inside-1_1_5478)"/>
<path d="M10.6534 0.953338C10.9685 0.268808 11.9396 0.26881 12.2547 0.953339L14.8348 6.55771C14.9633 6.8367 15.2272 7.0288 15.5317 7.06497L21.6489 7.79165C22.3961 7.8804 22.6961 8.80567 22.1437 9.31749L17.6212 13.5079C17.396 13.7164 17.2951 14.0273 17.355 14.3286L18.5555 20.3821C18.7021 21.1215 17.9166 21.6934 17.26 21.3251L11.8847 18.3105C11.6172 18.1605 11.291 18.1605 11.0234 18.3105L5.64813 21.3251C4.99158 21.6934 4.206 21.1215 4.35264 20.3821L5.55316 14.3286C5.61293 14.0273 5.51213 13.7164 5.287 13.5079L0.764374 9.31749C0.211972 8.80567 0.51204 7.8804 1.25921 7.79165L7.37644 7.06497C7.68096 7.0288 7.94484 6.8367 8.07328 6.55771L10.6534 0.953338ZM37.8413 0.953338C38.1565 0.268808 39.1275 0.26881 39.4426 0.953339L42.0228 6.55771C42.1512 6.8367 42.4152 7.0288 42.7196 7.06497L48.8369 7.79165C49.584 7.8804 49.8841 8.80567 49.3317 9.31749L44.8091 13.5079C44.5839 13.7164 44.4831 14.0273 44.5429 14.3286L45.7435 20.3821C45.8901 21.1215 45.1045 21.6934 44.4479 21.3251L39.0727 18.3105C38.8051 18.1605 38.4789 18.1605 38.2114 18.3105L32.836 21.3251C32.1795 21.6934 31.394 21.1215 31.5406 20.3821L32.7411 14.3286C32.8008 14.0273 32.7001 13.7164 32.4749 13.5079L27.9524 9.31749C27.3999 8.80567 27.6999 7.8804 28.4472 7.79165L34.5643 7.06497C34.8689 7.0288 35.1327 6.8367 35.2613 6.55771L37.8413 0.953338ZM65.0293 0.953338C65.3444 0.268808 66.3155 0.26881 66.6306 0.953339L69.2107 6.55771C69.3392 6.8367 69.603 7.0288 69.9076 7.06497L76.0248 7.79165C76.772 7.8804 77.072 8.80567 76.5196 9.31749L71.9971 13.5079C71.7719 13.7164 71.6711 14.0273 71.7309 14.3286L72.9313 20.3821C73.0779 21.1215 72.2925 21.6934 71.6359 21.3251L66.2606 18.3105C65.9931 18.1605 65.6669 18.1605 65.3992 18.3105L60.0241 21.3251C59.3675 21.6934 58.5819 21.1215 58.7285 20.3821L59.9291 14.3286C59.9888 14.0273 59.8881 13.7164 59.6629 13.5079L55.1402 9.31749C54.5878 8.80567 54.8879 7.8804 55.635 7.79165L61.7523 7.06497C62.0568 7.0288 62.3207 6.8367 62.4491 6.55771L65.0293 0.953338ZM92.216 0.953338C92.531 0.268808 93.5021 0.26881 93.8172 0.953339L96.3974 6.55771C96.5257 6.8367 96.7897 7.0288 97.0942 7.06497L103.211 7.79165C103.959 7.8804 104.259 8.80567 103.706 9.31749L99.1836 13.5079C98.9586 13.7164 98.8577 14.0273 98.9174 14.3286L100.118 20.3821C100.265 21.1215 99.479 21.6934 98.8226 21.3251L93.4473 18.3105C93.1796 18.1605 92.8534 18.1605 92.5859 18.3105L87.2106 21.3251C86.5542 21.6934 85.7686 21.1215 85.9152 20.3821L87.1156 14.3286C87.1755 14.0273 87.0746 13.7164 86.8496 13.5079L82.3269 9.31749C81.7745 8.80567 82.0746 7.8804 82.8217 7.79165L88.939 7.06497C89.2435 7.0288 89.5074 6.8367 89.6358 6.55771L92.216 0.953338ZM119.404 0.953338C119.719 0.268808 120.69 0.26881 121.005 0.953339L123.585 6.55771C123.714 6.8367 123.978 7.0288 124.282 7.06497L130.399 7.79165C131.147 7.8804 131.446 8.80567 130.894 9.31749L126.372 13.5079C126.146 13.7164 126.046 14.0273 126.105 14.3286L127.306 20.3821C127.453 21.1215 126.667 21.6934 126.01 21.3251L120.635 18.3105C120.368 18.1605 120.041 18.1605 119.774 18.3105L114.399 21.3251C113.742 21.6934 112.956 21.1215 113.103 20.3821L114.304 14.3286C114.363 14.0273 114.263 13.7164 114.037 13.5079L109.515 9.31749C108.962 8.80567 109.262 7.8804 110.01 7.79165L116.127 7.06497C116.431 7.0288 116.695 6.8367 116.824 6.55771L119.404 0.953338Z" fill="#F16029"/>
</svg>
