<svg width="7" height="7" viewBox="0 0 7 7" fill="none" xmlns="http://www.w3.org/2000/svg">
<path d="M3.54288 0.206744C3.63308 0.0111634 3.91108 0.0111638 4.00128 0.206744L4.73989 1.80799C4.77669 1.88771 4.85218 1.94259 4.93938 1.95292L6.69049 2.16055C6.90439 2.18591 6.99028 2.45027 6.83208 2.5965L5.53749 3.79375C5.47309 3.85335 5.44418 3.94216 5.46128 4.02825L5.80498 5.75782C5.84688 5.96907 5.62208 6.13246 5.43408 6.02726L3.89538 5.16595C3.81878 5.12307 3.72538 5.12307 3.64878 5.16595L2.11008 6.02726C1.92218 6.13246 1.69728 5.96907 1.73928 5.75782L2.08288 4.02825C2.09998 3.94216 2.07119 3.85335 2.00669 3.79375L0.712085 2.5965C0.553985 2.45027 0.639885 2.18591 0.853785 2.16055L2.60488 1.95292C2.69198 1.94259 2.76759 1.88771 2.80429 1.80799L3.54288 0.206744Z" fill="#D9E5F5"/>
<path d="M3.54288 0.206744C3.63308 0.0111634 3.91108 0.0111638 4.00128 0.206744L4.73989 1.80799C4.77669 1.88771 4.85218 1.94259 4.93938 1.95292V5.75032L3.89538 5.16595C3.81878 5.12307 3.72538 5.12307 3.64878 5.16595L2.11008 6.02726C1.92218 6.13246 1.69728 5.96907 1.73928 5.75782L2.08288 4.02825C2.09998 3.94215 2.07119 3.85335 2.00669 3.79375L0.712085 2.5965C0.553985 2.45027 0.639885 2.18591 0.853785 2.16055L2.60488 1.95292C2.69198 1.94259 2.76759 1.8877 2.80429 1.80799L3.54288 0.206744Z" fill="#FF8906"/>
</svg>
