<svg width="8" height="7" viewBox="0 0 8 7" fill="none" xmlns="http://www.w3.org/2000/svg">
<path d="M3.75997 0.206744C3.85017 0.0111634 4.12817 0.0111638 4.21837 0.206744L4.95697 1.80799C4.99367 1.88771 5.06927 1.94259 5.15647 1.95292L6.90757 2.16055C7.12147 2.18591 7.20727 2.45027 7.04917 2.5965L5.75457 3.79375C5.69007 3.85335 5.66127 3.94216 5.67837 4.02825L6.02197 5.75782C6.06397 5.96907 5.83907 6.13246 5.65117 6.02726L4.11247 5.16595C4.03587 5.12307 3.94247 5.12307 3.86587 5.16595L2.32717 6.02726C2.13927 6.13246 1.91437 5.96907 1.95627 5.75782L2.29997 4.02825C2.31707 3.94216 2.28827 3.85335 2.22377 3.79375L0.929168 2.5965C0.770968 2.45027 0.856868 2.18591 1.07077 2.16055L2.82187 1.95292C2.90907 1.94259 2.98457 1.88771 3.02137 1.80799L3.75997 0.206744Z" fill="#FF8906"/>
</svg>
