<svg width="60" height="61" viewBox="0 0 60 61" fill="none" xmlns="http://www.w3.org/2000/svg">
<path d="M36.45 29.05C37.5862 27.6299 38.2114 25.8687 38.225 24.05C38.225 21.8686 37.3584 19.7765 35.816 18.234C34.2735 16.6916 32.1814 15.825 30 15.825C27.8186 15.825 25.7265 16.6916 24.184 18.234C22.6416 19.7765 21.775 21.8686 21.775 24.05C21.7886 25.8687 22.4138 27.6299 23.55 29.05C21.3216 30.4061 19.5732 32.4254 18.55 34.8251C18.4068 35.1296 18.3265 35.4597 18.3139 35.7959C18.3014 36.1321 18.3568 36.4674 18.477 36.7817C18.5971 37.0961 18.7794 37.3829 19.013 37.625C19.2466 37.8671 19.5267 38.0596 19.8365 38.1909C20.1462 38.3223 20.4793 38.3896 20.8158 38.3891C21.1523 38.3887 21.4851 38.3203 21.7945 38.1881C22.1039 38.056 22.3835 37.8627 22.6164 37.6199C22.8493 37.3771 23.0308 37.0896 23.15 36.775C23.7246 35.4319 24.6789 34.2859 25.8958 33.4776C27.1127 32.6693 28.5392 32.2339 30 32.225C31.4651 32.229 32.897 32.6621 34.1188 33.4706C35.3405 34.2792 36.2987 35.428 36.875 36.775C37.0664 37.2269 37.3865 37.6124 37.7955 37.8836C38.2045 38.1548 38.6843 38.2996 39.175 38.3C39.5095 38.2938 39.84 38.226 40.15 38.1C40.7597 37.841 41.2416 37.3507 41.4901 36.7366C41.7385 36.1226 41.7331 35.4352 41.475 34.8251C40.4452 32.422 38.6877 30.4021 36.45 29.05ZM30 27.225C29.3611 27.225 28.7366 27.0352 28.2057 26.6797C27.6748 26.3242 27.2615 25.8191 27.0182 25.2283C26.7748 24.6376 26.7124 23.9878 26.8389 23.3616C26.9654 22.7353 27.275 22.1607 27.7286 21.7107C28.1821 21.2607 28.7591 20.9556 29.3863 20.8339C30.0135 20.7123 30.6627 20.7798 31.2516 21.0277C31.8404 21.2757 32.3423 21.6929 32.6937 22.2265C33.045 22.7603 33.23 23.3861 33.225 24.025C33.2184 24.876 32.8757 25.6899 32.2716 26.2893C31.6675 26.8887 30.851 27.225 30 27.225ZM45 5.80005H15C13.0109 5.80005 11.1032 6.59023 9.6967 7.99675C8.29018 9.40327 7.5 11.3109 7.5 13.3V40.8C7.5 42.7892 8.29018 44.6968 9.6967 46.1033C11.1032 47.5098 13.0109 48.3 15 48.3H21.475L28.225 55.0751C28.4586 55.3068 28.7356 55.49 29.0402 55.6144C29.3448 55.7388 29.671 55.8019 30 55.8C30.5959 55.8 31.1721 55.5873 31.625 55.2001L39.675 48.3H45C46.9891 48.3 48.8968 47.5098 50.3033 46.1033C51.7098 44.6968 52.5 42.7892 52.5 40.8V13.3C52.5 11.3109 51.7098 9.40327 50.3033 7.99675C48.8968 6.59023 46.9891 5.80005 45 5.80005ZM47.5 40.8C47.5 41.463 47.2366 42.0989 46.7678 42.5678C46.2989 43.0366 45.663 43.3 45 43.3H38.75C38.1541 43.3 37.5779 43.5127 37.125 43.9L30.125 49.9L24.275 44.025C24.0414 43.7933 23.7644 43.6101 23.4598 43.4856C23.1552 43.3612 22.829 43.2981 22.5 43.3H15C14.337 43.3 13.7011 43.0366 13.2322 42.5678C12.7634 42.0989 12.5 41.463 12.5 40.8V13.3C12.5 12.637 12.7634 12.0011 13.2322 11.5322C13.7011 11.0634 14.337 10.8 15 10.8H45C45.663 10.8 46.2989 11.0634 46.7678 11.5322C47.2366 12.0011 47.5 12.637 47.5 13.3V40.8Z" fill="#6E9CF9"/>
</svg>
