<svg width="60" height="61" viewBox="0 0 60 61" fill="none" xmlns="http://www.w3.org/2000/svg">
<path d="M45.7501 21.3949L48.0251 19.1449C48.4958 18.6741 48.7603 18.0357 48.7603 17.3699C48.7603 16.7041 48.4958 16.0657 48.0251 15.5949C47.5543 15.1241 46.9158 14.8597 46.2501 14.8597C45.5843 14.8597 44.9458 15.1241 44.4751 15.5949L42.2251 17.8699C38.7214 15.1595 34.4172 13.689 29.9876 13.689C25.558 13.689 21.2537 15.1595 17.7501 17.8699L15.4751 15.5699C15.001 15.0991 14.3593 14.836 13.6912 14.8383C13.0231 14.8407 12.3833 15.1083 11.9126 15.5824C11.4418 16.0565 11.1787 16.6981 11.181 17.3662C11.1833 18.0343 11.451 18.6741 11.9251 19.1449L14.2251 21.4199C11.4826 24.9138 9.99457 29.2283 10.0001 33.6699C9.99193 36.8585 10.7462 40.0028 12.2001 42.8406C13.654 45.6784 15.7654 48.1274 18.358 49.9835C20.9507 51.8395 23.9496 53.0488 27.1046 53.5104C30.2596 53.972 33.4792 53.6726 36.4949 52.6371C39.5107 51.6017 42.2352 49.8601 44.4411 47.5578C46.6471 45.2555 48.2706 42.4591 49.1763 39.4018C50.0819 36.3446 50.2435 33.1151 49.6475 29.9828C49.0515 26.8504 47.7152 23.9059 45.7501 21.3949ZM30.0001 48.6699C27.0333 48.6699 24.1332 47.7902 21.6665 46.1419C19.1998 44.4937 17.2772 42.151 16.1419 39.4101C15.0066 36.6693 14.7095 33.6533 15.2883 30.7435C15.8671 27.8338 17.2957 25.1611 19.3935 23.0633C21.4913 20.9655 24.164 19.5369 27.0737 18.9581C29.9834 18.3793 32.9994 18.6764 35.7403 19.8117C38.4812 20.947 40.8239 22.8696 42.4721 25.3363C44.1203 27.8031 45.0001 30.7032 45.0001 33.6699C45.0001 37.6481 43.4197 41.4635 40.6067 44.2765C37.7936 47.0896 33.9783 48.6699 30.0001 48.6699ZM25.0001 11.1699H35.0001C35.6631 11.1699 36.299 10.9065 36.7678 10.4377C37.2367 9.96885 37.5001 9.33296 37.5001 8.66992C37.5001 8.00688 37.2367 7.37099 36.7678 6.90215C36.299 6.43331 35.6631 6.16992 35.0001 6.16992H25.0001C24.337 6.16992 23.7011 6.43331 23.2323 6.90215C22.7635 7.37099 22.5001 8.00688 22.5001 8.66992C22.5001 9.33296 22.7635 9.96885 23.2323 10.4377C23.7011 10.9065 24.337 11.1699 25.0001 11.1699ZM32.5001 26.1699C32.5001 25.5069 32.2367 24.871 31.7678 24.4021C31.299 23.9333 30.6631 23.6699 30.0001 23.6699C29.337 23.6699 28.7011 23.9333 28.2323 24.4021C27.7635 24.871 27.5001 25.5069 27.5001 26.1699V30.8949C26.934 31.4012 26.535 32.0675 26.3559 32.8055C26.1767 33.5436 26.2259 34.3186 26.4969 35.0281C26.7679 35.7375 27.2479 36.348 27.8735 36.7787C28.499 37.2094 29.2406 37.44 30.0001 37.44C30.7595 37.44 31.5011 37.2094 32.1266 36.7787C32.7522 36.348 33.2322 35.7375 33.5032 35.0281C33.7742 34.3186 33.8234 33.5436 33.6443 32.8055C33.4651 32.0675 33.0661 31.4012 32.5001 30.8949V26.1699Z" fill="#6E9CF9"/>
</svg>
