<svg width="23" height="39" viewBox="0 0 23 39" fill="none" xmlns="http://www.w3.org/2000/svg">
<path fill-rule="evenodd" clip-rule="evenodd" d="M2.22351 24.4756C4.26606 29.1067 7.22936 33.6041 11.0498 37.6992C14.8598 33.6144 17.7067 29.2513 19.7386 24.6508C16.5425 26.5384 12.849 27.281 9.26132 26.8788C6.68961 26.6519 4.22374 25.8783 2.22351 24.4756Z" fill="#EC2125"/>
<path fill-rule="evenodd" clip-rule="evenodd" d="M7.57751 33.5525C8.63582 34.9656 9.79997 36.3478 11.0488 37.6888C12.3081 36.3374 13.4617 34.9656 14.52 33.5525H7.57751Z" fill="#1E1E1E"/>
<path fill-rule="evenodd" clip-rule="evenodd" d="M14.7532 26.5895C12.9434 26.9814 11.0914 27.0744 9.26053 26.8681C8.56205 26.8061 7.88472 26.7133 7.2074 26.5688L8.61496 33.552H13.3562L14.7532 26.5895Z" fill="#F7941D"/>
<path fill-rule="evenodd" clip-rule="evenodd" d="M14.7535 26.5902L13.3565 33.5527H14.5207C16.6585 30.6955 18.3836 27.7249 19.7382 24.6406C18.1719 25.569 16.4786 26.2188 14.7535 26.5902Z" fill="#F17922"/>
<path fill-rule="evenodd" clip-rule="evenodd" d="M8.61567 33.5525L7.20811 26.5693C5.3878 26.1878 3.68391 25.4965 2.23401 24.4756C3.60983 27.5905 5.39839 30.6437 7.5891 33.5629H8.61567V33.5525Z" fill="#FCB040"/>
<path fill-rule="evenodd" clip-rule="evenodd" d="M11.0491 37.6888L13.3563 33.5525H8.61505L11.0491 37.6888Z" fill="white"/>
<path fill-rule="evenodd" clip-rule="evenodd" d="M11.0488 37.6888L8.60407 33.5525H7.57751C8.6464 34.9759 9.79997 36.3581 11.0488 37.6888Z" fill="#E1E1E1"/>
<path fill-rule="evenodd" clip-rule="evenodd" d="M13.3565 33.5525L11.0599 37.6888C12.3193 36.3374 13.4729 34.9656 14.5312 33.5525H13.3565Z" fill="#CDCDCD"/>
<path d="M1.63108 23.2373C-1.43805 15.6559 3.11272 10.3437 2.63648 6.78509C4.46263 8.11706 4.87786 9.19862 4.70021 11.6331C8.6689 7.50713 9.32097 5.09916 5.86436 1.42139C14.1721 2.55602 17.9263 7.69331 16.2358 14.9854C18.4054 13.9024 19.252 11.891 18.8816 9.46696C22.1624 12.3551 22.2153 18.3377 20.0987 23.392C13.9075 26.8991 6.44642 26.8991 1.63108 23.2373Z" fill="url(#paint0_linear_1_6259)"/>
<path d="M7.11957 25.6681C19.7675 24.2726 21.4774 15.2095 18.883 9.4668C21.9883 12.2679 22.3901 17.6225 20.0984 23.3935C15.2626 26.0627 10.8735 26.3854 7.11957 25.6681Z" fill="url(#paint1_linear_1_6259)"/>
<path d="M1.63171 23.2373C6.51651 19.9478 17.7025 9.39607 5.87408 1.42139C14.4834 2.63046 17.9213 8.04855 16.2361 14.9854C14.8542 20.6734 8.01007 23.5188 1.63171 23.2373Z" fill="url(#paint2_linear_1_6259)"/>
<defs>
<linearGradient id="paint0_linear_1_6259" x1="8.15525" y1="23.7778" x2="15.1223" y2="2.62367" gradientUnits="userSpaceOnUse">
<stop stop-color="#EC2125"/>
<stop offset="1" stop-color="#F7B42E"/>
</linearGradient>
<linearGradient id="paint1_linear_1_6259" x1="12.3467" y1="24.5012" x2="16.9453" y2="10.2122" gradientUnits="userSpaceOnUse">
<stop stop-color="#EC2125"/>
<stop offset="1" stop-color="#F7B42E"/>
</linearGradient>
<linearGradient id="paint2_linear_1_6259" x1="7.06866" y1="21.2797" x2="14.3625" y2="3.43199" gradientUnits="userSpaceOnUse">
<stop stop-color="#EC2125"/>
<stop offset="1" stop-color="#F7B42E"/>
</linearGradient>
</defs>
</svg>
