<svg width="68" height="69" viewBox="0 0 68 69" fill="none" xmlns="http://www.w3.org/2000/svg">
<path d="M41.1897 21.4003V15.42H19.9565V52.7797H47.1699V21.4003H41.1897Z" fill="#A7C7FC"/>
<path d="M49.6561 40.9536C50.1385 40.9536 50.5296 40.5625 50.5296 40.0801C50.5296 39.5976 50.1385 39.2065 49.6561 39.2065C49.1736 39.2065 48.7825 39.5976 48.7825 40.0801C48.7825 40.5625 49.1736 40.9536 49.6561 40.9536Z" fill="#4D80C9"/>
<path d="M48.8498 18.8468C49.3323 18.8468 49.7234 18.4557 49.7234 17.9732C49.7234 17.4908 49.3323 17.0997 48.8498 17.0997C48.3674 17.0997 47.9763 17.4908 47.9763 17.9732C47.9763 18.4557 48.3674 18.8468 48.8498 18.8468Z" fill="#4D80C9"/>
<path d="M26.8102 47.7401C27.2927 47.7401 27.6837 47.349 27.6837 46.8666C27.6837 46.3841 27.2927 45.993 26.8102 45.993C26.3278 45.993 25.9367 46.3841 25.9367 46.8666C25.9367 47.349 26.3278 47.7401 26.8102 47.7401Z" fill="#4D80C9"/>
<path d="M16.5968 37.5266C17.0793 37.5266 17.4704 37.1356 17.4704 36.6531C17.4704 36.1707 17.0793 35.7796 16.5968 35.7796C16.1144 35.7796 15.7233 36.1707 15.7233 36.6531C15.7233 37.1356 16.1144 37.5266 16.5968 37.5266Z" fill="#4D80C9"/>
<path d="M15.7233 24.7598C16.2057 24.7598 16.5968 24.3687 16.5968 23.8863C16.5968 23.4038 16.2057 23.0128 15.7233 23.0128C15.2409 23.0128 14.8498 23.4038 14.8498 23.8863C14.8498 24.3687 15.2409 24.7598 15.7233 24.7598Z" fill="#4D80C9"/>
<path d="M33.5968 44.3133C28.4229 44.3133 24.1897 40.0801 24.1897 34.9062C24.1897 29.7323 28.4229 25.4991 33.5968 25.4991C38.7707 25.4991 43.0039 29.7323 43.0039 34.9062C43.0039 40.0801 38.7707 44.3133 33.5968 44.3133ZM33.5968 27.3133C29.3636 27.3133 25.9367 30.7402 25.9367 34.9734C25.9367 39.2738 29.3636 42.6335 33.5968 42.6335C37.8972 42.6335 41.2569 39.2066 41.2569 34.9734C41.2569 30.673 37.7628 27.3133 33.5968 27.3133Z" fill="#4D80C9"/>
<path d="M47.1699 22.2066H41.1897C40.7193 22.2066 40.3162 21.8035 40.3162 21.3331V15.3529C40.3162 14.8825 40.7193 14.4794 41.1897 14.4794C41.66 14.4794 42.0632 14.8825 42.0632 15.3529V20.5268H47.1699C47.6403 20.5268 48.0434 20.93 48.0434 21.4003C47.9762 21.8035 47.6403 22.2066 47.1699 22.2066Z" fill="#4D80C9"/>
<path d="M47.1699 53.6533H19.9565C19.4861 53.6533 19.083 53.2501 19.083 52.7798V15.4201C19.083 14.9497 19.4861 14.5466 19.9565 14.5466H41.2569C41.4585 14.5466 41.66 14.6138 41.8616 14.8153L47.8419 20.7956C47.9762 20.93 48.1106 21.1987 48.1106 21.4003V52.847C47.9762 53.2501 47.6403 53.6533 47.1699 53.6533ZM20.83 51.9734H46.2964V21.7363L40.8537 16.2936H20.83V51.9734Z" fill="#4D80C9"/>
<path d="M42.8695 47.6731H29.2964C28.8261 47.6731 28.4229 47.2699 28.4229 46.7995C28.4229 46.3292 28.8261 45.926 29.2964 45.926H42.8695C43.3399 45.926 43.7431 46.3292 43.7431 46.7995C43.7431 47.2699 43.3399 47.6731 42.8695 47.6731Z" fill="#4D80C9"/>
<path d="M40.3834 50.2934H36.9565C36.4861 50.2934 36.083 49.8903 36.083 49.4199C36.083 48.9496 36.4861 48.5464 36.9565 48.5464H40.3834C40.8537 48.5464 41.2569 48.9496 41.2569 49.4199C41.1897 49.8231 40.8537 50.2934 40.3834 50.2934Z" fill="#4D80C9"/>
<path d="M34.4031 39.2066C34.0671 39.2066 33.7311 39.005 33.5968 38.669L31.8497 33.9655L30.1027 38.669C29.9683 39.0722 29.4307 39.341 29.0276 39.1394C28.6244 39.005 28.3556 38.4674 28.5572 38.0643L31.1106 31.2777C31.245 30.9418 31.5138 30.7402 31.9169 30.7402C32.2529 30.7402 32.5888 30.9418 32.7232 31.2777L35.2766 38.0643C35.411 38.4674 35.2094 39.005 34.8062 39.1394C34.6047 39.2066 34.5375 39.2066 34.4031 39.2066Z" fill="#4D80C9"/>
<path d="M33.7984 37.4596H29.9684C29.498 37.4596 29.0948 37.0564 29.0948 36.586C29.0948 36.1157 29.498 35.7125 29.9684 35.7125H33.7984C34.2688 35.7125 34.6719 36.1157 34.6719 36.586C34.6719 37.0564 34.2688 37.4596 33.7984 37.4596Z" fill="#4D80C9"/>
<path d="M36.9565 34.0997C36.4861 34.0997 36.083 33.6966 36.083 33.2262V30.74C36.083 30.2697 36.4861 29.8665 36.9565 29.8665C37.4268 29.8665 37.83 30.2697 37.83 30.74V33.2934C37.7628 33.6966 37.4268 34.0997 36.9565 34.0997Z" fill="#4D80C9"/>
<path d="M38.3004 32.8232H35.7471C35.2767 32.8232 34.8735 32.42 34.8735 31.9497C34.8735 31.4793 35.2767 31.0762 35.7471 31.0762H38.3004C38.7708 31.0762 39.1739 31.4793 39.1739 31.9497C39.1067 32.4872 38.7036 32.8232 38.3004 32.8232Z" fill="#4D80C9"/>
<path d="M28.4901 19.6533H23.3834C22.913 19.6533 22.5098 19.2502 22.5098 18.7798C22.5098 18.3095 22.913 17.9063 23.3834 17.9063H28.4901C28.9604 17.9063 29.3636 18.3095 29.3636 18.7798C29.2964 19.2502 28.9604 19.6533 28.4901 19.6533Z" fill="#4D80C9"/>
<path d="M28.4901 22.2065H23.3834C22.913 22.2065 22.5098 21.8033 22.5098 21.333C22.5098 20.8626 22.913 20.4595 23.3834 20.4595H28.4901C28.9604 20.4595 29.3636 20.8626 29.3636 21.333C29.2964 21.8033 28.9604 22.2065 28.4901 22.2065Z" fill="#4D80C9"/>
<path d="M28.4901 24.7598H23.3834C22.913 24.7598 22.5098 24.3566 22.5098 23.8863C22.5098 23.4159 22.913 23.0128 23.3834 23.0128H28.4901C28.9604 23.0128 29.3636 23.4159 29.3636 23.8863C29.2964 24.3566 28.9604 24.7598 28.4901 24.7598Z" fill="#4D80C9"/>
<path d="M16.1937 45.9931C15.0514 45.9931 14.1107 45.0524 14.1107 43.9101C14.1107 42.7678 15.0514 41.8271 16.1937 41.8271C17.336 41.8271 18.2767 42.7678 18.2767 43.9101C18.2767 45.0524 17.336 45.9931 16.1937 45.9931ZM16.1937 43.4397C15.9921 43.4397 15.7905 43.6413 15.7905 43.8429C15.7905 44.0445 15.9921 44.2461 16.1937 44.2461C16.3953 44.2461 16.5969 44.0445 16.5969 43.8429C16.5969 43.5741 16.3953 43.4397 16.1937 43.4397Z" fill="#4D80C9"/>
<path d="M51.4031 31.5465C49.9921 31.5465 48.8498 30.4042 48.8498 28.9931C48.8498 27.5821 49.9921 26.4398 51.4031 26.4398C52.8142 26.4398 53.9565 27.5821 53.9565 28.9931C53.9565 30.4042 52.8142 31.5465 51.4031 31.5465ZM51.4031 28.1868C50.9328 28.1868 50.5296 28.59 50.5296 29.0603C50.5296 29.5307 50.9328 29.9338 51.4031 29.9338C51.8735 29.9338 52.2767 29.5307 52.2767 29.0603C52.2767 28.59 51.8735 28.1868 51.4031 28.1868Z" fill="#4D80C9"/>
</svg>
