<svg width="68" height="69" viewBox="0 0 68 69" fill="none" xmlns="http://www.w3.org/2000/svg">
<path d="M44.5495 18.3093H43.6759H24.3242C22.4427 18.3093 20.8301 19.8548 20.8301 21.8034V34.4358V48.0089H21.0317H35.6127C35.6127 50.6967 37.4941 52.1749 39.6443 52.3765H40.5178C42.6008 52.2421 44.5495 50.7639 44.5495 48.0089V44.582V42.9022V33.5623V24.1552V20.7283C44.5495 19.3172 45.6917 18.1749 47.1028 18.1749L44.5495 18.3093Z" fill="#A7C7FC"/>
<path d="M51.4032 45.4556C51.8856 45.4556 52.2767 45.0645 52.2767 44.5821C52.2767 44.0996 51.8856 43.7086 51.4032 43.7086C50.9207 43.7086 50.5297 44.0996 50.5297 44.5821C50.5297 45.0645 50.9207 45.4556 51.4032 45.4556Z" fill="#4D80C9"/>
<path d="M31.8499 42.0959C32.3323 42.0959 32.7234 41.7048 32.7234 41.2223C32.7234 40.7399 32.3323 40.3488 31.8499 40.3488C31.3674 40.3488 30.9763 40.7399 30.9763 41.2223C30.9763 41.7048 31.3674 42.0959 31.8499 42.0959Z" fill="#4D80C9"/>
<path d="M19.9565 17.4359C20.439 17.4359 20.83 17.0448 20.83 16.5624C20.83 16.0799 20.439 15.6888 19.9565 15.6888C19.4741 15.6888 19.083 16.0799 19.083 16.5624C19.083 17.0448 19.4741 17.4359 19.9565 17.4359Z" fill="#4D80C9"/>
<path d="M17.4032 40.349C17.8856 40.349 18.2767 39.9579 18.2767 39.4754C18.2767 38.993 17.8856 38.6019 17.4032 38.6019C16.9207 38.6019 16.5297 38.993 16.5297 39.4754C16.5297 39.9579 16.9207 40.349 17.4032 40.349Z" fill="#4D80C9"/>
<path d="M40.585 53.2502H39.7115C39.2412 53.2502 38.838 52.847 38.838 52.3767C38.838 51.9063 39.2412 51.5031 39.7115 51.5031H40.585C42.0633 51.3688 43.8103 50.428 43.8103 47.9419V24.1553C43.8103 23.685 44.2135 23.2818 44.6839 23.2818C45.1542 23.2818 45.5574 23.685 45.5574 24.1553V47.9419C45.423 51.3688 43.004 53.0486 40.585 53.2502Z" fill="#4D80C9"/>
<path d="M39.7115 53.2502H21.0988C19.7549 53.2502 18.5454 52.7798 17.6047 51.9063C16.664 50.9656 16.1265 49.6217 16.1265 48.0091C16.1265 47.5387 16.5296 47.1356 17 47.1356H35.747C36.2174 47.1356 36.6205 47.5387 36.6205 48.0091C36.6205 50.3609 38.3004 51.436 39.8458 51.5703C40.3162 51.6375 40.6522 51.9735 40.585 52.4439C40.5178 52.9142 40.1146 53.2502 39.7115 53.2502ZM17.8735 48.8826C18.2095 50.8312 19.6877 51.5031 21.0988 51.5031H36.1502C35.5455 50.8312 35.0751 49.9577 34.9407 48.8826H17.8735Z" fill="#4D80C9"/>
<path d="M20.7629 48.8826C20.2926 48.8826 19.8894 48.4795 19.8894 48.0091V21.8036C19.8894 19.4518 21.838 17.436 24.257 17.436H47.1028C47.5732 17.436 47.9764 17.8391 47.9764 18.3095C47.9764 18.7798 47.5732 19.183 47.1028 19.183H24.3242C22.9131 19.183 21.7036 20.3253 21.7036 21.8036V48.0091C21.7036 48.4795 21.2333 48.8826 20.7629 48.8826Z" fill="#4D80C9"/>
<path d="M49.6561 25.096H44.5494C44.0791 25.096 43.6759 24.6928 43.6759 24.2225V20.7956C43.6759 18.9142 45.1542 17.3687 47.1028 17.3687C47.9763 17.3687 48.8498 17.7047 49.4546 18.3766C50.0593 18.9814 50.4625 19.8549 50.4625 20.7284V24.1553C50.5297 24.6928 50.1265 25.096 49.6561 25.096ZM45.4901 23.4161H48.917V20.8628C48.917 20.3924 48.7154 19.9893 48.4467 19.6533C48.1107 19.3845 47.6403 19.1829 47.2372 19.1829C46.2965 19.1829 45.5573 19.9221 45.5573 20.8628V23.4161H45.4901Z" fill="#4D80C9"/>
<path d="M50.5297 42.9022C50.3281 42.9022 50.1265 42.835 49.925 42.6334L48.8499 41.5583L47.7747 42.6334C47.506 42.9022 47.17 42.9694 46.834 42.835C46.4981 42.7006 46.2965 42.4318 46.2965 42.0286V37.4595C46.2965 37.1907 46.4309 36.9219 46.6996 36.7875C46.9684 36.6532 47.2372 36.586 47.506 36.7203C47.6404 36.7875 47.7748 36.8547 47.9091 36.8547H47.9763H48.0435C48.5139 36.9891 48.7826 37.4595 48.6483 37.8626C48.5811 38.1986 48.3123 38.4002 47.9763 38.4674V39.9456L48.2451 39.6769C48.5811 39.3409 49.1186 39.3409 49.4546 39.6769L49.7234 39.9456V38.4674C49.3874 38.4002 49.1858 38.1986 49.0514 37.8626C48.917 37.4595 49.1858 36.9891 49.589 36.8547H49.6562H49.7234C49.8577 36.7875 49.9921 36.7875 50.1265 36.7203C50.3953 36.586 50.6641 36.6532 50.9329 36.7875C51.2016 36.9219 51.336 37.1907 51.336 37.4595V42.0958C51.336 42.4318 51.1344 42.7678 50.7985 42.9022C50.7313 42.9022 50.5969 42.9022 50.5297 42.9022Z" fill="#4D80C9"/>
<path d="M48.5139 38.669C48.3795 38.669 48.3795 38.669 48.3123 38.669C48.2451 38.669 48.2451 38.669 48.1779 38.669C48.1107 38.669 48.1107 38.669 48.0435 38.669C47.9763 38.669 47.9763 38.669 47.9091 38.669C47.4388 38.6018 47.17 38.1315 47.2372 37.7283C47.3044 37.2579 47.7748 36.9892 48.1779 37.0564H48.2451H48.3123H48.3795H48.4467C48.917 37.0564 49.253 37.4595 49.253 37.9299C49.3202 38.333 48.917 38.669 48.5139 38.669Z" fill="#4D80C9"/>
<path d="M49.1858 38.6692C48.7154 38.6692 48.3795 38.3332 48.3795 37.8629C48.3795 37.3925 48.7154 36.9893 49.1858 36.9893H49.253H49.3202H49.3874H49.4546C49.9249 36.9221 50.3281 37.1909 50.3953 37.6613C50.4625 38.1316 50.1937 38.5348 49.7233 38.602C49.6561 38.602 49.6561 38.602 49.589 38.602C49.5218 38.602 49.5218 38.602 49.4546 38.602C49.3874 38.602 49.3874 38.602 49.3202 38.602C49.3202 38.602 49.253 38.6692 49.1858 38.6692Z" fill="#4D80C9"/>
<path d="M48.8499 38.6691C48.7155 38.6691 48.5811 38.6691 48.4467 38.6691C48.3795 38.6691 48.3795 38.6691 48.3123 38.6691C48.2451 38.6691 48.2451 38.6691 48.178 38.6691C48.1108 38.6691 48.1107 38.6691 48.0436 38.6691C47.9764 38.6691 47.9764 38.6691 47.9092 38.6691C47.7748 38.6691 47.7076 38.6019 47.6404 38.6019H47.5732C47.506 38.6019 47.506 38.6019 47.4388 38.5347C47.2372 38.4675 47.0357 38.4004 46.8341 38.3332C45.0198 37.5268 43.7432 35.7126 43.7432 33.6296C43.7432 30.8747 46.0278 28.5229 48.8499 28.5229C51.6048 28.5229 53.9566 30.8075 53.9566 33.6296C53.9566 35.6454 52.7471 37.5268 50.8657 38.3332C50.6641 38.4004 50.4625 38.4675 50.261 38.5347C50.1938 38.5347 50.1938 38.5347 50.1266 38.6019C50.0594 38.6019 50.0594 38.6019 49.9922 38.6019C49.925 38.6019 49.7906 38.6691 49.7234 38.6691C49.6562 38.6691 49.6562 38.6691 49.589 38.6691C49.5218 38.6691 49.5218 38.6691 49.4546 38.6691C49.3874 38.6691 49.3874 38.6691 49.3202 38.6691C49.253 38.6691 49.2531 38.6691 49.1859 38.6691C49.1187 38.6691 48.9843 38.6691 48.8499 38.6691ZM48.8499 30.2027C46.9685 30.2027 45.423 31.681 45.423 33.6296C45.423 34.9735 46.2293 36.183 47.4388 36.7877C47.5732 36.8549 47.7076 36.9221 47.842 36.9221C47.842 36.9221 47.842 36.9221 47.9092 36.9221H47.9764C48.0436 36.9221 48.1108 36.9221 48.178 36.9893H48.2451C48.2451 36.9893 48.2451 36.9893 48.3123 36.9893H48.3795H48.4467C48.5811 36.9893 48.7827 36.9893 48.9843 36.9893H49.0515H49.1187C49.1187 36.9893 49.1187 36.9893 49.1859 36.9893H49.2531C49.3202 36.9893 49.3874 36.9893 49.4546 36.9221C49.4546 36.9221 49.4546 36.9221 49.5218 36.9221H49.589C49.589 36.9221 49.589 36.9221 49.6562 36.9221C49.7906 36.8549 49.925 36.8549 50.0594 36.7877C51.2689 36.2502 52.0752 35.0407 52.0752 33.6296C52.2768 31.681 50.6641 30.2027 48.8499 30.2027Z" fill="#4D80C9"/>
<path d="M30.9764 27.5822H24.9961C24.5258 27.5822 24.1226 27.179 24.1226 26.7087C24.1226 26.2383 24.5258 25.8351 24.9961 25.8351H30.9764C31.4467 25.8351 31.8499 26.2383 31.8499 26.7087C31.8499 27.2462 31.4467 27.5822 30.9764 27.5822Z" fill="#4D80C9"/>
<path d="M37.7628 31.8826H25.0632C24.5929 31.8826 24.1897 31.4794 24.1897 31.0091C24.1897 30.5387 24.5929 30.1356 25.0632 30.1356H37.83C38.3004 30.1356 38.7035 30.5387 38.7035 31.0091C38.6363 31.4794 38.2332 31.8826 37.7628 31.8826Z" fill="#4D80C9"/>
<path d="M37.7628 34.3687H25.0632C24.5929 34.3687 24.1897 33.9655 24.1897 33.4952C24.1897 33.0248 24.5929 32.6216 25.0632 32.6216H37.83C38.3004 32.6216 38.7035 33.0248 38.7035 33.4952C38.6363 34.0327 38.2332 34.3687 37.7628 34.3687Z" fill="#4D80C9"/>
<path d="M37.7628 36.9892H25.0632C24.5929 36.9892 24.1897 36.5861 24.1897 36.1157C24.1897 35.6454 24.5929 35.2422 25.0632 35.2422H37.83C38.3004 35.2422 38.7035 35.6454 38.7035 36.1157C38.6363 36.5861 38.2332 36.9892 37.7628 36.9892Z" fill="#4D80C9"/>
<path d="M37.7628 39.4756H25.0632C24.5929 39.4756 24.1897 39.0724 24.1897 38.602C24.1897 38.1317 24.5929 37.7285 25.0632 37.7285H37.83C38.3004 37.7285 38.7035 38.1317 38.7035 38.602C38.6363 39.1396 38.2332 39.4756 37.7628 39.4756Z" fill="#4D80C9"/>
<path d="M29.2965 42.0959H24.9961C24.5258 42.0959 24.1226 41.6927 24.1226 41.2223C24.1226 40.752 24.5258 40.3488 24.9961 40.3488H29.2965C29.7669 40.3488 30.1701 40.752 30.1701 41.2223C30.1701 41.6927 29.7669 42.0959 29.2965 42.0959Z" fill="#4D80C9"/>
<path d="M37.7629 45.4556H34.336C33.8657 45.4556 33.4625 45.0524 33.4625 44.5821C33.4625 44.1117 33.8657 43.7086 34.336 43.7086H37.7629C38.2333 43.7086 38.6364 44.1117 38.6364 44.5821C38.6364 45.0524 38.2333 45.4556 37.7629 45.4556Z" fill="#4D80C9"/>
<path d="M50.5297 52.3093C49.1187 52.3093 47.9763 51.167 47.9763 49.7559C47.9763 48.3449 49.1187 47.2026 50.5297 47.2026C51.9408 47.2026 53.0831 48.3449 53.0831 49.7559C53.0831 51.167 51.9408 52.3093 50.5297 52.3093ZM50.5297 48.8824C50.0594 48.8824 49.6562 49.2856 49.6562 49.7559C49.6562 50.2263 50.0594 50.6294 50.5297 50.6294C51.0001 50.6294 51.4032 50.2263 51.4032 49.7559C51.4032 49.2184 51.0673 48.8824 50.5297 48.8824Z" fill="#4D80C9"/>
<path d="M16.5968 25.0958C15.1858 25.0958 14.0435 23.9535 14.0435 22.5424C14.0435 21.1314 15.1858 19.9891 16.5968 19.9891C18.0079 19.9891 19.1502 21.1314 19.1502 22.5424C19.1502 23.9535 17.9407 25.0958 16.5968 25.0958ZM16.5968 21.6689C16.1265 21.6689 15.7233 22.0721 15.7233 22.4752C15.7233 22.9456 16.1265 23.3488 16.5968 23.3488C17.0672 23.3488 17.4703 22.9456 17.4703 22.4752C17.4031 22.0049 17.0672 21.6689 16.5968 21.6689Z" fill="#4D80C9"/>
</svg>
