<svg width="68" height="69" viewBox="0 0 68 69" fill="none" xmlns="http://www.w3.org/2000/svg">
<path d="M43.7143 17.397C45.5357 18.6787 46.008 21.1748 44.7262 23.0637L43.6468 24.6152L35.2818 18.8137L36.3611 17.2621C37.6429 15.4406 40.1389 14.9684 42.0278 16.2502L43.7143 17.397Z" fill="#A7C7FC"/>
<path d="M24.0159 44.1112L26.7143 49.1033L18.6191 51.8017L18.3492 43.3017L24.0159 44.1112Z" fill="#A7C7FC"/>
<path d="M38.3175 32.3058L26.7143 49.1034L24.0159 44.1113L34.135 29.405L38.3175 32.3058Z" fill="#A7C7FC"/>
<path d="M34.135 29.4049L24.0159 44.1112L18.3492 43.3017L29.9524 26.5715L34.135 29.4049Z" fill="#A7C7FC"/>
<path d="M50.5953 21.2422C51.0796 21.2422 51.4723 20.8496 51.4723 20.3652C51.4723 19.8809 51.0796 19.4882 50.5953 19.4882C50.1109 19.4882 49.7183 19.8809 49.7183 20.3652C49.7183 20.8496 50.1109 21.2422 50.5953 21.2422Z" fill="#4D80C9"/>
<path d="M50.5953 32.2383C51.0675 32.2383 51.4723 32.643 51.4723 33.1153C51.4723 33.5875 51.0675 33.9248 50.5953 33.9248C50.1231 33.9248 49.7183 33.52 49.7183 33.1153C49.7183 32.5756 50.1231 32.2383 50.5953 32.2383Z" fill="#4D80C9"/>
<path d="M48.0318 52.6787C48.5161 52.6787 48.9088 52.2861 48.9088 51.8017C48.9088 51.3174 48.5161 50.9247 48.0318 50.9247C47.5474 50.9247 47.1548 51.3174 47.1548 51.8017C47.1548 52.2861 47.5474 52.6787 48.0318 52.6787Z" fill="#4D80C9"/>
<path d="M36.9683 47.5517C37.4526 47.5517 37.8453 47.1591 37.8453 46.6747C37.8453 46.1904 37.4526 45.7977 36.9683 45.7977C36.4839 45.7977 36.0913 46.1904 36.0913 46.6747C36.0913 47.1591 36.4839 47.5517 36.9683 47.5517Z" fill="#4D80C9"/>
<path d="M25.9048 17.8018C26.3892 17.8018 26.7818 17.4091 26.7818 16.9248C26.7818 16.4404 26.3892 16.0478 25.9048 16.0478C25.4205 16.0478 25.0278 16.4404 25.0278 16.9248C25.0278 17.4091 25.4205 17.8018 25.9048 17.8018Z" fill="#4D80C9"/>
<path d="M18.2818 33.0478C18.754 33.0478 19.1588 33.4526 19.1588 33.8573C19.1588 34.3295 18.754 34.7343 18.2818 34.7343C17.8096 34.7343 17.4048 34.3295 17.4048 33.8573C17.4048 33.4526 17.8096 33.0478 18.2818 33.0478Z" fill="#4D80C9"/>
<path d="M43.6469 25.4922C43.5119 25.4922 43.3096 25.4248 43.1747 25.3573C42.7699 25.0875 42.7024 24.5478 42.9723 24.2105L44.0516 22.6589C44.5238 21.9843 44.7262 21.1073 44.5913 20.2303C44.4564 19.4208 43.9842 18.6787 43.2421 18.139L41.5556 16.9922C40.881 16.52 40.004 16.3176 39.127 16.4525C38.3175 16.5875 37.5754 17.0597 37.0358 17.8017L35.9564 19.3533C35.6865 19.7581 35.1469 19.8255 34.8096 19.5557C34.4048 19.2859 34.3373 18.7462 34.6072 18.4089L35.6866 16.8573C36.4286 15.7779 37.5754 15.0359 38.8572 14.8335C40.1389 14.6311 41.4207 14.901 42.5 15.643L44.1866 16.7898C45.2659 17.5319 46.008 18.6787 46.2104 19.9605C46.4127 21.2422 46.1429 22.524 45.4008 23.6033L44.3215 25.1549C44.1865 25.3573 43.9167 25.4922 43.6469 25.4922Z" fill="#4D80C9"/>
<path d="M31.9088 24.5477C31.7738 24.5477 31.5715 24.4802 31.4366 24.4127C31.0318 24.1429 30.9643 23.6032 31.2342 23.2659L32.6508 21.1747C32.9207 20.7699 33.4604 20.7024 33.7977 20.9723C34.2024 21.2421 34.2699 21.7818 34 22.1191L32.6508 24.2104C32.4485 24.4127 32.1786 24.5477 31.9088 24.5477Z" fill="#4D80C9"/>
<path d="M40.3413 30.4169C40.2064 30.4169 40.004 30.3494 39.8691 30.2819C39.4643 30.0121 39.3969 29.4724 39.6667 29.1351L41.0834 27.0439C41.3532 26.6391 41.8929 26.5716 42.2302 26.8415C42.635 27.1113 42.7024 27.651 42.4326 27.9883L41.0159 30.0121C40.8135 30.2819 40.5437 30.4169 40.3413 30.4169Z" fill="#4D80C9"/>
<path d="M18.6191 52.6787C18.4167 52.6787 18.2818 52.6112 18.1468 52.5438C17.9445 52.4089 17.8095 52.139 17.8095 51.8692L17.4722 43.3692C17.4722 43.1668 17.5397 43.0319 17.6072 42.8295L29.2103 26.0993C29.4802 25.6946 30.0199 25.6271 30.3572 25.897C30.7619 26.1668 30.8294 26.7065 30.5595 27.0438L19.1587 43.5716L19.4286 50.6549L26.1746 48.4287L37.6429 31.9009C37.9127 31.4962 38.4524 31.4287 38.7897 31.6985C39.1945 31.9684 39.2619 32.5081 38.9921 32.8454L27.3889 49.643C27.254 49.7779 27.1191 49.9128 26.9841 49.9803L18.8889 52.6112C18.8214 52.6112 18.754 52.6787 18.6191 52.6787Z" fill="#4D80C9"/>
<path d="M42.7024 28.5954C42.1627 28.5954 41.6905 28.4605 41.2857 28.1232L32.9206 22.3216C32.381 21.9169 31.9762 21.3772 31.8413 20.7026C31.7064 20.028 31.8413 19.3534 32.246 18.8137C32.7183 18.1391 33.5278 17.7343 34.3373 17.7343C34.877 17.7343 35.3492 17.8692 35.754 18.2065L44.1865 24.0081C45.3334 24.8176 45.6032 26.3692 44.7937 27.5161C44.3214 28.1907 43.5119 28.5954 42.7024 28.5954ZM34.3373 19.4208C34.0675 19.4208 33.7976 19.5557 33.6627 19.7581C33.5278 19.9605 33.4603 20.1629 33.5278 20.3653C33.5952 20.5677 33.6627 20.77 33.8651 20.9049L42.2302 26.7065C42.3651 26.774 42.5675 26.8415 42.7024 26.8415C42.9722 26.8415 43.2421 26.7065 43.377 26.5042C43.6468 26.0994 43.5794 25.6272 43.1746 25.3573L34.8095 19.5557C34.6746 19.4883 34.4722 19.4208 34.3373 19.4208Z" fill="#4D80C9"/>
<path d="M39.262 33.4525C38.7223 33.4525 38.2501 33.3176 37.8453 32.9803L29.4802 27.1787C28.3334 26.3692 28.0635 24.8176 28.8731 23.6708C29.3453 22.9962 30.1548 22.5914 30.9643 22.5914C31.504 22.5914 31.9763 22.7264 32.381 23.0637L40.7461 28.8652C41.2858 29.27 41.6905 29.8097 41.8255 30.4843C41.9604 31.1589 41.8255 31.8335 41.4207 32.3732C40.9485 33.0478 40.2064 33.4525 39.262 33.4525ZM30.8969 24.2779C30.627 24.2779 30.3572 24.4129 30.2223 24.6152C29.9524 25.02 30.0199 25.4922 30.4247 25.7621L38.7897 31.5637C38.9247 31.6311 39.127 31.6986 39.262 31.6986C39.5318 31.6986 39.8016 31.5637 39.9366 31.3613C40.0715 31.1589 40.1389 30.9565 40.0715 30.7541C40.004 30.5518 39.9366 30.3494 39.7342 30.2144L31.3691 24.4129C31.2342 24.2779 31.0993 24.2779 30.8969 24.2779Z" fill="#4D80C9"/>
<path d="M24.0159 44.9882C23.9485 44.9882 23.9485 44.9882 23.881 44.9882L18.2143 44.1787C17.7421 44.1113 17.4048 43.7065 17.4723 43.2343C17.5397 42.7621 17.9445 42.4247 18.4167 42.4922L23.5437 43.2343L33.3929 29.0001C33.6628 28.5954 34.2024 28.5279 34.5397 28.7978C34.9445 29.0676 35.012 29.6073 34.7421 29.9446L24.5556 44.6509C24.5556 44.8533 24.2858 44.9882 24.0159 44.9882Z" fill="#4D80C9"/>
<path d="M26.7144 49.9129C26.4445 49.9129 26.1072 49.778 25.9723 49.5081L23.2739 44.4486C23.0715 44.0438 23.2064 43.5042 23.6112 43.3018C24.016 43.0994 24.5556 43.2343 24.758 43.6391L27.4564 48.6986C27.6588 49.1034 27.5239 49.643 27.1191 49.8454C26.9842 49.9129 26.8493 49.9129 26.7144 49.9129Z" fill="#4D80C9"/>
<path d="M45.4683 52.6787H16.5953C16.123 52.6787 15.7183 52.274 15.7183 51.8017C15.7183 51.3295 16.123 50.9247 16.5953 50.9247H45.4683C45.9405 50.9247 46.3452 51.3295 46.3452 51.8017C46.3452 52.274 45.9405 52.6787 45.4683 52.6787Z" fill="#4D80C9"/>
<path d="M49.7183 49.2382C48.3016 49.2382 47.1548 48.0914 47.1548 46.6747C47.1548 45.258 48.3016 44.1112 49.7183 44.1112C51.1349 44.1112 52.2818 45.258 52.2818 46.6747C52.2818 48.0914 51.1349 49.2382 49.7183 49.2382ZM49.7183 45.8652C49.246 45.8652 48.8413 46.2699 48.8413 46.7422C48.8413 47.2144 49.246 47.6191 49.7183 47.6191C50.1905 47.6191 50.5953 47.2144 50.5953 46.7422C50.5953 46.2025 50.1905 45.8652 49.7183 45.8652Z" fill="#4D80C9"/>
<path d="M20.373 27.1788C18.754 27.1788 17.4048 25.8296 17.4048 24.2105C17.4048 22.5915 18.754 21.2422 20.373 21.2422C21.9921 21.2422 23.3413 22.5915 23.3413 24.2105C23.4088 25.7621 21.9921 27.1788 20.373 27.1788ZM20.373 22.8613C19.6984 22.8613 19.0913 23.401 19.0913 24.143C19.0913 24.8851 19.631 25.4248 20.373 25.4248C21.1151 25.4248 21.6548 24.8851 21.6548 24.143C21.6548 23.401 21.0476 22.8613 20.373 22.8613Z" fill="#4D80C9"/>
<path d="M43.7818 41.5479C41.8929 41.5479 40.4088 40.0637 40.4088 38.1748C40.4088 36.2859 41.8929 34.8018 43.7818 34.8018C45.6707 34.8018 47.1548 36.2859 47.1548 38.1748C47.1548 40.0637 45.6032 41.5479 43.7818 41.5479ZM43.7818 36.4883C42.8373 36.4883 42.0953 37.2304 42.0953 38.1748C42.0953 39.1193 42.8373 39.8613 43.7818 39.8613C44.7262 39.8613 45.4683 39.1193 45.4683 38.1748C45.4683 37.2304 44.7262 36.4883 43.7818 36.4883Z" fill="#4D80C9"/>
</svg>
