<svg width="68" height="69" viewBox="0 0 68 69" fill="none" xmlns="http://www.w3.org/2000/svg">
<path d="M36.6206 41.7198V44.4748C36.6206 45.2811 35.9487 45.9531 35.1423 45.9531H31.2451C30.4388 45.9531 29.7668 45.2811 29.7668 44.4748V41.7198H36.6206Z" fill="#A7C7FC"/>
<path d="M36.6206 23.6446V26.3995H29.8341V26.1979V23.6446C29.8341 22.8383 30.506 22.1663 31.3123 22.1663H35.2096C35.9487 22.1663 36.6206 22.8383 36.6206 23.6446Z" fill="#A7C7FC"/>
<path d="M29.7669 41.7197V44.4746C29.7669 45.2809 29.095 45.9529 28.2886 45.9529H25.2649C24.4586 45.9529 23.7867 45.2809 23.7867 44.4746V44.0043V41.7197V39.1663H29.7669V41.7197Z" fill="#A7C7FC"/>
<path d="M29.7669 26.3995V31.5062H23.7867V26.1979C23.7867 25.3916 24.4586 24.7197 25.2649 24.7197H28.2886C29.095 24.7197 29.7669 25.3916 29.7669 26.1979V26.3995Z" fill="#A7C7FC"/>
<path d="M23.7866 41.7198V44.0044C23.7866 45.0795 22.9131 45.8859 21.9052 45.8859H17.2688C16.1937 45.8859 15.3874 45.0123 15.3874 44.0044V41.7198H23.7866Z" fill="#A7C7FC"/>
<path d="M23.7867 21.5617V25.5933H15.3203V21.5617C15.3203 20.4866 16.1938 19.6802 17.2017 19.6802H21.8381C22.9132 19.613 23.7867 20.4194 23.7867 21.5617Z" fill="#A7C7FC"/>
<path d="M46.6325 32.3798C54.1582 32.3798 49.1186 45.9529 45.0198 45.9529C44.6838 45.9529 44.2135 45.8186 43.8775 45.7514C43.4072 45.617 42.8696 45.617 42.3993 45.7514C41.9961 45.8858 41.5258 45.9529 41.257 45.9529C39.5771 45.9529 37.6285 43.6012 36.6206 40.8462C35.6127 38.2929 35.3439 35.2692 36.6206 33.6565C37.2253 32.8502 38.1661 32.3798 39.7115 32.3798C40.8538 32.3798 41.9289 32.9174 42.7353 33.7237C42.9368 33.9253 43.0712 34.1941 43.2728 34.4628C43.4072 34.1941 43.6088 33.9253 43.8103 33.6565C44.4151 32.8502 45.423 32.3798 46.6325 32.3798Z" fill="#A7C7FC"/>
<path d="M50.1937 18.8067C50.6761 18.8067 51.0672 18.4156 51.0672 17.9332C51.0672 17.4508 50.6761 17.0597 50.1937 17.0597C49.7113 17.0597 49.3202 17.4508 49.3202 17.9332C49.3202 18.4156 49.7113 18.8067 50.1937 18.8067Z" fill="#4D80C9"/>
<path d="M44.2135 50.1862C44.6959 50.1862 45.087 49.7951 45.087 49.3127C45.087 48.8302 44.6959 48.4391 44.2135 48.4391C43.7311 48.4391 43.34 48.8302 43.34 49.3127C43.34 49.7951 43.7311 50.1862 44.2135 50.1862Z" fill="#4D80C9"/>
<path d="M41.7273 50.1862C42.2098 50.1862 42.6009 49.7951 42.6009 49.3127C42.6009 48.8302 42.2098 48.4391 41.7273 48.4391C41.2449 48.4391 40.8538 48.8302 40.8538 49.3127C40.8538 49.7951 41.2449 50.1862 41.7273 50.1862Z" fill="#4D80C9"/>
<path d="M41.7273 23.9134C42.2098 23.9134 42.6009 23.5223 42.6009 23.0398C42.6009 22.5574 42.2098 22.1663 41.7273 22.1663C41.2449 22.1663 40.8538 22.5574 40.8538 23.0398C40.8538 23.5223 41.2449 23.9134 41.7273 23.9134Z" fill="#4D80C9"/>
<path d="M34.0001 19.6131C34.4826 19.6131 34.8736 19.222 34.8736 18.7396C34.8736 18.2572 34.4826 17.8661 34.0001 17.8661C33.5177 17.8661 33.1266 18.2572 33.1266 18.7396C33.1266 19.222 33.5177 19.6131 34.0001 19.6131Z" fill="#4D80C9"/>
<path d="M18.7471 17.1269C19.2295 17.1269 19.6206 16.7358 19.6206 16.2533C19.6206 15.7709 19.2295 15.3798 18.7471 15.3798C18.2647 15.3798 17.8736 15.7709 17.8736 16.2533C17.8736 16.7358 18.2647 17.1269 18.7471 17.1269Z" fill="#4D80C9"/>
<path d="M17.8736 38.2931C18.356 38.2931 18.7471 37.902 18.7471 37.4195C18.7471 36.9371 18.356 36.546 17.8736 36.546C17.3912 36.546 17 36.9371 17 37.4195C17 37.902 17.3912 38.2931 17.8736 38.2931Z" fill="#4D80C9"/>
<path d="M42.6008 34.5301C42.1977 34.5301 41.8617 34.2613 41.7945 33.791L41.3241 30.6329V30.5657C41.2569 30.0281 41.4585 29.5578 41.7945 29.1546C42.1305 28.7514 42.668 28.5499 43.1384 28.5499C43.6759 28.5499 44.1463 28.7514 44.4822 29.1546C44.8182 29.5578 45.0198 30.0281 44.9526 30.5657V30.6329L44.4822 33.791C44.4151 34.2613 44.0119 34.5301 43.5415 34.4629C43.4071 34.4629 43.2728 34.3957 43.1384 34.3285C43.004 34.4629 42.8696 34.5301 42.7352 34.5301C42.7352 34.5301 42.668 34.5301 42.6008 34.5301ZM42.9368 30.4313L43.1384 31.6408L43.3399 30.4313C43.3399 30.3641 43.34 30.3641 43.2728 30.2969C43.2728 30.2969 43.2056 30.2297 43.1384 30.2297C43.0712 30.2297 43.004 30.2297 43.004 30.2969C43.004 30.2969 42.9368 30.3641 42.9368 30.4313Z" fill="#4D80C9"/>
<path d="M47.5732 40.04C47.506 40.04 47.3717 40.04 47.3045 39.9728C46.9013 39.8384 46.6325 39.3009 46.8341 38.8977C47.2373 37.7554 47.3045 36.6803 46.9685 36.21C46.8341 36.0756 46.6326 35.874 46.095 35.874C45.6246 35.874 45.2215 35.4708 45.2215 35.0005C45.2215 34.5301 45.6246 34.127 46.095 34.127C47.3045 34.127 47.9764 34.7317 48.3124 35.2021C48.9843 36.21 48.9843 37.7554 48.3796 39.5696C48.2452 39.8384 47.9092 40.04 47.5732 40.04Z" fill="#4D80C9"/>
<path d="M21.9053 46.8263H17.2689C15.7234 46.8263 14.5139 45.6169 14.5139 44.0714V21.5615C14.5139 20.0161 15.7234 18.8066 17.2689 18.8066H21.9053C23.4507 18.8066 24.6602 20.0161 24.6602 21.5615V26.1979C24.6602 26.6682 24.257 27.0714 23.7867 27.0714C23.3163 27.0714 22.9132 26.6682 22.9132 26.1979V21.5615C22.9132 20.9568 22.4428 20.4864 21.838 20.4864H17.2017C16.597 20.4864 16.1266 20.9568 16.1266 21.5615V44.0714C16.1266 44.6761 16.597 45.1465 17.2017 45.1465H21.838C22.4428 45.1465 22.9132 44.6761 22.9132 44.0714C22.9132 43.601 23.3163 43.1979 23.7867 43.1979C24.257 43.1979 24.6602 43.601 24.6602 44.0714C24.7274 45.5497 23.3835 46.8263 21.9053 46.8263Z" fill="#4D80C9"/>
<path d="M28.2885 46.8264H25.2648C23.9881 46.8264 22.9802 45.8185 22.9802 44.5418V26.1308C22.9802 24.8541 23.9881 23.8462 25.2648 23.8462H28.2885C29.5652 23.8462 30.5731 24.8541 30.5731 26.1308C30.5731 26.6011 30.1699 27.0043 29.6996 27.0043C29.2292 27.0043 28.8261 26.6011 28.8261 26.1308C28.8261 25.7948 28.5573 25.526 28.2213 25.526H25.1976C24.8616 25.526 24.5929 25.7948 24.5929 26.1308V44.4075C24.5929 44.7434 24.8616 45.0122 25.1976 45.0122H28.2213C28.5573 45.0122 28.8261 44.7434 28.8261 44.4075C28.8261 43.9371 29.2292 43.5339 29.6996 43.5339C30.1699 43.5339 30.5731 43.9371 30.5731 44.4075C30.6403 45.7513 29.5652 46.8264 28.2885 46.8264Z" fill="#4D80C9"/>
<path d="M35.0751 46.8265H31.1779C29.9012 46.8265 28.8933 45.8186 28.8933 44.5419V23.6447C28.8933 22.368 29.9012 21.3601 31.1779 21.3601H35.0751C36.3518 21.3601 37.3597 22.368 37.3597 23.6447V33.6565C37.3597 34.1269 36.9565 34.5301 36.4862 34.5301C36.0158 34.5301 35.6127 34.1269 35.6127 33.6565V23.6447C35.6127 23.3087 35.3439 23.0399 35.0079 23.0399H31.1107C30.7747 23.0399 30.506 23.3087 30.506 23.6447V44.5419C30.506 44.8779 30.7747 45.1467 31.1107 45.1467H35.0079C35.3439 45.1467 35.6127 44.8779 35.6127 44.5419V40.8463C35.6127 40.3759 36.0158 39.9728 36.4862 39.9728C36.9565 39.9728 37.3597 40.3759 37.3597 40.8463V44.4747C37.4269 45.7514 36.419 46.8265 35.0751 46.8265Z" fill="#4D80C9"/>
<path d="M23.7867 26.3997H15.3202C14.8499 26.3997 14.4467 25.9965 14.4467 25.5262C14.4467 25.0558 14.8499 24.6526 15.3202 24.6526H23.7867C24.257 24.6526 24.6602 25.0558 24.6602 25.5262C24.7274 25.9965 24.3242 26.3997 23.7867 26.3997Z" fill="#4D80C9"/>
<path d="M23.7867 42.5262H15.3202C14.8499 42.5262 14.4467 42.1231 14.4467 41.6527C14.4467 41.1823 14.8499 40.7792 15.3202 40.7792H23.7867C24.257 40.7792 24.6602 41.1823 24.6602 41.6527C24.6602 42.1231 24.3242 42.5262 23.7867 42.5262Z" fill="#4D80C9"/>
<path d="M29.7668 32.3797H23.7866C23.3163 32.3797 22.9131 31.9766 22.9131 31.5062C22.9131 31.0359 23.3163 30.6327 23.7866 30.6327H29.7668C30.2372 30.6327 30.6404 31.0359 30.6404 31.5062C30.6404 31.9094 30.2372 32.3797 29.7668 32.3797Z" fill="#4D80C9"/>
<path d="M36.6206 27.2731H29.834C29.3637 27.2731 28.9605 26.8699 28.9605 26.3996C28.9605 25.9292 29.3637 25.5261 29.834 25.5261H36.6206C37.0909 25.5261 37.4941 25.9292 37.4941 26.3996C37.4269 26.8699 37.0237 27.2731 36.6206 27.2731Z" fill="#4D80C9"/>
<path d="M36.6206 42.5262H29.834C29.3637 42.5262 28.9605 42.1231 28.9605 41.6527C28.9605 41.1823 29.3637 40.7792 29.834 40.7792H36.6206C37.0909 40.7792 37.4941 41.1823 37.4941 41.6527C37.4941 42.1231 37.0237 42.5262 36.6206 42.5262Z" fill="#4D80C9"/>
<path d="M29.7668 40.0399H23.7866C23.3163 40.0399 22.9131 39.6368 22.9131 39.1664C22.9131 38.6961 23.3163 38.2929 23.7866 38.2929H29.7668C30.2372 38.2929 30.6404 38.6961 30.6404 39.1664C30.6404 39.6368 30.2372 40.0399 29.7668 40.0399Z" fill="#4D80C9"/>
<path d="M28.087 19.6131C26.6759 19.6131 25.5337 18.4708 25.5337 17.0597C25.5337 15.6486 26.6759 14.5063 28.087 14.5063C29.4981 14.5063 30.5732 15.6486 30.5732 17.0597C30.6404 18.4708 29.4309 19.6131 28.087 19.6131ZM28.087 16.2534C27.6167 16.2534 27.2135 16.6565 27.2135 17.1269C27.2135 17.5973 27.6167 18.0004 28.087 18.0004C28.5574 18.0004 28.9606 17.5973 28.9606 17.1269C28.8934 16.5894 28.4902 16.2534 28.087 16.2534Z" fill="#4D80C9"/>
<path d="M48.0436 27.2731C46.4309 27.2731 45.0198 25.9292 45.0198 24.2494C45.0198 22.6367 46.3637 21.2256 48.0436 21.2256C49.6562 21.2256 51.0673 22.5695 51.0673 24.2494C51.0001 25.862 49.6562 27.2731 48.0436 27.2731ZM48.0436 23.0399C47.3716 23.0399 46.7669 23.5774 46.7669 24.3166C46.7669 25.0557 47.3044 25.5932 48.0436 25.5932C48.7155 25.5932 49.3203 25.0557 49.3203 24.3166C49.3203 23.5774 48.7827 23.0399 48.0436 23.0399Z" fill="#4D80C9"/>
<path d="M17.8736 35.7397C17.4032 35.7397 17 35.3365 17 34.8661V28.8859C17 28.4156 17.4032 28.0124 17.8736 28.0124C18.3439 28.0124 18.7471 28.4156 18.7471 28.8859V34.8661C18.7471 35.3365 18.3439 35.7397 17.8736 35.7397Z" fill="#4D80C9"/>
<path d="M45.0198 46.8264C44.6838 46.8264 44.2135 46.7592 43.6087 46.5576C43.2728 46.4904 42.9368 46.4904 42.6008 46.5576C41.9961 46.692 41.5929 46.8264 41.1897 46.8264C38.838 46.8264 36.755 43.7355 35.7471 41.1821C34.5376 37.8896 34.5376 34.9331 35.8142 33.2533C35.8142 33.2533 35.8143 33.2533 35.8815 33.1861C36.419 32.4469 37.5613 31.5734 39.5771 31.5734C40.921 31.5734 42.1305 32.111 43.1384 33.0517C44.0119 32.111 45.2886 31.5734 46.6996 31.5734C48.6482 31.5734 49.8577 32.4469 50.3953 33.1189C51.0672 33.9924 51.4704 35.2019 51.4704 36.7473C51.4704 38.7631 50.7984 41.2493 49.589 43.2651C48.1779 45.4825 46.4981 46.8264 45.0198 46.8264ZM43.1384 44.8106C43.4743 44.8106 43.8103 44.8778 44.0791 44.945C44.6838 45.0794 44.9526 45.1465 45.0198 45.1465C45.8933 45.1465 47.0356 44.0714 48.0435 42.4588C49.0514 40.7118 49.6562 38.4944 49.6562 36.7473C49.6562 35.6722 49.3874 34.7987 48.9842 34.2612C48.5139 33.6564 47.7075 33.3205 46.6996 33.3205C45.8261 33.3205 45.0198 33.6564 44.4151 34.3284C44.2135 34.5299 44.0791 34.7315 44.0119 34.9331C43.8775 35.2019 43.6087 35.4035 43.2728 35.4035C42.9368 35.4035 42.668 35.2019 42.5336 34.9331C42.3992 34.7315 42.2649 34.5299 42.1305 34.3956C41.5257 33.7236 40.7194 33.3205 39.7787 33.3205C38.7036 33.3205 37.9645 33.6564 37.4269 34.2612C36.4862 35.4707 36.5534 38.024 37.5613 40.6446C38.5692 43.1979 40.1819 45.2137 41.4585 45.2137C41.5257 45.2137 41.7945 45.2137 42.3993 45.0122C42.4665 44.8778 42.8024 44.8106 43.1384 44.8106Z" fill="#4D80C9"/>
<path d="M39.1068 50.2534H15.3202C14.8499 50.2534 14.4467 49.8503 14.4467 49.3799C14.4467 48.9096 14.8499 48.5064 15.3202 48.5064H39.1068C39.5772 48.5064 39.9803 48.9096 39.9803 49.3799C39.9803 49.7831 39.5772 50.2534 39.1068 50.2534Z" fill="#4D80C9"/>
<path d="M52.6799 53.6132H30.5731C30.1028 53.6132 29.6996 53.21 29.6996 52.7397C29.6996 52.2693 30.1028 51.8661 30.5731 51.8661H52.6799C53.1502 51.8661 53.5534 52.2693 53.5534 52.7397C53.6206 53.21 53.1502 53.6132 52.6799 53.6132Z" fill="#4D80C9"/>
<path d="M34.0001 29.8264H32.3203C31.8499 29.8264 31.4467 29.4233 31.4467 28.9529C31.4467 28.4826 31.8499 28.0794 32.3203 28.0794H34.0001C34.4705 28.0794 34.8736 28.4826 34.8736 28.9529C34.8736 29.4233 34.4705 29.8264 34.0001 29.8264Z" fill="#4D80C9"/>
<path d="M34.0001 32.3797H32.3203C31.8499 32.3797 31.4467 31.9766 31.4467 31.5062C31.4467 31.0359 31.8499 30.6327 32.3203 30.6327H34.0001C34.4705 30.6327 34.8736 31.0359 34.8736 31.5062C34.8736 31.9766 34.4705 32.3797 34.0001 32.3797Z" fill="#4D80C9"/>
</svg>
