<svg width="68" height="69" viewBox="0 0 68 69" fill="none" xmlns="http://www.w3.org/2000/svg">
<path d="M41.1898 24.7196V18.7394H30.9764H25.8696H22.5772C21.0989 18.7394 19.8894 19.9489 19.8894 21.4271V49.9844C19.8894 51.4627 21.0989 52.6722 22.5772 52.6722H44.3479C45.8262 52.6722 47.0356 51.4627 47.0356 49.9844V24.7196H41.1898Z" fill="#A7C7FC"/>
<path d="M49.6562 23.0401C50.1387 23.0401 50.5297 22.649 50.5297 22.1665C50.5297 21.6841 50.1387 21.293 49.6562 21.293C49.1738 21.293 48.7827 21.6841 48.7827 22.1665C48.7827 22.649 49.1738 23.0401 49.6562 23.0401Z" fill="#4D80C9"/>
<path d="M46.2292 17.9335C46.7117 17.9335 47.1028 17.5424 47.1028 17.06C47.1028 16.5776 46.7117 16.1865 46.2292 16.1865C45.7468 16.1865 45.3557 16.5776 45.3557 17.06C45.3557 17.5424 45.7468 17.9335 46.2292 17.9335Z" fill="#4D80C9"/>
<path d="M41.1899 46.8269C41.6724 46.8269 42.0634 46.4358 42.0634 45.9534C42.0634 45.4709 41.6724 45.0798 41.1899 45.0798C40.7075 45.0798 40.3164 45.4709 40.3164 45.9534C40.3164 46.4358 40.7075 46.8269 41.1899 46.8269Z" fill="#4D80C9"/>
<path d="M36.9565 38.2929C37.439 38.2929 37.83 37.9018 37.83 37.4194C37.83 36.937 37.439 36.5459 36.9565 36.5459C36.4741 36.5459 36.083 36.937 36.083 37.4194C36.083 37.9018 36.4741 38.2929 36.9565 38.2929Z" fill="#4D80C9"/>
<path d="M16.5299 32.38C17.0123 32.38 17.4034 31.989 17.4034 31.5065C17.4034 31.0241 17.0123 30.633 16.5299 30.633C16.0475 30.633 15.6564 31.0241 15.6564 31.5065C15.6564 31.989 16.0475 32.38 16.5299 32.38Z" fill="#4D80C9"/>
<path d="M15.6561 44.2732C16.1385 44.2732 16.5296 43.8821 16.5296 43.3997C16.5296 42.9173 16.1385 42.5262 15.6561 42.5262C15.1737 42.5262 14.7826 42.9173 14.7826 43.3997C14.7826 43.8821 15.1737 44.2732 15.6561 44.2732Z" fill="#4D80C9"/>
<path d="M47.1702 25.526H41.1899C40.7196 25.526 40.3164 25.1229 40.3164 24.6525V18.6723C40.3164 18.2019 40.7196 17.7988 41.1899 17.7988C41.6603 17.7988 42.0634 18.2019 42.0634 18.6723V23.8462H47.1702C47.6405 23.8462 48.0437 24.2494 48.0437 24.7197C47.9765 25.1229 47.6405 25.526 47.1702 25.526Z" fill="#4D80C9"/>
<path d="M44.4151 53.613H22.6443C20.6957 53.613 19.0159 52.0004 19.0159 49.9845V21.4272C19.0159 19.4786 20.6285 17.7988 22.6443 17.7988H41.1898C41.3914 17.7988 41.5929 17.866 41.7945 18.0676L47.7748 24.0478C47.9091 24.1822 48.0435 24.4509 48.0435 24.6525V49.9845C47.9763 52.0004 46.4309 53.613 44.4151 53.613ZM22.6443 19.613C21.6364 19.613 20.7629 20.4193 20.7629 21.4944V50.0517C20.7629 51.0596 21.5692 51.9332 22.6443 51.9332H44.4151C45.423 51.9332 46.2965 51.1268 46.2965 50.0517V25.0557L40.8538 19.613H22.6443Z" fill="#4D80C9"/>
<path d="M28.4228 28.1469C27.5493 28.1469 26.6757 27.8109 26.071 27.139C25.4663 26.467 25.0631 25.6607 25.0631 24.7872V22.637C25.0631 21.4947 26.0038 20.554 27.1461 20.554C27.6836 20.554 28.2212 20.7555 28.6244 21.1587C29.0275 21.5619 29.2291 22.0994 29.2291 22.637V23.8464C29.2291 24.3168 28.8259 24.72 28.3556 24.72C27.8852 24.72 27.4821 24.3168 27.4821 23.8464V22.5698C27.4821 22.4354 27.4149 22.301 27.3477 22.301C27.2805 22.2338 27.2133 22.1666 27.0789 22.1666C26.8773 22.1666 26.6757 22.3682 26.6757 22.5698V24.6528C26.6757 25.1231 26.8773 25.5263 27.1461 25.8623C27.4821 26.1982 27.8852 26.3326 28.3556 26.3326C29.2963 26.3326 30.0354 25.5935 30.0354 24.6528V17.8662C30.0354 17.3959 29.8338 16.9927 29.5651 16.6567C29.2291 16.3208 28.8259 16.1864 28.3556 16.1864C27.4149 16.1864 26.6757 16.9255 26.6757 17.8662V18.7397C26.6757 19.2101 26.2726 19.6133 25.8022 19.6133C25.3319 19.6133 24.9287 19.2101 24.9287 18.7397V17.8662C24.9287 15.9848 26.407 14.4393 28.3556 14.4393C29.2291 14.4393 30.1026 14.7753 30.7074 15.4472C31.3121 16.052 31.7153 16.9255 31.7153 17.799V24.6528C31.8497 26.5342 30.3042 28.1469 28.4228 28.1469Z" fill="#4D80C9"/>
<path d="M24.66 34.9333C23.5177 34.9333 22.577 33.9926 22.577 32.8503C22.577 31.708 23.5177 30.7673 24.66 30.7673C25.8023 30.7673 26.743 31.708 26.743 32.8503C26.743 33.9926 25.8023 34.9333 24.66 34.9333ZM24.66 32.3128C24.4584 32.3128 24.2569 32.5144 24.2569 32.7159C24.2569 32.9175 24.4584 33.1191 24.66 33.1191C24.8616 33.1191 25.0632 32.9175 25.0632 32.7159C25.0632 32.5144 24.8616 32.3128 24.66 32.3128Z" fill="#4D80C9"/>
<path d="M34.3362 32.3127H28.3559C27.8856 32.3127 27.4824 31.9095 27.4824 31.4391C27.4824 30.9688 27.8856 30.5656 28.3559 30.5656H34.3362C34.8065 30.5656 35.2097 30.9688 35.2097 31.4391C35.2769 31.9095 34.8737 32.3127 34.3362 32.3127Z" fill="#4D80C9"/>
<path d="M41.1898 34.9332H28.4902C28.0199 34.9332 27.6167 34.53 27.6167 34.0597C27.6167 33.5893 28.0199 33.1862 28.4902 33.1862H41.257C41.7274 33.1862 42.1305 33.5893 42.1305 34.0597C42.0633 34.53 41.6602 34.9332 41.1898 34.9332Z" fill="#4D80C9"/>
<path d="M24.66 40.8464C23.5177 40.8464 22.577 39.9057 22.577 38.7634C22.577 37.6211 23.5177 36.6804 24.66 36.6804C25.8023 36.6804 26.743 37.6211 26.743 38.7634C26.743 39.9057 25.8023 40.8464 24.66 40.8464ZM24.66 38.2931C24.4584 38.2931 24.2569 38.4946 24.2569 38.6962C24.2569 38.8978 24.4584 39.0994 24.66 39.0994C24.8616 39.0994 25.0632 38.8978 25.0632 38.6962C25.0632 38.4946 24.8616 38.2931 24.66 38.2931Z" fill="#4D80C9"/>
<path d="M34.3362 38.2929H28.3559C27.8856 38.2929 27.4824 37.8898 27.4824 37.4194C27.4824 36.9491 27.8856 36.5459 28.3559 36.5459H34.3362C34.8065 36.5459 35.2097 36.9491 35.2097 37.4194C35.2769 37.8898 34.8737 38.2929 34.3362 38.2929Z" fill="#4D80C9"/>
<path d="M41.1898 40.8461H28.4902C28.0199 40.8461 27.6167 40.4429 27.6167 39.9726C27.6167 39.5022 28.0199 39.0991 28.4902 39.0991H41.257C41.7274 39.0991 42.1305 39.5022 42.1305 39.9726C42.1305 40.4429 41.6602 40.8461 41.1898 40.8461Z" fill="#4D80C9"/>
<path d="M24.66 46.8267C23.5177 46.8267 22.577 45.886 22.577 44.7437C22.577 43.6014 23.5177 42.6607 24.66 42.6607C25.8023 42.6607 26.743 43.6014 26.743 44.7437C26.743 45.8188 25.8023 46.8267 24.66 46.8267ZM24.66 44.2062C24.4584 44.2062 24.2569 44.4078 24.2569 44.6093C24.2569 44.8109 24.4584 45.0125 24.66 45.0125C24.8616 45.0125 25.0632 44.8109 25.0632 44.6093C25.0632 44.4078 24.8616 44.2062 24.66 44.2062Z" fill="#4D80C9"/>
<path d="M34.3362 44.2058H28.3559C27.8856 44.2058 27.4824 43.8027 27.4824 43.3323C27.4824 42.862 27.8856 42.4588 28.3559 42.4588H34.3362C34.8065 42.4588 35.2097 42.862 35.2097 43.3323C35.2097 43.8027 34.8737 44.2058 34.3362 44.2058Z" fill="#4D80C9"/>
<path d="M38.6364 46.8269H28.423C27.9526 46.8269 27.5494 46.4237 27.5494 45.9534C27.5494 45.483 27.9526 45.0798 28.423 45.0798H38.6364C39.1067 45.0798 39.5099 45.483 39.5099 45.9534C39.4427 46.4237 39.1067 46.8269 38.6364 46.8269Z" fill="#4D80C9"/>
<path d="M16.1266 28.1468C14.9843 28.1468 14.0436 27.2061 14.0436 26.0638C14.0436 24.9215 14.9171 23.9136 16.1266 23.9136C17.3361 23.9136 18.2096 24.8543 18.2096 25.9966C18.2096 27.1389 17.3361 28.1468 16.1266 28.1468ZM16.1266 25.5262C15.925 25.5262 15.7234 25.7278 15.7234 25.9294C15.7234 26.131 15.925 26.3326 16.1266 26.3326C16.3282 26.3326 16.5298 26.131 16.5298 25.9294C16.5298 25.7278 16.3282 25.5262 16.1266 25.5262Z" fill="#4D80C9"/>
<path d="M51.3361 42.526C49.925 42.526 48.7827 41.3837 48.7827 39.9727C48.7827 38.5616 49.925 37.4193 51.3361 37.4193C52.7471 37.4193 53.8894 38.5616 53.8894 39.9727C53.9566 41.3837 52.8143 42.526 51.3361 42.526ZM51.3361 39.0992C50.8657 39.0992 50.4626 39.5023 50.4626 39.9727C50.4626 40.443 50.8657 40.8462 51.3361 40.8462C51.8064 40.8462 52.2096 40.443 52.2096 39.9727C52.2096 39.5023 51.8064 39.0992 51.3361 39.0992Z" fill="#4D80C9"/>
</svg>
