<svg width="68" height="69" viewBox="0 0 68 69" fill="none" xmlns="http://www.w3.org/2000/svg">
<path d="M21.7036 53.183H45.4902V18.3767H40.3834V20.8629H26.8103V18.3767H21.7036V53.183Z" fill="#A7C7FC"/>
<path d="M51.4032 36.2501C51.8856 36.2501 52.2767 35.859 52.2767 35.3766C52.2767 34.8941 51.8856 34.5031 51.4032 34.5031C50.9207 34.5031 50.5297 34.8941 50.5297 35.3766C50.5297 35.859 50.9207 36.2501 51.4032 36.2501Z" fill="#4D80C9"/>
<path d="M47.9763 23.416C48.4587 23.416 48.8498 23.0249 48.8498 22.5425C48.8498 22.0601 48.4587 21.669 47.9763 21.669C47.4939 21.669 47.1028 22.0601 47.1028 22.5425C47.1028 23.0249 47.4939 23.416 47.9763 23.416Z" fill="#4D80C9"/>
<path d="M30.17 43.0368C30.6524 43.0368 31.0435 42.6457 31.0435 42.1633C31.0435 41.6809 30.6524 41.2898 30.17 41.2898C29.6875 41.2898 29.2964 41.6809 29.2964 42.1633C29.2964 42.6457 29.6875 43.0368 30.17 43.0368Z" fill="#4D80C9"/>
<path d="M16.5969 20.0565C17.0793 20.0565 17.4704 19.6654 17.4704 19.183C17.4704 18.7006 17.0793 18.3095 16.5969 18.3095C16.1144 18.3095 15.7233 18.7006 15.7233 19.183C15.7233 19.6654 16.1144 20.0565 16.5969 20.0565Z" fill="#4D80C9"/>
<path d="M15.7234 42.1632C16.2059 42.1632 16.597 41.7721 16.597 41.2897C16.597 40.8072 16.2059 40.4161 15.7234 40.4161C15.241 40.4161 14.8499 40.8072 14.8499 41.2897C14.8499 41.7721 15.241 42.1632 15.7234 42.1632Z" fill="#4D80C9"/>
<path d="M21.7036 37.8627C21.2333 37.8627 20.8301 37.4596 20.8301 36.9892V18.3766C20.8301 17.9062 21.2333 17.5031 21.7036 17.5031H26.8103C27.2807 17.5031 27.6838 17.9062 27.6838 18.3766C27.6838 18.8469 27.2807 19.2501 26.8103 19.2501H22.5099V37.1236C22.5099 37.5268 22.174 37.8627 21.7036 37.8627Z" fill="#4D80C9"/>
<path d="M45.4902 54.0566H21.7036C21.2333 54.0566 20.8301 53.6534 20.8301 53.1831V48.8827C20.8301 48.4123 21.2333 48.0092 21.7036 48.0092C22.174 48.0092 22.5771 48.4123 22.5771 48.8827V52.3095H44.6838V19.1831H40.3834C39.9131 19.1831 39.5099 18.7799 39.5099 18.3096C39.5099 17.8392 39.9131 17.436 40.3834 17.436H45.4902C45.9605 17.436 46.3637 17.8392 46.3637 18.3096V53.1831C46.2965 53.6534 45.9605 54.0566 45.4902 54.0566Z" fill="#4D80C9"/>
<path d="M40.3835 21.7363H26.8103C26.34 21.7363 25.9368 21.3331 25.9368 20.8628V16.5624C25.9368 16.092 26.34 15.6889 26.8103 15.6889H31.2451C31.5811 14.681 32.5218 14.009 33.5969 14.009C34.672 14.009 35.6127 14.681 35.9487 15.6889H40.3835C40.8538 15.6889 41.257 16.092 41.257 16.5624V20.8628C41.1898 21.3331 40.8538 21.7363 40.3835 21.7363ZM27.6167 20.0565H39.51V17.5031H35.2095C34.7392 17.5031 34.336 17.0999 34.336 16.6296C34.336 16.1592 33.9329 15.7561 33.4625 15.7561C32.9922 15.7561 32.589 16.1592 32.589 16.6296C32.589 17.0999 32.1858 17.5031 31.7155 17.5031H27.4151V20.0565H27.6167Z" fill="#4D80C9"/>
<path d="M21.7037 43.843C19.8223 43.843 18.2768 42.3647 18.2768 40.4161V36.9892C18.2768 36.5189 18.6799 36.1157 19.1503 36.1157C19.6207 36.1157 20.0238 36.5189 20.0238 36.9892V40.4161C20.0238 41.3568 20.763 42.096 21.7037 42.096C22.6444 42.096 23.3835 41.3568 23.3835 40.4161V36.9892C23.3835 36.5189 23.7867 36.1157 24.257 36.1157C24.7274 36.1157 25.1305 36.5189 25.1305 36.9892V40.4161C25.0633 42.2975 23.5179 43.843 21.7037 43.843Z" fill="#4D80C9"/>
<path d="M24.1898 49.756C23.7194 49.756 23.3163 49.3529 23.3163 48.8825V45.4556C23.3163 44.5149 22.5771 43.7758 21.6364 43.7758C20.6957 43.7758 19.9566 44.5149 19.9566 45.4556V48.8825C19.9566 49.3529 19.5534 49.756 19.083 49.756C18.6127 49.756 18.2095 49.3529 18.2095 48.8825V45.4556C18.2095 43.5742 19.6878 42.0287 21.6364 42.0287C23.585 42.0287 25.0633 43.507 25.0633 45.4556V48.8825C25.0633 49.4201 24.6601 49.756 24.1898 49.756Z" fill="#4D80C9"/>
<path d="M25.0633 37.8628H18.2767C17.8064 37.8628 17.4032 37.4596 17.4032 36.9892C17.4032 36.5189 17.8064 36.1157 18.2767 36.1157H25.0633C25.5337 36.1157 25.9368 36.5189 25.9368 36.9892C26.004 37.4596 25.6008 37.8628 25.0633 37.8628Z" fill="#4D80C9"/>
<path d="M25.0633 49.7561H18.2767C17.8064 49.7561 17.4032 49.353 17.4032 48.8826C17.4032 48.4123 17.8064 48.0091 18.2767 48.0091H25.0633C25.5337 48.0091 25.9368 48.4123 25.9368 48.8826C25.9368 49.4202 25.6008 49.7561 25.0633 49.7561Z" fill="#4D80C9"/>
<path d="M41.1897 25.9696H30.17C29.6996 25.9696 29.2964 25.5664 29.2964 25.0961C29.2964 24.6257 29.6996 24.2225 30.17 24.2225H41.2569C41.7273 24.2225 42.1304 24.6257 42.1304 25.0961C42.0633 25.6336 41.6601 25.9696 41.1897 25.9696Z" fill="#4D80C9"/>
<path d="M41.1897 29.3963H30.17C29.6996 29.3963 29.2964 28.9932 29.2964 28.5228C29.2964 28.0525 29.6996 27.6493 30.17 27.6493H41.2569C41.7273 27.6493 42.1304 28.0525 42.1304 28.5228C42.0633 29.0604 41.6601 29.3963 41.1897 29.3963Z" fill="#4D80C9"/>
<path d="M41.1897 32.7561H30.17C29.6996 32.7561 29.2964 32.3529 29.2964 31.8826C29.2964 31.4122 29.6996 31.009 30.17 31.009H41.2569C41.7273 31.009 42.1304 31.4122 42.1304 31.8826C42.0633 32.4201 41.6601 32.7561 41.1897 32.7561Z" fill="#4D80C9"/>
<path d="M41.1897 36.1829H30.17C29.6996 36.1829 29.2964 35.7797 29.2964 35.3094C29.2964 34.839 29.6996 34.4359 30.17 34.4359H41.2569C41.7273 34.4359 42.1304 34.839 42.1304 35.3094C42.1304 35.7797 41.6601 36.1829 41.1897 36.1829Z" fill="#4D80C9"/>
<path d="M41.1897 39.5426H30.17C29.6996 39.5426 29.2964 39.1395 29.2964 38.6691C29.2964 38.1987 29.6996 37.7956 30.17 37.7956H41.2569C41.7273 37.7956 42.1304 38.1987 42.1304 38.6691C42.1304 39.1395 41.6601 39.5426 41.1897 39.5426Z" fill="#4D80C9"/>
<path d="M41.1897 42.9696H32.7233C32.253 42.9696 31.8498 42.5664 31.8498 42.0961C31.8498 41.6257 32.253 41.2225 32.7233 41.2225H41.1897C41.6601 41.2225 42.0632 41.6257 42.0632 42.0961C42.0632 42.5664 41.6601 42.9696 41.1897 42.9696Z" fill="#4D80C9"/>
<path d="M25.3321 28.5901C25.1305 28.5901 24.9289 28.5229 24.7273 28.3213L23.5178 27.1118C23.1819 26.7758 23.1819 26.2383 23.5178 25.9023C23.8538 25.5663 24.3914 25.5663 24.7273 25.9023L25.3321 26.5071L27.1463 24.6928C27.4823 24.3569 28.0198 24.3569 28.3558 24.6928C28.6918 25.0288 28.6918 25.5663 28.3558 25.9023L26.004 28.2541C25.8024 28.5229 25.6009 28.5901 25.3321 28.5901Z" fill="#4D80C9"/>
<path d="M25.3321 33.4952C25.1305 33.4952 24.9289 33.428 24.7273 33.2264L23.585 32.017C23.2491 31.681 23.2491 31.1434 23.585 30.8075C23.921 30.4715 24.4586 30.4715 24.7945 30.8075L25.3993 31.4122L27.2135 29.598C27.5495 29.262 28.087 29.262 28.423 29.598C28.759 29.934 28.759 30.4715 28.423 30.8075L26.0712 33.1593C25.8024 33.3608 25.6009 33.4952 25.3321 33.4952Z" fill="#4D80C9"/>
<path d="M16.5968 30.2699C15.1858 30.2699 14.0435 29.1276 14.0435 27.7166C14.0435 26.3055 15.1858 25.1632 16.5968 25.1632C18.0079 25.1632 19.1502 26.3055 19.1502 27.7166C19.1502 29.1276 17.9407 30.2699 16.5968 30.2699ZM16.5968 26.843C16.1265 26.843 15.7233 27.2462 15.7233 27.7166C15.7233 28.1869 16.1265 28.5901 16.5968 28.5901C17.0672 28.5901 17.4703 28.1869 17.4703 27.7166C17.4703 27.2462 17.0672 26.843 16.5968 26.843Z" fill="#4D80C9"/>
<path d="M51 46.3293C49.3874 46.3293 47.9763 44.9854 47.9763 43.3056C47.9763 41.6929 49.3202 40.2819 51 40.2819C52.6127 40.2819 54.0237 41.6257 54.0237 43.3056C53.9566 44.9854 52.6127 46.3293 51 46.3293ZM51 42.1633C50.3281 42.1633 49.7234 42.7008 49.7234 43.44C49.7234 44.1119 50.2609 44.7166 51 44.7166C51.672 44.7166 52.2767 44.1791 52.2767 43.44C52.2767 42.7008 51.672 42.1633 51 42.1633Z" fill="#4D80C9"/>
</svg>
