<svg width="68" height="68" viewBox="0 0 68 68" fill="none" xmlns="http://www.w3.org/2000/svg">
<path d="M52.6798 15.6554V44.5487H33.9999V22.5763C33.9999 18.7463 37.0909 15.7226 40.8537 15.7226H52.6798V15.6554Z" fill="#A7C7FC"/>
<path d="M33.9999 22.6438V44.6833H15.3201V15.7229H19.6205V23.3829L22.1738 21.7031L24.7272 23.3829V15.7229H27.1461C30.909 15.6557 33.9999 18.8138 33.9999 22.6438Z" fill="#A7C7FC"/>
<path d="M33.9998 23.4504C33.5295 23.4504 33.1263 23.0473 33.1263 22.5769C33.1263 19.2173 30.4386 16.5295 27.0789 16.5295H24.6599C24.1896 16.5295 23.7864 16.1264 23.7864 15.656C23.7864 15.1856 24.1896 14.7825 24.6599 14.7825H27.0789C31.3793 14.7825 34.8062 18.2765 34.8062 22.5097C34.8733 23.0473 34.4702 23.4504 33.9998 23.4504Z" fill="#4D80C9"/>
<path d="M34.0001 49.6561H15.3202C14.8499 49.6561 14.4467 49.253 14.4467 48.7826V15.6561C14.4467 15.1858 14.8499 14.7826 15.3202 14.7826H19.6206C20.091 14.7826 20.4941 15.1858 20.4941 15.6561C20.4941 16.1265 20.091 16.5296 19.6206 16.5296H16.1938V47.9763H34.0001C34.4704 47.9763 34.8736 48.3794 34.8736 48.8498C34.8736 49.3201 34.4704 49.6561 34.0001 49.6561Z" fill="#4D80C9"/>
<path d="M52.6799 49.6564H34C33.5297 49.6564 33.1265 49.2532 33.1265 48.7828V22.6445C33.1265 18.3441 36.6206 14.9172 40.8538 14.9172H52.6799C53.1502 14.9172 53.5534 15.3204 53.5534 15.7907V48.9844C53.5534 49.3204 53.1502 49.6564 52.6799 49.6564ZM34.8735 47.9765H51.8736V16.5971H40.8538C37.4941 16.5971 34.8064 19.2848 34.8064 22.6445V47.9765H34.8735Z" fill="#4D80C9"/>
<path d="M52.6798 45.4898H15.3202C14.8498 45.4898 14.4467 45.0867 14.4467 44.6163C14.4467 44.146 14.8498 43.7428 15.3202 43.7428H52.6798C53.1502 43.7428 53.5534 44.146 53.5534 44.6163C53.5534 45.0195 53.1502 45.4898 52.6798 45.4898Z" fill="#4D80C9"/>
<path d="M24.66 24.1903C24.5257 24.1903 24.3241 24.1231 24.1897 24.0559L22.1067 22.712L20.0237 24.0559C19.7549 24.2575 19.4189 24.2574 19.1502 24.1231C18.8814 23.9887 18.6798 23.7199 18.6798 23.3839V15.7239C18.6798 15.2535 19.083 14.8503 19.5533 14.8503H24.66C25.1304 14.8503 25.5336 15.2535 25.5336 15.7239V23.3839C25.5336 23.7199 25.332 23.9887 25.0632 24.1231C24.9288 24.1903 24.7944 24.1903 24.66 24.1903ZM22.1067 20.7634C22.2411 20.7634 22.4426 20.8306 22.577 20.8978L23.7865 21.7041V16.5302H20.3597V21.7713L21.5691 20.965C21.7707 20.8306 21.9723 20.7634 22.1067 20.7634Z" fill="#4D80C9"/>
<path d="M30.5729 22.51H27.146C26.6757 22.51 26.2725 22.1068 26.2725 21.6365C26.2725 21.1661 26.6757 20.7629 27.146 20.7629H30.5729C31.0433 20.7629 31.4464 21.1661 31.4464 21.6365C31.5136 22.174 31.1105 22.51 30.5729 22.51Z" fill="#4D80C9"/>
<path d="M24.66 28.4898H18.6797C18.2094 28.4898 17.8062 28.0867 17.8062 27.6163C17.8062 27.146 18.2094 26.7428 18.6797 26.7428H24.66C25.1303 26.7428 25.5335 27.146 25.5335 27.6163C25.5335 28.0867 25.0631 28.4898 24.66 28.4898Z" fill="#4D80C9"/>
<path d="M26.407 31.8492H18.7469C18.2765 31.8492 17.8734 31.446 17.8734 30.9757C17.8734 30.5053 18.2765 30.1022 18.7469 30.1022H26.407C26.8773 30.1022 27.2805 30.5053 27.2805 30.9757C27.2133 31.446 26.8101 31.8492 26.407 31.8492Z" fill="#4D80C9"/>
<path d="M30.573 35.2763H18.6797C18.2094 35.2763 17.8062 34.8732 17.8062 34.4028C17.8062 33.9325 18.2094 33.5293 18.6797 33.5293H30.573C31.0434 33.5293 31.4465 33.9325 31.4465 34.4028C31.5137 34.8732 31.1106 35.2763 30.573 35.2763Z" fill="#4D80C9"/>
<path d="M30.573 38.6361H18.6797C18.2094 38.6361 17.8062 38.2329 17.8062 37.7626C17.8062 37.2922 18.2094 36.889 18.6797 36.889H30.573C31.0434 36.889 31.4465 37.2922 31.4465 37.7626C31.4465 38.2329 31.1106 38.6361 30.573 38.6361Z" fill="#4D80C9"/>
<path d="M30.5734 42.0632H25.4666C24.9963 42.0632 24.5931 41.66 24.5931 41.1897C24.5931 40.7193 24.9963 40.3162 25.4666 40.3162H30.5734C31.0437 40.3162 31.4469 40.7193 31.4469 41.1897C31.5141 41.66 31.1109 42.0632 30.5734 42.0632Z" fill="#4D80C9"/>
<path d="M49.32 28.4898H39.1066C38.6363 28.4898 38.2331 28.0867 38.2331 27.6163C38.2331 27.146 38.6363 26.7428 39.1066 26.7428H49.32C49.7904 26.7428 50.1936 27.146 50.1936 27.6163C50.1936 28.0867 49.7904 28.4898 49.32 28.4898Z" fill="#4D80C9"/>
<path d="M49.3199 31.8492H41.727C41.2567 31.8492 40.8535 31.446 40.8535 30.9757C40.8535 30.5053 41.2567 30.1022 41.727 30.1022H49.3871C49.8575 30.1022 50.2606 30.5053 50.2606 30.9757C50.1934 31.446 49.7903 31.8492 49.3199 31.8492Z" fill="#4D80C9"/>
<path d="M49.32 35.2763H37.4268C36.9564 35.2763 36.5532 34.8732 36.5532 34.4028C36.5532 33.9325 36.9564 33.5293 37.4268 33.5293H49.32C49.7904 33.5293 50.1936 33.9325 50.1936 34.4028C50.1936 34.8732 49.7904 35.2763 49.32 35.2763Z" fill="#4D80C9"/>
<path d="M49.32 38.6361H37.4268C36.9564 38.6361 36.5532 38.2329 36.5532 37.7626C36.5532 37.2922 36.9564 36.889 37.4268 36.889H49.32C49.7904 36.889 50.1936 37.2922 50.1936 37.7626C50.1936 38.2329 49.7904 38.6361 49.32 38.6361Z" fill="#4D80C9"/>
<path d="M42.4661 42.0632H37.3593C36.889 42.0632 36.4858 41.66 36.4858 41.1897C36.4858 40.7193 36.889 40.3162 37.3593 40.3162H42.4661C42.9364 40.3162 43.3396 40.7193 43.3396 41.1897C43.4068 41.66 43.0036 42.0632 42.4661 42.0632Z" fill="#4D80C9"/>
<path d="M52.6798 53.0829H15.3202C14.8498 53.0829 14.4467 52.6797 14.4467 52.2093C14.4467 51.739 14.8498 51.3358 15.3202 51.3358H52.6798C53.1502 51.3358 53.5534 51.739 53.5534 52.2093C53.5534 52.7469 53.1502 53.0829 52.6798 53.0829Z" fill="#4D80C9"/>
</svg>
