<svg width="68" height="68" viewBox="0 0 68 68" fill="none" xmlns="http://www.w3.org/2000/svg">
<path fill-rule="evenodd" clip-rule="evenodd" d="M43.4744 53.0832H19.6878V18.2769H24.7945V20.763H38.3676V18.2769H43.4744V27.5497C43.4296 27.5491 43.3848 27.5488 43.3398 27.5488C37.5878 27.5488 32.9248 32.2118 32.9248 37.9638C32.9248 43.7159 37.5878 48.3789 43.3398 48.3789C43.3848 48.3789 43.4296 48.3786 43.4744 48.378V53.0832Z" fill="#A7C7FC"/>
<path d="M46.0276 23.5175C46.51 23.5175 46.9011 23.1264 46.9011 22.644C46.9011 22.1616 46.51 21.7705 46.0276 21.7705C45.5451 21.7705 45.1541 22.1616 45.1541 22.644C45.1541 23.1264 45.5451 23.5175 46.0276 23.5175Z" fill="#4D80C9"/>
<path d="M28.2213 43.1381C28.7037 43.1381 29.0948 42.7471 29.0948 42.2646C29.0948 41.7822 28.7037 41.3911 28.2213 41.3911C27.7389 41.3911 27.3478 41.7822 27.3478 42.2646C27.3478 42.7471 27.7389 43.1381 28.2213 43.1381Z" fill="#4D80C9"/>
<path d="M14.6481 20.1582C15.1306 20.1582 15.5216 19.7671 15.5216 19.2846C15.5216 18.8022 15.1306 18.4111 14.6481 18.4111C14.1657 18.4111 13.7746 18.8022 13.7746 19.2846C13.7746 19.7671 14.1657 20.1582 14.6481 20.1582Z" fill="#4D80C9"/>
<path d="M13.7746 42.2651C14.257 42.2651 14.6481 41.874 14.6481 41.3916C14.6481 40.9092 14.257 40.5181 13.7746 40.5181C13.2921 40.5181 12.9011 40.9092 12.9011 41.3916C12.9011 41.874 13.2921 42.2651 13.7746 42.2651Z" fill="#4D80C9"/>
<path d="M19.7551 37.9647C19.2847 37.9647 18.8815 37.5615 18.8815 37.0911V18.4785C18.8815 18.0081 19.2847 17.605 19.7551 17.605H24.8618C25.3321 17.605 25.7353 18.0081 25.7353 18.4785C25.7353 18.9489 25.3321 19.352 24.8618 19.352H20.5614V37.2255C20.5614 37.6287 20.2254 37.9647 19.7551 37.9647Z" fill="#4D80C9"/>
<path d="M38.4348 21.8381H24.8617C24.3913 21.8381 23.9882 21.4349 23.9882 20.9646V16.6642C23.9882 16.1938 24.3913 15.7907 24.8617 15.7907H29.2965C29.6324 14.7828 30.5731 14.1108 31.6482 14.1108C32.7233 14.1108 33.664 14.7828 34 15.7907H38.4348C38.9052 15.7907 39.3083 16.1938 39.3083 16.6642V20.9646C39.2411 21.4349 38.9052 21.8381 38.4348 21.8381ZM25.668 20.1583H37.5613V17.6049H33.2609C32.7905 17.6049 32.3874 17.2018 32.3874 16.7314C32.3874 16.261 31.9842 15.8579 31.5139 15.8579C31.0435 15.8579 30.6403 16.261 30.6403 16.7314C30.6403 17.2018 30.2372 17.6049 29.7668 17.6049H25.4664V20.1583H25.668Z" fill="#4D80C9"/>
<path d="M19.7551 43.9446C17.8736 43.9446 16.3282 42.4663 16.3282 40.5177V37.0908C16.3282 36.6204 16.7313 36.2173 17.2017 36.2173C17.6721 36.2173 18.0752 36.6204 18.0752 37.0908V40.5177C18.0752 41.4584 18.8144 42.1975 19.7551 42.1975C20.6958 42.1975 21.4349 41.4584 21.4349 40.5177V37.0908C21.4349 36.6204 21.8381 36.2173 22.3084 36.2173C22.7788 36.2173 23.1819 36.6204 23.1819 37.0908V40.5177C23.1147 42.3991 21.5693 43.9446 19.7551 43.9446Z" fill="#4D80C9"/>
<path d="M22.2412 49.8576C21.7708 49.8576 21.3676 49.4545 21.3676 48.9841V45.5573C21.3676 44.6165 20.6285 43.8774 19.6878 43.8774C18.7471 43.8774 18.008 44.6165 18.008 45.5573V48.9841C18.008 49.4545 17.6048 49.8576 17.1344 49.8576C16.6641 49.8576 16.2609 49.4545 16.2609 48.9841V45.5573C16.2609 43.6758 17.7392 42.1304 19.6878 42.1304C21.6364 42.1304 23.1147 43.6086 23.1147 45.5573V48.9841C23.1147 49.5217 22.7115 49.8576 22.2412 49.8576Z" fill="#4D80C9"/>
<path d="M23.1147 37.9643H16.3282C15.8578 37.9643 15.4547 37.5612 15.4547 37.0908C15.4547 36.6204 15.8578 36.2173 16.3282 36.2173H23.1147C23.5851 36.2173 23.9883 36.6204 23.9883 37.0908C24.0554 37.5612 23.6523 37.9643 23.1147 37.9643Z" fill="#4D80C9"/>
<path d="M23.1147 49.8579H16.3282C15.8578 49.8579 15.4547 49.4547 15.4547 48.9844C15.4547 48.514 15.8578 48.1108 16.3282 48.1108H23.1147C23.5851 48.1108 23.9883 48.514 23.9883 48.9844C23.9883 49.5219 23.6523 49.8579 23.1147 49.8579Z" fill="#4D80C9"/>
<path d="M23.3835 28.6922C23.1819 28.6922 22.9803 28.625 22.7787 28.4234L21.5692 27.2139C21.2333 26.8779 21.2333 26.3404 21.5692 26.0044C21.9052 25.6685 22.4428 25.6685 22.7787 26.0044L23.3835 26.6092L25.1977 24.7949C25.5337 24.459 26.0712 24.459 26.4072 24.7949C26.7432 25.1309 26.7432 25.6685 26.4072 26.0044L24.0554 28.3562C23.8538 28.625 23.6522 28.6922 23.3835 28.6922Z" fill="#4D80C9"/>
<path d="M23.3835 33.597C23.1819 33.597 22.9803 33.5298 22.7787 33.3282L21.6364 32.1187C21.3005 31.7827 21.3005 31.2452 21.6364 30.9092C21.9724 30.5733 22.5099 30.5733 22.8459 30.9092L23.4507 31.514L25.2649 29.6997C25.6009 29.3638 26.1384 29.3638 26.4744 29.6997C26.8104 30.0357 26.8104 30.5733 26.4744 30.9092L24.1226 33.261C23.8538 33.4626 23.6523 33.597 23.3835 33.597Z" fill="#4D80C9"/>
<path d="M53.6206 27.2805C52.2096 27.2805 51.0673 26.1383 51.0673 24.7272C51.0673 23.3161 52.2096 22.1738 53.6206 22.1738C55.0317 22.1738 56.174 23.3161 56.174 24.7272C56.174 26.1383 54.9645 27.2805 53.6206 27.2805ZM53.6206 23.8537C53.1503 23.8537 52.7471 24.2568 52.7471 24.7272C52.7471 25.1975 53.1503 25.6007 53.6206 25.6007C54.091 25.6007 54.4941 25.1975 54.4941 24.7272C54.4941 24.2568 54.091 23.8537 53.6206 23.8537Z" fill="#4D80C9"/>
<path fill-rule="evenodd" clip-rule="evenodd" d="M19.7551 54.1586H43.5416C44.012 54.1586 44.3479 53.7555 44.4151 53.2851V48.5324C44.0835 48.5642 43.7473 48.5805 43.4072 48.5805C43.1815 48.5805 42.9574 48.5733 42.7353 48.5592V52.4116H20.6286V48.9847C20.6286 48.5144 20.2254 48.1112 19.7551 48.1112C19.2847 48.1112 18.8815 48.5144 18.8815 48.9847V53.2851C18.8815 53.7555 19.2847 54.1586 19.7551 54.1586ZM42.7353 27.7718C42.9574 27.7577 43.1815 27.7505 43.4072 27.7505C43.7473 27.7505 44.0835 27.7668 44.4151 27.7986V18.4116C44.4151 17.9413 44.012 17.5381 43.5416 17.5381H38.4349C37.9645 17.5381 37.5614 17.9413 37.5614 18.4116C37.5614 18.882 37.9645 19.2851 38.4349 19.2851H42.7353V27.7718Z" fill="#4D80C9"/>
<path fill-rule="evenodd" clip-rule="evenodd" d="M39.4427 26.6084H28.4229C27.9526 26.6084 27.5494 26.2052 27.5494 25.7348C27.5494 25.2645 27.9526 24.8613 28.4229 24.8613H39.5099C39.9803 24.8613 40.3834 25.2645 40.3834 25.7348C40.3162 26.2724 39.9131 26.6084 39.4427 26.6084ZM37.4742 30.0356H28.4229C27.9526 30.0356 27.5494 29.6325 27.5494 29.1621C27.5494 28.6917 27.9526 28.2886 28.4229 28.2886H39.5099C39.7849 28.2886 40.0369 28.4264 40.1988 28.6349C39.2167 28.9675 38.3003 29.4426 37.4742 30.0356ZM35.6989 31.6484H28.4229C27.9526 31.6484 27.5494 32.0515 27.5494 32.5219C27.5494 32.9922 27.9526 33.3954 28.4229 33.3954H34.462C34.8145 32.7701 35.2296 32.1849 35.6989 31.6484ZM33.7033 35.075H28.4229C27.9526 35.075 27.5494 35.4782 27.5494 35.9485C27.5494 36.4189 27.9526 36.822 28.4229 36.822H33.2611C33.3586 36.2209 33.5076 35.637 33.7033 35.075ZM33.1266 38.4348H28.4229C27.9526 38.4348 27.5494 38.8379 27.5494 39.3083C27.5494 39.7786 27.9526 40.1818 28.4229 40.1818H33.2611C33.1724 39.635 33.1264 39.0738 33.1264 38.5019C33.1264 38.4795 33.1264 38.4572 33.1266 38.4348ZM33.68 41.8613H30.9762C30.5058 41.8613 30.1027 42.2645 30.1027 42.7348C30.1027 43.2052 30.5058 43.6084 30.9762 43.6084H34.462C34.1503 43.0554 33.8877 42.4711 33.68 41.8613Z" fill="#4D80C9"/>
<g clip-path="url(#clip0_1_5941)">
<path fill-rule="evenodd" clip-rule="evenodd" d="M44.0957 29.0057C42.6536 29.0059 41.2326 29.3508 39.951 30.0119C38.6694 30.6729 37.5645 31.6308 36.7284 32.8057C35.8923 33.9806 35.3494 35.3384 35.1448 36.7659C34.9402 38.1933 35.0799 39.649 35.5523 41.0114C36.0247 42.3738 36.8161 43.6036 37.8604 44.598C38.9047 45.5924 40.1717 46.3226 41.5556 46.7278C42.9395 47.1329 44.4003 47.2012 45.816 46.927C47.2317 46.6528 48.5613 46.0441 49.6939 45.1515L53.5793 49.0368C53.7799 49.2306 54.0487 49.3379 54.3276 49.3355C54.6066 49.333 54.8734 49.2211 55.0707 49.0239C55.2679 48.8266 55.3798 48.5598 55.3822 48.2808C55.3847 48.0019 55.2774 47.7331 55.0836 47.5325L51.1983 43.6471C52.2494 42.3137 52.9039 40.7112 53.0868 39.0231C53.2697 37.3351 52.9737 35.6296 52.2326 34.1019C51.4915 32.5742 50.3353 31.2861 48.8963 30.3848C47.4573 29.4835 45.7936 29.0056 44.0957 29.0057ZM37.1803 38.0489C37.1803 36.2148 37.9089 34.4559 39.2058 33.159C40.5027 31.8621 42.2616 31.1335 44.0957 31.1335C45.9297 31.1335 47.6887 31.8621 48.9856 33.159C50.2824 34.4559 51.011 36.2148 51.011 38.0489C51.011 39.883 50.2824 41.6419 48.9856 42.9388C47.6887 44.2357 45.9297 44.9642 44.0957 44.9642C42.2616 44.9642 40.5027 44.2357 39.2058 42.9388C37.9089 41.6419 37.1803 39.883 37.1803 38.0489Z" fill="#4D80C9"/>
</g>
<defs>
<clipPath id="clip0_1_5941">
<rect width="25.5336" height="25.5336" fill="white" transform="translate(32.9247 26.8779)"/>
</clipPath>
</defs>
</svg>
