<svg width="68" height="68" viewBox="0 0 68 68" fill="none" xmlns="http://www.w3.org/2000/svg">
<rect x="38.8614" y="26.7181" width="6.83036" height="20.4911" fill="#A7C7FC"/>
<rect x="23.6831" y="23.6823" width="6.07143" height="23.5268" fill="#A7C7FC"/>
<path d="M43.5673 23.9113C44.1121 23.9113 44.5539 23.4696 44.5539 22.9247C44.5539 22.3798 44.1121 21.9381 43.5673 21.9381C43.0224 21.9381 42.5807 22.3798 42.5807 22.9247C42.5807 23.4696 43.0224 23.9113 43.5673 23.9113Z" fill="#4D80C9"/>
<path d="M34.9912 18.1437C35.5361 18.1437 35.9778 17.702 35.9778 17.1571C35.9778 16.6123 35.5361 16.1705 34.9912 16.1705C34.4463 16.1705 34.0046 16.6123 34.0046 17.1571C34.0046 17.702 34.4463 18.1437 34.9912 18.1437Z" fill="#4D80C9"/>
<path d="M17.6875 15.3355C18.2324 15.3355 18.6741 14.8938 18.6741 14.3489C18.6741 13.804 18.2324 13.3623 17.6875 13.3623C17.1426 13.3623 16.7009 13.804 16.7009 14.3489C16.7009 14.8938 17.1426 15.3355 17.6875 15.3355Z" fill="#4D80C9"/>
<path d="M16.7011 39.2418C17.246 39.2418 17.6877 38.8 17.6877 38.2552C17.6877 37.7103 17.246 37.2686 16.7011 37.2686C16.1562 37.2686 15.7145 37.7103 15.7145 38.2552C15.7145 38.8 16.1562 39.2418 16.7011 39.2418Z" fill="#4D80C9"/>
<path d="M21.1787 48.88H15.9421C14.1965 48.88 12.8305 47.5139 12.8305 45.7684V20.3443C12.8305 18.5987 14.1965 17.2327 15.9421 17.2327H21.1787C22.9242 17.2327 24.2903 18.5987 24.2903 20.3443V25.5809C24.2903 26.1121 23.8349 26.5675 23.3037 26.5675C22.7724 26.5675 22.393 26.1121 22.393 25.5809V20.3443C22.393 19.6612 21.8617 19.13 21.1787 19.13H15.9421C15.259 19.13 14.7278 19.6612 14.7278 20.3443V45.7684C14.7278 46.4514 15.259 46.9827 15.9421 46.9827H21.1787C21.8617 46.9827 22.393 46.4514 22.393 45.7684C22.393 45.2371 22.8483 44.7818 23.3796 44.7818C23.9108 44.7818 24.3662 45.2371 24.3662 45.7684C24.3662 47.438 23.0001 48.88 21.1787 48.88Z" fill="#4D80C9"/>
<path d="M28.4645 48.8803H25.0493C23.6074 48.8803 22.469 47.7419 22.469 46.3V25.5812C22.469 24.1392 23.6074 23.0009 25.0493 23.0009H28.4645C29.9065 23.0009 31.0449 24.1392 31.0449 25.5812C31.0449 26.1125 30.5895 26.5678 30.0582 26.5678C29.527 26.5678 29.0717 26.1125 29.0717 25.5812C29.0717 25.2017 28.7681 24.8982 28.3886 24.8982H24.9734C24.594 24.8982 24.2904 25.2017 24.2904 25.5812V46.3C24.2904 46.6794 24.594 46.983 24.9734 46.983H28.3886C28.7681 46.983 29.0717 46.6794 29.0717 46.3C29.0717 45.7687 29.527 45.3134 30.0582 45.3134C30.5895 45.3134 31.0449 45.7687 31.0449 46.3C31.1208 47.666 29.9065 48.8803 28.4645 48.8803Z" fill="#4D80C9"/>
<path d="M36.1294 48.8805H31.7277C30.2857 48.8805 29.1473 47.7421 29.1473 46.3001V22.6974C29.1473 21.2555 30.2857 20.1171 31.7277 20.1171H36.1294C37.5714 20.1171 38.7098 21.2555 38.7098 22.6974V28.4653C38.7098 28.9965 38.2545 29.4519 37.7232 29.4519C37.192 29.4519 36.7366 28.9965 36.7366 28.4653V22.6974C36.7366 22.318 36.433 22.0144 36.0536 22.0144H31.6518C31.2723 22.0144 30.9687 22.318 30.9687 22.6974V46.3001C30.9687 46.6796 31.2723 46.9831 31.6518 46.9831H36.0536C36.433 46.9831 36.7366 46.6796 36.7366 46.3001C36.7366 45.7689 37.192 45.3135 37.7232 45.3135C38.2545 45.3135 38.7098 45.7689 38.7098 46.3001C38.7857 47.6662 37.5714 48.8805 36.1294 48.8805Z" fill="#4D80C9"/>
<path d="M44.7812 48.8802H39.4687C38.0268 48.8802 36.8884 47.7418 36.8884 46.2998V28.465C36.8884 27.023 38.0268 25.8846 39.4687 25.8846H44.7812C46.2232 25.8846 47.3616 27.023 47.3616 28.465C47.3616 28.9962 46.9062 29.4516 46.375 29.4516C45.8437 29.4516 45.3884 28.9962 45.3884 28.465C45.3884 28.0855 45.0848 27.782 44.7053 27.782H39.3928C39.0134 27.782 38.7098 28.0855 38.7098 28.465V46.2998C38.7098 46.6793 39.0134 46.9829 39.3928 46.9829H44.7053C45.0848 46.9829 45.3884 46.6793 45.3884 46.2998V45.6168C45.3884 45.0855 45.8437 44.6302 46.375 44.6302C46.9062 44.6302 47.3616 45.0855 47.3616 45.6168V46.2998C47.3616 47.6659 46.2232 48.8802 44.7812 48.8802Z" fill="#4D80C9"/>
<path d="M51.7635 48.8801H48.8037C46.9823 48.8801 45.4644 47.4382 45.4644 45.6168V16.6257C45.4644 14.8043 46.9064 13.3623 48.8037 13.3623H51.7635C53.585 13.3623 55.0269 14.8043 55.0269 16.6257V45.5409C55.1028 47.4382 53.585 48.8801 51.7635 48.8801ZM48.8037 15.2596C48.0448 15.2596 47.4376 15.8668 47.4376 16.6257V45.5409C47.4376 46.2998 48.0448 46.9069 48.8037 46.9069H51.7635C52.5225 46.9069 53.1296 46.2998 53.1296 45.5409V16.6257C53.1296 15.8668 52.5225 15.2596 51.7635 15.2596H48.8037Z" fill="#4D80C9"/>
<path d="M23.4554 25.8846H13.8929C13.3617 25.8846 12.9063 25.4292 12.9063 24.898C12.9063 24.3667 13.3617 23.9114 13.8929 23.9114H23.4554C23.9866 23.9114 24.442 24.3667 24.442 24.898C24.3661 25.3533 23.9108 25.8846 23.4554 25.8846Z" fill="#4D80C9"/>
<path d="M23.4554 44.0233H13.8929C13.3617 44.0233 12.9063 43.5679 12.9063 43.0367C12.9063 42.5054 13.3617 42.05 13.8929 42.05H23.4554C23.9866 42.05 24.442 42.5054 24.442 43.0367C24.442 43.5679 23.9108 44.0233 23.4554 44.0233Z" fill="#4D80C9"/>
<path d="M30.1339 32.5632H23.3795C22.8482 32.5632 22.3929 32.1078 22.3929 31.5766C22.3929 31.0453 22.8482 30.59 23.3795 30.59H30.1339C30.6652 30.59 31.1205 31.0453 31.1205 31.5766C31.1205 32.1837 30.6652 32.5632 30.1339 32.5632Z" fill="#4D80C9"/>
<path d="M37.7991 26.7951H30.1339C29.6027 26.7951 29.1473 26.3398 29.1473 25.8085C29.1473 25.2773 29.6027 24.8219 30.1339 24.8219H37.7991C38.3303 24.8219 38.7857 25.2773 38.7857 25.8085C38.7857 26.4156 38.3303 26.7951 37.7991 26.7951Z" fill="#4D80C9"/>
<path d="M37.7991 44.0233H30.1339C29.6027 44.0233 29.1473 43.5679 29.1473 43.0367C29.1473 42.5054 29.6027 42.05 30.1339 42.05H37.7991C38.3303 42.05 38.7857 42.5054 38.7857 43.0367C38.7857 43.5679 38.3303 44.0233 37.7991 44.0233Z" fill="#4D80C9"/>
<path d="M30.1339 41.2145H23.3795C22.8482 41.2145 22.3929 40.7592 22.3929 40.2279C22.3929 39.6967 22.8482 39.2413 23.3795 39.2413H30.1339C30.6652 39.2413 31.1205 39.6967 31.1205 40.2279C31.1205 40.7592 30.6652 41.2145 30.1339 41.2145Z" fill="#4D80C9"/>
<path d="M46.4512 32.5632H37.7994C37.2682 32.5632 36.8128 32.1078 36.8128 31.5766C36.8128 31.0453 37.2682 30.59 37.7994 30.59H46.4512C46.9825 30.59 47.4378 31.0453 47.4378 31.5766C47.3619 32.1837 46.9066 32.5632 46.4512 32.5632Z" fill="#4D80C9"/>
<path d="M54.1162 42.1251H46.451C45.9198 42.1251 45.4644 41.6697 45.4644 41.1385C45.4644 40.6072 45.9198 40.1519 46.451 40.1519H54.1162C54.6475 40.1519 55.1028 40.6072 55.1028 41.1385C55.1028 41.6697 54.6475 42.1251 54.1162 42.1251Z" fill="#4D80C9"/>
<path d="M54.1162 23.9113H46.451C45.9198 23.9113 45.4644 23.456 45.4644 22.9247C45.4644 22.3935 45.9198 21.9381 46.451 21.9381H54.1162C54.6475 21.9381 55.1028 22.3935 55.1028 22.9247C55.1028 23.456 54.6475 23.9113 54.1162 23.9113Z" fill="#4D80C9"/>
<path d="M46.4512 44.0233H37.7994C37.2682 44.0233 36.8128 43.5679 36.8128 43.0367C36.8128 42.5054 37.2682 42.05 37.7994 42.05H46.4512C46.9825 42.05 47.4378 42.5054 47.4378 43.0367C47.4378 43.5679 46.9066 44.0233 46.4512 44.0233Z" fill="#4D80C9"/>
<path d="M54.1161 55.5587H13.817C12.2232 55.5587 10.933 54.2686 10.933 52.6748C10.933 51.9159 11.2366 51.2329 11.7679 50.6257C12.2991 50.0945 13.058 49.7909 13.817 49.7909H54.1161C55.7098 49.7909 57 51.0811 57 52.6748C57 53.4337 56.6964 54.1168 56.1652 54.7239C55.6339 55.2552 54.9509 55.5587 54.1161 55.5587ZM13.817 51.6882C13.5893 51.6882 13.3616 51.7641 13.1339 51.9918C12.9822 52.1436 12.8304 52.4471 12.8304 52.6748C12.8304 53.2061 13.2857 53.6614 13.817 53.6614H54.1161C54.3438 53.6614 54.5714 53.5855 54.7991 53.3579C54.9509 53.2061 55.1027 52.9784 55.1027 52.6748C55.1027 52.1436 54.6473 51.6882 54.1161 51.6882H13.817Z" fill="#4D80C9"/>
<path d="M41.1388 20.117C39.8486 20.117 38.7861 19.0545 38.7861 17.7643C38.7861 16.4741 39.8486 15.4116 41.1388 15.4116C42.4289 15.4116 43.4914 16.4741 43.4914 17.7643C43.5673 19.0545 42.5048 20.117 41.1388 20.117ZM41.1388 17.1572C40.9111 17.1572 40.6834 17.3848 40.6834 17.6125C40.6834 17.8402 40.9111 18.0679 41.1388 18.0679C41.3664 18.0679 41.5941 17.8402 41.5941 17.6125C41.67 17.3848 41.4423 17.1572 41.1388 17.1572Z" fill="#4D80C9"/>
<path d="M28.2367 18.1436C26.6429 18.1436 25.3527 16.8534 25.3527 15.2597C25.3527 13.6659 26.6429 12.3757 28.2367 12.3757C29.8304 12.3757 31.1206 13.6659 31.1206 15.2597C31.1206 16.8534 29.8304 18.1436 28.2367 18.1436ZM28.2367 14.3489C27.7054 14.3489 27.2501 14.8043 27.2501 15.3356C27.2501 15.8668 27.7054 16.3222 28.2367 16.3222C28.7679 16.3222 29.2233 15.8668 29.2233 15.3356C29.2233 14.7284 28.7679 14.3489 28.2367 14.3489Z" fill="#4D80C9"/>
<path d="M16.7011 36.3583C16.1699 36.3583 15.7145 35.9029 15.7145 35.3717V28.6172C15.7145 28.086 16.1699 27.6306 16.7011 27.6306C17.2324 27.6306 17.6877 28.086 17.6877 28.6172V35.3717C17.6877 35.9788 17.2324 36.3583 16.7011 36.3583Z" fill="#4D80C9"/>
</svg>
