<svg width="68" height="68" viewBox="0 0 68 68" fill="none" xmlns="http://www.w3.org/2000/svg">
<path d="M21.7036 53.0834H45.4901V18.2771H40.3834V20.7633H26.8103V18.2771H21.7036V53.0834Z" fill="#A7C7FC"/>
<path d="M51.4032 36.1502C51.8856 36.1502 52.2767 35.7591 52.2767 35.2767C52.2767 34.7943 51.8856 34.4032 51.4032 34.4032C50.9207 34.4032 50.5297 34.7943 50.5297 35.2767C50.5297 35.7591 50.9207 36.1502 51.4032 36.1502Z" fill="#4D80C9"/>
<path d="M47.9765 23.3161C48.4589 23.3161 48.85 22.925 48.85 22.4426C48.85 21.9602 48.4589 21.5691 47.9765 21.5691C47.4941 21.5691 47.103 21.9602 47.103 22.4426C47.103 22.925 47.4941 23.3161 47.9765 23.3161Z" fill="#4D80C9"/>
<path d="M30.17 42.9367C30.6524 42.9367 31.0435 42.5456 31.0435 42.0632C31.0435 41.5808 30.6524 41.1897 30.17 41.1897C29.6876 41.1897 29.2965 41.5808 29.2965 42.0632C29.2965 42.5456 29.6876 42.9367 30.17 42.9367Z" fill="#4D80C9"/>
<path d="M16.5969 19.9567C17.0793 19.9567 17.4704 19.5657 17.4704 19.0832C17.4704 18.6008 17.0793 18.2097 16.5969 18.2097C16.1145 18.2097 15.7234 18.6008 15.7234 19.0832C15.7234 19.5657 16.1145 19.9567 16.5969 19.9567Z" fill="#4D80C9"/>
<path d="M15.7235 42.0633C16.2059 42.0633 16.597 41.6722 16.597 41.1898C16.597 40.7074 16.2059 40.3163 15.7235 40.3163C15.2411 40.3163 14.85 40.7074 14.85 41.1898C14.85 41.6722 15.2411 42.0633 15.7235 42.0633Z" fill="#4D80C9"/>
<path d="M21.7035 37.7629C21.2331 37.7629 20.8299 37.3597 20.8299 36.8894V18.2767C20.8299 17.8064 21.2331 17.4032 21.7035 17.4032H26.8102C27.2805 17.4032 27.6837 17.8064 27.6837 18.2767C27.6837 18.7471 27.2805 19.1502 26.8102 19.1502H22.5098V37.0238C22.5098 37.4269 22.1738 37.7629 21.7035 37.7629Z" fill="#4D80C9"/>
<path d="M45.49 53.9565H21.7035C21.2331 53.9565 20.8299 53.5533 20.8299 53.083V48.7826C20.8299 48.3122 21.2331 47.9091 21.7035 47.9091C22.1738 47.9091 22.577 48.3122 22.577 48.7826V52.2095H44.6837V19.083H40.3833C39.9129 19.083 39.5098 18.6798 39.5098 18.2095C39.5098 17.7391 39.9129 17.3359 40.3833 17.3359H45.49C45.9604 17.3359 46.3635 17.7391 46.3635 18.2095V53.083C46.2963 53.5533 45.9604 53.9565 45.49 53.9565Z" fill="#4D80C9"/>
<path d="M40.3836 21.6365H26.8105C26.3401 21.6365 25.937 21.2333 25.937 20.7629V16.4625C25.937 15.9922 26.3401 15.589 26.8105 15.589H31.2452C31.5812 14.5811 32.5219 13.9092 33.597 13.9092C34.6721 13.9092 35.6128 14.5811 35.9488 15.589H40.3836C40.8539 15.589 41.2571 15.9922 41.2571 16.4625V20.7629C41.1899 21.2333 40.8539 21.6365 40.3836 21.6365ZM27.6168 19.9566H39.5101V17.4032H35.2097C34.7393 17.4032 34.3362 17.0001 34.3362 16.5297C34.3362 16.0594 33.933 15.6562 33.4627 15.6562C32.9923 15.6562 32.5891 16.0594 32.5891 16.5297C32.5891 17.0001 32.186 17.4032 31.7156 17.4032H27.4152V19.9566H27.6168Z" fill="#4D80C9"/>
<path d="M21.7036 43.743C19.8221 43.743 18.2767 42.2648 18.2767 40.3161V36.8893C18.2767 36.4189 18.6798 36.0157 19.1502 36.0157C19.6205 36.0157 20.0237 36.4189 20.0237 36.8893V40.3161C20.0237 41.2568 20.7628 41.996 21.7036 41.996C22.6443 41.996 23.3834 41.2568 23.3834 40.3161V36.8893C23.3834 36.4189 23.7865 36.0157 24.2569 36.0157C24.7273 36.0157 25.1304 36.4189 25.1304 36.8893V40.3161C25.0632 42.1976 23.5178 43.743 21.7036 43.743Z" fill="#4D80C9"/>
<path d="M24.1895 49.6561C23.7192 49.6561 23.316 49.253 23.316 48.7826V45.3557C23.316 44.415 22.5769 43.6759 21.6362 43.6759C20.6955 43.6759 19.9563 44.415 19.9563 45.3557V48.7826C19.9563 49.253 19.5532 49.6561 19.0828 49.6561C18.6124 49.6561 18.2093 49.253 18.2093 48.7826V45.3557C18.2093 43.4743 19.6876 41.9288 21.6362 41.9288C23.5848 41.9288 25.0631 43.4071 25.0631 45.3557V48.7826C25.0631 49.3201 24.6599 49.6561 24.1895 49.6561Z" fill="#4D80C9"/>
<path d="M25.0634 37.7628H18.2768C17.8065 37.7628 17.4033 37.3596 17.4033 36.8893C17.4033 36.4189 17.8065 36.0157 18.2768 36.0157H25.0634C25.5337 36.0157 25.9369 36.4189 25.9369 36.8893C26.0041 37.3596 25.6009 37.7628 25.0634 37.7628Z" fill="#4D80C9"/>
<path d="M25.0634 49.6562H18.2768C17.8065 49.6562 17.4033 49.2531 17.4033 48.7827C17.4033 48.3123 17.8065 47.9092 18.2768 47.9092H25.0634C25.5337 47.9092 25.9369 48.3123 25.9369 48.7827C25.9369 49.3202 25.6009 49.6562 25.0634 49.6562Z" fill="#4D80C9"/>
<path d="M41.1898 25.8694H30.17C29.6997 25.8694 29.2965 25.4662 29.2965 24.9958C29.2965 24.5255 29.6997 24.1223 30.17 24.1223H41.257C41.7273 24.1223 42.1305 24.5255 42.1305 24.9958C42.0633 25.5334 41.6602 25.8694 41.1898 25.8694Z" fill="#4D80C9"/>
<path d="M41.1898 29.296H30.17C29.6997 29.296 29.2965 28.8928 29.2965 28.4225C29.2965 27.9521 29.6997 27.549 30.17 27.549H41.257C41.7273 27.549 42.1305 27.9521 42.1305 28.4225C42.0633 28.96 41.6602 29.296 41.1898 29.296Z" fill="#4D80C9"/>
<path d="M41.1898 32.6562H30.17C29.6997 32.6562 29.2965 32.2531 29.2965 31.7827C29.2965 31.3123 29.6997 30.9092 30.17 30.9092H41.257C41.7273 30.9092 42.1305 31.3123 42.1305 31.7827C42.0633 32.3202 41.6602 32.6562 41.1898 32.6562Z" fill="#4D80C9"/>
<path d="M41.1898 36.083H30.17C29.6997 36.083 29.2965 35.6798 29.2965 35.2094C29.2965 34.7391 29.6997 34.3359 30.17 34.3359H41.257C41.7273 34.3359 42.1305 34.7391 42.1305 35.2094C42.1305 35.6798 41.6602 36.083 41.1898 36.083Z" fill="#4D80C9"/>
<path d="M41.1898 39.4427H30.17C29.6997 39.4427 29.2965 39.0395 29.2965 38.5692C29.2965 38.0988 29.6997 37.6957 30.17 37.6957H41.257C41.7273 37.6957 42.1305 38.0988 42.1305 38.5692C42.1305 39.0395 41.6602 39.4427 41.1898 39.4427Z" fill="#4D80C9"/>
<path d="M41.1899 42.8694H32.7235C32.2532 42.8694 31.85 42.4662 31.85 41.9958C31.85 41.5255 32.2532 41.1223 32.7235 41.1223H41.1899C41.6603 41.1223 42.0635 41.5255 42.0635 41.9958C42.0635 42.4662 41.6603 42.8694 41.1899 42.8694Z" fill="#4D80C9"/>
<path d="M25.332 28.4905C25.1304 28.4905 24.9289 28.4233 24.7273 28.2217L23.5178 27.0123C23.1818 26.6763 23.1818 26.1387 23.5178 25.8028C23.8538 25.4668 24.3913 25.4668 24.7273 25.8028L25.332 26.4075L27.1462 24.5933C27.4822 24.2573 28.0198 24.2573 28.3557 24.5933C28.6917 24.9293 28.6917 25.4668 28.3557 25.8028L26.004 28.1545C25.8024 28.4233 25.6008 28.4905 25.332 28.4905Z" fill="#4D80C9"/>
<path d="M25.3322 33.3954C25.1306 33.3954 24.929 33.3282 24.7274 33.1267L23.5851 31.9172C23.2492 31.5812 23.2492 31.0436 23.5851 30.7077C23.9211 30.3717 24.4586 30.3717 24.7946 30.7077L25.3994 31.3124L27.2136 29.4982C27.5496 29.1622 28.0871 29.1622 28.4231 29.4982C28.7591 29.8342 28.7591 30.3717 28.4231 30.7077L26.0713 33.0595C25.8025 33.261 25.601 33.3954 25.3322 33.3954Z" fill="#4D80C9"/>
<path d="M16.5969 30.1703C15.1858 30.1703 14.0435 29.028 14.0435 27.617C14.0435 26.2059 15.1858 25.0636 16.5969 25.0636C18.008 25.0636 19.1502 26.2059 19.1502 27.617C19.1502 29.028 17.9408 30.1703 16.5969 30.1703ZM16.5969 26.7434C16.1265 26.7434 15.7234 27.1466 15.7234 27.617C15.7234 28.0873 16.1265 28.4905 16.5969 28.4905C17.0672 28.4905 17.4704 28.0873 17.4704 27.617C17.4704 27.1466 17.0672 26.7434 16.5969 26.7434Z" fill="#4D80C9"/>
<path d="M51.0001 46.2294C49.3874 46.2294 47.9764 44.8856 47.9764 43.2057C47.9764 41.5931 49.3203 40.182 51.0001 40.182C52.6127 40.182 54.0238 41.5259 54.0238 43.2057C53.9566 44.8856 52.6127 46.2294 51.0001 46.2294ZM51.0001 42.0634C50.3282 42.0634 49.7234 42.601 49.7234 43.3401C49.7234 44.012 50.261 44.6168 51.0001 44.6168C51.672 44.6168 52.2768 44.0792 52.2768 43.3401C52.2768 42.601 51.672 42.0634 51.0001 42.0634Z" fill="#4D80C9"/>
</svg>
