<svg width="68" height="68" viewBox="0 0 68 68" fill="none" xmlns="http://www.w3.org/2000/svg">
<path d="M18.6799 53.083H43.6759C45.8261 53.083 47.6403 51.336 47.6403 49.1186V18.747C47.6403 16.5968 45.8933 14.7826 43.6759 14.7826H25.4664H18.6799V53.083Z" fill="#A7C7FC"/>
<path d="M50.9327 20.0241C51.4152 20.0241 51.8063 19.633 51.8063 19.1506C51.8063 18.6682 51.4152 18.2771 50.9327 18.2771C50.4503 18.2771 50.0592 18.6682 50.0592 19.1506C50.0592 19.633 50.4503 20.0241 50.9327 20.0241Z" fill="#4D80C9"/>
<path d="M50.1265 47.1699C50.6089 47.1699 51 46.7788 51 46.2964C51 45.8139 50.6089 45.4229 50.1265 45.4229C49.644 45.4229 49.253 45.8139 49.253 46.2964C49.253 46.7788 49.644 47.1699 50.1265 47.1699Z" fill="#4D80C9"/>
<path d="M42.4667 35.2774C42.9491 35.2774 43.3402 34.8863 43.3402 34.4039C43.3402 33.9215 42.9491 33.5304 42.4667 33.5304C41.9842 33.5304 41.5931 33.9215 41.5931 34.4039C41.5931 34.8863 41.9842 35.2774 42.4667 35.2774Z" fill="#4D80C9"/>
<path d="M25.4666 51.47C25.9491 51.47 26.3402 51.0788 26.3402 50.5964C26.3402 50.114 25.9491 49.7229 25.4666 49.7229C24.9842 49.7229 24.5931 50.114 24.5931 50.5964C24.5931 51.0788 24.9842 51.47 25.4666 51.47Z" fill="#4D80C9"/>
<path d="M43.6758 54.0238H18.6797C18.2094 54.0238 17.8062 53.6207 17.8062 53.1503V50.5297C17.8062 50.0594 18.2094 49.6562 18.6797 49.6562C19.1501 49.6562 19.5533 50.0594 19.5533 50.5297V52.2096H43.6758C45.3556 52.2096 46.7667 50.8657 46.7667 49.1187V18.7471C46.7667 17.0673 45.4228 15.6562 43.6758 15.6562H19.5533V17.336C19.5533 17.8064 19.1501 18.2096 18.6797 18.2096C18.2094 18.2096 17.8062 17.8064 17.8062 17.336V14.7827C17.8062 14.3123 18.2094 13.9092 18.6797 13.9092H43.6758C46.2963 13.9092 48.4465 15.9922 48.4465 18.6799V49.1859C48.4465 51.8064 46.2292 54.0238 43.6758 54.0238Z" fill="#4D80C9"/>
<path d="M18.6797 48.0433C18.2094 48.0433 17.8062 47.6401 17.8062 47.1698V44.6164C17.8062 44.1461 18.2094 43.7429 18.6797 43.7429C19.1501 43.7429 19.5533 44.1461 19.5533 44.6164V47.1698C19.5533 47.7073 19.1501 48.0433 18.6797 48.0433Z" fill="#4D80C9"/>
<path d="M18.6797 42.1304C18.2094 42.1304 17.8062 41.7272 17.8062 41.2569V38.7035C17.8062 38.2332 18.2094 37.83 18.6797 37.83C19.1501 37.83 19.5533 38.2332 19.5533 38.7035V41.2569C19.5533 41.7272 19.1501 42.1304 18.6797 42.1304Z" fill="#4D80C9"/>
<path d="M18.6797 36.1508C18.2094 36.1508 17.8062 35.7477 17.8062 35.2773V32.724C17.8062 32.2536 18.2094 31.8505 18.6797 31.8505C19.1501 31.8505 19.5533 32.2536 19.5533 32.724V35.2773C19.5533 35.8149 19.1501 36.1508 18.6797 36.1508Z" fill="#4D80C9"/>
<path d="M18.6797 30.2368C18.2094 30.2368 17.8062 29.8336 17.8062 29.3633V26.8099C17.8062 26.3396 18.2094 25.9364 18.6797 25.9364C19.1501 25.9364 19.5533 26.3396 19.5533 26.8099V29.3633C19.5533 29.7664 19.1501 30.2368 18.6797 30.2368Z" fill="#4D80C9"/>
<path d="M18.6797 24.2574C18.2094 24.2574 17.8062 23.8542 17.8062 23.3839V20.8305C17.8062 20.3602 18.2094 19.957 18.6797 19.957C19.1501 19.957 19.5533 20.3602 19.5533 20.8305V23.3839C19.5533 23.8542 19.1501 24.2574 18.6797 24.2574Z" fill="#4D80C9"/>
<path d="M20.3598 21.704H16.9329C15.5219 21.704 14.3796 20.5617 14.3796 19.1506C14.3796 18.4787 14.6483 17.874 15.1187 17.3364C15.5891 16.866 16.261 16.5973 16.9329 16.5973H20.3598C21.7709 16.5973 22.9132 17.7396 22.9132 19.1506C22.9132 19.8226 22.6444 20.4273 22.174 20.9649C21.6365 21.4352 21.0317 21.704 20.3598 21.704ZM17.0001 18.3443C16.7985 18.3443 16.597 18.4115 16.3954 18.6131C16.261 18.7475 16.1266 18.9491 16.1266 19.2179C16.1266 19.6882 16.5298 20.0914 17.0001 20.0914H20.427C20.6286 20.0914 20.8302 20.0242 21.0317 19.8226C21.1661 19.6882 21.3005 19.4194 21.3005 19.2179C21.3005 18.7475 20.8973 18.3443 20.427 18.3443H17.0001Z" fill="#4D80C9"/>
<path d="M20.3598 27.6165H16.9329C15.5219 27.6165 14.3796 26.4742 14.3796 25.0631C14.3796 24.3912 14.6483 23.7865 15.1187 23.2489C15.5891 22.7786 16.261 22.5098 16.9329 22.5098H20.3598C21.7709 22.5098 22.9132 23.6521 22.9132 25.0631C22.9132 25.7351 22.6444 26.3398 22.174 26.8774C21.6365 27.3477 21.0317 27.6165 20.3598 27.6165ZM17.0001 24.2568C16.7985 24.2568 16.597 24.324 16.3954 24.5256C16.261 24.66 16.1266 24.8616 16.1266 25.1303C16.1266 25.6007 16.5298 26.0038 17.0001 26.0038H20.427C20.6286 26.0038 20.8302 25.9366 21.0317 25.7351C21.1661 25.6007 21.3005 25.3991 21.3005 25.1303C21.3005 24.66 20.8973 24.2568 20.427 24.2568H17.0001Z" fill="#4D80C9"/>
<path d="M20.3598 33.5974H16.9329C15.5219 33.5974 14.3796 32.4551 14.3796 31.0441C14.3796 30.3721 14.6483 29.7674 15.1187 29.2298C15.5891 28.7595 16.261 28.4907 16.9329 28.4907H20.3598C21.7709 28.4907 22.9132 29.633 22.9132 31.0441C22.9132 31.716 22.6444 32.3208 22.174 32.8583C21.6365 33.3287 21.0317 33.5974 20.3598 33.5974ZM17.0001 30.2377C16.7985 30.2377 16.597 30.305 16.3954 30.5065C16.261 30.6409 16.1266 30.8425 16.1266 31.1113C16.1266 31.5816 16.5298 31.9848 17.0001 31.9848H20.427C20.6286 31.9848 20.8302 31.9176 21.0317 31.716C21.1661 31.5816 21.3005 31.38 21.3005 31.1113C21.3005 30.6409 20.8973 30.2377 20.427 30.2377H17.0001Z" fill="#4D80C9"/>
<path d="M20.3598 39.5099H16.9329C15.5219 39.5099 14.3796 38.3676 14.3796 36.9565C14.3796 36.2846 14.6483 35.6799 15.1187 35.1423C15.5891 34.672 16.261 34.4032 16.9329 34.4032H20.3598C21.7709 34.4032 22.9132 35.5455 22.9132 36.9565C22.9132 37.6285 22.6444 38.2332 22.174 38.7708C21.6365 39.2411 21.0317 39.5099 20.3598 39.5099ZM17.0001 36.1502C16.7985 36.1502 16.597 36.2174 16.3954 36.419C16.261 36.5534 16.1266 36.755 16.1266 37.0238C16.1266 37.4941 16.5298 37.8973 17.0001 37.8973H20.427C20.6286 37.8973 20.8302 37.8301 21.0317 37.6285C21.1661 37.4941 21.3005 37.2925 21.3005 37.0238C21.3005 36.5534 20.8973 36.1502 20.427 36.1502H17.0001Z" fill="#4D80C9"/>
<path d="M20.3598 45.4904H16.9329C15.5219 45.4904 14.3796 44.3481 14.3796 42.937C14.3796 42.2651 14.6483 41.6603 15.1187 41.1228C15.5891 40.6524 16.261 40.3837 16.9329 40.3837H20.3598C21.7709 40.3837 22.9132 41.526 22.9132 42.937C22.9132 43.609 22.6444 44.2137 22.174 44.7513C21.6365 45.2216 21.0317 45.4904 20.3598 45.4904ZM17.0001 42.1307C16.7985 42.1307 16.597 42.1979 16.3954 42.3995C16.261 42.5339 16.1266 42.7354 16.1266 43.0042C16.1266 43.4746 16.5298 43.8777 17.0001 43.8777H20.427C20.6286 43.8777 20.8302 43.8105 21.0317 43.609C21.1661 43.4746 21.3005 43.273 21.3005 43.0042C21.3005 42.5338 20.8973 42.1307 20.427 42.1307H17.0001Z" fill="#4D80C9"/>
<path d="M20.3598 51.4035H16.9329C15.5219 51.4035 14.3796 50.2612 14.3796 48.8501C14.3796 48.1782 14.6483 47.5734 15.1187 47.0359C15.5891 46.5655 16.261 46.2968 16.9329 46.2968H20.3598C21.7709 46.2968 22.9132 47.439 22.9132 48.8501C22.9132 49.522 22.6444 50.1268 22.174 50.6643C21.6365 51.1347 21.0317 51.4035 20.3598 51.4035ZM17.0001 48.0438C16.7985 48.0438 16.597 48.111 16.3954 48.3126C16.261 48.447 16.1266 48.7157 16.1266 48.9173C16.1266 49.3876 16.5298 49.7908 17.0001 49.7908H20.427C20.6286 49.7908 20.8302 49.7236 21.0317 49.522C21.1661 49.3877 21.3005 49.1861 21.3005 48.9173C21.3005 48.4469 20.8973 48.0438 20.427 48.0438H17.0001Z" fill="#4D80C9"/>
<path d="M25.4666 48.9174C24.9963 48.9174 24.5931 48.5143 24.5931 48.0439V14.9175C24.5931 14.4471 24.9963 14.0439 25.4666 14.0439C25.937 14.0439 26.3402 14.4471 26.3402 14.9175V48.1111C26.3402 48.5143 25.937 48.9174 25.4666 48.9174Z" fill="#4D80C9"/>
<path d="M44.1461 30.2373H28.8259C28.3556 30.2373 27.9524 29.8342 27.9524 29.3638V22.5773C27.9524 22.1069 28.3556 21.7037 28.8259 21.7037H44.1461C44.6164 21.7037 45.0196 22.1069 45.0196 22.5773V29.3638C45.0196 29.767 44.6164 30.2373 44.1461 30.2373ZM29.7667 28.4903H43.3398V23.3836H29.7667V28.4903Z" fill="#4D80C9"/>
<path d="M44.1461 32.7231H28.8259C28.3556 32.7231 27.9524 32.3199 27.9524 31.8496C27.9524 31.3792 28.3556 30.9761 28.8259 30.9761H44.1461C44.6164 30.9761 45.0196 31.3792 45.0196 31.8496C45.0196 32.3871 44.6164 32.7231 44.1461 32.7231Z" fill="#4D80C9"/>
<path d="M39.913 35.2774H33.1265C32.6561 35.2774 32.253 34.8743 32.253 34.4039C32.253 33.9335 32.6561 33.5304 33.1265 33.5304H39.913C40.3834 33.5304 40.7866 33.9335 40.7866 34.4039C40.7866 34.8743 40.3162 35.2774 39.913 35.2774Z" fill="#4D80C9"/>
<path d="M51.336 41.1899C50.1937 41.1899 49.253 40.2492 49.253 39.1069C49.253 37.9646 50.1937 37.0239 51.336 37.0239C52.4783 37.0239 53.419 37.9646 53.419 39.1069C53.4862 40.2492 52.5454 41.1899 51.336 41.1899ZM51.336 38.7038C51.1344 38.7038 50.9328 38.9053 50.9328 39.1069C50.9328 39.3085 51.1344 39.5101 51.336 39.5101C51.5375 39.5101 51.7391 39.3085 51.7391 39.1069C51.7391 38.9053 51.6047 38.7038 51.336 38.7038Z" fill="#4D80C9"/>
</svg>
