<svg width="166" height="291" viewBox="0 0 166 291" fill="none" xmlns="http://www.w3.org/2000/svg">
<g clip-path="url(#clip0_1_9680)">
<mask id="mask0_1_9680" style="mask-type:luminance" maskUnits="userSpaceOnUse" x="-314" y="-139" width="480" height="480">
<path d="M166 -139H-314V341H166V-139Z" fill="white"/>
</mask>
<g mask="url(#mask0_1_9680)">
<mask id="mask1_1_9680" style="mask-type:luminance" maskUnits="userSpaceOnUse" x="147" y="-3" width="241" height="241">
<path d="M387.508 -2.42627H147.508V237.574H387.508V-2.42627Z" fill="white"/>
</mask>
<g mask="url(#mask1_1_9680)">
<path d="M165.19 71.9339L168.053 69.4402L167.254 68.5236C166.924 68.1448 166.468 67.9157 165.967 67.8777C165.963 67.8774 165.958 67.877 165.954 67.8767C165.448 67.8418 164.959 68.0062 164.576 68.3392C163.787 69.0266 163.704 70.2279 164.392 71.0172L165.19 71.9339Z" fill="#3B7CFF"/>
<path d="M165.894 80.4285L166.276 80.0964L167.125 79.3566L167.974 78.6167L179.684 92.0584L180.526 91.3252L181.95 90.0842L183.735 88.5297L185.159 87.289L186.001 86.5556L171.868 70.3331C171.828 70.2866 171.783 70.245 171.736 70.208C171.717 70.1936 171.696 70.1836 171.677 70.1708C171.66 70.1598 171.644 70.1486 171.626 70.1387C171.612 70.1306 171.599 70.1201 171.585 70.1129C171.54 70.0901 171.492 70.0732 171.443 70.0582C171.434 70.0555 171.427 70.0511 171.418 70.0488C171.383 70.0392 171.347 70.0355 171.311 70.0301C171.287 70.0265 171.264 70.0197 171.24 70.0178C171.238 70.0177 171.236 70.0175 171.234 70.0174C170.987 70.0004 170.748 70.0805 170.561 70.2429L170.382 70.3992L169.533 71.1391L166.67 73.6327L165.821 74.3726L165.642 74.5289C165.569 74.5925 165.512 74.6671 165.464 74.7456C165.417 74.8225 165.378 74.903 165.356 74.9884C165.3 75.1984 165.322 75.4239 165.418 75.6248C165.427 75.6439 165.433 75.6643 165.444 75.6829C165.474 75.7365 165.51 75.7878 165.552 75.8359L166.309 76.7047L165.459 77.4446L164.61 78.1846L163.273 79.3495C162.745 79.8094 162.69 80.6103 163.15 81.1385L183.415 104.401C183.875 104.928 184.676 104.984 185.204 104.524C185.732 104.064 185.787 103.263 185.327 102.735L165.894 80.4285Z" fill="#3B7CFF"/>
<path d="M187.172 229.261V227.995V226.712V219.269L175.884 225.151H172.878L158.473 217.644L157.347 217.058L156.221 216.471V225.743L156.643 226.081C160.789 229.402 165.765 231.487 171.032 232.111C172.137 232.242 173.249 232.307 174.361 232.307C177.77 232.307 181.174 231.696 184.361 230.499C184.901 230.296 185.449 230.071 185.987 229.829C186.387 229.65 186.781 229.459 187.172 229.261Z" fill="#3B7CFF"/>
<path d="M200.28 207.928L174.782 198.207H173.98L148.481 207.928L148.362 209.978L156.221 214.073L157.347 214.66L158.472 215.247L173.861 223.265H174.901L186.943 216.99L185.698 216.369L184.454 215.748L182.104 214.575L179.94 213.494L177.685 212.369L175.43 211.243L173.486 210.273L174.491 208.258L180.471 211.243L182.726 212.369L184.57 213.289L184.981 213.494L186.921 214.463L188.165 215.084L189.409 215.705L190.289 215.246L191.415 214.66L192.541 214.073L200.399 209.978L200.28 207.928Z" fill="#3B7CFF"/>
</g>
<mask id="mask2_1_9680" style="mask-type:luminance" maskUnits="userSpaceOnUse" x="147" y="-3" width="241" height="241">
<path d="M387.508 -2.42627H147.508V237.574H387.508V-2.42627Z" fill="white"/>
</mask>
<g mask="url(#mask2_1_9680)">
<path d="M144.513 40.1112L143.223 41.957L150.123 46.7763L151.412 44.9305L144.513 40.1112Z" fill="#3B7CFF"/>
<path d="M147.131 27.7333L153.875 26.5362L153.678 25.4277L153.481 24.3193L146.737 25.5165L147.131 27.7333Z" fill="#3B7CFF"/>
<path d="M153.043 153.326C148.631 158.661 142.406 161.958 135.515 162.61C134.682 162.689 133.851 162.728 133.025 162.728C132.236 162.728 131.451 162.691 130.671 162.62L130.052 166.372L137.468 167.597L138.586 175.657L116.763 172.053L120.414 164.78L127.83 166.005L128.439 162.318C124.112 161.539 120.036 159.659 116.555 156.781L117.99 155.046C122.861 159.074 129.009 160.965 135.302 160.369C141.595 159.773 147.279 156.762 151.307 151.891C159.623 141.836 158.208 126.89 148.153 118.574L149.588 116.839C160.6 125.946 162.15 142.314 153.043 153.326ZM135.466 169.548L129.685 168.593L127.464 168.226L121.683 167.272L120.148 170.33L135.936 172.938L135.466 169.548Z" fill="#3B7CFF"/>
<path d="M112.674 138.741C112.158 133.293 113.795 127.969 117.283 123.752C120.771 119.535 125.692 116.928 131.141 116.412C136.589 115.896 141.912 117.533 146.13 121.021C148.219 122.749 149.912 124.83 151.152 127.151C152.415 129.515 153.209 132.13 153.47 134.879C153.985 140.327 152.349 145.65 148.861 149.868C147.877 151.057 146.785 152.106 145.612 153.014C141.962 155.84 137.52 157.29 133.054 157.29C128.454 157.29 123.828 155.753 120.014 152.599C115.797 149.111 113.19 144.19 112.674 138.741ZM129.98 118.841C128.67 119.896 127.331 121.138 126.156 122.562C123.059 126.312 122.283 128.941 122.981 132.265C123.68 135.589 125.064 137.377 123.183 138.45C121.302 139.524 119.755 142.101 120.658 144.542C121.56 146.983 120.057 148.011 120.683 148.88C121.309 149.748 123.407 149.109 126.896 150.801C131.951 153.251 134.473 151.293 132.775 148.896C131.077 146.498 131.967 145.422 130.391 141.957C128.816 138.493 125.54 138.259 124.597 134.844C123.764 131.822 124.653 127.206 127.303 129.23C129.954 131.253 132.273 131.36 135.903 131.265C138.253 131.204 140.115 130.654 140.289 129.341C140.528 127.536 138.946 126.66 136.183 125.824C133.184 124.916 133.882 122.758 136.015 122.652C138.148 122.546 141.68 122.019 142.008 123.46C142.336 124.9 142.329 126.643 143.896 126.881C144.961 127.042 146.005 126.083 146.733 124.725C146.11 124.024 145.431 123.365 144.695 122.756C141.395 120.027 137.334 118.571 133.105 118.571C132.524 118.571 131.939 118.598 131.353 118.654C130.89 118.697 130.433 118.763 129.98 118.841ZM151.228 135.091C151.055 133.264 150.618 131.504 149.94 129.854C149.972 132.166 150.617 133.735 149.036 135.028C146.46 137.135 148.432 137.706 147.819 139.719C147.129 141.986 144.132 142.306 142.826 146.056C141.941 148.599 142.597 150.356 143.759 151.594C144.995 150.697 146.127 149.641 147.126 148.433C150.231 144.679 151.687 139.941 151.228 135.091Z" fill="#3B7CFF"/>
</g>
</g>
<mask id="mask3_1_9680" style="mask-type:luminance" maskUnits="userSpaceOnUse" x="-314" y="-139" width="480" height="480">
<path d="M166 -139H-314V341H166V-139Z" fill="white"/>
</mask>
<g mask="url(#mask3_1_9680)">
<mask id="mask4_1_9680" style="mask-type:luminance" maskUnits="userSpaceOnUse" x="147" y="237" width="241" height="241">
<path d="M387.508 237.574H147.508V477.574H387.508V237.574Z" fill="white"/>
</mask>
<g mask="url(#mask4_1_9680)">
</g>
<mask id="mask5_1_9680" style="mask-type:luminance" maskUnits="userSpaceOnUse" x="147" y="237" width="241" height="241">
<path d="M387.508 237.574H147.508V477.574H387.508V237.574Z" fill="white"/>
</mask>
<g mask="url(#mask5_1_9680)">
<path d="M144.507 280.108L143.218 281.954L150.117 286.773L151.407 284.927L144.507 280.108Z" fill="#3B7CFF"/>
<path d="M147.131 267.733L153.875 266.536L153.678 265.428L153.481 264.319L146.737 265.516L147.131 267.733Z" fill="#3B7CFF"/>
</g>
</g>
<mask id="mask6_1_9680" style="mask-type:luminance" maskUnits="userSpaceOnUse" x="-314" y="-139" width="480" height="480">
<path d="M166 -139H-314V341H166V-139Z" fill="white"/>
</mask>
<g mask="url(#mask6_1_9680)">
<mask id="mask7_1_9680" style="mask-type:luminance" maskUnits="userSpaceOnUse" x="-93" y="-3" width="241" height="241">
<path d="M147.508 -2.42627H-92.4919V237.574H147.508V-2.42627Z" fill="white"/>
</mask>
<g mask="url(#mask7_1_9680)">
<path d="M43.9654 281.757C42.7591 281.707 41.5795 281.511 40.4591 281.176L40.0294 282.613C41.2689 282.984 42.5719 283.2 43.9023 283.256L43.9654 281.757ZM51.5314 282.069L51.0669 280.643C49.8474 281.04 48.6616 281.335 47.5425 281.521L47.788 283.001C48.9811 282.803 50.2405 282.489 51.5314 282.069ZM37.2436 279.733C36.2361 279.08 35.4172 278.276 34.8095 277.345L33.5532 278.165C34.2762 279.273 35.2434 280.224 36.4279 280.991L37.2436 279.733ZM58.5154 279.018L57.8152 277.691C56.6314 278.316 55.5438 278.848 54.4903 279.315L55.0991 280.686C56.1838 280.205 57.3012 279.659 58.5154 279.018ZM65.0533 275.243L64.2727 273.962C62.9855 274.747 61.9958 275.339 61.0638 275.881L61.8185 277.178C62.7595 276.63 63.7571 276.033 65.0533 275.243ZM33.5833 274.15C33.4692 273.505 33.4114 272.811 33.4114 272.09C33.4114 271.617 33.4362 271.121 33.4853 270.617L31.9924 270.472C31.9386 271.024 31.9114 271.569 31.9115 272.09C31.9115 272.899 31.977 273.68 32.1063 274.412L33.5833 274.15ZM71.461 271.363L70.7053 270.067C69.5302 270.752 68.3608 271.462 67.4733 272.004L68.2546 273.284C69.1362 272.746 70.2973 272.041 71.461 271.363ZM78.0396 267.965L77.454 266.584C76.3768 267.041 75.2515 267.578 74.014 268.226L74.71 269.555C75.9112 268.926 77.0003 268.406 78.0396 267.965ZM92.4675 266.889C91.348 266.097 90.1439 265.511 88.8886 265.147L88.471 266.588C89.5651 266.905 90.6183 267.418 91.6009 268.114L92.4675 266.889ZM29.4115 267.803L29.2071 266.317C27.9533 266.489 26.7514 266.52 25.6465 266.407L25.4942 267.899C25.981 267.949 26.4874 267.974 26.9992 267.974C27.7738 267.974 28.5853 267.917 29.4115 267.803ZM34.3093 266.565C35.1206 266.274 35.9452 265.939 36.7721 265.564L36.1523 264.198C35.7406 264.384 35.3299 264.561 34.9217 264.726C35.0582 264.354 35.2037 263.979 35.3576 263.601L33.9684 263.035C33.643 263.834 33.3534 264.624 33.1031 265.394C32.981 265.434 32.8595 265.473 32.7384 265.51L32.9022 266.035C32.8385 266.247 32.7778 266.457 32.7203 266.666L33.135 266.78L33.1857 266.942C33.2687 266.916 33.352 266.89 33.4354 266.863L34.1662 267.064C34.2119 266.899 34.2595 266.733 34.3093 266.565ZM22.2814 265.511C21.2359 265.025 20.2951 264.347 19.485 263.496L18.3987 264.53C19.3389 265.518 20.4324 266.305 21.6491 266.871L22.2814 265.511ZM85.0014 266.187L84.9431 264.688C83.7343 264.735 82.4368 264.944 81.0864 265.308L81.4769 266.756C82.7189 266.421 83.9047 266.23 85.0014 266.187ZM43.3867 261.75L42.5252 260.522C41.5069 261.237 40.4618 261.905 39.4189 262.509L40.1709 263.807C41.2511 263.181 42.333 262.489 43.3867 261.75ZM17.5069 260.601C17.3385 260.258 17.178 259.895 17.0299 259.523C16.7272 258.762 16.4592 257.986 16.2335 257.216L14.7941 257.638C15.0329 258.452 15.3162 259.273 15.6361 260.077C15.7985 260.486 15.9749 260.884 16.1605 261.262L17.5069 260.601ZM38.7139 257.028L37.4323 256.249C36.7581 257.358 36.1312 258.474 35.569 259.569L36.9031 260.254C37.4489 259.192 38.0581 258.106 38.7139 257.028ZM49.2438 256.869L48.1891 255.803C47.3311 256.651 46.4117 257.485 45.4565 258.28L46.4161 259.433C47.4041 258.61 48.3556 257.748 49.2438 256.869ZM54.1018 250.944L52.8324 250.145C52.2237 251.112 51.4987 252.104 50.6777 253.095L51.8327 254.052C52.695 253.011 53.4584 251.966 54.1018 250.944ZM42.9577 250.951L41.7835 250.018C41.0015 251.002 40.2373 252.027 39.5119 253.065L40.7413 253.924C41.4491 252.911 42.1948 251.911 42.9577 250.951ZM15.4684 253.661C15.3172 252.569 15.2405 251.456 15.2405 250.351C15.2405 250.245 15.2412 250.14 15.2425 250.035L13.7426 250.016C13.7412 250.127 13.7405 250.239 13.7405 250.351C13.7405 251.524 13.822 252.707 13.9825 253.867L15.4684 253.661ZM47.9491 245.503L46.9307 244.402C46.0523 245.215 45.1494 246.129 44.2473 247.119L45.3562 248.129C46.2297 247.17 47.102 246.287 47.9491 245.503ZM56.599 243.804C56.599 243.708 56.5972 243.612 56.5936 243.517L55.0947 243.574C55.0975 243.65 55.099 243.727 55.099 243.804C55.099 244.75 54.8835 245.806 54.4584 246.941L55.8633 247.467C56.3514 246.162 56.599 244.93 56.599 243.804ZM16.3699 242.857L14.9327 242.427C14.5602 243.674 14.2714 244.935 14.074 246.176L15.5554 246.412C15.7423 245.236 16.0164 244.04 16.3699 242.857ZM53.8051 241.815L53.6725 240.321C52.6467 240.412 51.3868 240.966 49.9277 241.967L50.7763 243.204C52.3256 242.141 53.2786 241.862 53.8051 241.815ZM19.2611 236.13L17.9532 235.395C17.3172 236.528 16.7443 237.681 16.2503 238.824L17.6271 239.419C18.1006 238.324 18.6504 237.218 19.2611 236.13ZM23.4298 230.055L22.2683 229.105C21.4561 230.099 20.6849 231.125 19.9762 232.155L21.2118 233.005C21.8974 232.009 22.6435 231.017 23.4298 230.055ZM28.5411 224.759L27.5911 223.598C27.5437 223.636 26.4123 224.566 24.7969 226.25L25.8795 227.288C27.4263 225.676 28.5301 224.768 28.5411 224.759Z" fill="#3B7CFF"/>
</g>
<mask id="mask8_1_9680" style="mask-type:luminance" maskUnits="userSpaceOnUse" x="-93" y="-3" width="241" height="241">
<path d="M147.508 -2.42627H-92.4919V237.574H147.508V-2.42627Z" fill="white"/>
</mask>
<g mask="url(#mask8_1_9680)">
<path d="M73.0554 178.648L38.4632 210.166L43.4445 215.633L78.0367 184.116L73.0554 178.648Z" fill="#3B7CFF"/>
<path d="M35.511 215.754L33.3856 217.691L32.7284 218.289C32.2359 218.738 32.0959 219.428 32.3217 220.015C32.3897 220.192 32.4898 220.36 32.6253 220.508C32.7469 220.642 32.887 220.748 33.0371 220.829C33.6086 221.14 34.3362 221.074 34.8439 220.611L35.581 219.94L37.7064 218.003L41.3862 216.716L37.1826 212.103L35.511 215.754Z" fill="#3B7CFF"/>
<path d="M84.8482 172.893C83.4748 171.385 81.1312 171.276 79.6239 172.65L78.5965 173.586L83.578 179.053L84.6053 178.117C86.1125 176.744 86.2213 174.4 84.8482 172.893Z" fill="#3B7CFF"/>
<path d="M76.1297 175.834L76.0576 175.9L75.297 176.593L75.225 176.658L74.7151 177.123L79.6966 182.59L80.2065 182.125L80.2785 182.06L81.039 181.367L81.111 181.301L81.9129 180.571L76.9314 175.104L76.1297 175.834Z" fill="#3B7CFF"/>
<path d="M63.4497 77.0051L70.3762 78.1408L64.8462 74.3867L63.4497 77.0051Z" fill="#3B7CFF"/>
<path d="M73.6941 53.0107L26.4483 66.8617L68.1397 63.4252L73.6941 53.0107Z" fill="#3B7CFF"/>
<path d="M24.044 71.6865L18.22 71.3704L15.94 71.2466L53.2376 91.3654L59.9822 78.72L60.542 77.6703L61.1018 76.6207L62.6166 73.7804L34.4524 72.2516L24.044 71.6865Z" fill="#3B7CFF"/>
<path d="M68.7112 67.1402L68.1562 65.7875L68.1152 65.6875L66.8786 65.7895L23.2871 69.3827L23.2393 69.3866L34.0239 69.972L44.8233 70.5582L63.7862 71.5875L64.503 71.6265L64.9598 71.7805L65.0747 71.8193L65.9123 72.3879L67.8166 73.6806L71.8972 76.4507L72.7757 77.0469L71.8096 74.6922L68.7112 67.1402Z" fill="#3B7CFF"/>
<path d="M35.6657 133.329L35.6654 133.328C34.7879 132.63 33.7176 132.212 32.4841 132.088C28.6233 131.7 25.0452 130.137 22.1371 127.568C21.2082 126.747 20.1748 126.246 19.0659 126.077C16.8305 125.735 14.4862 126.782 12.4649 129.023C10.3273 131.393 8.83347 134.773 8.25855 138.539C7.09803 146.143 10.0579 152.925 14.8565 153.658L14.8707 153.659C16.1168 153.846 17.2954 154.36 18.2788 155.148L18.2767 155.151L18.2875 155.16L18.2898 155.158C18.7536 155.527 19.2658 155.815 19.815 156.025C23.7623 157.532 29.6601 155.009 33.8657 149.726C38.6555 143.707 39.463 136.351 35.6657 133.329Z" fill="#3B7CFF"/>
<path d="M23.566 125.827C24.2146 126.885 25.1309 127.759 26.219 128.356C26.2277 128.351 26.2357 128.345 26.2442 128.34C26.238 128.354 26.2308 128.368 26.2247 128.382L28.6879 129.458C28.7572 129.3 28.8337 129.147 28.9142 128.997C30.4319 126.178 33.8946 124.943 36.8799 126.248L37.9561 123.784C34.9819 122.485 31.6763 122.945 29.2078 124.705C29.4995 123.901 29.6534 123.033 29.6327 122.127C29.5728 119.497 28.0892 117.24 25.9387 116.059C23.8444 117.336 22.4652 119.659 22.525 122.289C22.5548 123.587 22.9329 124.795 23.566 125.827Z" fill="#3B7CFF"/>
<path d="M6.58695 53.7618L-19.2079 59.9221C-19.8404 60.0732 -20.4742 60.0996 -21.0831 60.0173C-23.1255 59.7411 -24.8889 58.2418 -25.3955 56.1201L-26.0654 53.3153L-26.5885 51.1253L-34.3502 18.6257L-30.6087 17.7322L-31.1323 15.5401L-21.8232 13.317L-21.2996 15.5089L-3.56076 11.2725L4.20098 43.7721L4.39009 44.5641L4.72393 45.9618L4.4897 46.0179L4.03753 46.3115C3.01309 46.9765 2.51318 48.2129 2.79374 49.3877C3.07417 50.5625 4.07822 51.4385 5.29358 51.5701L6.08354 51.6551L6.58695 53.7618ZM-19.7308 57.7324L2.1473 52.5073C1.3979 51.8301 0.848289 50.9337 0.60397 49.9109C0.35965 48.888 0.445095 47.8399 0.807495 46.8975L-2.29847 47.6393L-23.8754 52.7925L-23.2056 55.5973C-23.0267 56.3466 -22.5667 56.9812 -21.9104 57.3846C-21.2541 57.7877 -20.4802 57.9113 -19.7308 57.7324ZM-28.4189 17.2092L-28.1574 18.3042L-27.8959 19.3992L-26.1619 26.6599L-23.9301 25.0957L-21.2325 25.4827L-22.9665 18.2219L-23.228 17.127L-23.4895 16.032L-23.49 16.03L-28.4192 17.2072L-28.4189 17.2092Z" fill="#3B7CFF"/>
<path d="M140.45 45.7172C140.787 47.6182 139.515 49.439 137.615 49.7766L137.028 49.8808L137.335 51.6104C137.61 53.1607 136.573 54.6459 135.023 54.9211L129.361 55.9263C129.257 55.9469 129.152 55.9596 129.047 55.9638C128.979 55.9688 128.91 55.9714 128.841 55.9714C128.168 55.9714 127.505 55.728 126.994 55.2878C126.495 54.8674 126.151 54.2708 126.035 53.6157L125.728 51.8869L125.142 51.991C124.935 52.0277 124.728 52.0458 124.522 52.0458C123.812 52.0458 123.119 51.8294 122.525 51.4141C121.758 50.8787 121.246 50.0765 121.082 49.1557C120.758 47.3308 121.92 45.5833 123.695 45.1477C123.074 43.1954 122.379 41.4299 121.928 40.9361C121.544 40.517 121.119 40.126 120.669 39.7118C120.017 39.1121 119.343 38.4922 118.759 37.7453C116.85 35.3082 115.761 33.366 115.475 30.0886C115.003 23.8644 119.264 18.3215 125.388 17.1804C125.389 17.18 125.391 17.1798 125.392 17.1796L125.45 17.493L125.397 17.1787C131.54 16.1398 137.452 19.8775 139.148 25.873C140.011 29.061 139.657 31.2594 138.703 34.2054C138.412 35.105 137.994 35.9171 137.59 36.7024C137.309 37.2479 137.044 37.763 136.827 38.2915C136.574 38.909 136.529 40.8061 136.618 42.8534C138.434 42.6515 140.126 43.8925 140.45 45.7172ZM138.233 46.1108C138.112 45.4324 137.462 44.9784 136.784 45.0989L136.765 45.1024L135.652 45.2999L125.443 47.1122L124.33 47.3098L124.311 47.3132C123.633 47.4336 123.179 48.0835 123.299 48.762C123.357 49.0908 123.54 49.377 123.814 49.5682C124.088 49.7593 124.419 49.8324 124.748 49.7741L125.335 49.6699V49.6698L127.436 49.2967L136.634 47.6639L137.221 47.5597C137.899 47.4392 138.353 46.7893 138.233 46.1108ZM131.378 50.8838L127.945 51.4932L128.252 53.2229C128.276 53.3605 128.348 53.4848 128.453 53.5738C128.566 53.6711 128.705 53.7196 128.843 53.7199L134.629 52.7041C134.957 52.6459 135.176 52.3319 135.118 52.0039L134.811 50.2743L131.378 50.8838ZM122.443 33.2299L124.491 34.1645L125.781 31.3373L130.151 35.6681L133.791 28.6102L131.79 27.5782L129.556 31.9091L125.073 27.4656L122.443 33.2299Z" fill="#3B7CFF"/>
<path d="M144.513 40.1112L143.223 41.957L150.123 46.7763L151.412 44.9305L144.513 40.1112Z" fill="#3B7CFF"/>
<path d="M105.825 13.8163L104.536 15.6621L111.213 20.3259L112.502 18.4801L105.825 13.8163Z" fill="#3B7CFF"/>
<path d="M144.462 8.14913L143.54 7.50438L142.617 6.85986L137.941 13.5536L139.787 14.843L144.462 8.14913Z" fill="#3B7CFF"/>
<path d="M116.309 45.559L111.501 52.4419L113.347 53.7311L118.155 46.8483L116.309 45.559Z" fill="#3B7CFF"/>
<path d="M147.131 27.7333L153.875 26.5362L153.678 25.4277L153.481 24.3193L146.737 25.5165L147.131 27.7333Z" fill="#3B7CFF"/>
<path d="M108.815 32.8613L102.104 34.0527L102.3 35.1611L102.497 36.2694L109.208 35.0781L109.011 33.9696L108.815 32.8613Z" fill="#3B7CFF"/>
<path d="M124.286 11.1585L125.394 10.9617L124.231 4.40869L123.122 4.60538L122.014 4.80218L123.177 11.3553L124.286 11.1585Z" fill="#3B7CFF"/>
<path d="M153.043 153.326C148.631 158.661 142.406 161.958 135.515 162.61C134.682 162.689 133.851 162.728 133.025 162.728C132.236 162.728 131.451 162.691 130.671 162.62L130.052 166.372L137.468 167.597L138.586 175.657L116.763 172.053L120.414 164.78L127.83 166.005L128.439 162.318C124.112 161.539 120.036 159.659 116.555 156.781L117.99 155.046C122.861 159.074 129.009 160.965 135.302 160.369C141.595 159.773 147.279 156.762 151.307 151.891C159.623 141.836 158.208 126.89 148.153 118.574L149.588 116.839C160.6 125.946 162.15 142.314 153.043 153.326ZM135.466 169.548L129.685 168.593L127.464 168.226L121.683 167.272L120.148 170.33L135.936 172.938L135.466 169.548Z" fill="#3B7CFF"/>
<path d="M112.674 138.741C112.158 133.293 113.795 127.969 117.283 123.752C120.771 119.535 125.692 116.928 131.141 116.412C136.589 115.896 141.912 117.533 146.13 121.021C148.219 122.749 149.912 124.83 151.152 127.151C152.415 129.515 153.209 132.13 153.47 134.879C153.985 140.327 152.349 145.65 148.861 149.868C147.877 151.057 146.785 152.106 145.612 153.014C141.962 155.84 137.52 157.29 133.054 157.29C128.454 157.29 123.828 155.753 120.014 152.599C115.797 149.111 113.19 144.19 112.674 138.741ZM129.98 118.841C128.67 119.896 127.331 121.138 126.156 122.562C123.059 126.312 122.283 128.941 122.981 132.265C123.68 135.589 125.064 137.377 123.183 138.45C121.302 139.524 119.755 142.101 120.658 144.542C121.56 146.983 120.058 148.011 120.683 148.88C121.309 149.748 123.407 149.109 126.896 150.801C131.951 153.251 134.473 151.293 132.775 148.896C131.077 146.498 131.967 145.422 130.391 141.957C128.816 138.493 125.54 138.259 124.597 134.844C123.764 131.822 124.653 127.206 127.303 129.23C129.954 131.253 132.273 131.36 135.903 131.265C138.253 131.204 140.115 130.654 140.289 129.341C140.528 127.536 138.946 126.66 136.183 125.824C133.184 124.916 133.882 122.758 136.015 122.652C138.148 122.546 141.68 122.019 142.008 123.46C142.336 124.9 142.33 126.643 143.896 126.881C144.961 127.042 146.005 126.083 146.733 124.725C146.11 124.024 145.431 123.365 144.695 122.756C141.395 120.027 137.334 118.571 133.105 118.571C132.524 118.571 131.939 118.598 131.353 118.654C130.89 118.697 130.433 118.763 129.98 118.841ZM151.228 135.091C151.055 133.264 150.618 131.504 149.94 129.854C149.972 132.166 150.617 133.735 149.036 135.028C146.46 137.135 148.432 137.706 147.819 139.719C147.13 141.986 144.132 142.306 142.826 146.056C141.941 148.599 142.597 150.356 143.759 151.594C144.995 150.697 146.127 149.641 147.126 148.433C150.231 144.679 151.687 139.941 151.228 135.091Z" fill="#3B7CFF"/>
<path d="M-13.452 210.127L-14.373 208.943C-15.3289 209.687 -16.3344 210.426 -17.3616 211.14L-16.5055 212.371C-15.4563 211.642 -14.429 210.887 -13.452 210.127ZM-7.75475 205.115L-8.81649 204.056C-9.66777 204.909 -10.5761 205.76 -11.5163 206.585L-10.5268 207.712C-9.56181 206.865 -8.62918 205.992 -7.75475 205.115ZM-2.80389 199.336L-4.01974 198.457C-4.72054 199.427 -5.48927 200.4 -6.30478 201.349L-5.1673 202.326C-4.32442 201.346 -3.5293 200.34 -2.80389 199.336ZM1.03576 192.73L-0.335606 192.122C-0.816086 193.206 -1.3795 194.302 -2.00986 195.38L-0.715057 196.138C-0.0563774 195.011 0.532593 193.865 1.03576 192.73ZM3.17703 185.349L1.6901 185.151C1.53506 186.314 1.27861 187.508 0.927853 188.699L2.36677 189.123C2.73913 187.858 3.01167 186.588 3.17703 185.349ZM3.34909 181.473C3.28537 180.15 3.08966 178.853 2.76746 177.62L1.31618 177.999C1.61222 179.132 1.79223 180.325 1.85091 181.545L3.34909 181.473ZM-35.8982 180.117L-36.4197 178.711C-37.7171 179.192 -38.8851 179.528 -39.8917 179.709L-39.6255 181.185C-38.5322 180.988 -37.2782 180.629 -35.8982 180.117ZM-43.0508 179.547C-43.4459 179.317 -43.6298 178.968 -43.6298 178.449C-43.6298 178.068 -43.5283 177.622 -43.3283 177.124L-44.7201 176.565C-44.9919 177.241 -45.1298 177.875 -45.1298 178.449C-45.1298 179.495 -44.6598 180.346 -43.8062 180.843L-43.0508 179.547ZM-28.9476 177.112L-29.6132 175.767C-30.6844 176.298 -31.817 176.821 -32.9797 177.322L-32.3859 178.699C-31.1991 178.188 -30.0423 177.654 -28.9476 177.112ZM-22.376 173.305L-23.2212 172.066C-24.2007 172.734 -25.2529 173.393 -26.3487 174.025L-25.5999 175.324C-24.4713 174.674 -23.3867 173.995 -22.376 173.305ZM1.35902 173.971C0.752773 172.817 0.00878143 171.73 -0.852577 170.742L-1.98347 171.727C-1.19878 172.628 -0.521008 173.617 0.0308723 174.669L1.35902 173.971ZM-38.8086 171.706L-39.7528 170.541C-40.8172 171.403 -41.7606 172.304 -42.5565 173.219L-41.4248 174.204C-40.6859 173.354 -39.8055 172.514 -38.8086 171.706ZM-16.5096 168.418L-17.5899 167.377C-18.4052 168.224 -19.31 169.059 -20.2791 169.861L-19.3231 171.017C-18.3105 170.179 -17.3639 169.305 -16.5096 168.418ZM-32.5871 167.902L-33.2066 166.537C-34.3803 167.069 -35.5227 167.672 -36.6021 168.329L-35.8224 169.61C-34.7943 168.985 -33.7058 168.41 -32.5871 167.902ZM-3.73149 168.102C-4.75173 167.353 -5.87818 166.687 -7.07986 166.124L-7.71634 167.482C-6.60298 168.004 -5.56089 168.619 -4.61925 169.311L-3.73149 168.102ZM-25.6242 165.679L-25.9117 164.207C-27.162 164.451 -28.4119 164.771 -29.6265 165.159L-29.1703 166.588C-28.0107 166.218 -26.8177 165.912 -25.6242 165.679ZM-10.71 164.786C-11.0378 164.695 -11.3744 164.608 -11.7103 164.528C-12.194 164.413 -12.6818 164.309 -13.17 164.214C-12.7437 163.546 -12.3558 162.867 -12.0102 162.182L-13.3494 161.506C-13.8789 162.555 -14.5161 163.594 -15.2436 164.593L-14.6258 165.043L-14.6921 165.472C-13.8163 165.607 -12.9296 165.781 -12.0567 165.988C-11.7399 166.063 -11.4228 166.145 -11.1138 166.231L-10.71 164.786ZM-18.3375 165.12L-18.2785 163.621C-19.5541 163.571 -20.8447 163.595 -22.1118 163.692L-21.9972 165.187C-20.7877 165.095 -19.5555 165.072 -18.3375 165.12ZM-9.83986 154.764L-11.3327 154.618C-11.4497 155.813 -11.6805 157.003 -12.0188 158.154L-10.5797 158.577C-10.215 157.336 -9.96598 156.053 -9.83986 154.764ZM-9.8161 150.884C-9.92146 149.621 -10.1379 148.337 -10.4597 147.067L-11.9137 147.436C-11.6123 148.626 -11.4093 149.827 -11.3109 151.008L-9.8161 150.884ZM-11.6918 143.407C-12.5936 141.274 -13.4693 140.002 -13.5061 139.949L-14.7393 140.803C-14.731 140.815 -13.9101 142.013 -13.0735 143.991L-11.6918 143.407Z" fill="#3B7CFF"/>
<path d="M43.9654 41.7573C42.7591 41.7066 41.5795 41.5108 40.4591 41.1758L40.0294 42.6129C41.2689 42.9835 42.5719 43.1998 43.9023 43.2559L43.9654 41.7573ZM51.5314 42.069L51.0669 40.6428C49.8474 41.04 48.6616 41.3354 47.5425 41.5211L47.788 43.0009C48.9811 42.8029 50.2405 42.4893 51.5314 42.069ZM37.2436 39.7326C36.2361 39.0798 35.4172 38.2765 34.8095 37.3452L33.5532 38.1649C34.2762 39.2729 35.2434 40.2239 36.4279 40.9914L37.2436 39.7326ZM58.5154 39.0179L57.8152 37.6914C56.6314 38.3163 55.5438 38.8476 54.4903 39.3153L55.0991 40.6862C56.1838 40.2045 57.3012 39.6588 58.5154 39.0179ZM65.0533 35.2434L64.2727 33.9625C62.9855 34.7469 61.9958 35.3387 61.0638 35.8812L61.8185 37.1775C62.7595 36.6296 63.7571 36.0331 65.0533 35.2434ZM33.5833 34.1504C33.4692 33.5048 33.4114 32.8115 33.4114 32.0895C33.4114 31.6167 33.4362 31.1213 33.4853 30.6171L31.9924 30.4719C31.9386 31.0243 31.9114 31.5685 31.9115 32.0896C31.9115 32.8988 31.977 33.68 32.1063 34.4115L33.5833 34.1504ZM71.461 31.3628L70.7053 30.0671C69.5302 30.7524 68.3608 31.4619 67.4733 32.0035L68.2546 33.2839C69.1362 32.7461 70.2973 32.0414 71.461 31.3628ZM78.0396 27.9651L77.454 26.5842C76.3768 27.041 75.2515 27.5781 74.014 28.2264L74.71 29.5551C75.9112 28.926 77.0003 28.4059 78.0396 27.9651ZM92.4675 26.8893C91.348 26.097 90.1439 25.5108 88.8886 25.1469L88.471 26.5877C89.5651 26.9047 90.6183 27.4182 91.6009 28.1137L92.4675 26.8893ZM29.4115 27.8029L29.2071 26.3169C27.9533 26.4894 26.7514 26.5197 25.6465 26.4071L25.4942 27.8993C25.981 27.9489 26.4874 27.9741 26.9992 27.9741C27.7738 27.9741 28.5853 27.9165 29.4115 27.8029ZM34.3093 26.565C35.1206 26.274 35.9452 25.9389 36.7721 25.5637L36.1523 24.1977C35.7406 24.3845 35.3299 24.5607 34.9217 24.726C35.0582 24.3543 35.2037 23.9791 35.3576 23.6011L33.9684 23.0353C33.643 23.8345 33.3534 24.6235 33.1031 25.3935C32.981 25.4336 32.8595 25.4726 32.7384 25.5104L32.9022 26.0348C32.8385 26.2467 32.7778 26.4571 32.7203 26.6655L33.135 26.7799L33.1857 26.9421C33.2687 26.9162 33.352 26.8897 33.4354 26.8628L34.1662 27.0644C34.2119 26.8993 34.2595 26.7327 34.3093 26.565ZM22.2814 25.5107C21.2359 25.0247 20.2951 24.3469 19.485 23.496L18.3987 24.5303C19.3389 25.5178 20.4324 26.3053 21.6491 26.8708L22.2814 25.5107ZM85.0014 26.1871L84.9431 24.6882C83.7343 24.7352 82.4368 24.9438 81.0864 25.3079L81.4769 26.7561C82.7189 26.4213 83.9047 26.2298 85.0014 26.1871ZM43.3867 21.7501L42.5252 20.5221C41.5069 21.2365 40.4618 21.9051 39.4189 22.5093L40.1709 23.8073C41.2511 23.1813 42.333 22.4893 43.3867 21.7501ZM17.5069 20.6012C17.3385 20.258 17.178 19.8953 17.0299 19.523C16.7272 18.7619 16.4592 17.9856 16.2335 17.2158L14.7941 17.6379C15.0329 18.4524 15.3162 19.2732 15.6361 20.0774C15.7985 20.4857 15.9749 20.8843 16.1605 21.2623L17.5069 20.6012ZM38.7139 17.0281L37.4323 16.2487C36.7581 17.3575 36.1312 18.4743 35.569 19.5685L36.9031 20.2541C37.4489 19.1917 38.0581 18.1063 38.7139 17.0281ZM49.2438 16.8695L48.1891 15.8029C47.3311 16.6513 46.4117 17.4847 45.4565 18.2798L46.4161 19.4328C47.4041 18.6103 48.3556 17.7479 49.2438 16.8695ZM54.1018 10.944L52.8324 10.1448C52.2237 11.1116 51.4987 12.1041 50.6777 13.0949L51.8327 14.052C52.695 13.0113 53.4584 11.9657 54.1018 10.944ZM42.9577 10.9514L41.7835 10.0179C41.0015 11.0016 40.2373 12.0266 39.5119 13.0645L40.7413 13.9238C41.4491 12.9111 42.1948 11.9111 42.9577 10.9514ZM15.4684 13.6614C15.3172 12.5695 15.2405 11.4555 15.2405 10.3508C15.2405 10.2453 15.2412 10.1401 15.2425 10.035L13.7426 10.0157C13.7412 10.127 13.7405 10.2385 13.7405 10.3506C13.7405 11.5242 13.822 12.7073 13.9825 13.8672L15.4684 13.6614ZM47.9491 5.50329L46.9307 4.40205C46.0523 5.21433 45.1494 6.12849 44.2473 7.11897L45.3562 8.12901C46.2297 7.17009 47.102 6.28677 47.9491 5.50329ZM56.599 3.80422C56.599 3.70786 56.5972 3.61209 56.5936 3.51705L55.0947 3.57418C55.0975 3.65038 55.099 3.72706 55.099 3.80434C55.099 4.75006 54.8835 5.80557 54.4584 6.94149L55.8633 7.46722C56.3514 6.16234 56.599 4.93006 56.599 3.80422ZM16.3699 2.8567L14.9327 2.42723C14.5602 3.67366 14.2714 4.93498 14.074 6.17626L15.5554 6.41182C15.7423 5.23582 16.0164 4.03966 16.3699 2.8567ZM53.8051 1.81521L53.6725 0.321102C52.6467 0.412182 51.3868 0.965973 49.9277 1.96713L50.7763 3.20397C52.3256 2.14089 53.2786 1.86201 53.8051 1.81521ZM19.2611 -3.87014L17.9532 -4.60454C17.3172 -3.47198 16.7443 -2.31854 16.2503 -1.17638L17.6271 -0.580817C18.1006 -1.6757 18.6504 -2.78234 19.2611 -3.87014ZM23.4298 -9.9455L22.2683 -10.8947C21.4561 -9.90099 20.6849 -8.87498 19.9762 -7.84502L21.2118 -6.99458C21.8974 -7.9907 22.6435 -8.98346 23.4298 -9.9455ZM28.5411 -15.2415L27.5911 -16.4023C27.5437 -16.3636 26.4123 -15.4339 24.7969 -13.7501L25.8795 -12.7116C27.4263 -14.3241 28.5301 -15.2325 28.5411 -15.2415Z" fill="#3B7CFF"/>
<path d="M97.6935 161.17L96.1956 161.091C96.1602 161.761 96.1163 162.445 96.0651 163.123L97.5609 163.236C97.6129 162.546 97.6576 161.851 97.6935 161.17ZM97.8135 156.693C97.8135 155.657 97.7932 154.618 97.7532 153.605L96.2544 153.664C96.2937 154.658 96.3136 155.677 96.3135 156.693C96.3135 156.92 96.3125 157.148 96.3106 157.377L97.8104 157.389C97.8125 157.156 97.8135 156.924 97.8135 156.693ZM97.5066 149.827C97.39 148.557 97.2379 147.291 97.0548 146.065L95.5713 146.286C95.7502 147.485 95.8987 148.722 96.0128 149.964L97.5066 149.827ZM96.3814 142.332C96.1156 141.083 95.8089 139.843 95.4695 138.647L94.0264 139.056C94.3566 140.22 94.6553 141.428 94.9142 142.644L96.3814 142.332ZM94.3035 135.029C93.8673 133.828 93.3847 132.642 92.8691 131.505L91.503 132.125C92.0026 133.227 92.4705 134.376 92.8935 135.541L94.3035 135.029ZM91.1548 128.104C90.5314 126.986 89.8578 125.894 89.1526 124.858L87.9125 125.702C88.5928 126.702 89.2429 127.756 89.8447 128.835L91.1548 128.104ZM86.8596 121.806C86.0413 120.818 85.1726 119.87 84.2777 118.987L83.2242 120.055C84.0835 120.902 84.918 121.814 85.7045 122.763L86.8596 121.806ZM65.0148 119.024C63.6688 118.982 62.4906 118.769 61.6078 118.405L61.0373 119.793C62.1 120.23 63.4227 120.476 64.9686 120.523L65.0148 119.024ZM72.5993 119.454L72.1889 118.011C70.9812 118.355 69.7806 118.616 68.6206 118.788L68.8409 120.272C70.0649 120.09 71.3294 119.815 72.5993 119.454ZM79.3119 116.734C79.7067 117.019 80.0969 117.315 80.4809 117.621L81.4142 116.446C80.4024 115.642 79.3483 114.898 78.2813 114.235L77.4898 115.509C77.629 115.596 77.768 115.684 77.9068 115.773C77.1685 116.145 76.4129 116.491 75.6492 116.806L76.2215 118.193C77.2735 117.759 78.3112 117.269 79.3119 116.734ZM59.7702 116.347C59.7659 116.29 59.7639 116.232 59.7637 116.173C59.7637 115.7 59.903 115.163 60.1778 114.578C60.357 114.197 60.6016 113.846 60.9047 113.537L59.8327 112.487C59.4116 112.917 59.071 113.406 58.8201 113.94C58.4509 114.727 58.2637 115.478 58.2637 116.174C58.2637 116.27 58.2673 116.366 58.2744 116.46L59.7702 116.347ZM85.9056 112.066L84.8856 110.966C84.009 111.779 83.0558 112.555 82.0529 113.272L82.9254 114.492C83.9798 113.738 84.9826 112.922 85.9056 112.066ZM74.8945 112.416C73.6885 111.867 72.4704 111.417 71.2739 111.078L70.8647 112.521C71.9889 112.84 73.1356 113.264 74.273 113.782L74.8945 112.416ZM67.3271 111.862L67.4485 110.367C66.0187 110.25 64.6747 110.327 63.4942 110.59L63.8209 112.054C64.854 111.824 66.0477 111.758 67.3271 111.862ZM90.7531 106.095L89.4614 105.332C88.8541 106.361 88.1545 107.363 87.3821 108.311L88.5448 109.258C89.3646 108.252 90.1075 107.188 90.7531 106.095ZM93.3646 98.7878L91.8727 98.6318C91.7543 99.7655 91.4746 100.926 91.0414 102.082L92.446 102.609C92.9238 101.334 93.2328 100.048 93.3646 98.7878ZM93.2045 94.84C92.9669 93.5809 92.544 92.3255 91.9477 91.1086L90.6007 91.7686C91.1377 92.8645 91.5179 93.9916 91.7305 95.1181L93.2045 94.84ZM89.8522 87.8156C89.0879 86.848 88.1978 85.8976 87.2066 84.9907L86.1941 86.0975C87.1259 86.95 87.9605 87.8408 88.675 88.7453L89.8522 87.8156ZM84.2001 82.5859C82.3425 81.2828 80.9452 80.5969 80.8865 80.5684L80.2288 81.9164C80.2421 81.9229 81.5855 82.584 83.3386 83.8139L84.2001 82.5859Z" fill="#3B7CFF"/>
<path d="M-1.06904 102.892V95.6582H5.17275C5.46267 95.6582 5.69775 95.4232 5.69775 95.1332V89.3983C5.69775 89.1084 5.46267 88.8733 5.17275 88.8733H-1.06904V81.8575C-1.06904 81.5676 -1.30412 81.3325 -1.59404 81.3325H-7.84497C-8.13501 81.3325 -8.36997 81.5676 -8.36997 81.8575V88.8733H-14.6317C-14.9216 88.8733 -15.1567 89.1084 -15.1567 89.3983V95.1332C-15.1567 95.4232 -14.9216 95.6582 -14.6317 95.6582H-8.36997V102.892C-8.36997 103.182 -8.13501 103.417 -7.84497 103.417H-1.59404C-1.304 103.417 -1.06904 103.182 -1.06904 102.892ZM-7.31997 95.1332C-7.31997 94.8433 -7.55505 94.6082 -7.84497 94.6082H-14.1067V89.9233H-7.84497C-7.55505 89.9233 -7.31997 89.6882 -7.31997 89.3983V82.3825H-2.11904V89.3983C-2.11904 89.6882 -1.88408 89.9233 -1.59404 89.9233H4.64775V94.6082H-1.59404C-1.88408 94.6082 -2.11904 94.8433 -2.11904 95.1332V102.367H-7.31997V95.1332Z" fill="#3B7CFF"/>
<path d="M116.249 225.711C117.504 224.528 118.14 222.944 118.14 221.003V219.614C118.14 217.552 117.496 215.913 116.225 214.742C114.966 213.584 113.264 212.996 111.166 212.996C109.094 212.996 107.402 213.591 106.136 214.763C104.859 215.947 104.212 217.532 104.212 219.475V220.903C104.212 222.927 104.867 224.55 106.159 225.727C107.437 226.891 109.135 227.481 111.206 227.481C113.306 227.481 115.003 226.885 116.249 225.711ZM115.514 215.515C116.575 216.492 117.09 217.832 117.09 219.614V221.003C117.09 222.666 116.58 223.956 115.529 224.947C114.484 225.932 113.03 226.431 111.206 226.431C109.405 226.431 107.945 225.933 106.866 224.95C105.786 223.967 105.262 222.644 105.262 220.903V219.475C105.262 217.813 105.781 216.524 106.85 215.534C107.915 214.547 109.367 214.046 111.166 214.046C112.992 214.046 114.455 214.541 115.514 215.515ZM97.9189 224.674L112.028 202.092C112.106 201.966 112.128 201.814 112.088 201.672C112.049 201.53 111.951 201.411 111.819 201.345L108.703 199.777C108.461 199.655 108.166 199.738 108.022 199.968L93.9128 222.55C93.8346 222.675 93.8128 222.828 93.8525 222.97C93.8923 223.112 93.9901 223.231 94.122 223.297L97.2376 224.865C97.3131 224.903 97.3937 224.921 97.4733 224.921C97.6492 224.921 97.8199 224.833 97.9189 224.674ZM108.659 200.93L110.832 202.024L97.2821 223.712L95.1084 222.618L108.659 200.93ZM113.812 221.556C113.814 221.543 113.814 221.529 113.814 221.516L113.834 219.48C113.834 218.653 113.596 217.968 113.124 217.443C112.639 216.902 111.98 216.628 111.166 216.628C110.385 216.628 109.744 216.885 109.259 217.391C108.786 217.886 108.53 218.548 108.498 219.361C108.498 219.368 108.498 219.374 108.498 219.381V220.998C108.498 221.748 108.757 222.414 109.269 222.977C109.794 223.556 110.446 223.85 111.206 223.85C112.757 223.849 113.683 223.035 113.812 221.556ZM110.017 218.117C110.3 217.822 110.676 217.678 111.166 217.678C111.676 217.678 112.061 217.831 112.343 218.145C112.64 218.475 112.784 218.912 112.784 219.475L112.765 221.484C112.678 222.406 112.211 222.8 111.206 222.8C110.748 222.8 110.369 222.627 110.047 222.272C109.711 221.902 109.548 221.485 109.548 220.998V219.392C109.571 218.84 109.724 218.423 110.017 218.117ZM99.957 209.439C101.212 208.256 101.848 206.678 101.848 204.75V203.321C101.848 201.315 101.212 199.695 99.9582 198.505C98.7118 197.323 97.008 196.724 94.8939 196.724C92.8066 196.724 91.1098 197.326 89.8504 198.514C88.5823 199.71 87.9394 201.294 87.9394 203.222V204.631C87.9394 206.655 88.5946 208.278 89.8869 209.454C91.1645 210.618 92.8625 211.209 94.9336 211.209C97.0209 211.209 98.7109 210.613 99.957 209.439ZM99.2358 199.267C100.287 200.264 100.798 201.591 100.798 203.321V204.75C100.798 206.401 100.288 207.684 99.2369 208.674C98.1921 209.659 96.7443 210.159 94.9336 210.159C93.1324 210.159 91.6723 209.661 90.5939 208.678C89.5143 207.695 88.9894 206.371 88.9894 204.631V203.222C88.9894 201.572 89.5067 200.282 90.5709 199.278C91.6289 198.28 93.0834 197.774 94.8939 197.774C96.7301 197.774 98.191 198.277 99.2358 199.267ZM97.5423 204.41V203.227C97.5423 202.42 97.3139 201.739 96.8633 201.203C96.39 200.641 95.7274 200.356 94.894 200.356C94.0933 200.356 93.4412 200.63 92.9556 201.171C92.4845 201.695 92.2456 202.4 92.2456 203.267V204.745C92.2456 205.559 92.4845 206.238 92.9555 206.762C93.441 207.303 94.1065 207.577 94.9337 207.577C95.9079 207.577 97.5423 207.166 97.5423 204.41ZM96.0598 201.879C96.3508 202.226 96.4923 202.666 96.4923 203.227V204.41C96.4923 206.287 95.6593 206.527 94.9336 206.527C94.4099 206.527 94.0184 206.375 93.7366 206.061C93.4397 205.73 93.2954 205.3 93.2954 204.745V203.266C93.2954 202.659 93.4397 202.203 93.7367 201.872C94.0186 201.558 94.3972 201.406 94.8939 201.406C95.4103 201.406 95.7917 201.561 96.0598 201.879Z" fill="#3B7CFF"/>
<path d="M60.9639 169.294L64.3968 166.952C64.5188 166.869 64.6001 166.739 64.6208 166.592C64.6415 166.446 64.5998 166.298 64.5057 166.184L60.6782 161.553L66.4417 159.983C66.5815 159.945 66.6994 159.85 66.7674 159.722C66.8353 159.594 66.8475 159.444 66.8007 159.307L65.5108 155.52C65.4641 155.383 65.3627 155.271 65.2306 155.211C65.0986 155.152 64.9476 155.149 64.8136 155.204L59.4472 157.418L59.9017 151.148C59.9123 151.002 59.8618 150.859 59.7625 150.752C59.6633 150.646 59.524 150.585 59.3782 150.585H55.1315C54.9858 150.585 54.8466 150.646 54.7474 150.752C54.648 150.859 54.5975 151.002 54.6078 151.147L55.0439 157.281L49.4965 155.005C49.3629 154.951 49.2125 154.953 49.0809 155.013C48.9492 155.072 48.848 155.184 48.8009 155.32L47.511 159.067C47.4639 159.204 47.4754 159.355 47.5429 159.483C47.6105 159.611 47.7281 159.706 47.8678 159.744L53.5493 161.311L49.5497 166.082C49.4533 166.198 49.4107 166.348 49.4327 166.497C49.4548 166.645 49.5393 166.777 49.6649 166.859L53.0979 169.102C53.2147 169.178 53.3572 169.205 53.4937 169.176C53.6303 169.147 53.7497 169.065 53.8257 168.948L57.0275 164.006L60.2221 169.138C60.2978 169.26 60.4197 169.345 60.5596 169.375C60.5955 169.382 60.6317 169.386 60.6678 169.386C60.7727 169.385 60.876 169.354 60.9639 169.294ZM56.596 162.741L53.2312 167.934L50.7346 166.304L54.879 161.359C54.9939 161.222 55.0311 161.036 54.9779 160.866C54.9247 160.695 54.7885 160.563 54.6162 160.516L48.6858 158.88L49.6127 156.188L55.4284 158.574C55.5965 158.642 55.7881 158.62 55.9354 158.513C56.0826 158.407 56.1642 158.232 56.1514 158.051L55.6953 151.635H58.8138L58.3387 158.189C58.3255 158.371 58.4073 158.546 58.5547 158.653C58.7022 158.759 58.8943 158.782 59.0626 158.712L64.6974 156.388L65.6268 159.117L59.6173 160.754C59.4453 160.801 59.3088 160.932 59.2549 161.102C59.2011 161.272 59.2371 161.457 59.3507 161.595L63.3298 166.41L60.8247 168.118L57.4825 162.749C57.3875 162.596 57.2213 162.503 57.0415 162.501C57.04 162.501 57.0384 162.501 57.0367 162.501C56.8587 162.501 56.6927 162.591 56.596 162.741Z" fill="#3B7CFF"/>
<path d="M24.2439 206.635V201.476C24.2439 201.186 24.0089 200.951 23.7189 200.951H11.7925C11.5026 200.951 11.2675 201.186 11.2675 201.476V206.635C11.2675 206.925 11.5026 207.16 11.7925 207.16H23.7189C24.0088 207.16 24.2439 206.925 24.2439 206.635ZM12.3175 202.001H23.1939V206.11H12.3175V202.001Z" fill="#3B7CFF"/>
<path d="M128.407 98.2797C129.192 97.5638 129.59 96.6488 129.59 95.56C129.59 94.4712 129.192 93.5562 128.407 92.8404C127.636 92.1371 126.615 91.7806 125.374 91.7806C124.133 91.7806 123.113 92.1372 122.342 92.8404C121.556 93.5563 121.158 94.4714 121.158 95.5601C121.158 96.6489 121.556 97.5639 122.342 98.2798C123.113 98.983 124.133 99.3396 125.374 99.3396C126.615 99.3395 127.636 98.9829 128.407 98.2797ZM127.699 93.6164C128.265 94.1321 128.54 94.768 128.54 95.5601C128.54 96.3522 128.265 96.988 127.699 97.5039C127.119 98.0326 126.359 98.2896 125.374 98.2896C124.389 98.2896 123.629 98.0326 123.049 97.5039C122.483 96.9881 122.208 96.3522 122.208 95.5601C122.208 94.768 122.483 94.1322 123.049 93.6164C123.629 93.0876 124.389 92.8306 125.374 92.8306C126.359 92.8306 127.12 93.0876 127.699 93.6164ZM136.278 89.1226V84.2807C136.278 83.9908 136.043 83.7557 135.753 83.7557H115.035C114.745 83.7557 114.51 83.9908 114.51 84.2807V89.1226C114.51 89.4125 114.745 89.6476 115.035 89.6476H135.753C136.043 89.6476 136.278 89.4125 136.278 89.1226ZM115.56 84.8057H135.228V88.5976H115.56V84.8057ZM128.407 80.7018C129.192 79.9858 129.59 79.0708 129.59 77.9822C129.59 76.8934 129.192 75.9784 128.407 75.2625C127.636 74.5593 126.615 74.2026 125.374 74.2026C124.133 74.2026 123.113 74.5593 122.342 75.2625C121.556 75.9784 121.158 76.8934 121.158 77.9822C121.158 79.0708 121.556 79.9858 122.342 80.7018C123.113 81.405 124.133 81.7616 125.374 81.7616C126.615 81.7616 127.636 81.405 128.407 80.7018ZM127.699 76.0384C128.265 76.5542 128.54 77.19 128.54 77.9822C128.54 78.7743 128.265 79.41 127.699 79.9259C127.119 80.4546 126.359 80.7116 125.374 80.7116C124.389 80.7116 123.629 80.4545 123.049 79.9259C122.483 79.41 122.208 78.7743 122.208 77.9822C122.208 77.19 122.483 76.5543 123.049 76.0384C123.629 75.5097 124.389 75.2526 125.374 75.2526C126.359 75.2526 127.119 75.5097 127.699 76.0384Z" fill="#3B7CFF"/>
</g>
</g>
<mask id="mask9_1_9680" style="mask-type:luminance" maskUnits="userSpaceOnUse" x="-314" y="-139" width="480" height="480">
<path d="M166 -139H-314V341H166V-139Z" fill="white"/>
</mask>
<g mask="url(#mask9_1_9680)">
<mask id="mask10_1_9680" style="mask-type:luminance" maskUnits="userSpaceOnUse" x="-93" y="237" width="241" height="241">
<path d="M147.508 237.574H-92.4919V477.574H147.508V237.574Z" fill="white"/>
</mask>
<g mask="url(#mask10_1_9680)">
<path d="M6.58695 293.762L-19.2079 299.922C-19.8404 300.073 -20.4742 300.1 -21.0831 300.017C-23.1255 299.741 -24.8889 298.242 -25.3955 296.12L-26.0654 293.315L-26.5885 291.125L-34.3502 258.626L-30.6087 257.732L-31.1323 255.54L-21.8232 253.317L-21.2996 255.509L-3.56076 251.272L4.20098 283.772L4.39009 284.564L4.72393 285.962L4.4897 286.018L4.03753 286.311C3.01309 286.977 2.51318 288.213 2.79374 289.388C3.07417 290.562 4.07822 291.438 5.29358 291.57L6.08354 291.655L6.58695 293.762ZM-19.7308 297.732L2.1473 292.507C1.3979 291.83 0.848289 290.934 0.60397 289.911C0.35965 288.888 0.445095 287.84 0.807495 286.898L-2.29847 287.639L-23.8754 292.792L-23.2056 295.597C-23.0267 296.347 -22.5667 296.981 -21.9104 297.385C-21.2541 297.788 -20.4802 297.911 -19.7308 297.732ZM-28.4189 257.209L-28.1574 258.304L-27.8959 259.399L-26.1619 266.66L-23.9301 265.096L-21.2325 265.483L-22.9665 258.222L-23.228 257.127L-23.4895 256.032L-23.49 256.03L-28.4192 257.207L-28.4189 257.209Z" fill="#3B7CFF"/>
<path d="M140.45 285.717C140.787 287.618 139.515 289.439 137.615 289.776L137.028 289.881L137.335 291.61C137.61 293.161 136.573 294.646 135.023 294.921L129.361 295.926C129.257 295.947 129.152 295.959 129.047 295.964C128.979 295.969 128.91 295.971 128.841 295.971C128.168 295.971 127.505 295.728 126.994 295.288C126.495 294.867 126.151 294.271 126.035 293.616L125.728 291.887L125.142 291.991C124.935 292.028 124.728 292.046 124.522 292.046C123.812 292.046 123.119 291.829 122.525 291.414C121.758 290.879 121.246 290.076 121.082 289.156C120.758 287.331 121.92 285.583 123.695 285.148C123.074 283.195 122.379 281.43 121.928 280.936C121.544 280.517 121.119 280.126 120.669 279.712C120.017 279.112 119.343 278.492 118.759 277.745C116.85 275.308 115.761 273.366 115.475 270.089C115.003 263.865 119.264 258.322 125.388 257.181C125.389 257.18 125.391 257.18 125.392 257.18L125.45 257.493L125.397 257.179C131.54 256.14 137.452 259.878 139.148 265.873C140.011 269.061 139.657 271.259 138.703 274.205C138.412 275.105 137.994 275.917 137.59 276.702C137.309 277.248 137.044 277.763 136.827 278.292C136.574 278.909 136.529 280.806 136.618 282.853C138.434 282.651 140.126 283.892 140.45 285.717ZM138.233 286.111C138.112 285.432 137.462 284.978 136.784 285.099L136.765 285.102L135.652 285.3L125.443 287.112L124.33 287.31L124.311 287.313C123.633 287.433 123.179 288.083 123.299 288.762C123.357 289.091 123.54 289.377 123.814 289.568C124.088 289.759 124.419 289.832 124.748 289.774L125.335 289.67L127.436 289.296L136.634 287.664L137.221 287.56C137.899 287.439 138.353 286.789 138.233 286.111ZM131.378 290.884L127.945 291.493L128.252 293.223C128.276 293.36 128.348 293.485 128.453 293.574C128.566 293.671 128.705 293.719 128.843 293.72L134.629 292.704C134.957 292.646 135.176 292.332 135.118 292.004L134.811 290.274L131.378 290.884ZM122.443 273.23L124.491 274.164L125.781 271.337L130.151 275.668L133.791 268.61L131.79 267.578L129.556 271.909L125.073 267.465L122.443 273.23Z" fill="#3B7CFF"/>
<path d="M144.507 280.108L143.218 281.954L150.117 286.773L151.407 284.927L144.507 280.108Z" fill="#3B7CFF"/>
<path d="M105.824 253.807L104.534 255.652L111.212 260.316L112.501 258.47L105.824 253.807Z" fill="#3B7CFF"/>
<path d="M144.462 248.149L143.54 247.504L142.617 246.86L137.941 253.554L139.787 254.843L144.462 248.149Z" fill="#3B7CFF"/>
<path d="M116.305 285.553L111.497 292.436L113.343 293.725L118.151 286.842L116.305 285.553Z" fill="#3B7CFF"/>
<path d="M147.131 267.733L153.875 266.536L153.678 265.428L153.481 264.319L146.737 265.516L147.131 267.733Z" fill="#3B7CFF"/>
<path d="M108.815 272.861L102.104 274.053L102.3 275.161L102.497 276.27L109.208 275.078L109.011 273.97L108.815 272.861Z" fill="#3B7CFF"/>
<path d="M124.286 251.158L125.394 250.962L124.231 244.409L123.122 244.605L122.014 244.802L123.177 251.355L124.286 251.158Z" fill="#3B7CFF"/>
<path d="M43.9654 281.757C42.7591 281.707 41.5795 281.511 40.4591 281.176L40.0294 282.613C41.2689 282.984 42.5719 283.2 43.9023 283.256L43.9654 281.757ZM51.5314 282.069L51.0669 280.643C49.8474 281.04 48.6616 281.335 47.5425 281.521L47.788 283.001C48.9811 282.803 50.2405 282.489 51.5314 282.069ZM37.2436 279.733C36.2361 279.08 35.4172 278.276 34.8095 277.345L33.5532 278.165C34.2762 279.273 35.2434 280.224 36.4279 280.991L37.2436 279.733ZM58.5154 279.018L57.8152 277.691C56.6314 278.316 55.5438 278.848 54.4903 279.315L55.0991 280.686C56.1838 280.205 57.3012 279.659 58.5154 279.018ZM65.0533 275.243L64.2727 273.962C62.9855 274.747 61.9958 275.339 61.0638 275.881L61.8185 277.178C62.7595 276.63 63.7571 276.033 65.0533 275.243ZM33.5833 274.15C33.4692 273.505 33.4114 272.811 33.4114 272.09C33.4114 271.617 33.4362 271.121 33.4853 270.617L31.9924 270.472C31.9386 271.024 31.9114 271.569 31.9115 272.09C31.9115 272.899 31.977 273.68 32.1063 274.412L33.5833 274.15ZM71.461 271.363L70.7053 270.067C69.5302 270.752 68.3608 271.462 67.4733 272.004L68.2546 273.284C69.1362 272.746 70.2973 272.041 71.461 271.363ZM78.0396 267.965L77.454 266.584C76.3768 267.041 75.2515 267.578 74.014 268.226L74.71 269.555C75.9112 268.926 77.0003 268.406 78.0396 267.965ZM92.4675 266.889C91.348 266.097 90.1439 265.511 88.8886 265.147L88.471 266.588C89.5651 266.905 90.6183 267.418 91.6009 268.114L92.4675 266.889ZM29.4115 267.803L29.2071 266.317C27.9533 266.489 26.7514 266.52 25.6465 266.407L25.4942 267.899C25.981 267.949 26.4874 267.974 26.9992 267.974C27.7738 267.974 28.5853 267.917 29.4115 267.803ZM34.3093 266.565C35.1206 266.274 35.9452 265.939 36.7721 265.564L36.1523 264.198C35.7406 264.384 35.3299 264.561 34.9217 264.726C35.0582 264.354 35.2037 263.979 35.3576 263.601L33.9684 263.035C33.643 263.834 33.3534 264.624 33.1031 265.394C32.981 265.434 32.8595 265.473 32.7384 265.51L32.9022 266.035C32.8385 266.247 32.7778 266.457 32.7203 266.666L33.135 266.78L33.1857 266.942C33.2687 266.916 33.352 266.89 33.4354 266.863L34.1662 267.064C34.2119 266.899 34.2595 266.733 34.3093 266.565ZM22.2814 265.511C21.2359 265.025 20.2951 264.347 19.485 263.496L18.3987 264.53C19.3389 265.518 20.4324 266.305 21.6491 266.871L22.2814 265.511ZM85.0014 266.187L84.9431 264.688C83.7343 264.735 82.4368 264.944 81.0864 265.308L81.4769 266.756C82.7189 266.421 83.9047 266.23 85.0014 266.187ZM43.3867 261.75L42.5252 260.522C41.5069 261.237 40.4618 261.905 39.4189 262.509L40.1709 263.807C41.2511 263.181 42.333 262.489 43.3867 261.75ZM17.5069 260.601C17.3385 260.258 17.178 259.895 17.0299 259.523C16.7272 258.762 16.4592 257.986 16.2335 257.216L14.7941 257.638C15.0329 258.452 15.3162 259.273 15.6361 260.077C15.7985 260.486 15.9749 260.884 16.1605 261.262L17.5069 260.601ZM38.7139 257.028L37.4323 256.249C36.7581 257.358 36.1312 258.474 35.569 259.569L36.9031 260.254C37.4489 259.192 38.0581 258.106 38.7139 257.028ZM49.2438 256.869L48.1891 255.803C47.3311 256.651 46.4117 257.485 45.4565 258.28L46.4161 259.433C47.4041 258.61 48.3556 257.748 49.2438 256.869ZM54.1018 250.944L52.8324 250.145C52.2237 251.112 51.4987 252.104 50.6777 253.095L51.8327 254.052C52.695 253.011 53.4584 251.966 54.1018 250.944ZM42.9577 250.951L41.7835 250.018C41.0015 251.002 40.2373 252.027 39.5119 253.065L40.7413 253.924C41.4491 252.911 42.1948 251.911 42.9577 250.951ZM15.4684 253.661C15.3172 252.569 15.2405 251.456 15.2405 250.351C15.2405 250.245 15.2412 250.14 15.2425 250.035L13.7426 250.016C13.7412 250.127 13.7405 250.239 13.7405 250.351C13.7405 251.524 13.822 252.707 13.9825 253.867L15.4684 253.661ZM47.9491 245.503L46.9307 244.402C46.0523 245.215 45.1494 246.129 44.2473 247.119L45.3562 248.129C46.2297 247.17 47.102 246.287 47.9491 245.503ZM56.599 243.804C56.599 243.708 56.5972 243.612 56.5936 243.517L55.0947 243.574C55.0975 243.65 55.099 243.727 55.099 243.804C55.099 244.75 54.8835 245.806 54.4584 246.941L55.8633 247.467C56.3514 246.162 56.599 244.93 56.599 243.804ZM16.3699 242.857L14.9327 242.427C14.5602 243.674 14.2714 244.935 14.074 246.176L15.5554 246.412C15.7423 245.236 16.0164 244.04 16.3699 242.857ZM53.8051 241.815L53.6725 240.321C52.6467 240.412 51.3868 240.966 49.9277 241.967L50.7763 243.204C52.3256 242.141 53.2786 241.862 53.8051 241.815ZM19.2611 236.13L17.9532 235.395C17.3172 236.528 16.7443 237.681 16.2503 238.824L17.6271 239.419C18.1006 238.324 18.6504 237.218 19.2611 236.13ZM23.4298 230.055L22.2683 229.105C21.4561 230.099 20.6849 231.125 19.9762 232.155L21.2118 233.005C21.8974 232.009 22.6435 231.017 23.4298 230.055ZM28.5411 224.759L27.5911 223.598C27.5437 223.636 26.4123 224.566 24.7969 226.25L25.8795 227.288C27.4263 225.676 28.5301 224.768 28.5411 224.759Z" fill="#3B7CFF"/>
</g>
</g>
</g>
<defs>
<clipPath id="clip0_1_9680">
<rect width="480" height="560.666" fill="white" transform="translate(-314 -270.25)"/>
</clipPath>
</defs>
</svg>
