<svg width="240" height="300" viewBox="0 0 240 300" fill="none" xmlns="http://www.w3.org/2000/svg">
<g clip-path="url(#clip0_1_4754)">
<mask id="mask0_1_4754" style="mask-type:luminance" maskUnits="userSpaceOnUse" x="0" y="-180" width="480" height="480">
<path d="M480 -180H0V300H480V-180Z" fill="white"/>
</mask>
<g mask="url(#mask0_1_4754)">
<mask id="mask1_1_4754" style="mask-type:luminance" maskUnits="userSpaceOnUse" x="221" y="-44" width="241" height="241">
<path d="M461.508 -43.4263H221.508V196.574H461.508V-43.4263Z" fill="white"/>
</mask>
<g mask="url(#mask1_1_4754)">
<path d="M239.19 30.9339L242.053 28.4402L241.254 27.5236C240.924 27.1448 240.467 26.9157 239.967 26.8777C239.962 26.8774 239.958 26.877 239.953 26.8767C239.447 26.8418 238.958 27.0062 238.576 27.3392C237.787 28.0266 237.704 29.2279 238.392 30.0172L239.19 30.9339Z" fill="#3B7CFF"/>
<path d="M239.894 39.4285L240.276 39.0964L241.125 38.3566L241.974 37.6167L253.684 51.0584L254.526 50.3252L255.95 49.0842L257.735 47.5297L259.159 46.289L260.001 45.5556L245.868 29.3331C245.828 29.2866 245.784 29.245 245.736 29.208C245.718 29.1936 245.697 29.1836 245.677 29.1708C245.66 29.1598 245.644 29.1486 245.626 29.1387C245.612 29.1306 245.6 29.1201 245.585 29.1129C245.54 29.0901 245.492 29.0732 245.443 29.0582C245.435 29.0555 245.427 29.0511 245.418 29.0488C245.383 29.0392 245.347 29.0355 245.311 29.0301C245.287 29.0265 245.264 29.0197 245.24 29.0178C245.238 29.0177 245.236 29.0175 245.234 29.0174C244.987 29.0004 244.748 29.0805 244.562 29.2429L244.382 29.3992L243.533 30.1391L240.671 32.6327L239.821 33.3726L239.642 33.5289C239.569 33.5925 239.513 33.6671 239.465 33.7456C239.418 33.8225 239.379 33.903 239.356 33.9884C239.3 34.1984 239.323 34.4239 239.418 34.6248C239.427 34.6439 239.433 34.6643 239.444 34.6829C239.474 34.7365 239.51 34.7878 239.552 34.8359L240.309 35.7047L239.46 36.4446L238.61 37.1846L237.273 38.3495C236.745 38.8094 236.69 39.6103 237.15 40.1385L257.415 63.4006C257.875 63.9285 258.676 63.9837 259.204 63.5238C259.732 63.0639 259.787 62.2629 259.327 61.7349L239.894 39.4285Z" fill="#3B7CFF"/>
<path d="M261.172 188.261V186.995V185.712V178.269L249.884 184.151H246.878L232.473 176.644L231.347 176.058L230.221 175.471V184.743L230.643 185.081C234.789 188.402 239.765 190.487 245.032 191.111C246.137 191.242 247.249 191.307 248.361 191.307C251.77 191.307 255.174 190.696 258.361 189.499C258.902 189.296 259.449 189.071 259.987 188.829C260.387 188.65 260.781 188.459 261.172 188.261Z" fill="#3B7CFF"/>
<path d="M274.28 166.928L248.782 157.207H247.98L222.481 166.928L222.362 168.978L230.221 173.073L231.347 173.66L232.473 174.247L247.861 182.265H248.901L260.943 175.99L259.698 175.369L258.454 174.748L256.104 173.575L253.94 172.494L251.685 171.369L249.43 170.243L247.486 169.273L248.491 167.258L254.471 170.243L256.726 171.369L258.57 172.289L258.981 172.494L260.921 173.463L262.165 174.084L263.409 174.705L264.289 174.246L265.415 173.66L266.541 173.073L274.399 168.978L274.28 166.928Z" fill="#3B7CFF"/>
</g>
<mask id="mask2_1_4754" style="mask-type:luminance" maskUnits="userSpaceOnUse" x="221" y="-44" width="241" height="241">
<path d="M461.508 -43.4263H221.508V196.574H461.508V-43.4263Z" fill="white"/>
</mask>
<g mask="url(#mask2_1_4754)">
<path d="M218.516 -0.894651L217.227 0.951172L224.127 5.77043L225.416 3.92461L218.516 -0.894651Z" fill="#3B7CFF"/>
<path d="M227.043 112.326C222.631 117.661 216.406 120.958 209.515 121.61C208.682 121.689 207.851 121.728 207.025 121.728C206.236 121.728 205.451 121.691 204.671 121.62L204.052 125.372L211.468 126.597L212.586 134.657L190.764 131.053L194.414 123.78L201.83 125.005L202.439 121.318C198.112 120.539 194.036 118.659 190.555 115.781L191.99 114.046C196.861 118.074 203.009 119.965 209.302 119.369C215.595 118.773 221.279 115.762 225.308 110.891C233.624 100.836 232.208 85.8897 222.153 77.5738L223.588 75.8389C234.6 84.9463 236.15 101.314 227.043 112.326ZM209.466 128.548L203.685 127.593L201.464 127.226L195.683 126.272L194.148 129.33L209.936 131.938L209.466 128.548Z" fill="#3B7CFF"/>
<path d="M186.674 97.7412C186.158 92.2928 187.795 86.9695 191.283 82.7521C194.771 78.5347 199.692 75.9279 205.141 75.4121C210.589 74.8963 215.912 76.533 220.13 80.0209C222.219 81.7489 223.912 83.8297 225.152 86.151C226.415 88.5153 227.209 91.1295 227.47 93.8787C227.985 99.3271 226.349 104.65 222.861 108.868C221.877 110.057 220.785 111.106 219.612 112.014C215.962 114.84 211.521 116.29 207.054 116.29C202.454 116.29 197.828 114.753 194.014 111.599C189.797 108.111 187.19 103.19 186.674 97.7412ZM203.98 77.8409C202.67 78.8955 201.331 80.1385 200.156 81.5618C197.059 85.3122 196.283 87.941 196.981 91.2649C197.68 94.5889 199.064 96.3766 197.183 97.4503C195.302 98.5239 193.755 101.101 194.658 103.542C195.56 105.983 194.058 107.011 194.683 107.88C195.309 108.748 197.407 108.109 200.896 109.801C205.95 112.251 208.473 110.293 206.775 107.896C205.077 105.498 205.966 104.422 204.391 100.957C202.816 97.4927 199.539 97.259 198.597 93.8443C197.763 90.8222 198.652 86.2063 201.303 88.2297C203.953 90.2532 206.272 90.3597 209.903 90.2654C212.252 90.2044 214.115 89.6537 214.289 88.341C214.528 86.5359 212.946 85.6604 210.182 84.8238C207.184 83.9161 207.882 81.7578 210.015 81.6517C212.148 81.5457 215.68 81.0194 216.008 82.4595C216.336 83.8997 216.329 85.6433 217.896 85.8809C218.96 86.0425 220.005 85.0833 220.732 83.7249C220.11 83.024 219.431 82.3647 218.695 81.756C215.394 79.0266 211.333 77.5706 207.105 77.5706C206.523 77.5706 205.939 77.5981 205.353 77.6537C204.89 77.6975 204.433 77.7635 203.98 77.8409ZM225.228 94.091C225.055 92.2643 224.618 90.5042 223.94 88.8537C223.972 91.166 224.617 92.735 223.036 94.0278C220.46 96.1351 222.432 96.7062 221.819 98.7192C221.13 100.986 218.132 101.306 216.826 105.056C215.941 107.599 216.597 109.356 217.759 110.594C218.995 109.697 220.127 108.641 221.126 107.433C224.231 103.679 225.687 98.9407 225.228 94.091Z" fill="#3B7CFF"/>
</g>
</g>
<mask id="mask3_1_4754" style="mask-type:luminance" maskUnits="userSpaceOnUse" x="0" y="-180" width="480" height="480">
<path d="M480 -180H0V300H480V-180Z" fill="white"/>
</mask>
<g mask="url(#mask3_1_4754)">
<mask id="mask4_1_4754" style="mask-type:luminance" maskUnits="userSpaceOnUse" x="221" y="196" width="241" height="241">
<path d="M461.508 196.574H221.508V436.574H461.508V196.574Z" fill="white"/>
</mask>
<g mask="url(#mask4_1_4754)">
<path d="M239.19 270.934L242.053 268.44L241.254 267.524C240.924 267.145 240.467 266.916 239.967 266.878C239.962 266.877 239.958 266.877 239.953 266.877C239.447 266.842 238.958 267.006 238.576 267.339C237.787 268.027 237.704 269.228 238.392 270.017L239.19 270.934Z" fill="#3B7CFF"/>
<path d="M239.894 279.429L240.276 279.097L241.125 278.357L241.974 277.617L253.684 291.058L254.526 290.325L255.95 289.084L257.735 287.53L259.159 286.289L260.001 285.556L245.868 269.333C245.828 269.287 245.784 269.245 245.736 269.208C245.718 269.194 245.697 269.184 245.677 269.171C245.66 269.16 245.644 269.149 245.626 269.139C245.612 269.131 245.6 269.12 245.585 269.113C245.54 269.09 245.492 269.073 245.443 269.058C245.435 269.056 245.427 269.051 245.418 269.049C245.383 269.039 245.347 269.035 245.311 269.03C245.287 269.026 245.264 269.02 245.24 269.018C245.238 269.018 245.236 269.017 245.234 269.017C244.987 269 244.748 269.08 244.562 269.243L244.382 269.399L243.533 270.139L240.671 272.633L239.821 273.373L239.642 273.529C239.569 273.593 239.513 273.667 239.465 273.746C239.418 273.823 239.379 273.903 239.356 273.988C239.3 274.198 239.323 274.424 239.418 274.625C239.427 274.644 239.433 274.664 239.444 274.683C239.474 274.737 239.51 274.788 239.552 274.836L240.309 275.705L239.46 276.445L238.61 277.185L237.273 278.35C236.745 278.81 236.69 279.611 237.15 280.139L257.415 303.401C257.875 303.929 258.676 303.984 259.204 303.524C259.732 303.064 259.787 302.263 259.327 301.735L239.894 279.429Z" fill="#3B7CFF"/>
</g>
<mask id="mask5_1_4754" style="mask-type:luminance" maskUnits="userSpaceOnUse" x="221" y="196" width="241" height="241">
<path d="M461.508 196.574H221.508V436.574H461.508V196.574Z" fill="white"/>
</mask>
<g mask="url(#mask5_1_4754)">
<path d="M218.51 239.102L217.221 240.948L224.121 245.767L225.41 243.921L218.51 239.102Z" fill="#3B7CFF"/>
<path d="M221.131 226.733L227.875 225.536L227.678 224.428L227.481 223.319L220.737 224.516L221.131 226.733Z" fill="#3B7CFF"/>
</g>
</g>
<mask id="mask6_1_4754" style="mask-type:luminance" maskUnits="userSpaceOnUse" x="0" y="-180" width="480" height="480">
<path d="M480 -180H0V300H480V-180Z" fill="white"/>
</mask>
<g mask="url(#mask6_1_4754)">
<mask id="mask7_1_4754" style="mask-type:luminance" maskUnits="userSpaceOnUse" x="-19" y="-44" width="241" height="241">
<path d="M221.508 -43.4263H-18.4919V196.574H221.508V-43.4263Z" fill="white"/>
</mask>
<g mask="url(#mask7_1_4754)">
<path d="M117.965 240.757C116.759 240.707 115.58 240.511 114.459 240.176L114.029 241.613C115.269 241.984 116.572 242.2 117.902 242.256L117.965 240.757ZM125.531 241.069L125.067 239.643C123.847 240.04 122.662 240.335 121.542 240.521L121.788 242.001C122.981 241.803 124.241 241.489 125.531 241.069ZM111.244 238.733C110.236 238.08 109.417 237.276 108.81 236.345L107.553 237.165C108.276 238.273 109.243 239.224 110.428 239.991L111.244 238.733ZM132.515 238.018L131.815 236.691C130.631 237.316 129.544 237.848 128.49 238.315L129.099 239.686C130.184 239.205 131.301 238.659 132.515 238.018ZM139.053 234.243L138.273 232.962C136.985 233.747 135.996 234.339 135.064 234.881L135.818 236.178C136.759 235.63 137.757 235.033 139.053 234.243ZM107.583 233.15C107.469 232.505 107.411 231.811 107.411 231.09C107.411 230.617 107.436 230.121 107.485 229.617L105.992 229.472C105.939 230.024 105.912 230.569 105.912 231.09C105.912 231.899 105.977 232.68 106.106 233.412L107.583 233.15ZM145.461 230.363L144.705 229.067C143.53 229.752 142.361 230.462 141.473 231.004L142.255 232.284C143.136 231.746 144.297 231.041 145.461 230.363ZM152.04 226.965L151.454 225.584C150.377 226.041 149.252 226.578 148.014 227.226L148.71 228.555C149.911 227.926 151 227.406 152.04 226.965ZM166.467 225.889C165.348 225.097 164.144 224.511 162.889 224.147L162.471 225.588C163.565 225.905 164.618 226.418 165.601 227.114L166.467 225.889ZM103.412 226.803L103.207 225.317C101.953 225.489 100.752 225.52 99.6467 225.407L99.4944 226.899C99.9811 226.949 100.488 226.974 100.999 226.974C101.774 226.974 102.585 226.917 103.412 226.803ZM108.309 225.565C109.121 225.274 109.945 224.939 110.772 224.564L110.152 223.198C109.741 223.384 109.33 223.561 108.922 223.726C109.058 223.354 109.204 222.979 109.358 222.601L107.968 222.035C107.643 222.834 107.353 223.624 107.103 224.394C106.981 224.434 106.86 224.473 106.738 224.51L106.902 225.035C106.838 225.247 106.778 225.457 106.72 225.666L107.135 225.78L107.186 225.942C107.269 225.916 107.352 225.89 107.435 225.863L108.166 226.064C108.212 225.899 108.26 225.733 108.309 225.565ZM96.2814 224.511C95.2359 224.025 94.295 223.347 93.485 222.496L92.3987 223.53C93.3389 224.518 94.4325 225.305 95.6491 225.871L96.2814 224.511ZM159.001 225.187L158.943 223.688C157.734 223.735 156.437 223.944 155.086 224.308L155.477 225.756C156.719 225.421 157.905 225.23 159.001 225.187ZM117.387 220.75L116.525 219.522C115.507 220.237 114.462 220.905 113.419 221.509L114.171 222.807C115.251 222.181 116.333 221.489 117.387 220.75ZM91.5069 219.601C91.3385 219.258 91.178 218.895 91.0299 218.523C90.7272 217.762 90.4592 216.986 90.2335 216.216L88.7941 216.638C89.0329 217.452 89.3162 218.273 89.6362 219.077C89.7985 219.486 89.9749 219.884 90.1606 220.262L91.5069 219.601ZM112.714 216.028L111.432 215.249C110.758 216.358 110.131 217.474 109.569 218.569L110.903 219.254C111.449 218.192 112.058 217.106 112.714 216.028ZM123.244 215.869L122.189 214.803C121.331 215.651 120.412 216.485 119.457 217.28L120.416 218.433C121.404 217.61 122.356 216.748 123.244 215.869ZM128.102 209.944L126.832 209.145C126.224 210.112 125.499 211.104 124.678 212.095L125.833 213.052C126.695 212.011 127.458 210.966 128.102 209.944ZM116.958 209.951L115.784 209.018C115.002 210.002 114.237 211.027 113.512 212.065L114.741 212.924C115.449 211.911 116.195 210.911 116.958 209.951ZM89.4683 212.661C89.3171 211.569 89.2404 210.456 89.2404 209.351C89.2404 209.245 89.2411 209.14 89.2424 209.035L87.7425 209.016C87.7411 209.127 87.7404 209.239 87.7404 209.351C87.7404 210.524 87.8219 211.707 87.9824 212.867L89.4683 212.661ZM121.949 204.503L120.931 203.402C120.052 204.215 119.149 205.129 118.247 206.119L119.356 207.129C120.23 206.17 121.102 205.287 121.949 204.503ZM130.599 202.804C130.599 202.708 130.597 202.612 130.594 202.517L129.095 202.574C129.098 202.65 129.099 202.727 129.099 202.804C129.099 203.75 128.883 204.806 128.458 205.941L129.863 206.467C130.351 205.162 130.599 203.93 130.599 202.804ZM90.3699 201.857L88.9327 201.427C88.5602 202.674 88.2714 203.935 88.074 205.176L89.5554 205.412C89.7423 204.236 90.0164 203.04 90.3699 201.857ZM127.805 200.815L127.673 199.321C126.647 199.412 125.387 199.966 123.928 200.967L124.776 202.204C126.326 201.141 127.279 200.862 127.805 200.815ZM93.2611 195.13L91.9532 194.395C91.3172 195.528 90.7442 196.681 90.2503 197.824L91.6271 198.419C92.1006 197.324 92.6504 196.218 93.2611 195.13ZM97.4298 189.055L96.2683 188.105C95.4562 189.099 94.6849 190.125 93.9762 191.155L95.2118 192.005C95.8974 191.009 96.6435 190.017 97.4298 189.055ZM102.541 183.759L101.591 182.598C101.544 182.636 100.412 183.566 98.7969 185.25L99.8793 186.288C101.426 184.676 102.53 183.768 102.541 183.759Z" fill="#3B7CFF"/>
</g>
<mask id="mask8_1_4754" style="mask-type:luminance" maskUnits="userSpaceOnUse" x="-19" y="-44" width="241" height="241">
<path d="M221.508 -43.4263H-18.4919V196.574H221.508V-43.4263Z" fill="white"/>
</mask>
<g mask="url(#mask8_1_4754)">
<path d="M147.051 137.647L112.459 169.165L117.44 174.632L152.032 143.114L147.051 137.647Z" fill="#3B7CFF"/>
<path d="M109.511 174.754L107.386 176.691L106.728 177.289C106.236 177.738 106.096 178.428 106.322 179.015C106.39 179.192 106.49 179.36 106.625 179.508C106.747 179.642 106.887 179.748 107.037 179.829C107.609 180.14 108.336 180.074 108.844 179.611L109.581 178.94L111.706 177.003L115.386 175.716L111.183 171.103L109.511 174.754Z" fill="#3B7CFF"/>
<path d="M158.848 131.893C157.475 130.385 155.131 130.276 153.624 131.65L152.597 132.586L157.578 138.053L158.605 137.117C160.113 135.744 160.221 133.4 158.848 131.893Z" fill="#3B7CFF"/>
<path d="M150.13 134.834L150.058 134.9L149.297 135.593L149.225 135.658L148.715 136.123L153.697 141.59L154.206 141.125L154.278 141.06L155.039 140.367L155.111 140.301L155.913 139.571L150.931 134.104L150.13 134.834Z" fill="#3B7CFF"/>
<path d="M137.45 36.0051L144.376 37.1408L138.846 33.3867L137.45 36.0051Z" fill="#3B7CFF"/>
<path d="M147.694 12.0107L100.448 25.8617L142.14 22.4252L147.694 12.0107Z" fill="#3B7CFF"/>
<path d="M98.044 30.6865L92.22 30.3704L89.94 30.2466L127.238 50.3654L133.982 37.72L134.542 36.6703L135.102 35.6207L136.617 32.7804L108.452 31.2516L98.044 30.6865Z" fill="#3B7CFF"/>
<path d="M142.711 26.1402L142.156 24.7875L142.115 24.6875L140.879 24.7895L97.2871 28.3827L97.2394 28.3866L108.024 28.972L118.823 29.5582L137.786 30.5875L138.503 30.6265L138.96 30.7805L139.075 30.8193L139.912 31.3879L141.817 32.6806L145.897 35.4507L146.776 36.0469L145.809 33.6922L142.711 26.1402Z" fill="#3B7CFF"/>
<path d="M109.666 92.3285L109.665 92.3284C108.788 91.6296 107.718 91.2123 106.484 91.0879C102.623 90.7003 99.0451 89.1372 96.137 86.5675C95.2081 85.7473 94.1747 85.2456 93.0658 85.0765C90.8304 84.7351 88.4861 85.7815 86.4648 88.0229C84.3272 90.3931 82.8334 93.7727 82.2584 97.5388C81.0979 105.143 84.0578 111.925 88.8564 112.658L88.8706 112.659C90.1166 112.846 91.2953 113.36 92.2787 114.148L92.2766 114.151L92.2874 114.16L92.2897 114.158C92.7535 114.527 93.2657 114.815 93.8149 115.025C97.7622 116.532 103.66 114.009 107.866 108.726C112.656 102.707 113.463 95.3512 109.666 92.3285Z" fill="#3B7CFF"/>
<path d="M97.5659 84.827C98.2145 85.8846 99.1308 86.7587 100.219 87.3564C100.228 87.3513 100.236 87.3453 100.244 87.34C100.238 87.3541 100.231 87.3677 100.225 87.382L102.688 88.4582C102.757 88.2998 102.834 88.1469 102.914 87.9972C104.432 85.1777 107.895 83.9434 110.88 85.2475L111.956 82.7842C108.982 81.485 105.676 81.9452 103.208 83.7047C103.5 82.9013 103.654 82.033 103.633 81.1265C103.573 78.4973 102.089 76.2396 99.9389 75.0586C97.8445 76.3365 96.4654 78.6592 96.5251 81.2885C96.5548 82.5873 96.9329 83.7946 97.5659 84.827Z" fill="#3B7CFF"/>
<path d="M-0.809636 30.9339L2.05272 28.4402L1.25424 27.5236C0.924124 27.1448 0.467524 26.9157 -0.0329964 26.8777C-0.0375564 26.8774 -0.0419962 26.877 -0.0465562 26.8767C-0.552476 26.8418 -1.04148 27.0062 -1.4238 27.3392C-2.21304 28.0266 -2.29572 29.2279 -1.60824 30.0172L-0.809636 30.9339Z" fill="#3B7CFF"/>
<path d="M-0.105598 39.4285L0.275641 39.0964L1.125 38.3566L1.97424 37.6167L13.6842 51.0584L14.5259 50.3252L15.9504 49.0842L17.7348 47.5297L19.1591 46.289L20.0009 45.5556L5.86812 29.3331C5.82768 29.2866 5.78328 29.245 5.73588 29.208C5.7174 29.1936 5.69628 29.1836 5.67672 29.1708C5.66004 29.1598 5.64336 29.1486 5.62584 29.1387C5.61192 29.1306 5.5992 29.1201 5.5848 29.1129C5.53944 29.0901 5.49144 29.0732 5.44272 29.0582C5.4342 29.0555 5.42652 29.0511 5.418 29.0488C5.38308 29.0392 5.34636 29.0355 5.31036 29.0301C5.28672 29.0265 5.26404 29.0197 5.24004 29.0178C5.23788 29.0177 5.2356 29.0175 5.23332 29.0174C4.98648 29.0004 4.7478 29.0805 4.56108 29.2429L4.38192 29.3992L3.53256 30.1391L0.670202 32.6327L-0.179158 33.3726L-0.358318 33.5289C-0.431278 33.5925 -0.487798 33.6671 -0.535799 33.7456C-0.582718 33.8225 -0.621719 33.903 -0.644398 33.9884C-0.700199 34.1984 -0.677639 34.4239 -0.582119 34.6248C-0.572999 34.6439 -0.566998 34.6643 -0.556559 34.6829C-0.526319 34.7365 -0.490198 34.7878 -0.448318 34.8359L0.308641 35.7047L-0.540719 36.4446L-1.39008 37.1846L-2.72724 38.3495C-3.25524 38.8094 -3.31044 39.6103 -2.85048 40.1385L17.4149 63.4006C17.8748 63.9285 18.6758 63.9837 19.2038 63.5238C19.7317 63.0639 19.7869 62.2629 19.327 61.7349L-0.105598 39.4285Z" fill="#3B7CFF"/>
<path d="M56.8217 91.8254L56.498 91.454L54.6556 89.339L52.6987 83.0886L21.4806 47.2539L15.164 52.7568L46.3822 88.5914L52.3055 91.3865L54.1478 93.5013L54.4715 93.8728C54.8606 94.3195 55.4482 94.4907 55.9884 94.3699C56.2332 94.3152 56.468 94.2004 56.6704 94.0241C56.8727 93.8479 57.0185 93.6309 57.1062 93.396C57.3 92.8777 57.2108 92.272 56.8217 91.8254Z" fill="#3B7CFF"/>
<path d="M80.587 12.7618L54.7921 18.9221C54.1596 19.0732 53.5258 19.0996 52.9169 19.0173C50.8745 18.7411 49.1111 17.2418 48.6046 15.1201L47.9346 12.3153L47.4115 10.1253L39.6498 -22.3743L43.3913 -23.2678L42.8677 -25.4599L52.1768 -27.683L52.7004 -25.4911L70.4393 -29.7275L78.201 2.77206L78.3901 3.56407L78.724 4.96182L78.4897 5.01787L78.0376 5.3115C77.0131 5.97654 76.5132 7.2129 76.7938 8.3877C77.0742 9.5625 78.0782 10.4385 79.2936 10.5701L80.0835 10.6551L80.587 12.7618ZM54.2693 16.7324L76.1473 11.5073C75.3979 10.8301 74.8483 9.93367 74.604 8.91091C74.3597 7.88803 74.445 6.83994 74.8075 5.89746L71.7016 6.6393L50.1246 11.7925L50.7944 14.5973C50.9734 15.3466 51.4333 15.9812 52.0896 16.3846C52.7459 16.7877 53.5199 16.9113 54.2693 16.7324ZM45.5812 -23.7908L45.8426 -22.6958L46.1041 -21.6008L47.8381 -14.3401L50.0699 -15.9043L52.7675 -15.5173L51.0335 -22.7781L50.772 -23.873L50.5105 -24.968L50.51 -24.97L45.5808 -23.7928L45.5812 -23.7908Z" fill="#3B7CFF"/>
<path d="M214.45 4.71724C214.787 6.61816 213.516 8.43904 211.615 8.7766L211.028 8.88077L211.335 10.6104C211.61 12.1607 210.573 13.6459 209.023 13.9211L203.361 14.9263C203.257 14.9469 203.152 14.9596 203.047 14.9638C202.979 14.9688 202.91 14.9714 202.841 14.9714C202.168 14.9714 201.505 14.728 200.994 14.2878C200.495 13.8674 200.151 13.2708 200.035 12.6157L199.728 10.8869L199.142 10.991C198.935 11.0277 198.728 11.0458 198.522 11.0458C197.812 11.0458 197.119 10.8294 196.525 10.4141C195.758 9.87868 195.246 9.07649 195.082 8.15573C194.758 6.33077 195.92 4.58332 197.695 4.14772C197.074 2.19544 196.379 0.429878 195.928 -0.0639229C195.544 -0.482962 195.119 -0.874031 194.669 -1.28815C194.017 -1.88791 193.343 -2.50784 192.759 -3.25472C190.85 -5.6918 189.761 -7.634 189.475 -10.9114C189.003 -17.1356 193.265 -22.6785 199.388 -23.8196C199.389 -23.82 199.391 -23.8202 199.392 -23.8204L199.451 -23.507L199.397 -23.8213C205.54 -24.8602 211.453 -21.1225 213.148 -15.127C214.012 -11.939 213.658 -9.7406 212.703 -6.7946C212.412 -5.89496 211.994 -5.08291 211.59 -4.29763C211.309 -3.75211 211.044 -3.23696 210.827 -2.70848C210.574 -2.09096 210.53 -0.193878 210.618 1.85344C212.434 1.65148 214.126 2.89252 214.45 4.71724ZM212.233 5.11084C212.112 4.43236 211.462 3.9784 210.784 4.09888L210.765 4.10237L209.652 4.29989L199.443 6.11224L198.331 6.30976L198.311 6.31325C197.633 6.43361 197.179 7.08353 197.299 7.76201C197.358 8.09081 197.541 8.37701 197.814 8.56817C198.088 8.75933 198.42 8.8324 198.748 8.77408L199.335 8.66993V8.6698L201.437 8.29672L210.634 6.66389L211.221 6.55972C211.899 6.43924 212.353 5.78932 212.233 5.11084ZM205.378 9.88385L201.945 10.4932L202.252 12.2229C202.276 12.3605 202.348 12.4848 202.453 12.5738C202.566 12.6711 202.705 12.7196 202.843 12.7199L208.629 11.7041C208.957 11.6459 209.176 11.3319 209.118 11.0039L208.811 9.27425L205.378 9.88385ZM196.443 -7.77007L198.491 -6.83551L199.781 -9.66272L204.151 -5.33191L207.791 -12.3898L205.79 -13.4218L203.556 -9.09092L199.073 -13.5344L196.443 -7.77007Z" fill="#3B7CFF"/>
<path d="M218.516 -0.894651L217.227 0.951172L224.127 5.77043L225.416 3.92461L218.516 -0.894651Z" fill="#3B7CFF"/>
<path d="M190.315 4.55511L185.508 11.438L187.354 12.7272L192.161 5.84436L190.315 4.55511Z" fill="#3B7CFF"/>
<path d="M21.1718 188.261V186.995V185.712V178.269L9.88368 184.151H6.87804L-7.52736 176.644L-8.6532 176.058L-9.77892 175.471V184.743L-9.357 185.081C-5.21064 188.402 -0.235204 190.487 5.0316 191.111C6.13716 191.242 7.24932 191.307 8.36124 191.307C11.7697 191.307 15.1741 190.696 18.3606 189.499C18.9014 189.296 19.4485 189.071 19.9872 188.829C20.3868 188.65 20.7809 188.459 21.1718 188.261Z" fill="#3B7CFF"/>
<path d="M24.2893 176.644L23.4233 177.095V184.288V185.653V186.99C24.3559 186.407 25.2574 185.771 26.1188 185.081L26.5408 184.743V175.471L25.415 176.057L24.2893 176.644Z" fill="#3B7CFF"/>
<path d="M34.2803 166.928L8.78184 157.207H7.97976L-17.5192 166.928L-17.6383 168.978L-9.77904 173.073L-8.65332 173.66L-7.52748 174.247L7.8606 182.265H8.901L20.9426 175.99L19.6985 175.369L18.4543 174.748L16.1041 173.575L13.9402 172.494L11.6849 171.369L9.42972 170.243L7.4856 169.273L8.49132 167.258L14.4708 170.243L16.7261 171.369L18.5705 172.289L18.9812 172.494L20.9208 173.463L22.165 174.084L23.4092 174.705L24.2893 174.246L25.415 173.66L26.5408 173.073L34.3993 168.978L34.2803 166.928Z" fill="#3B7CFF"/>
<path d="M23.3778 191.588H21.2171L21.1718 191.743L18.9611 199.291L20.0414 200.733H24.5537L25.634 199.291L23.4233 191.743L23.3778 191.588Z" fill="#3B7CFF"/>
<path d="M227.043 112.326C222.631 117.661 216.406 120.958 209.515 121.61C208.682 121.689 207.851 121.728 207.025 121.728C206.236 121.728 205.451 121.691 204.671 121.62L204.052 125.372L211.468 126.597L212.586 134.657L190.764 131.053L194.414 123.78L201.83 125.005L202.439 121.318C198.112 120.539 194.036 118.659 190.555 115.781L191.99 114.046C196.861 118.074 203.009 119.965 209.302 119.369C215.595 118.773 221.279 115.762 225.308 110.891C233.624 100.836 232.208 85.8897 222.153 77.5738L223.588 75.8389C234.6 84.9463 236.15 101.314 227.043 112.326ZM209.466 128.548L203.685 127.593L201.464 127.226L195.683 126.272L194.148 129.33L209.936 131.938L209.466 128.548Z" fill="#3B7CFF"/>
<path d="M186.674 97.7412C186.158 92.2928 187.795 86.9695 191.283 82.7521C194.771 78.5347 199.692 75.9279 205.141 75.4121C210.589 74.8963 215.912 76.533 220.13 80.0209C222.219 81.7489 223.912 83.8297 225.152 86.151C226.415 88.5153 227.209 91.1295 227.47 93.8787C227.985 99.3271 226.349 104.65 222.861 108.868C221.877 110.057 220.785 111.106 219.612 112.014C215.962 114.84 211.521 116.29 207.054 116.29C202.454 116.29 197.828 114.753 194.014 111.599C189.797 108.111 187.19 103.19 186.674 97.7412ZM203.98 77.8409C202.67 78.8955 201.331 80.1385 200.156 81.5618C197.059 85.3122 196.283 87.941 196.981 91.2649C197.68 94.5889 199.064 96.3766 197.183 97.4503C195.302 98.5239 193.755 101.101 194.658 103.542C195.56 105.983 194.058 107.011 194.683 107.88C195.309 108.748 197.407 108.109 200.896 109.801C205.95 112.251 208.473 110.293 206.775 107.896C205.077 105.498 205.966 104.422 204.391 100.957C202.816 97.4927 199.539 97.259 198.597 93.8443C197.763 90.8222 198.652 86.2063 201.303 88.2297C203.953 90.2532 206.272 90.3597 209.903 90.2654C212.252 90.2044 214.115 89.6537 214.289 88.341C214.528 86.5359 212.946 85.6604 210.182 84.8238C207.184 83.9161 207.882 81.7578 210.015 81.6517C212.148 81.5457 215.68 81.0194 216.008 82.4595C216.336 83.8997 216.329 85.6433 217.896 85.8809C218.96 86.0425 220.005 85.0833 220.732 83.7249C220.11 83.024 219.431 82.3647 218.695 81.756C215.394 79.0266 211.333 77.5706 207.105 77.5706C206.523 77.5706 205.939 77.5981 205.353 77.6537C204.89 77.6975 204.433 77.7635 203.98 77.8409ZM225.228 94.091C225.055 92.2643 224.618 90.5042 223.94 88.8537C223.972 91.166 224.617 92.735 223.036 94.0278C220.46 96.1351 222.432 96.7062 221.819 98.7192C221.13 100.986 218.132 101.306 216.826 105.056C215.941 107.599 216.597 109.356 217.759 110.594C218.995 109.697 220.127 108.641 221.126 107.433C224.231 103.679 225.687 98.9407 225.228 94.091Z" fill="#3B7CFF"/>
<path d="M60.548 169.127L59.627 167.943C58.6711 168.687 57.6655 169.426 56.6384 170.14L57.4945 171.371C58.5437 170.642 59.571 169.887 60.548 169.127ZM66.2453 164.115L65.1835 163.056C64.3322 163.909 63.424 164.76 62.4837 165.585L63.4731 166.712C64.4382 165.865 65.3707 164.992 66.2453 164.115ZM71.196 158.336L69.9802 157.457C69.2795 158.427 68.5106 159.4 67.6951 160.349L68.8326 161.326C69.6756 160.346 70.4707 159.34 71.196 158.336ZM75.0357 151.73L73.6644 151.122C73.1838 152.206 72.6205 153.302 71.9902 154.38L73.285 155.138C73.9436 154.011 74.5326 152.865 75.0357 151.73ZM77.1769 144.349L75.69 144.151C75.535 145.314 75.2785 146.508 74.9277 147.699L76.3667 148.123C76.7391 146.858 77.0117 145.588 77.1769 144.349ZM77.3491 140.473C77.2854 139.15 77.0897 137.853 76.7675 136.62L75.3162 136.999C75.6122 138.132 75.7921 139.325 75.8509 140.545L77.3491 140.473ZM38.1018 139.117L37.5803 137.711C36.283 138.192 35.1149 138.528 34.1083 138.709L34.3745 140.185C35.4678 139.988 36.7218 139.629 38.1018 139.117ZM30.9492 138.547C30.5542 138.317 30.3702 137.968 30.3702 137.449C30.3702 137.068 30.4717 136.622 30.6718 136.124L29.2799 135.565C29.0081 136.241 28.8702 136.875 28.8702 137.449C28.8702 138.495 29.3402 139.346 30.1937 139.843L30.9492 138.547ZM45.0524 136.112L44.3868 134.767C43.3157 135.298 42.183 135.821 41.0203 136.322L41.6141 137.699C42.8009 137.188 43.9577 136.654 45.0524 136.112ZM51.624 132.305L50.7787 131.066C49.7992 131.734 48.747 132.393 47.651 133.025L48.4 134.324C49.5287 133.674 50.6134 132.995 51.624 132.305ZM75.359 132.971C74.7528 131.817 74.0088 130.73 73.1474 129.742L72.0165 130.727C72.8012 131.628 73.479 132.617 74.0309 133.669L75.359 132.971ZM35.1914 130.706L34.2472 129.541C33.1828 130.403 32.2394 131.304 31.4435 132.219L32.5752 133.204C33.3142 132.354 34.1945 131.514 35.1914 130.706ZM57.4904 127.418L56.4101 126.377C55.5948 127.224 54.69 128.059 53.7209 128.861L54.6769 130.017C55.6895 129.179 56.6362 128.305 57.4904 127.418ZM41.413 126.902L40.7933 125.537C39.6196 126.069 38.4772 126.672 37.3978 127.329L38.1775 128.61C39.2057 127.985 40.2942 127.41 41.413 126.902ZM70.2685 127.102C69.2483 126.353 68.1218 125.687 66.9202 125.124L66.2835 126.482C67.3969 127.004 68.439 127.619 69.3806 128.311L70.2685 127.102ZM48.3758 124.679L48.0883 123.207C46.838 123.451 45.5881 123.771 44.3735 124.159L44.8297 125.588C45.9893 125.218 47.1823 124.912 48.3758 124.679ZM63.29 123.786C62.9622 123.695 62.6256 123.608 62.2897 123.528C61.806 123.413 61.3181 123.309 60.83 123.214C61.2563 122.546 61.6442 121.867 61.9898 121.182L60.6506 120.506C60.1211 121.555 59.4839 122.594 58.7564 123.593L59.3742 124.043L59.3081 124.472C60.1838 124.607 61.0705 124.781 61.9434 124.988C62.2602 125.063 62.5775 125.145 62.8863 125.231L63.29 123.786ZM55.6624 124.12L55.7214 122.621C54.4458 122.571 53.1552 122.595 51.8882 122.692L52.0028 124.187C53.2123 124.095 54.4445 124.072 55.6624 124.12ZM64.1602 113.764L62.6674 113.618C62.5504 114.813 62.3195 116.003 61.9812 117.154L63.4203 117.577C63.785 116.336 64.034 115.053 64.1602 113.764ZM64.1839 109.884C64.0786 108.621 63.8621 107.337 63.5403 106.067L62.0863 106.436C62.3879 107.626 62.5907 108.827 62.6891 110.008L64.1839 109.884ZM62.3082 102.407C61.4064 100.274 60.5308 99.0019 60.4939 98.9487L59.2608 99.8028C59.269 99.8146 60.09 101.013 60.9266 102.991L62.3082 102.407Z" fill="#3B7CFF"/>
<path d="M117.965 0.757339C116.759 0.706577 115.58 0.510849 114.459 0.175812L114.029 1.61294C115.269 1.9835 116.572 2.19985 117.902 2.25589L117.965 0.757339ZM125.531 1.06897L125.067 -0.357231C123.847 0.0399704 122.662 0.335419 121.542 0.521061L121.788 2.00089C122.981 1.80289 124.241 1.48933 125.531 1.06897ZM111.244 -1.26743C110.236 -1.92023 109.417 -2.72351 108.81 -3.65483L107.553 -2.8351C108.276 -1.72714 109.243 -0.776146 110.428 -0.00862885L111.244 -1.26743ZM132.515 -1.98214L131.815 -3.30863C130.631 -2.68367 129.544 -2.15242 128.49 -1.68466L129.099 -0.313786C130.184 -0.795464 131.301 -1.34122 132.515 -1.98214ZM139.053 -5.75663L138.273 -7.03751C136.985 -6.25306 135.996 -5.66134 135.064 -5.11882L135.818 -3.82246C136.759 -4.37038 137.757 -4.96691 139.053 -5.75663ZM107.583 -6.84958C107.469 -7.49518 107.411 -8.18855 107.411 -8.91047C107.411 -9.38327 107.436 -9.87875 107.485 -10.3829L105.992 -10.5281C105.939 -9.9757 105.912 -9.43151 105.912 -8.91035C105.912 -8.10119 105.977 -7.31999 106.106 -6.58847L107.583 -6.84958ZM145.461 -9.63719L144.705 -10.9329C143.53 -10.2476 142.361 -9.53806 141.473 -8.9965L142.255 -7.71611C143.136 -8.25395 144.297 -8.95859 145.461 -9.63719ZM152.04 -13.0349L151.454 -14.4158C150.377 -13.959 149.252 -13.4219 148.014 -12.7736L148.71 -11.4449C149.911 -12.074 151 -12.5941 152.04 -13.0349ZM166.467 -14.1107C165.348 -14.903 164.144 -15.4892 162.889 -15.8531L162.471 -14.4123C163.565 -14.0953 164.618 -13.5818 165.601 -12.8863L166.467 -14.1107ZM103.412 -13.1971L103.207 -14.6831C101.953 -14.5106 100.752 -14.4803 99.6467 -14.5929L99.4944 -13.1007C99.9811 -13.0511 100.488 -13.0259 100.999 -13.0259C101.774 -13.0259 102.585 -13.0835 103.412 -13.1971ZM108.309 -14.435C109.121 -14.726 109.945 -15.0611 110.772 -15.4363L110.152 -16.8023C109.741 -16.6155 109.33 -16.4393 108.922 -16.274C109.058 -16.6457 109.204 -17.0209 109.358 -17.3989L107.968 -17.9647C107.643 -17.1655 107.353 -16.3765 107.103 -15.6065C106.981 -15.5664 106.86 -15.5274 106.738 -15.4896L106.902 -14.9652C106.838 -14.7533 106.778 -14.5429 106.72 -14.3345L107.135 -14.2201L107.186 -14.0579C107.269 -14.0838 107.352 -14.1103 107.435 -14.1372L108.166 -13.9356C108.212 -14.1007 108.26 -14.2673 108.309 -14.435ZM96.2814 -15.4893C95.236 -15.9753 94.295 -16.6531 93.485 -17.504L92.3987 -16.4697C93.3389 -15.4822 94.4326 -14.6947 95.6491 -14.1292L96.2814 -15.4893ZM159.001 -14.8129L158.943 -16.3118C157.734 -16.2648 156.437 -16.0562 155.086 -15.6921L155.477 -14.2439C156.719 -14.5787 157.905 -14.7702 159.001 -14.8129ZM117.387 -19.2499L116.525 -20.4779C115.507 -19.7635 114.462 -19.0949 113.419 -18.4907L114.171 -17.1927C115.251 -17.8187 116.333 -18.5107 117.387 -19.2499ZM91.507 -20.3988C91.3385 -20.742 91.178 -21.1047 91.03 -21.477C90.7272 -22.2381 90.4592 -23.0144 90.2335 -23.7842L88.7941 -23.3621C89.0329 -22.5476 89.3162 -21.7268 89.6362 -20.9226C89.7985 -20.5143 89.9749 -20.1157 90.1606 -19.7377L91.507 -20.3988ZM112.714 -23.9719L111.432 -24.7513C110.758 -23.6425 110.131 -22.5257 109.569 -21.4315L110.903 -20.7459C111.449 -21.8083 112.058 -22.8937 112.714 -23.9719ZM123.244 -24.1305L122.189 -25.1971C121.331 -24.3487 120.412 -23.5153 119.457 -22.7202L120.416 -21.5672C121.404 -22.3897 122.356 -23.2521 123.244 -24.1305ZM128.102 -30.056L126.832 -30.8552C126.224 -29.8884 125.499 -28.8959 124.678 -27.9051L125.833 -26.948C126.695 -27.9887 127.458 -29.0343 128.102 -30.056ZM116.958 -30.0486L115.784 -30.9821C115.002 -29.9984 114.237 -28.9734 113.512 -27.9355L114.741 -27.0762C115.449 -28.0889 116.195 -29.0889 116.958 -30.0486ZM89.4683 -27.3386C89.3171 -28.4305 89.2404 -29.5445 89.2404 -30.6492C89.2404 -30.7547 89.2411 -30.8599 89.2424 -30.965L87.7426 -30.9843C87.7411 -30.873 87.7404 -30.7615 87.7404 -30.6494C87.7404 -29.4758 87.8219 -28.2927 87.9824 -27.1328L89.4683 -27.3386ZM121.949 -35.4967L120.931 -36.5979C120.052 -35.7857 119.149 -34.8715 118.247 -33.881L119.356 -32.871C120.23 -33.8299 121.102 -34.7132 121.949 -35.4967ZM130.599 -37.1958C130.599 -37.2921 130.597 -37.3879 130.594 -37.4829L129.095 -37.4258C129.098 -37.3496 129.099 -37.2729 129.099 -37.1957C129.099 -36.2499 128.883 -35.1944 128.458 -34.0585L129.863 -33.5328C130.351 -34.8377 130.599 -36.0699 130.599 -37.1958ZM90.37 -38.1433L88.9327 -38.5728C88.5602 -37.3263 88.2714 -36.065 88.074 -34.8237L89.5554 -34.5882C89.7424 -35.7642 90.0164 -36.9603 90.37 -38.1433ZM127.805 -39.1848L127.673 -40.6789C126.647 -40.5878 125.387 -40.034 123.928 -39.0329L124.776 -37.796C126.326 -38.8591 127.279 -39.138 127.805 -39.1848ZM93.2611 -44.8701L91.9532 -45.6045C91.3172 -44.472 90.7442 -43.3185 90.2503 -42.1764L91.6271 -41.5808C92.1006 -42.6757 92.6504 -43.7823 93.2611 -44.8701ZM97.4298 -50.9455L96.2683 -51.8947C95.4562 -50.901 94.6849 -49.875 93.9762 -48.845L95.2118 -47.9946C95.8974 -48.9907 96.6436 -49.9835 97.4298 -50.9455ZM102.541 -56.2415L101.591 -57.4023C101.544 -57.3636 100.412 -56.4339 98.797 -54.7501L99.8794 -53.7116C101.426 -55.3241 102.53 -56.2325 102.541 -56.2415Z" fill="#3B7CFF"/>
<path d="M171.693 120.17L170.196 120.091C170.16 120.761 170.116 121.445 170.065 122.123L171.561 122.236C171.613 121.546 171.658 120.851 171.693 120.17ZM171.813 115.693C171.813 114.657 171.793 113.618 171.753 112.605L170.254 112.664C170.294 113.658 170.314 114.677 170.313 115.693C170.313 115.92 170.313 116.148 170.311 116.377L171.81 116.389C171.813 116.156 171.813 115.924 171.813 115.693ZM171.507 108.827C171.39 107.557 171.238 106.291 171.055 105.065L169.571 105.286C169.75 106.485 169.899 107.722 170.013 108.964L171.507 108.827ZM170.381 101.332C170.116 100.083 169.809 98.8433 169.47 97.6467L168.026 98.0559C168.357 99.2205 168.655 100.428 168.914 101.644L170.381 101.332ZM168.303 94.0294C167.867 92.8278 167.385 91.6422 166.869 90.5054L165.503 91.1249C166.003 92.2265 166.47 93.376 166.893 94.5413L168.303 94.0294ZM165.155 87.104C164.531 85.9864 163.858 84.8944 163.153 83.8583L161.913 84.7022C162.593 85.7018 163.243 86.7557 163.845 87.8347L165.155 87.104ZM160.86 80.8058C160.041 79.8181 159.173 78.8696 158.278 77.9868L157.224 79.0547C158.084 79.9024 158.918 80.8136 159.705 81.7628L160.86 80.8058ZM139.015 78.0239C137.669 77.9824 136.491 77.7686 135.608 77.4054L135.037 78.7928C136.1 79.2298 137.423 79.4756 138.969 79.5232L139.015 78.0239ZM146.599 78.4538L146.189 77.011C144.981 77.3546 143.781 77.6162 142.621 77.7884L142.841 79.2722C144.065 79.0905 145.329 78.8151 146.599 78.4538ZM153.312 75.7336C153.707 76.0193 154.097 76.3152 154.481 76.6205L155.414 75.4462C154.402 74.642 153.348 73.8981 152.281 73.2352L151.49 74.5094C151.629 74.5959 151.768 74.6838 151.907 74.7731C151.169 75.1454 150.413 75.4913 149.649 75.8064L150.222 77.193C151.274 76.7591 152.311 76.2688 153.312 75.7336ZM133.77 75.3473C133.766 75.2902 133.764 75.2321 133.764 75.1735C133.764 74.6999 133.903 74.1632 134.178 73.5782C134.357 73.1966 134.602 72.8462 134.905 72.5366L133.833 71.4873C133.412 71.9174 133.071 72.4062 132.82 72.9405C132.451 73.7266 132.264 74.4779 132.264 75.1738C132.264 75.2699 132.267 75.3662 132.275 75.4599L133.77 75.3473ZM159.906 71.0656L158.886 69.9657C158.009 70.7787 157.056 71.5546 156.053 72.2718L156.925 73.492C157.98 72.7379 158.983 71.9216 159.906 71.0656ZM148.895 71.4165C147.689 70.8675 146.47 70.417 145.274 70.0778L144.865 71.5209C145.989 71.8396 147.136 72.2638 148.273 72.7817L148.895 71.4165ZM141.327 70.8618L141.449 69.3668C140.019 69.2505 138.675 69.3267 137.494 69.5902L137.821 71.0542C138.854 70.8236 140.048 70.7579 141.327 70.8618ZM164.753 65.0948L163.461 64.3322C162.854 65.3608 162.155 66.3629 161.382 67.3106L162.545 68.2583C163.365 67.2525 164.108 66.1881 164.753 65.0948ZM167.365 57.7878L165.873 57.6318C165.754 58.7655 165.475 59.9264 165.041 61.0824L166.446 61.6088C166.924 60.3336 167.233 59.0481 167.365 57.7878ZM167.205 53.84C166.967 52.5809 166.544 51.3255 165.948 50.1086L164.601 50.7686C165.138 51.8645 165.518 52.9916 165.731 54.1181L167.205 53.84ZM163.852 46.8156C163.088 45.848 162.198 44.8976 161.207 43.9907L160.194 45.0975C161.126 45.95 161.961 46.8408 162.675 47.7453L163.852 46.8156ZM158.2 41.5859C156.342 40.2828 154.945 39.5969 154.887 39.5684L154.229 40.9164C154.242 40.9229 155.586 41.584 157.339 42.8139L158.2 41.5859Z" fill="#3B7CFF"/>
<path d="M19.7594 14.9933C20.581 14.264 20.9975 13.3206 20.9975 12.1896C20.9975 11.059 20.581 10.1158 19.7593 9.38583C18.9556 8.67255 17.947 8.31087 16.7617 8.31087C15.576 8.31087 14.5674 8.67255 13.764 9.38583C12.9425 10.1152 12.526 11.0585 12.526 12.1895C12.526 13.3209 12.9426 14.2642 13.7639 14.9931C14.567 15.7065 15.5756 16.0682 16.7617 16.0682C17.9473 16.0683 18.9559 15.7067 19.7594 14.9933ZM19.0622 10.1711C19.6579 10.7002 19.9476 11.3606 19.9476 12.1896C19.9476 13.0191 19.658 13.6793 19.0625 14.208C18.4483 14.7532 17.6958 15.0183 16.7618 15.0183C15.8275 15.0183 15.075 14.7533 14.4611 14.208C13.8655 13.6796 13.576 13.0193 13.576 12.1896C13.576 11.3602 13.8655 10.7 14.4612 10.1711C15.0752 9.62596 15.8278 9.36101 16.7618 9.36101C17.6953 9.36101 18.448 9.62608 19.0622 10.1711ZM20.0647 6.1708C20.0893 5.22988 20.2178 4.45072 20.4468 3.85456C20.6688 3.27592 21.0802 2.69583 21.6636 2.13591L23.9542 0.0045948C24.9595 -0.973286 25.7029 -1.9508 26.1638 -2.90084C26.6334 -3.86828 26.8714 -4.95345 26.8714 -6.12657C26.8714 -8.79033 25.9906 -10.8817 24.2533 -12.3427C22.5427 -13.7806 20.1223 -14.5098 17.0593 -14.5098C13.976 -14.5098 11.5345 -13.72 9.80256 -12.1624C8.05572 -10.5916 7.15596 -8.38233 7.12824 -5.59593C7.1268 -5.45577 7.18152 -5.32088 7.28016 -5.22128C7.3788 -5.12168 7.51308 -5.06564 7.65324 -5.06564H14.3605C14.645 -5.06564 14.8778 -5.29232 14.8854 -5.57672C14.9083 -6.4424 15.1273 -7.12784 15.5364 -7.6142C15.9245 -8.07584 16.4226 -8.30023 17.0594 -8.30023C18.0161 -8.30023 19.1141 -8.01932 19.1141 -5.82884C19.1141 -5.11856 18.8983 -4.4846 18.4546 -3.89083C17.9719 -3.24512 17.2488 -2.51709 16.3054 -1.72665C15.2627 -0.852926 14.4972 0.196236 14.0302 1.39204C13.5718 2.56612 13.3393 4.1692 13.3393 6.157C13.3393 6.44692 13.5744 6.682 13.8643 6.682H19.5397C19.8245 6.68212 20.0573 6.45531 20.0647 6.1708ZM15.0084 1.77399C15.4105 0.744393 16.0739 -0.162562 16.9799 -0.921803C17.9854 -1.76432 18.7645 -2.55165 19.2956 -3.26229C19.8719 -4.03329 20.1641 -4.8968 20.1641 -5.82896C20.1641 -8.89292 18.2189 -9.35037 17.0594 -9.35037C16.107 -9.35037 15.3241 -8.9936 14.7328 -8.29004C14.2565 -7.72376 13.9674 -6.99404 13.8702 -6.11564H8.19492C8.31612 -8.36912 9.0744 -10.0956 10.5047 -11.3817C12.038 -12.7606 14.2433 -13.4598 17.0593 -13.4598C19.8683 -13.4598 22.0614 -12.8136 23.5775 -11.5389C25.0873 -10.2692 25.8212 -8.49872 25.8212 -6.12644C25.8212 -5.11352 25.6187 -4.18245 25.2191 -3.35913C24.8114 -2.51913 24.1396 -1.64061 23.2303 -0.755967L20.9424 1.37283C20.2406 2.04603 19.744 2.75451 19.4663 3.47835C19.2392 4.06936 19.096 4.79212 19.0387 5.632H14.3952C14.4313 4.02076 14.6372 2.72463 15.0084 1.77399Z" fill="#3B7CFF"/>
<path d="M16.9483 125.004C17.7698 124.275 18.1864 123.331 18.1864 122.2C18.1864 121.07 17.7698 120.127 16.9482 119.397C16.1444 118.683 15.1358 118.322 13.9506 118.322C12.7649 118.322 11.7563 118.683 10.9529 119.397C10.1314 120.126 9.71484 121.069 9.71484 122.201C9.71484 123.332 10.1315 124.275 10.9529 125.004C11.7563 125.717 12.7649 126.079 13.9506 126.079C15.136 126.079 16.1444 125.717 16.9483 125.004ZM16.2511 120.182C16.8468 120.711 17.1365 121.371 17.1365 122.2C17.1365 123.03 16.8469 123.69 16.2514 124.219C15.637 124.764 14.8843 125.029 13.9506 125.029C13.0165 125.029 12.264 124.764 11.6498 124.219C11.0543 123.69 10.7647 123.03 10.7647 122.2C10.7647 121.371 11.0543 120.711 11.65 120.182C12.264 119.637 13.0165 119.372 13.9506 119.372C14.8842 119.372 15.6368 119.637 16.2511 120.182ZM17.2334 116.071L18.0868 96.3265C18.0929 96.1834 18.0404 96.0441 17.9414 95.9407C17.8424 95.8373 17.7054 95.7788 17.5622 95.7788H10.4381C10.2949 95.7788 10.158 95.8373 10.0589 95.9407C9.95988 96.0441 9.90732 96.1834 9.91356 96.3265L10.7669 116.071C10.779 116.352 11.0102 116.574 11.2914 116.574H16.7088C16.99 116.574 17.2212 116.352 17.2334 116.071ZM10.9864 96.8288H17.0141L16.2061 115.524H11.7942L10.9864 96.8288Z" fill="#3B7CFF"/>
<path d="M72.931 61.8923V54.6582H79.1728C79.4627 54.6582 79.6978 54.4232 79.6978 54.1332V48.3983C79.6978 48.1084 79.4627 47.8733 79.1728 47.8733H72.931V40.8575C72.931 40.5676 72.6959 40.3325 72.406 40.3325H66.155C65.8651 40.3325 65.63 40.5676 65.63 40.8575V47.8733H59.3684C59.0785 47.8733 58.8434 48.1084 58.8434 48.3983V54.1332C58.8434 54.4232 59.0785 54.6582 59.3684 54.6582H65.63V61.8923C65.63 62.1824 65.8651 62.4173 66.155 62.4173H72.406C72.696 62.4173 72.931 62.1822 72.931 61.8923ZM66.68 54.1332C66.68 53.8433 66.445 53.6082 66.155 53.6082H59.8934V48.9233H66.155C66.445 48.9233 66.68 48.6882 66.68 48.3983V41.3825H71.881V48.3983C71.881 48.6882 72.116 48.9233 72.406 48.9233H78.6478V53.6082H72.406C72.116 53.6082 71.881 53.8433 71.881 54.1332V61.3673H66.68V54.1332Z" fill="#3B7CFF"/>
<path d="M190.249 184.711C191.504 183.528 192.14 181.944 192.14 180.003V178.614C192.14 176.552 191.496 174.913 190.225 173.742C188.966 172.584 187.264 171.996 185.166 171.996C183.094 171.996 181.402 172.591 180.136 173.763C178.859 174.947 178.212 176.532 178.212 178.475V179.903C178.212 181.927 178.867 183.55 180.159 184.727C181.437 185.891 183.135 186.481 185.206 186.481C187.306 186.481 189.003 185.885 190.249 184.711ZM189.514 174.515C190.575 175.492 191.091 176.832 191.091 178.614V180.003C191.091 181.666 190.58 182.956 189.529 183.947C188.484 184.932 187.03 185.431 185.206 185.431C183.405 185.431 181.945 184.933 180.866 183.95C179.787 182.967 179.262 181.644 179.262 179.903V178.475C179.262 176.813 179.781 175.524 180.85 174.534C181.915 173.547 183.367 173.046 185.166 173.046C186.992 173.046 188.455 173.541 189.514 174.515ZM171.919 183.674L186.028 161.092C186.106 160.966 186.128 160.814 186.088 160.672C186.049 160.53 185.951 160.411 185.819 160.345L182.703 158.777C182.461 158.655 182.166 158.738 182.022 158.968L167.913 181.55C167.835 181.675 167.813 181.828 167.853 181.97C167.892 182.112 167.99 182.231 168.122 182.297L171.238 183.865C171.313 183.903 171.394 183.921 171.473 183.921C171.649 183.921 171.82 183.833 171.919 183.674ZM182.659 159.93L184.833 161.024L171.282 182.712L169.109 181.618L182.659 159.93ZM187.812 180.556C187.814 180.543 187.814 180.529 187.814 180.516L187.834 178.48C187.834 177.653 187.596 176.968 187.124 176.443C186.639 175.902 185.98 175.628 185.166 175.628C184.385 175.628 183.744 175.885 183.259 176.391C182.786 176.886 182.53 177.548 182.498 178.361C182.498 178.368 182.498 178.374 182.498 178.381V179.998C182.498 180.748 182.757 181.414 183.269 181.977C183.794 182.556 184.446 182.85 185.206 182.85C186.757 182.849 187.683 182.035 187.812 180.556ZM184.017 177.117C184.3 176.822 184.676 176.678 185.166 176.678C185.676 176.678 186.061 176.831 186.343 177.145C186.64 177.475 186.784 177.912 186.784 178.475L186.765 180.484C186.678 181.406 186.211 181.8 185.206 181.8C184.748 181.8 184.369 181.627 184.047 181.272C183.711 180.902 183.548 180.485 183.548 179.998V178.392C183.571 177.84 183.724 177.423 184.017 177.117ZM173.957 168.439C175.212 167.256 175.848 165.678 175.848 163.75V162.321C175.848 160.315 175.212 158.695 173.958 157.505C172.712 156.323 171.008 155.724 168.894 155.724C166.807 155.724 165.11 156.326 163.85 157.514C162.582 158.71 161.939 160.294 161.939 162.222V163.631C161.939 165.655 162.595 167.278 163.887 168.454C165.165 169.618 166.863 170.209 168.934 170.209C171.021 170.209 172.711 169.613 173.957 168.439ZM173.236 158.267C174.287 159.264 174.798 160.591 174.798 162.321V163.75C174.798 165.401 174.288 166.684 173.237 167.674C172.192 168.659 170.744 169.159 168.934 169.159C167.132 169.159 165.672 168.661 164.594 167.678C163.514 166.695 162.989 165.371 162.989 163.631V162.222C162.989 160.572 163.507 159.282 164.571 158.278C165.629 157.28 167.083 156.774 168.894 156.774C170.73 156.774 172.191 157.277 173.236 158.267ZM171.542 163.41V162.227C171.542 161.42 171.314 160.739 170.863 160.203C170.39 159.641 169.727 159.356 168.894 159.356C168.093 159.356 167.441 159.63 166.956 160.171C166.485 160.695 166.246 161.4 166.246 162.267V163.745C166.246 164.559 166.485 165.238 166.956 165.762C167.441 166.303 168.107 166.577 168.934 166.577C169.908 166.577 171.542 166.166 171.542 163.41ZM170.06 160.879C170.351 161.226 170.492 161.666 170.492 162.227V163.41C170.492 165.287 169.659 165.527 168.934 165.527C168.41 165.527 168.018 165.375 167.737 165.061C167.44 164.73 167.295 164.3 167.295 163.745V162.266C167.295 161.659 167.44 161.203 167.737 160.872C168.018 160.558 168.397 160.406 168.894 160.406C169.41 160.406 169.792 160.561 170.06 160.879Z" fill="#3B7CFF"/>
<path d="M134.964 128.294L138.397 125.952C138.519 125.869 138.6 125.739 138.621 125.592C138.642 125.446 138.6 125.298 138.506 125.184L134.678 120.553L140.442 118.983C140.582 118.945 140.699 118.85 140.767 118.722C140.835 118.594 140.847 118.444 140.801 118.307L139.511 114.52C139.464 114.383 139.363 114.271 139.231 114.211C139.099 114.152 138.948 114.149 138.814 114.204L133.447 116.418L133.902 110.148C133.912 110.002 133.862 109.859 133.763 109.752C133.663 109.646 133.524 109.585 133.378 109.585H129.132C128.986 109.585 128.847 109.646 128.747 109.752C128.648 109.859 128.598 110.002 128.608 110.147L129.044 116.281L123.497 114.005C123.363 113.951 123.213 113.953 123.081 114.013C122.949 114.072 122.848 114.184 122.801 114.32L121.511 118.067C121.464 118.204 121.476 118.355 121.543 118.483C121.611 118.611 121.728 118.706 121.868 118.744L127.549 120.311L123.55 125.082C123.453 125.198 123.411 125.348 123.433 125.497C123.455 125.645 123.539 125.777 123.665 125.859L127.098 128.102C127.215 128.178 127.357 128.205 127.494 128.176C127.63 128.147 127.75 128.065 127.826 127.948L131.028 123.006L134.222 128.138C134.298 128.26 134.42 128.345 134.56 128.375C134.596 128.382 134.632 128.386 134.668 128.386C134.773 128.385 134.876 128.354 134.964 128.294ZM130.596 121.741L127.231 126.934L124.735 125.304L128.879 120.359C128.994 120.222 129.031 120.036 128.978 119.866C128.925 119.695 128.789 119.563 128.616 119.516L122.686 117.88L123.613 115.188L129.428 117.574C129.597 117.642 129.788 117.62 129.935 117.513C130.083 117.407 130.164 117.232 130.151 117.051L129.695 110.635H132.814L132.339 117.189C132.326 117.371 132.407 117.546 132.555 117.653C132.702 117.759 132.894 117.782 133.063 117.712L138.697 115.388L139.627 118.117L133.617 119.754C133.445 119.801 133.309 119.932 133.255 120.102C133.201 120.272 133.237 120.457 133.351 120.595L137.33 125.41L134.825 127.118L131.483 121.749C131.388 121.596 131.221 121.503 131.042 121.501C131.04 121.501 131.039 121.501 131.037 121.501C130.859 121.501 130.693 121.591 130.596 121.741Z" fill="#3B7CFF"/>
<path d="M98.2439 165.635V160.476C98.2439 160.186 98.0088 159.951 97.7189 159.951H85.7925C85.5026 159.951 85.2675 160.186 85.2675 160.476V165.635C85.2675 165.925 85.5026 166.16 85.7925 166.16H97.7189C98.0088 166.16 98.2439 165.925 98.2439 165.635ZM86.3175 161.001H97.1939V165.11H86.3175V161.001Z" fill="#3B7CFF"/>
<path d="M202.407 57.2797C203.192 56.5638 203.59 55.6488 203.59 54.56C203.59 53.4712 203.192 52.5562 202.407 51.8404C201.636 51.1371 200.615 50.7806 199.374 50.7806C198.133 50.7806 197.113 51.1372 196.342 51.8404C195.556 52.5563 195.158 53.4714 195.158 54.5601C195.158 55.6489 195.556 56.5639 196.342 57.2798C197.113 57.983 198.133 58.3396 199.374 58.3396C200.615 58.3395 201.636 57.9829 202.407 57.2797ZM201.699 52.6164C202.265 53.1321 202.54 53.768 202.54 54.5601C202.54 55.3522 202.265 55.988 201.699 56.5039C201.119 57.0326 200.359 57.2896 199.374 57.2896C198.389 57.2896 197.629 57.0326 197.049 56.5039C196.483 55.9881 196.208 55.3522 196.208 54.5601C196.208 53.768 196.483 53.1322 197.049 52.6164C197.629 52.0876 198.389 51.8306 199.374 51.8306C200.359 51.8306 201.119 52.0876 201.699 52.6164ZM210.278 48.1226V43.2807C210.278 42.9908 210.043 42.7557 209.753 42.7557H189.035C188.746 42.7557 188.51 42.9908 188.51 43.2807V48.1226C188.51 48.4125 188.746 48.6476 189.035 48.6476H209.753C210.043 48.6476 210.278 48.4125 210.278 48.1226ZM189.56 43.8057H209.228V47.5976H189.56V43.8057ZM202.407 39.7018C203.192 38.9858 203.59 38.0708 203.59 36.9822C203.59 35.8934 203.192 34.9784 202.407 34.2625C201.636 33.5593 200.615 33.2026 199.374 33.2026C198.133 33.2026 197.113 33.5593 196.342 34.2625C195.556 34.9784 195.158 35.8934 195.158 36.9822C195.158 38.0708 195.556 38.9858 196.342 39.7018C197.113 40.405 198.133 40.7616 199.374 40.7616C200.615 40.7616 201.636 40.405 202.407 39.7018ZM201.699 35.0384C202.265 35.5542 202.54 36.19 202.54 36.9822C202.54 37.7743 202.265 38.41 201.699 38.9259C201.119 39.4546 200.359 39.7116 199.374 39.7116C198.389 39.7116 197.629 39.4545 197.049 38.9259C196.483 38.41 196.208 37.7743 196.208 36.9822C196.208 36.19 196.483 35.5543 197.049 35.0384C197.629 34.5097 198.389 34.2526 199.374 34.2526C200.359 34.2526 201.119 34.5097 201.699 35.0384Z" fill="#3B7CFF"/>
</g>
</g>
<mask id="mask9_1_4754" style="mask-type:luminance" maskUnits="userSpaceOnUse" x="0" y="-180" width="480" height="480">
<path d="M480 -180H0V300H480V-180Z" fill="white"/>
</mask>
<g mask="url(#mask9_1_4754)">
<mask id="mask10_1_4754" style="mask-type:luminance" maskUnits="userSpaceOnUse" x="-19" y="196" width="241" height="241">
<path d="M221.508 196.574H-18.4919V436.574H221.508V196.574Z" fill="white"/>
</mask>
<g mask="url(#mask10_1_4754)">
<path d="M137.45 276.005L144.376 277.141L138.846 273.387L137.45 276.005Z" fill="#3B7CFF"/>
<path d="M147.694 252.011L100.448 265.862L142.14 262.425L147.694 252.011Z" fill="#3B7CFF"/>
<path d="M98.044 270.687L92.22 270.37L89.94 270.247L127.238 290.365L133.982 277.72L134.542 276.67L135.102 275.621L136.617 272.78L108.452 271.252L98.044 270.687Z" fill="#3B7CFF"/>
<path d="M142.711 266.14L142.156 264.787L142.115 264.688L140.879 264.79L97.2871 268.383L97.2394 268.387L108.024 268.972L118.823 269.558L137.786 270.588L138.503 270.627L138.96 270.78L139.075 270.819L139.912 271.388L141.817 272.681L145.897 275.451L146.776 276.047L145.809 273.692L142.711 266.14Z" fill="#3B7CFF"/>
<path d="M-0.809636 270.934L2.05272 268.44L1.25424 267.524C0.924124 267.145 0.467524 266.916 -0.0329964 266.878C-0.0375564 266.877 -0.0419962 266.877 -0.0465562 266.877C-0.552476 266.842 -1.04148 267.006 -1.4238 267.339C-2.21304 268.027 -2.29572 269.228 -1.60824 270.017L-0.809636 270.934Z" fill="#3B7CFF"/>
<path d="M-0.105598 279.429L0.275641 279.097L1.125 278.357L1.97424 277.617L13.6842 291.058L14.5259 290.325L15.9504 289.084L17.7348 287.53L19.1591 286.289L20.0009 285.556L5.86812 269.333C5.82768 269.287 5.78328 269.245 5.73588 269.208C5.7174 269.194 5.69628 269.184 5.67672 269.171C5.66004 269.16 5.64336 269.149 5.62584 269.139C5.61192 269.131 5.5992 269.12 5.5848 269.113C5.53944 269.09 5.49144 269.073 5.44272 269.058C5.4342 269.056 5.42652 269.051 5.418 269.049C5.38308 269.039 5.34636 269.035 5.31036 269.03C5.28672 269.026 5.26404 269.02 5.24004 269.018C5.23788 269.018 5.2356 269.017 5.23332 269.017C4.98648 269 4.7478 269.08 4.56108 269.243L4.38192 269.399L3.53256 270.139L0.670202 272.633L-0.179158 273.373L-0.358318 273.529C-0.431278 273.593 -0.487798 273.667 -0.535799 273.746C-0.582718 273.823 -0.621719 273.903 -0.644398 273.988C-0.700199 274.198 -0.677639 274.424 -0.582119 274.625C-0.572999 274.644 -0.566998 274.664 -0.556559 274.683C-0.526319 274.737 -0.490198 274.788 -0.448318 274.836L0.308641 275.705L-0.540719 276.445L-1.39008 277.185L-2.72724 278.35C-3.25524 278.81 -3.31044 279.611 -2.85048 280.139L17.4149 303.401C17.8748 303.929 18.6758 303.984 19.2038 303.524C19.7317 303.064 19.7869 302.263 19.327 301.735L-0.105598 279.429Z" fill="#3B7CFF"/>
<path d="M56.8217 331.825L56.498 331.454L54.6556 329.339L52.6987 323.089L21.4806 287.254L15.164 292.757L46.3822 328.591L52.3055 331.387L54.1478 333.501L54.4715 333.873C54.8606 334.32 55.4482 334.491 55.9884 334.37C56.2332 334.315 56.468 334.201 56.6704 334.024C56.8727 333.848 57.0185 333.631 57.1062 333.396C57.3 332.878 57.2108 332.272 56.8217 331.825Z" fill="#3B7CFF"/>
<path d="M80.587 252.762L54.7921 258.922C54.1596 259.073 53.5258 259.1 52.9169 259.017C50.8745 258.741 49.1111 257.242 48.6046 255.12L47.9346 252.315L47.4115 250.125L39.6498 217.626L43.3913 216.732L42.8677 214.54L52.1768 212.317L52.7004 214.509L70.4393 210.272L78.201 242.772L78.3901 243.564L78.724 244.962L78.4897 245.018L78.0376 245.311C77.0131 245.977 76.5132 247.213 76.7938 248.388C77.0742 249.562 78.0782 250.438 79.2936 250.57L80.0835 250.655L80.587 252.762ZM54.2693 256.732L76.1473 251.507C75.3979 250.83 74.8483 249.934 74.604 248.911C74.3597 247.888 74.445 246.84 74.8075 245.898L71.7016 246.639L50.1246 251.792L50.7944 254.597C50.9734 255.347 51.4333 255.981 52.0896 256.385C52.7459 256.788 53.5199 256.911 54.2693 256.732ZM45.5812 216.209L45.8426 217.304L46.1041 218.399L47.8381 225.66L50.0699 224.096L52.7675 224.483L51.0335 217.222L50.772 216.127L50.5105 215.032L50.51 215.03L45.5808 216.207L45.5812 216.209Z" fill="#3B7CFF"/>
<path d="M214.45 244.717C214.787 246.618 213.516 248.439 211.615 248.776L211.028 248.881L211.335 250.61C211.61 252.161 210.573 253.646 209.023 253.921L203.361 254.926C203.257 254.947 203.152 254.959 203.047 254.964C202.979 254.969 202.91 254.971 202.841 254.971C202.168 254.971 201.505 254.728 200.994 254.288C200.495 253.867 200.151 253.271 200.035 252.616L199.728 250.887L199.142 250.991C198.935 251.028 198.728 251.046 198.522 251.046C197.812 251.046 197.119 250.829 196.525 250.414C195.758 249.879 195.246 249.076 195.082 248.156C194.758 246.331 195.92 244.583 197.695 244.148C197.074 242.195 196.379 240.43 195.928 239.936C195.544 239.517 195.119 239.126 194.669 238.712C194.017 238.112 193.343 237.492 192.759 236.745C190.85 234.308 189.761 232.366 189.475 229.089C189.003 222.865 193.265 217.322 199.388 216.181C199.389 216.18 199.391 216.18 199.392 216.18L199.451 216.493L199.397 216.179C205.54 215.14 211.453 218.878 213.148 224.873C214.012 228.061 213.658 230.259 212.703 233.205C212.412 234.105 211.994 234.917 211.59 235.702C211.309 236.248 211.044 236.763 210.827 237.292C210.574 237.909 210.53 239.806 210.618 241.853C212.434 241.651 214.126 242.892 214.45 244.717ZM212.233 245.111C212.112 244.432 211.462 243.978 210.784 244.099L210.765 244.102L209.652 244.3L199.443 246.112L198.331 246.31L198.311 246.313C197.633 246.433 197.179 247.083 197.299 247.762C197.358 248.091 197.541 248.377 197.814 248.568C198.088 248.759 198.42 248.832 198.748 248.774L199.335 248.67L201.437 248.296L210.634 246.664L211.221 246.56C211.899 246.439 212.353 245.789 212.233 245.111ZM205.378 249.884L201.945 250.493L202.252 252.223C202.276 252.36 202.348 252.485 202.453 252.574C202.566 252.671 202.705 252.719 202.843 252.72L208.629 251.704C208.957 251.646 209.176 251.332 209.118 251.004L208.811 249.274L205.378 249.884ZM196.443 232.23L198.491 233.164L199.781 230.337L204.151 234.668L207.791 227.61L205.79 226.578L203.556 230.909L199.073 226.465L196.443 232.23Z" fill="#3B7CFF"/>
<path d="M218.51 239.102L217.221 240.948L224.121 245.767L225.41 243.921L218.51 239.102Z" fill="#3B7CFF"/>
<path d="M179.834 212.805L178.545 214.651L185.222 219.315L186.511 217.469L179.834 212.805Z" fill="#3B7CFF"/>
<path d="M218.463 207.149L217.54 206.504L216.617 205.86L211.941 212.554L213.787 213.843L218.463 207.149Z" fill="#3B7CFF"/>
<path d="M190.311 244.549L185.504 251.432L187.349 252.721L192.157 245.838L190.311 244.549Z" fill="#3B7CFF"/>
<path d="M221.131 226.733L227.875 225.536L227.678 224.428L227.481 223.319L220.737 224.516L221.131 226.733Z" fill="#3B7CFF"/>
<path d="M182.815 231.861L176.104 233.053L176.3 234.161L176.497 235.27L183.208 234.078L183.011 232.97L182.815 231.861Z" fill="#3B7CFF"/>
<path d="M198.286 210.158L199.394 209.962L198.231 203.409L197.122 203.605L196.014 203.802L197.177 210.355L198.286 210.158Z" fill="#3B7CFF"/>
<path d="M117.965 240.757C116.759 240.707 115.58 240.511 114.459 240.176L114.029 241.613C115.269 241.984 116.572 242.2 117.902 242.256L117.965 240.757ZM125.531 241.069L125.067 239.643C123.847 240.04 122.662 240.335 121.542 240.521L121.788 242.001C122.981 241.803 124.241 241.489 125.531 241.069ZM111.244 238.733C110.236 238.08 109.417 237.276 108.81 236.345L107.553 237.165C108.276 238.273 109.243 239.224 110.428 239.991L111.244 238.733ZM132.515 238.018L131.815 236.691C130.631 237.316 129.544 237.848 128.49 238.315L129.099 239.686C130.184 239.205 131.301 238.659 132.515 238.018ZM139.053 234.243L138.273 232.962C136.985 233.747 135.996 234.339 135.064 234.881L135.818 236.178C136.759 235.63 137.757 235.033 139.053 234.243ZM107.583 233.15C107.469 232.505 107.411 231.811 107.411 231.09C107.411 230.617 107.436 230.121 107.485 229.617L105.992 229.472C105.939 230.024 105.912 230.569 105.912 231.09C105.912 231.899 105.977 232.68 106.106 233.412L107.583 233.15ZM145.461 230.363L144.705 229.067C143.53 229.752 142.361 230.462 141.473 231.004L142.255 232.284C143.136 231.746 144.297 231.041 145.461 230.363ZM152.04 226.965L151.454 225.584C150.377 226.041 149.252 226.578 148.014 227.226L148.71 228.555C149.911 227.926 151 227.406 152.04 226.965ZM166.467 225.889C165.348 225.097 164.144 224.511 162.889 224.147L162.471 225.588C163.565 225.905 164.618 226.418 165.601 227.114L166.467 225.889ZM103.412 226.803L103.207 225.317C101.953 225.489 100.752 225.52 99.6467 225.407L99.4944 226.899C99.9811 226.949 100.488 226.974 100.999 226.974C101.774 226.974 102.585 226.917 103.412 226.803ZM108.309 225.565C109.121 225.274 109.945 224.939 110.772 224.564L110.152 223.198C109.741 223.384 109.33 223.561 108.922 223.726C109.058 223.354 109.204 222.979 109.358 222.601L107.968 222.035C107.643 222.834 107.353 223.624 107.103 224.394C106.981 224.434 106.86 224.473 106.738 224.51L106.902 225.035C106.838 225.247 106.778 225.457 106.72 225.666L107.135 225.78L107.186 225.942C107.269 225.916 107.352 225.89 107.435 225.863L108.166 226.064C108.212 225.899 108.26 225.733 108.309 225.565ZM96.2814 224.511C95.236 224.025 94.295 223.347 93.485 222.496L92.3987 223.53C93.3389 224.518 94.4326 225.305 95.6491 225.871L96.2814 224.511ZM159.001 225.187L158.943 223.688C157.734 223.735 156.437 223.944 155.086 224.308L155.477 225.756C156.719 225.421 157.905 225.23 159.001 225.187ZM117.387 220.75L116.525 219.522C115.507 220.237 114.462 220.905 113.419 221.509L114.171 222.807C115.251 222.181 116.333 221.489 117.387 220.75ZM91.507 219.601C91.3385 219.258 91.178 218.895 91.03 218.523C90.7272 217.762 90.4592 216.986 90.2335 216.216L88.7941 216.638C89.0329 217.452 89.3162 218.273 89.6362 219.077C89.7985 219.486 89.9749 219.884 90.1606 220.262L91.507 219.601ZM112.714 216.028L111.432 215.249C110.758 216.358 110.131 217.474 109.569 218.569L110.903 219.254C111.449 218.192 112.058 217.106 112.714 216.028ZM123.244 215.869L122.189 214.803C121.331 215.651 120.412 216.485 119.457 217.28L120.416 218.433C121.404 217.61 122.356 216.748 123.244 215.869ZM128.102 209.944L126.832 209.145C126.224 210.112 125.499 211.104 124.678 212.095L125.833 213.052C126.695 212.011 127.458 210.966 128.102 209.944ZM116.958 209.951L115.784 209.018C115.002 210.002 114.237 211.027 113.512 212.065L114.741 212.924C115.449 211.911 116.195 210.911 116.958 209.951ZM89.4683 212.661C89.3171 211.569 89.2404 210.456 89.2404 209.351C89.2404 209.245 89.2411 209.14 89.2424 209.035L87.7426 209.016C87.7411 209.127 87.7404 209.239 87.7404 209.351C87.7404 210.524 87.8219 211.707 87.9824 212.867L89.4683 212.661ZM121.949 204.503L120.931 203.402C120.052 204.215 119.149 205.129 118.247 206.119L119.356 207.129C120.23 206.17 121.102 205.287 121.949 204.503ZM130.599 202.804C130.599 202.708 130.597 202.612 130.594 202.517L129.095 202.574C129.098 202.65 129.099 202.727 129.099 202.804C129.099 203.75 128.883 204.806 128.458 205.941L129.863 206.467C130.351 205.162 130.599 203.93 130.599 202.804ZM90.37 201.857L88.9327 201.427C88.5602 202.674 88.2714 203.935 88.074 205.176L89.5554 205.412C89.7424 204.236 90.0164 203.04 90.37 201.857ZM127.805 200.815L127.673 199.321C126.647 199.412 125.387 199.966 123.928 200.967L124.776 202.204C126.326 201.141 127.279 200.862 127.805 200.815ZM93.2611 195.13L91.9532 194.395C91.3172 195.528 90.7442 196.681 90.2503 197.824L91.6271 198.419C92.1006 197.324 92.6504 196.218 93.2611 195.13ZM97.4298 189.055L96.2683 188.105C95.4562 189.099 94.6849 190.125 93.9762 191.155L95.2118 192.005C95.8974 191.009 96.6436 190.017 97.4298 189.055ZM102.541 183.759L101.591 182.598C101.544 182.636 100.412 183.566 98.797 185.25L99.8794 186.288C101.426 184.676 102.53 183.768 102.541 183.759Z" fill="#3B7CFF"/>
<path d="M171.693 360.17L170.196 360.091C170.16 360.761 170.116 361.444 170.065 362.123L171.561 362.236C171.613 361.546 171.658 360.851 171.693 360.17ZM171.813 355.693C171.813 354.657 171.793 353.618 171.753 352.605L170.254 352.664C170.294 353.658 170.314 354.677 170.313 355.693C170.313 355.92 170.313 356.148 170.311 356.377L171.81 356.389C171.813 356.156 171.813 355.924 171.813 355.693ZM171.507 348.827C171.39 347.557 171.238 346.291 171.055 345.065L169.571 345.286C169.75 346.485 169.899 347.722 170.013 348.964L171.507 348.827ZM170.381 341.332C170.116 340.083 169.809 338.843 169.47 337.647L168.026 338.056C168.357 339.22 168.655 340.428 168.914 341.644L170.381 341.332ZM168.303 334.029C167.867 332.828 167.385 331.642 166.869 330.505L165.503 331.125C166.003 332.227 166.47 333.376 166.893 334.541L168.303 334.029ZM165.155 327.104C164.531 325.986 163.858 324.894 163.153 323.858L161.913 324.702C162.593 325.702 163.243 326.756 163.845 327.835L165.155 327.104ZM160.86 320.806C160.041 319.818 159.173 318.87 158.278 317.987L157.224 319.055C158.084 319.902 158.918 320.814 159.705 321.763L160.86 320.806ZM139.015 318.024C137.669 317.982 136.491 317.769 135.608 317.405L135.037 318.793C136.1 319.23 137.423 319.476 138.969 319.523L139.015 318.024ZM146.599 318.454L146.189 317.011C144.981 317.355 143.781 317.616 142.621 317.789L142.841 319.272C144.065 319.09 145.329 318.815 146.599 318.454ZM153.312 315.734C153.707 316.019 154.097 316.315 154.481 316.62L155.414 315.446C154.402 314.642 153.348 313.898 152.281 313.235L151.49 314.509C151.629 314.596 151.768 314.684 151.907 314.773C151.169 315.145 150.413 315.491 149.649 315.807L150.222 317.193C151.274 316.759 152.311 316.269 153.312 315.734ZM133.77 315.347C133.766 315.29 133.764 315.232 133.764 315.174C133.764 314.7 133.903 314.163 134.178 313.578C134.357 313.197 134.602 312.846 134.905 312.537L133.833 311.487C133.412 311.917 133.071 312.406 132.82 312.941C132.451 313.727 132.264 314.478 132.264 315.174C132.264 315.27 132.267 315.366 132.275 315.46L133.77 315.347ZM159.906 311.066L158.886 309.966C158.009 310.779 157.056 311.555 156.053 312.272L156.925 313.492C157.98 312.738 158.983 311.922 159.906 311.066ZM148.895 311.416C147.689 310.867 146.47 310.417 145.274 310.078L144.865 311.521C145.989 311.84 147.136 312.264 148.273 312.782L148.895 311.416ZM141.327 310.862L141.449 309.367C140.019 309.25 138.675 309.327 137.494 309.59L137.821 311.054C138.854 310.824 140.048 310.758 141.327 310.862ZM164.753 305.095L163.461 304.332C162.854 305.361 162.155 306.363 161.382 307.311L162.545 308.258C163.365 307.252 164.108 306.188 164.753 305.095ZM167.365 297.788L165.873 297.632C165.754 298.765 165.475 299.926 165.041 301.082L166.446 301.609C166.924 300.334 167.233 299.048 167.365 297.788ZM167.205 293.84C166.967 292.581 166.544 291.325 165.948 290.109L164.601 290.769C165.138 291.865 165.518 292.992 165.731 294.118L167.205 293.84ZM163.852 286.816C163.088 285.848 162.198 284.898 161.207 283.991L160.194 285.097C161.126 285.95 161.961 286.841 162.675 287.745L163.852 286.816ZM158.2 281.586C156.342 280.283 154.945 279.597 154.887 279.568L154.229 280.917C154.242 280.923 155.586 281.584 157.339 282.814L158.2 281.586Z" fill="#3B7CFF"/>
<path d="M19.7594 254.993C20.581 254.264 20.9975 253.321 20.9975 252.19C20.9975 251.059 20.581 250.116 19.7593 249.386C18.9556 248.673 17.947 248.311 16.7617 248.311C15.576 248.311 14.5674 248.673 13.764 249.386C12.9425 250.115 12.526 251.059 12.526 252.19C12.526 253.321 12.9426 254.264 13.7639 254.993C14.567 255.707 15.5756 256.068 16.7617 256.068C17.9473 256.068 18.9559 255.707 19.7594 254.993ZM19.0622 250.171C19.6579 250.7 19.9476 251.361 19.9476 252.19C19.9476 253.019 19.658 253.679 19.0625 254.208C18.4483 254.753 17.6958 255.018 16.7618 255.018C15.8275 255.018 15.075 254.753 14.4611 254.208C13.8655 253.68 13.576 253.019 13.576 252.19C13.576 251.36 13.8655 250.7 14.4612 250.171C15.0752 249.626 15.8278 249.361 16.7618 249.361C17.6953 249.361 18.448 249.626 19.0622 250.171ZM20.0647 246.171C20.0893 245.23 20.2178 244.451 20.4468 243.855C20.6688 243.276 21.0802 242.696 21.6636 242.136L23.9542 240.005C24.9595 239.027 25.7029 238.049 26.1638 237.099C26.6334 236.132 26.8714 235.047 26.8714 233.874C26.8714 231.21 25.9906 229.118 24.2533 227.657C22.5427 226.219 20.1223 225.49 17.0593 225.49C13.976 225.49 11.5345 226.28 9.80256 227.838C8.05572 229.408 7.15596 231.618 7.12824 234.404C7.1268 234.544 7.18152 234.679 7.28016 234.779C7.3788 234.878 7.51308 234.934 7.65324 234.934H14.3605C14.645 234.934 14.8778 234.708 14.8854 234.423C14.9083 233.558 15.1273 232.872 15.5364 232.386C15.9245 231.924 16.4226 231.7 17.0594 231.7C18.0161 231.7 19.1141 231.981 19.1141 234.171C19.1141 234.881 18.8983 235.515 18.4546 236.109C17.9719 236.755 17.2488 237.483 16.3054 238.273C15.2627 239.147 14.4972 240.196 14.0302 241.392C13.5718 242.566 13.3393 244.169 13.3393 246.157C13.3393 246.447 13.5744 246.682 13.8643 246.682H19.5397C19.8245 246.682 20.0573 246.455 20.0647 246.171ZM15.0084 241.774C15.4105 240.745 16.0739 239.838 16.9799 239.078C17.9854 238.236 18.7645 237.448 19.2956 236.738C19.8719 235.967 20.1641 235.103 20.1641 234.171C20.1641 231.107 18.2189 230.65 17.0594 230.65C16.107 230.65 15.3241 231.007 14.7328 231.71C14.2565 232.276 13.9674 233.006 13.8702 233.884H8.19492C8.31612 231.631 9.0744 229.905 10.5047 228.618C12.038 227.239 14.2433 226.54 17.0593 226.54C19.8683 226.54 22.0614 227.187 23.5775 228.461C25.0873 229.731 25.8212 231.501 25.8212 233.874C25.8212 234.887 25.6187 235.818 25.2191 236.641C24.8114 237.481 24.1396 238.36 23.2303 239.244L20.9424 241.373C20.2406 242.046 19.744 242.755 19.4663 243.478C19.2392 244.069 19.096 244.792 19.0387 245.632H14.3952C14.4313 244.021 14.6372 242.725 15.0084 241.774Z" fill="#3B7CFF"/>
<path d="M72.931 301.892V294.658H79.1728C79.4627 294.658 79.6978 294.423 79.6978 294.133V288.398C79.6978 288.108 79.4627 287.873 79.1728 287.873H72.931V280.858C72.931 280.567 72.6959 280.333 72.406 280.333H66.155C65.8651 280.333 65.63 280.567 65.63 280.858V287.873H59.3684C59.0785 287.873 58.8434 288.108 58.8434 288.398V294.133C58.8434 294.423 59.0785 294.658 59.3684 294.658H65.63V301.892C65.63 302.182 65.8651 302.417 66.155 302.417H72.406C72.696 302.417 72.931 302.182 72.931 301.892ZM66.68 294.133C66.68 293.843 66.445 293.608 66.155 293.608H59.8934V288.923H66.155C66.445 288.923 66.68 288.688 66.68 288.398V281.383H71.881V288.398C71.881 288.688 72.116 288.923 72.406 288.923H78.6478V293.608H72.406C72.116 293.608 71.881 293.843 71.881 294.133V301.367H66.68V294.133Z" fill="#3B7CFF"/>
<path d="M202.407 297.279C203.192 296.563 203.59 295.648 203.59 294.56C203.59 293.471 203.192 292.556 202.407 291.84C201.636 291.137 200.615 290.78 199.374 290.78C198.133 290.78 197.113 291.137 196.342 291.84C195.556 292.556 195.158 293.471 195.158 294.56C195.158 295.649 195.556 296.564 196.342 297.279C197.113 297.983 198.133 298.339 199.374 298.339C200.615 298.339 201.636 297.983 202.407 297.279ZM201.699 292.616C202.265 293.132 202.54 293.768 202.54 294.56C202.54 295.352 202.265 295.988 201.699 296.504C201.119 297.032 200.359 297.289 199.374 297.289C198.389 297.289 197.629 297.032 197.049 296.504C196.483 295.988 196.208 295.352 196.208 294.56C196.208 293.768 196.483 293.132 197.049 292.616C197.629 292.087 198.389 291.83 199.374 291.83C200.359 291.83 201.119 292.087 201.699 292.616ZM210.278 288.122V283.28C210.278 282.99 210.043 282.755 209.753 282.755H189.035C188.746 282.755 188.51 282.99 188.51 283.28V288.122C188.51 288.412 188.746 288.647 189.035 288.647H209.753C210.043 288.647 210.278 288.412 210.278 288.122ZM189.56 283.805H209.228V287.597H189.56V283.805ZM202.407 279.701C203.192 278.985 203.59 278.07 203.59 276.982C203.59 275.893 203.192 274.978 202.407 274.262C201.636 273.559 200.615 273.202 199.374 273.202C198.133 273.202 197.113 273.559 196.342 274.262C195.556 274.978 195.158 275.893 195.158 276.982C195.158 278.07 195.556 278.985 196.342 279.701C197.113 280.405 198.133 280.761 199.374 280.761C200.615 280.761 201.636 280.405 202.407 279.701ZM201.699 275.038C202.265 275.554 202.54 276.19 202.54 276.982C202.54 277.774 202.265 278.41 201.699 278.926C201.119 279.454 200.359 279.711 199.374 279.711C198.389 279.711 197.629 279.454 197.049 278.926C196.483 278.41 196.208 277.774 196.208 276.982C196.208 276.19 196.483 275.554 197.049 275.038C197.629 274.509 198.389 274.252 199.374 274.252C200.359 274.252 201.119 274.509 201.699 275.038Z" fill="#3B7CFF"/>
</g>
<mask id="mask11_1_4754" style="mask-type:luminance" maskUnits="userSpaceOnUse" x="-19" y="196" width="241" height="241">
<path d="M221.508 196.574H-18.4919V436.574H221.508V196.574Z" fill="white"/>
</mask>
<g mask="url(#mask11_1_4754)">
<path d="M23.3778 191.588H21.2171L21.1718 191.743L18.9611 199.291L20.0414 200.733H24.5537L25.634 199.291L23.4233 191.743L23.3778 191.588Z" fill="#3B7CFF"/>
</g>
</g>
</g>
<defs>
<clipPath id="clip0_1_4754">
<rect width="480" height="480" fill="white" transform="translate(0 -180)"/>
</clipPath>
</defs>
</svg>
