<svg width="133" height="24" viewBox="0 0 133 24" fill="none" xmlns="http://www.w3.org/2000/svg">
<path d="M0.917114 13.0003V1.54024H4.03971C5.1704 1.54024 6.13201 1.7146 6.92455 2.06332C7.72765 2.41203 8.37225 2.87171 8.85834 3.44233C9.34443 4.01296 9.69843 4.64699 9.92034 5.34442C10.1528 6.03129 10.2691 6.71815 10.2691 7.40502C10.2691 8.27153 10.1158 9.04821 9.80938 9.73508C9.5135 10.4219 9.10138 11.0084 8.57303 11.4945C8.04467 11.9806 7.43705 12.3557 6.75019 12.6199C6.07389 12.8735 5.35532 13.0003 4.59449 13.0003H0.917114ZM2.45464 11.5262H4.29332C4.92735 11.5262 5.50855 11.4311 6.0369 11.2409C6.57583 11.0507 7.04079 10.7759 7.43177 10.4167C7.83332 10.0574 8.14505 9.61884 8.36696 9.10105C8.58887 8.57269 8.69983 7.97565 8.69983 7.30991C8.69983 6.60191 8.58359 5.98374 8.35111 5.45538C8.11863 4.91645 7.80162 4.46735 7.40007 4.10806C6.99852 3.74878 6.54413 3.47932 6.0369 3.29968C5.52968 3.10947 4.99604 3.01436 4.43598 3.01436H2.45464V11.5262ZM12.1383 7.27821C12.1383 6.48568 12.2862 5.74069 12.5821 5.04326C12.8886 4.33526 13.3113 3.7118 13.8502 3.17287C14.3891 2.62338 15.0073 2.19541 15.7047 1.88896C16.4127 1.57194 17.1735 1.41344 17.9872 1.41344C18.7903 1.41344 19.5406 1.57194 20.238 1.88896C20.946 2.19541 21.5695 2.62338 22.1084 3.17287C22.6579 3.7118 23.0859 4.33526 23.3923 5.04326C23.6988 5.74069 23.852 6.48568 23.852 7.27821C23.852 8.09188 23.6988 8.85272 23.3923 9.56072C23.0859 10.2687 22.6579 10.8922 22.1084 11.4311C21.5695 11.9595 20.946 12.3769 20.238 12.6833C19.5406 12.9792 18.7903 13.1271 17.9872 13.1271C17.1735 13.1271 16.4127 12.9792 15.7047 12.6833C15.0073 12.3874 14.3891 11.9753 13.8502 11.447C13.3113 10.9186 12.8886 10.3004 12.5821 9.59242C12.2862 8.88442 12.1383 8.11302 12.1383 7.27821ZM13.7234 7.29406C13.7234 7.89639 13.8343 8.46174 14.0562 8.99009C14.2781 9.50788 14.5846 9.96756 14.9756 10.3691C15.3666 10.7707 15.821 11.0877 16.3387 11.3202C16.8565 11.5421 17.4166 11.653 18.0189 11.653C18.6107 11.653 19.1655 11.5421 19.6833 11.3202C20.201 11.0877 20.6501 10.7707 21.0306 10.3691C21.411 9.96756 21.7121 9.50788 21.9341 8.99009C22.156 8.46174 22.2669 7.89111 22.2669 7.27821C22.2669 6.67588 22.156 6.11054 21.9341 5.58218C21.7121 5.04326 21.4057 4.57302 21.0147 4.17147C20.6237 3.76991 20.1693 3.45818 19.6515 3.23627C19.1338 3.00379 18.579 2.88756 17.9872 2.88756C17.3849 2.88756 16.8248 3.00379 16.307 3.23627C15.7893 3.46875 15.3349 3.78576 14.9439 4.18732C14.5529 4.58887 14.2517 5.05911 14.0404 5.59803C13.829 6.12639 13.7234 6.69174 13.7234 7.29406ZM26.4424 13.0003V1.17568H26.4582L32.4657 9.70338L31.8158 9.57657L37.8073 1.17568H37.8391V13.0003H36.3174V4.66284L36.4125 5.43953L32.0852 11.5579H32.0535L27.6629 5.43953L27.9323 4.72624V13.0003H26.4424ZM44.1756 9.1803L39.9276 1.54024H41.8138L45.2217 7.86469L44.7462 7.89639L48.1224 1.54024H49.9928L45.7131 9.1803V13.0003H44.1756V9.1803ZM51.9486 1.33418H59.9057V3.55329H54.2469V6.04185H59.2558V8.26096H54.2469V10.7812H60.1276V13.0003H51.9486V1.33418ZM68.7354 4.15562C68.2916 3.91257 67.8372 3.7118 67.3722 3.55329C66.9179 3.39478 66.4899 3.31553 66.0883 3.31553C65.5917 3.31553 65.2007 3.41591 64.9154 3.61669C64.6301 3.81747 64.4874 4.11863 64.4874 4.52018C64.4874 4.79493 64.5931 5.04326 64.8044 5.26517C65.0263 5.47651 65.3064 5.66672 65.6445 5.8358C65.9932 6.00487 66.3525 6.15809 66.7224 6.29547C67.0605 6.42227 67.3934 6.5755 67.721 6.75514C68.0591 6.92421 68.3603 7.14084 68.6245 7.40502C68.8886 7.65863 69.1 7.98093 69.2585 8.37191C69.417 8.75233 69.4963 9.22257 69.4963 9.78263C69.4963 10.3744 69.343 10.9239 69.0366 11.4311C68.7301 11.9383 68.281 12.3505 67.6893 12.6675C67.0975 12.9739 66.3684 13.1271 65.5019 13.1271C65.058 13.1271 64.6037 13.0849 64.1387 13.0003C63.6843 12.9052 63.2352 12.7679 62.7914 12.5882C62.3476 12.398 61.9196 12.1602 61.5075 11.8749L62.5219 10.0838C62.7967 10.2846 63.0925 10.4642 63.4096 10.6227C63.7371 10.7707 64.0647 10.8869 64.3923 10.9714C64.7199 11.056 65.0211 11.0982 65.2958 11.0982C65.5705 11.0982 65.8453 11.0613 66.12 10.9873C66.4054 10.9028 66.6378 10.7654 66.8175 10.5752C67.0077 10.385 67.1028 10.1208 67.1028 9.78263C67.1028 9.55015 67.0235 9.33881 66.865 9.1486C66.7171 8.95839 66.511 8.78403 66.2468 8.62553C65.9932 8.46702 65.7132 8.32965 65.4068 8.21341C65.0475 8.07603 64.6776 7.91753 64.2972 7.73788C63.9168 7.55824 63.5575 7.34162 63.2194 7.088C62.8918 6.82383 62.6223 6.50153 62.411 6.12111C62.2102 5.73012 62.1098 5.2546 62.1098 4.69454C62.1098 4.01824 62.2577 3.43177 62.5536 2.93511C62.8601 2.43845 63.288 2.04747 63.8375 1.76215C64.387 1.46627 65.0211 1.30248 65.7396 1.27078C66.6801 1.27078 67.4409 1.38174 68.0221 1.60365C68.6139 1.82556 69.1423 2.08974 69.6072 2.39618L68.7354 4.15562ZM77.9764 4.15562C77.5326 3.91257 77.0782 3.7118 76.6132 3.55329C76.1589 3.39478 75.7309 3.31553 75.3293 3.31553C74.8327 3.31553 74.4417 3.41591 74.1564 3.61669C73.8711 3.81747 73.7284 4.11863 73.7284 4.52018C73.7284 4.79493 73.8341 5.04326 74.0454 5.26517C74.2673 5.47651 74.5473 5.66672 74.8855 5.8358C75.2342 6.00487 75.5935 6.15809 75.9633 6.29547C76.3015 6.42227 76.6344 6.5755 76.962 6.75514C77.3001 6.92421 77.6013 7.14084 77.8654 7.40502C78.1296 7.65863 78.341 7.98093 78.4995 8.37191C78.658 8.75233 78.7372 9.22257 78.7372 9.78263C78.7372 10.3744 78.584 10.9239 78.2776 11.4311C77.9711 11.9383 77.522 12.3505 76.9303 12.6675C76.3385 12.9739 75.6094 13.1271 74.7428 13.1271C74.299 13.1271 73.8446 13.0849 73.3797 13.0003C72.9253 12.9052 72.4762 12.7679 72.0324 12.5882C71.5886 12.398 71.1606 12.1602 70.7485 11.8749L71.7629 10.0838C72.0377 10.2846 72.3335 10.4642 72.6506 10.6227C72.9781 10.7707 73.3057 10.8869 73.6333 10.9714C73.9609 11.056 74.262 11.0982 74.5368 11.0982C74.8115 11.0982 75.0863 11.0613 75.361 10.9873C75.6463 10.9028 75.8788 10.7654 76.0585 10.5752C76.2487 10.385 76.3438 10.1208 76.3438 9.78263C76.3438 9.55015 76.2645 9.33881 76.106 9.1486C75.9581 8.95839 75.752 8.78403 75.4878 8.62553C75.2342 8.46702 74.9542 8.32965 74.6478 8.21341C74.2885 8.07603 73.9186 7.91753 73.5382 7.73788C73.1578 7.55824 72.7985 7.34162 72.4603 7.088C72.1328 6.82383 71.8633 6.50153 71.6519 6.12111C71.4512 5.73012 71.3508 5.2546 71.3508 4.69454C71.3508 4.01824 71.4987 3.43177 71.7946 2.93511C72.1011 2.43845 72.529 2.04747 73.0785 1.76215C73.628 1.46627 74.262 1.30248 74.9806 1.27078C75.9211 1.27078 76.6819 1.38174 77.2631 1.60365C77.8549 1.82556 78.3832 2.08974 78.8482 2.39618L77.9764 4.15562ZM79.6724 13.0003L84.9349 0.874512H85.0617L90.3241 13.0003H87.6612L84.3008 4.47263L85.9652 3.33138L81.9391 13.0003H79.6724ZM83.2705 8.78403H86.7736L87.5819 10.7178H82.5573L83.2705 8.78403ZM93.4582 9.37051L89.1626 1.33418H91.9999L95.0116 7.38917L94.33 7.43672L97.2932 1.33418H100.131L95.7565 9.37051V13.0003H93.4582V9.37051ZM102.012 1.54024H108.812V3.01436H103.55V6.67588H108.162V8.13415H103.55V13.0003H102.012V1.54024ZM110.401 7.27821C110.401 6.48568 110.549 5.74069 110.845 5.04326C111.151 4.33526 111.574 3.7118 112.113 3.17287C112.652 2.62338 113.27 2.19541 113.967 1.88896C114.675 1.57194 115.436 1.41344 116.25 1.41344C117.053 1.41344 117.803 1.57194 118.501 1.88896C119.209 2.19541 119.832 2.62338 120.371 3.17287C120.92 3.7118 121.348 4.33526 121.655 5.04326C121.961 5.74069 122.115 6.48568 122.115 7.27821C122.115 8.09188 121.961 8.85272 121.655 9.56072C121.348 10.2687 120.92 10.8922 120.371 11.4311C119.832 11.9595 119.209 12.3769 118.501 12.6833C117.803 12.9792 117.053 13.1271 116.25 13.1271C115.436 13.1271 114.675 12.9792 113.967 12.6833C113.27 12.3874 112.652 11.9753 112.113 11.447C111.574 10.9186 111.151 10.3004 110.845 9.59242C110.549 8.88442 110.401 8.11302 110.401 7.27821ZM111.986 7.29406C111.986 7.89639 112.097 8.46174 112.319 8.99009C112.541 9.50788 112.847 9.96756 113.238 10.3691C113.629 10.7707 114.084 11.0877 114.601 11.3202C115.119 11.5421 115.679 11.653 116.281 11.653C116.873 11.653 117.428 11.5421 117.946 11.3202C118.464 11.0877 118.913 10.7707 119.293 10.3691C119.674 9.96756 119.975 9.50788 120.197 8.99009C120.419 8.46174 120.529 7.89111 120.529 7.27821C120.529 6.67588 120.419 6.11054 120.197 5.58218C119.975 5.04326 119.668 4.57302 119.277 4.17147C118.886 3.76991 118.432 3.45818 117.914 3.23627C117.396 3.00379 116.842 2.88756 116.25 2.88756C115.647 2.88756 115.087 3.00379 114.57 3.23627C114.052 3.46875 113.597 3.78576 113.206 4.18732C112.815 4.58887 112.514 5.05911 112.303 5.59803C112.092 6.12639 111.986 6.69174 111.986 7.29406ZM127.748 1.54024C128.329 1.54024 128.863 1.6195 129.349 1.778C129.845 1.92594 130.273 2.15314 130.633 2.45959C131.002 2.75547 131.288 3.12532 131.489 3.56914C131.7 4.00239 131.806 4.50962 131.806 5.09081C131.806 5.5452 131.737 5.98902 131.599 6.42227C131.473 6.85553 131.256 7.2518 130.95 7.61108C130.643 7.95979 130.242 8.24511 129.745 8.46702C129.259 8.67836 128.657 8.78403 127.938 8.78403H126.242V13.0003H124.704V1.54024H127.748ZM127.906 7.30991C128.361 7.30991 128.736 7.24123 129.032 7.10385C129.338 6.96648 129.576 6.79212 129.745 6.58078C129.914 6.35887 130.036 6.12111 130.109 5.8675C130.183 5.61388 130.22 5.37612 130.22 5.15421C130.22 4.92174 130.178 4.68397 130.094 4.44093C130.02 4.18732 129.893 3.95484 129.713 3.7435C129.544 3.53215 129.317 3.3578 129.032 3.22042C128.757 3.08305 128.419 3.01436 128.017 3.01436H126.242V7.30991H127.906ZM129.792 8.18171L132.788 13.0003H131.013L127.97 8.22926L129.792 8.18171Z" fill="#3D3D3D"/>
<path d="M116.717 23.0541C116.717 22.9121 116.769 22.7926 116.872 22.6957C116.982 22.5924 117.101 22.5407 117.231 22.5407C117.347 22.5407 117.457 22.5924 117.56 22.6957C117.67 22.7926 117.725 22.9121 117.725 23.0541C117.725 23.2091 117.67 23.335 117.56 23.4319C117.457 23.5223 117.347 23.5675 117.231 23.5675C117.101 23.5675 116.982 23.5223 116.872 23.4319C116.769 23.335 116.717 23.2091 116.717 23.0541ZM119.023 23.5675V16.3413H119.033L122.704 21.5527L122.307 21.4752L125.968 16.3413H125.987V23.5675H125.058V18.4724L125.116 18.947L122.471 22.686H122.452L119.769 18.947L119.933 18.5111V23.5675H119.023ZM128 16.5641H132.552V17.4649H128.939V19.596H132.165V20.4968H128.939V22.6666H132.688V23.5675H128V16.5641Z" fill="#3D3D3D"/>
</svg>
