<svg width="217" height="38" viewBox="0 0 217 38" fill="none" xmlns="http://www.w3.org/2000/svg">
<path d="M0.149902 19.8897V1.12279H5.26343C7.11503 1.12279 8.68976 1.40831 9.98761 1.97937C11.3028 2.55042 12.3583 3.30318 13.1544 4.23763C13.9504 5.17208 14.5301 6.21036 14.8935 7.35247C15.2742 8.47727 15.4645 9.60207 15.4645 10.7269C15.4645 12.1459 15.2136 13.4178 14.7118 14.5426C14.2273 15.6674 13.5524 16.6278 12.6871 17.4238C11.8219 18.2198 10.8269 18.8341 9.70208 19.2667C8.59458 19.682 7.41786 19.8897 6.17193 19.8897H0.149902ZM2.66773 17.4757H5.67874C6.71702 17.4757 7.66878 17.32 8.53401 17.0085C9.41655 16.697 10.178 16.2471 10.8182 15.6587C11.4758 15.0704 11.9863 14.3522 12.3497 13.5043C12.7131 12.639 12.8948 11.6613 12.8948 10.5711C12.8948 9.41172 12.7044 8.3994 12.3237 7.53417C11.943 6.65163 11.4239 5.91618 10.7663 5.32782C10.1087 4.73946 9.36464 4.29819 8.53401 4.00401C7.70339 3.69253 6.8295 3.53679 5.91236 3.53679H2.66773V17.4757ZM18.5256 10.5192C18.5256 9.22137 18.7678 8.00139 19.2524 6.85928C19.7542 5.69987 20.4464 4.6789 21.3289 3.79636C22.2115 2.89652 23.2238 2.19568 24.3659 1.69384C25.5253 1.1747 26.7713 0.915131 28.1037 0.915131C29.4189 0.915131 30.6475 1.1747 31.7896 1.69384C32.949 2.19568 33.97 2.89652 34.8525 3.79636C35.7524 4.6789 36.4532 5.69987 36.9551 6.85928C37.4569 8.00139 37.7078 9.22137 37.7078 10.5192C37.7078 11.8517 37.4569 13.0976 36.9551 14.257C36.4532 15.4164 35.7524 16.4374 34.8525 17.32C33.97 18.1852 32.949 18.8687 31.7896 19.3706C30.6475 19.8551 29.4189 20.0974 28.1037 20.0974C26.7713 20.0974 25.5253 19.8551 24.3659 19.3706C23.2238 18.886 22.2115 18.2111 21.3289 17.3459C20.4464 16.4807 19.7542 15.4684 19.2524 14.3089C18.7678 13.1495 18.5256 11.8863 18.5256 10.5192ZM21.1213 10.5452C21.1213 11.5315 21.303 12.4573 21.6664 13.3226C22.0298 14.1705 22.5316 14.9233 23.1719 15.5808C23.8122 16.2384 24.5563 16.7576 25.4042 17.1383C26.2521 17.5017 27.1693 17.6834 28.1556 17.6834C29.1247 17.6834 30.0332 17.5017 30.8811 17.1383C31.729 16.7576 32.4645 16.2384 33.0875 15.5808C33.7104 14.9233 34.2036 14.1705 34.567 13.3226C34.9304 12.4573 35.1121 11.5229 35.1121 10.5192C35.1121 9.53286 34.9304 8.60706 34.567 7.74182C34.2036 6.85929 33.7018 6.08923 33.0615 5.43165C32.4212 4.77407 31.6771 4.26358 30.8292 3.90019C29.9813 3.51948 29.0728 3.32913 28.1037 3.32913C27.1174 3.32913 26.2002 3.51948 25.3523 3.90019C24.5044 4.28089 23.7602 4.80003 23.12 5.45761C22.4797 6.11518 21.9865 6.88524 21.6404 7.76778C21.2943 8.63301 21.1213 9.55881 21.1213 10.5452ZM41.9498 19.8897V0.525776H41.9757L51.8134 14.4906L50.7492 14.283L60.5609 0.525776H60.6129V19.8897H58.121V6.23632L58.2767 7.50821L51.1905 17.5276H51.1385L43.9485 7.50821L44.3897 6.34015V19.8897H41.9498ZM70.9895 13.6341L64.033 1.12279H67.1219L72.7026 11.4796L71.9239 11.5315L77.4527 1.12279H80.5157L73.5073 13.6341V19.8897H70.9895V13.6341ZM83.7185 0.785346H96.7489V4.41933H87.4822V8.49458H95.6847V12.1286H87.4822V16.2557H97.1123V19.8897H83.7185V0.785346ZM111.208 5.40569C110.482 5.00769 109.737 4.6789 108.976 4.41933C108.232 4.15976 107.531 4.02997 106.874 4.02997C106.06 4.02997 105.42 4.19437 104.953 4.52315C104.486 4.85194 104.252 5.34513 104.252 6.0027C104.252 6.45263 104.425 6.85928 104.771 7.22268C105.134 7.56878 105.593 7.88026 106.147 8.15714C106.718 8.43401 107.306 8.68493 107.912 8.90989C108.466 9.11754 109.011 9.36846 109.547 9.66264C110.101 9.93952 110.594 10.2943 111.027 10.7269C111.459 11.1422 111.805 11.67 112.065 12.3103C112.325 12.9332 112.454 13.7033 112.454 14.6204C112.454 15.5895 112.203 16.4893 111.702 17.32C111.2 18.1506 110.464 18.8255 109.495 19.3446C108.526 19.8464 107.332 20.0974 105.913 20.0974C105.186 20.0974 104.442 20.0281 103.681 19.8897C102.937 19.734 102.201 19.509 101.475 19.2148C100.748 18.9033 100.047 18.514 99.372 18.0468L101.033 15.1136C101.483 15.4424 101.968 15.7366 102.487 15.9962C103.023 16.2384 103.56 16.4288 104.096 16.5672C104.633 16.7056 105.126 16.7749 105.576 16.7749C106.026 16.7749 106.476 16.7143 106.925 16.5932C107.393 16.4547 107.773 16.2298 108.068 15.9183C108.379 15.6068 108.535 15.1742 108.535 14.6204C108.535 14.2397 108.405 13.8936 108.145 13.5821C107.903 13.2707 107.566 12.9851 107.133 12.7256C106.718 12.466 106.259 12.241 105.757 12.0507C105.169 11.8257 104.563 11.5662 103.94 11.272C103.317 10.9778 102.729 10.6231 102.175 10.2077C101.639 9.77512 101.198 9.24733 100.852 8.62436C100.523 7.98409 100.358 7.20538 100.358 6.28823C100.358 5.18073 100.601 4.22032 101.085 3.407C101.587 2.59368 102.288 1.95341 103.188 1.48618C104.088 1.00165 105.126 0.733432 106.303 0.681518C107.843 0.681518 109.089 0.863217 110.04 1.22662C111.009 1.59001 111.875 2.02263 112.636 2.52447L111.208 5.40569ZM126.341 5.40569C125.615 5.00769 124.87 4.6789 124.109 4.41933C123.365 4.15976 122.664 4.02997 122.006 4.02997C121.193 4.02997 120.553 4.19437 120.086 4.52315C119.618 4.85194 119.385 5.34513 119.385 6.0027C119.385 6.45263 119.558 6.85928 119.904 7.22268C120.267 7.56878 120.726 7.88026 121.28 8.15714C121.851 8.43401 122.439 8.68493 123.045 8.90989C123.599 9.11754 124.144 9.36846 124.68 9.66264C125.234 9.93952 125.727 10.2943 126.16 10.7269C126.592 11.1422 126.938 11.67 127.198 12.3103C127.457 12.9332 127.587 13.7033 127.587 14.6204C127.587 15.5895 127.336 16.4893 126.835 17.32C126.333 18.1506 125.597 18.8255 124.628 19.3446C123.659 19.8464 122.465 20.0974 121.046 20.0974C120.319 20.0974 119.575 20.0281 118.814 19.8897C118.07 19.734 117.334 19.509 116.607 19.2148C115.881 18.9033 115.18 18.514 114.505 18.0468L116.166 15.1136C116.616 15.4424 117.101 15.7366 117.62 15.9962C118.156 16.2384 118.693 16.4288 119.229 16.5672C119.766 16.7056 120.259 16.7749 120.709 16.7749C121.159 16.7749 121.609 16.7143 122.058 16.5932C122.526 16.4547 122.906 16.2298 123.201 15.9183C123.512 15.6068 123.668 15.1742 123.668 14.6204C123.668 14.2397 123.538 13.8936 123.278 13.5821C123.036 13.2707 122.699 12.9851 122.266 12.7256C121.851 12.466 121.392 12.241 120.89 12.0507C120.302 11.8257 119.696 11.5662 119.073 11.272C118.45 10.9778 117.862 10.6231 117.308 10.2077C116.772 9.77512 116.331 9.24733 115.984 8.62436C115.656 7.98409 115.491 7.20538 115.491 6.28823C115.491 5.18073 115.734 4.22032 116.218 3.407C116.72 2.59368 117.421 1.95341 118.321 1.48618C119.22 1.00165 120.259 0.733432 121.435 0.681518C122.976 0.681518 124.222 0.863217 125.173 1.22662C126.142 1.59001 127.008 2.02263 127.769 2.52447L126.341 5.40569ZM129.119 19.8897L137.736 0.0325928H137.944L146.562 19.8897H142.201L136.698 5.92483L139.424 4.05593L132.831 19.8897H129.119ZM135.011 12.9851H140.747L142.071 16.1519H133.843L135.011 12.9851ZM151.694 13.9455L144.66 0.785346H149.306L154.238 10.7009L153.122 10.7788L157.974 0.785346H162.622L155.458 13.9455V19.8897H151.694V13.9455ZM165.702 1.12279H176.838V3.53679H168.22V9.53286H175.774V11.9209H168.22V19.8897H165.702V1.12279ZM179.439 10.5192C179.439 9.22137 179.682 8.00139 180.166 6.85928C180.668 5.69987 181.36 4.6789 182.243 3.79636C183.125 2.89652 184.137 2.19568 185.28 1.69384C186.439 1.1747 187.685 0.915131 189.017 0.915131C190.333 0.915131 191.561 1.1747 192.703 1.69384C193.863 2.19568 194.884 2.89652 195.766 3.79636C196.666 4.6789 197.367 5.69987 197.869 6.85928C198.371 8.00139 198.622 9.22137 198.622 10.5192C198.622 11.8517 198.371 13.0976 197.869 14.257C197.367 15.4164 196.666 16.4374 195.766 17.32C194.884 18.1852 193.863 18.8687 192.703 19.3706C191.561 19.8551 190.333 20.0974 189.017 20.0974C187.685 20.0974 186.439 19.8551 185.28 19.3706C184.137 18.886 183.125 18.2111 182.243 17.3459C181.36 16.4807 180.668 15.4684 180.166 14.3089C179.682 13.1495 179.439 11.8863 179.439 10.5192ZM182.035 10.5452C182.035 11.5315 182.217 12.4573 182.58 13.3226C182.943 14.1705 183.445 14.9233 184.086 15.5808C184.726 16.2384 185.47 16.7576 186.318 17.1383C187.166 17.5017 188.083 17.6834 189.069 17.6834C190.038 17.6834 190.947 17.5017 191.795 17.1383C192.643 16.7576 193.378 16.2384 194.001 15.5808C194.624 14.9233 195.117 14.1705 195.481 13.3226C195.844 12.4573 196.026 11.5229 196.026 10.5192C196.026 9.53286 195.844 8.60706 195.481 7.74182C195.117 6.85929 194.615 6.08923 193.975 5.43165C193.335 4.77407 192.591 4.26358 191.743 3.90019C190.895 3.51948 189.986 3.32913 189.017 3.32913C188.031 3.32913 187.114 3.51948 186.266 3.90019C185.418 4.28089 184.674 4.80003 184.034 5.45761C183.393 6.11518 182.9 6.88524 182.554 7.76778C182.208 8.63301 182.035 9.55881 182.035 10.5452ZM207.846 1.12279C208.798 1.12279 209.672 1.25257 210.468 1.51214C211.281 1.75441 211.982 2.12646 212.57 2.62829C213.176 3.11282 213.643 3.71849 213.972 4.44528C214.318 5.15477 214.491 5.9854 214.491 6.93716C214.491 7.68126 214.379 8.40805 214.154 9.11754C213.946 9.82704 213.591 10.476 213.09 11.0643C212.588 11.6354 211.93 12.1026 211.117 12.466C210.321 12.8121 209.335 12.9851 208.158 12.9851H205.38V19.8897H202.863V1.12279H207.846ZM208.106 10.5711C208.85 10.5711 209.464 10.4587 209.949 10.2337C210.451 10.0087 210.84 9.72321 211.117 9.37711C211.394 9.01372 211.593 8.62436 211.714 8.20905C211.835 7.79374 211.896 7.40438 211.896 7.04098C211.896 6.66028 211.826 6.27093 211.688 5.87292C211.567 5.45761 211.359 5.0769 211.065 4.73081C210.788 4.38472 210.416 4.09919 209.949 3.87423C209.499 3.64927 208.945 3.53679 208.288 3.53679H205.38V10.5711H208.106ZM211.195 11.9988L216.101 19.8897H213.193L208.21 12.0766L211.195 11.9988Z" fill="white"/>
<path d="M189.783 36.3535C189.783 36.1209 189.868 35.9252 190.037 35.7666C190.217 35.5974 190.412 35.5128 190.624 35.5128C190.814 35.5128 190.995 35.5974 191.163 35.7666C191.344 35.9252 191.433 36.1209 191.433 36.3535C191.433 36.6073 191.344 36.8135 191.163 36.9722C190.995 37.1203 190.814 37.1942 190.624 37.1942C190.412 37.1942 190.217 37.1203 190.037 36.9722C189.868 36.8135 189.783 36.6073 189.783 36.3535ZM193.559 37.1942V25.3607H193.574L199.586 33.8948L198.936 33.7679L204.932 25.3607H204.964V37.1942H203.441V28.8505L203.536 29.6278L199.206 35.7507H199.174L194.78 29.6278L195.05 28.9139V37.1942H193.559ZM208.259 25.7256H215.714V27.2008H209.798V30.6906H215.08V32.1658H209.798V35.719H215.936V37.1942H208.259V25.7256Z" fill="white"/>
</svg>
