<svg width="250" height="250" viewBox="0 0 250 250" fill="none" xmlns="http://www.w3.org/2000/svg">
<path d="M124.895 250.005C56.1373 249.413 0.795344 200.854 0.00615459 124.463C-0.684387 54.4863 56.8278 0.104197 125.093 0.00549986C193.654 -0.0931973 251.166 56.559 249.982 124.759C248.601 201.94 192.667 249.709 124.895 250.005ZM192.667 99.2948C192.667 93.8665 191.286 89.4251 187.439 85.3785C180.04 77.6802 172.74 69.9818 164.848 62.7769C156.463 55.0785 144.625 55.4733 136.24 63.1717C132.59 66.5274 129.236 70.0805 125.783 73.6336C105.659 93.6691 85.6333 113.705 65.5089 133.641C62.6481 136.405 60.9711 139.465 60.6751 143.511C59.59 157.427 58.2089 171.245 56.9265 185.063C56.4332 190.491 59.6886 193.748 65.213 193.255C79.6157 191.971 93.9198 190.688 108.322 189.109C110.493 188.912 113.058 187.826 114.636 186.247C138.805 162.264 162.777 138.083 186.847 114.001C190.793 110.053 192.667 105.019 192.667 99.2948Z" fill="white"/>
<path d="M161.889 119.824C144.921 136.899 128.151 153.776 110.887 171.147C102.897 158.217 92.7359 147.459 79.0237 139.465C80.2075 138.083 80.898 136.997 81.8845 136.109C96.9778 120.91 112.17 105.908 127.164 90.6097C129.532 88.1422 130.913 88.3396 133.182 90.7084C141.764 99.4924 150.544 108.079 159.126 116.764C160.113 117.85 161.099 118.936 161.889 119.824Z" fill="white"/>
<path d="M139.594 77.5817C141.37 76.0025 143.441 73.9299 145.71 72.1533C148.867 69.6859 153.405 69.7846 156.463 72.7455C163.566 79.5556 170.471 86.5631 177.376 93.6693C180.731 97.1237 180.435 101.762 177.278 105.316C175.601 107.191 173.924 109.066 172.543 110.546C161.593 99.4924 150.939 88.9318 139.594 77.5817Z" fill="white"/>
<path d="M98.7536 177.068C89.6779 177.858 81.49 178.648 73.4008 179.24C72.6116 179.338 71.0333 177.858 71.0333 177.167C71.6252 168.876 72.4143 160.685 73.2035 151.604C84.2522 157.921 92.1441 165.916 98.7536 177.068Z" fill="white"/>
</svg>
