<svg width="23" height="16" viewBox="0 0 23 16" fill="none" xmlns="http://www.w3.org/2000/svg">
<path d="M4.63719 0.96875H10.3294C11.124 0.96875 11.6182 1.62498 11.4328 2.43274L8.78273 13.9613C8.59569 14.7663 7.80016 15.4231 7.00496 15.4231H1.31335C0.5199 15.4231 0.0245998 14.7663 0.209969 13.9613L2.86117 2.43274C3.04654 1.62498 3.84166 0.96875 4.63719 0.96875Z" fill="#E21836"/>
<path d="M9.85556 0.967773H16.4014C17.1958 0.967773 16.8377 1.62399 16.6507 2.43176L14.001 13.9604C13.8151 14.7653 13.8731 15.4221 13.077 15.4221H6.53117C5.73501 15.4221 5.24234 14.7653 5.42938 13.9604L8.07891 2.43176C8.26707 1.62399 9.06052 0.967773 9.85556 0.967773Z" fill="#00447C"/>
<path d="M16.1418 0.967773H21.834C22.6296 0.967773 23.1239 1.62399 22.9369 2.43176L20.2873 13.9604C20.1002 14.7653 19.3041 15.4221 18.5086 15.4221H12.819C12.0229 15.4221 11.5291 14.7653 11.7156 13.9604L14.3657 2.43176C14.5511 1.62399 15.3456 0.967773 16.1418 0.967773Z" fill="#007B84"/>
<path d="M6.12358 4.66241C5.53826 4.66846 5.36538 4.66241 5.31015 4.64927C5.2889 4.75144 4.89388 6.59765 4.89277 6.59919C4.80777 6.97273 4.74584 7.23894 4.53564 7.41088C4.41633 7.51088 4.27705 7.55911 4.11555 7.55911C3.85601 7.55911 3.7047 7.42846 3.67931 7.1808L3.67446 7.09572C3.67446 7.09572 3.75357 6.5954 3.75357 6.59257C3.75357 6.59257 4.16816 4.91015 4.24234 4.68773C4.24624 4.67507 4.24736 4.66846 4.24831 4.66241C3.44141 4.66959 3.29838 4.66241 3.28852 4.64927C3.2831 4.66741 3.26313 4.77169 3.26313 4.77169L2.83978 6.66798L2.80348 6.82878L2.73312 7.35483C2.73312 7.51088 2.76337 7.63822 2.82362 7.74588C3.01647 8.08741 3.56653 8.13854 3.87773 8.13854C4.27872 8.13854 4.65487 8.05225 4.90901 7.89467C5.35026 7.63048 5.46567 7.21757 5.56858 6.85072L5.61634 6.66249C5.61634 6.66249 6.04335 4.91507 6.11594 4.68773C6.11872 4.67507 6.11984 4.66846 6.12358 4.66241ZM7.57661 6.07209C7.47361 6.07209 7.28554 6.09741 7.11649 6.18128C7.0552 6.21322 6.99718 6.25007 6.93605 6.28677L6.99121 6.08475L6.96096 6.05072C6.60264 6.12427 6.52241 6.13411 6.19139 6.18128L6.16361 6.19999C6.12517 6.5229 6.0911 6.76572 5.94855 7.4004C5.89435 7.63435 5.838 7.87056 5.78157 8.10386L5.79677 8.13354C6.13599 8.1154 6.23899 8.1154 6.53379 8.12032L6.55767 8.09403C6.59516 7.89959 6.60001 7.85411 6.68295 7.46032C6.72195 7.27362 6.80321 6.86338 6.84333 6.71733C6.91703 6.68274 6.9897 6.64878 7.0591 6.64878C7.22433 6.64878 7.2042 6.79483 7.19783 6.85298C7.19074 6.95072 7.13049 7.26983 7.06881 7.54378L7.02758 7.72064C6.99885 7.85128 6.96741 7.97822 6.93868 8.10765L6.95117 8.13354C7.28554 8.1154 7.3875 8.1154 7.67299 8.12032L7.70658 8.09403C7.75823 7.7904 7.77336 7.70911 7.86489 7.26701L7.91097 7.06386C8.00043 6.66628 8.0454 6.46475 7.97767 6.30056C7.90612 6.11653 7.73436 6.07209 7.57661 6.07209ZM9.1998 6.4883C9.02207 6.5229 8.90865 6.54596 8.79603 6.56088C8.68436 6.57903 8.5754 6.59548 8.40364 6.61967L8.39003 6.63217L8.37762 6.64209C8.35971 6.77177 8.34721 6.88378 8.3235 7.01548C8.30336 7.15169 8.2724 7.30653 8.22202 7.52886C8.1831 7.69911 8.16296 7.75846 8.14075 7.81838C8.1191 7.87822 8.09523 7.93644 8.05137 8.10386L8.06164 8.11935L8.07023 8.13354C8.23077 8.1258 8.33583 8.12032 8.44376 8.11935C8.55153 8.1154 8.66327 8.11935 8.83615 8.12032L8.85127 8.10782L8.8675 8.09403C8.89242 7.94306 8.89624 7.90241 8.91144 7.82878C8.92656 7.74975 8.95267 7.6404 9.01666 7.34822C9.04691 7.21104 9.08057 7.07427 9.11193 6.93427C9.14456 6.79483 9.17871 6.65741 9.21118 6.52024L9.20633 6.50362L9.1998 6.4883ZM9.20354 5.92709C9.04205 5.83056 8.75862 5.8612 8.56784 5.99459C8.37762 6.12532 8.35597 6.31088 8.5169 6.4087C8.67561 6.50265 8.96023 6.47467 9.14934 6.34015C9.33909 6.20661 9.36281 6.02273 9.20354 5.92709ZM10.1802 8.16378C10.5069 8.16378 10.8419 8.07257 11.094 7.80177C11.288 7.58225 11.3769 7.25548 11.4077 7.12096C11.508 6.67507 11.4299 6.46685 11.3318 6.34007C11.1828 6.14677 10.9195 6.08475 10.6463 6.08475C10.482 6.08475 10.0908 6.1012 9.78512 6.38677C9.56561 6.59265 9.4642 6.87217 9.403 7.14007C9.34124 7.41314 9.27024 7.90459 9.71627 8.08749C9.85389 8.14733 10.0523 8.16378 10.1802 8.16378ZM10.1547 7.16048C10.23 6.82282 10.3189 6.53943 10.5459 6.53943C10.7238 6.53943 10.7367 6.75023 10.6577 7.08911C10.6435 7.16427 10.5786 7.44386 10.4908 7.56298C10.4294 7.6508 10.3568 7.70411 10.2767 7.70411C10.2528 7.70411 10.1109 7.70411 10.1087 7.49056C10.1075 7.38515 10.1288 7.27741 10.1547 7.16048ZM12.2245 8.1204L12.25 8.09411C12.2862 7.89967 12.2922 7.85395 12.3723 7.46032C12.4124 7.27362 12.4955 6.86346 12.5345 6.71741C12.6082 6.68265 12.6797 6.64862 12.7513 6.64862C12.9154 6.64862 12.8954 6.79467 12.8889 6.8529C12.8829 6.95072 12.8227 7.26975 12.7599 7.5437L12.7209 7.72056C12.6911 7.85128 12.6586 7.97814 12.6299 8.10773L12.6424 8.13362C12.9779 8.11548 13.0759 8.11548 13.3632 8.1204L13.3978 8.09411C13.4482 7.79032 13.4618 7.70903 13.5561 7.26709L13.6011 7.06378C13.691 6.6662 13.7365 6.46475 13.6699 6.30056C13.5962 6.11653 13.4233 6.07217 13.2678 6.07217C13.1647 6.07217 12.9756 6.09733 12.8076 6.18136C12.7475 6.2133 12.6874 6.24999 12.6282 6.28677L12.6797 6.08475L12.6521 6.05064C12.2939 6.12427 12.212 6.13411 11.8813 6.18136L11.8559 6.20007C11.8159 6.52298 11.7833 6.76564 11.6408 7.40048C11.5865 7.63435 11.5302 7.87056 11.4739 8.10394L11.489 8.13362C11.8288 8.11548 11.9302 8.11548 12.2245 8.1204ZM14.6893 8.13354C14.7104 8.02919 14.8368 7.41096 14.8368 7.41096C14.8368 7.41096 14.9435 6.95725 14.95 6.94088C14.95 6.94088 14.9836 6.89362 15.0172 6.87491H15.0665C15.5326 6.87491 16.0589 6.87491 16.4713 6.56749C16.752 6.35661 16.9438 6.04524 17.0295 5.66677C17.0517 5.57403 17.068 5.46362 17.068 5.3533C17.068 5.20838 17.0394 5.06499 16.9563 4.9529C16.7461 4.65475 16.3272 4.64927 15.8436 4.64701L15.6053 4.64927C14.9864 4.65701 14.7381 4.65475 14.6362 4.64209C14.6276 4.68782 14.6113 4.76903 14.6113 4.76903C14.6113 4.76903 14.3896 5.81015 14.3896 5.81185C14.3896 5.81185 13.8591 8.0254 13.8341 8.12975C14.3745 8.12314 14.596 8.12314 14.6893 8.13354ZM15.1001 6.28403C15.1001 6.28403 15.3359 5.24507 15.3347 5.24894L15.3424 5.19572L15.3457 5.15507L15.4399 5.16491C15.4399 5.16491 15.926 5.20725 15.9374 5.20838C16.1293 5.28354 16.2084 5.47741 16.1532 5.73048C16.1028 5.96169 15.9548 6.15612 15.7645 6.25007C15.6079 6.32959 15.416 6.3362 15.2183 6.3362H15.0904L15.1001 6.28403ZM16.5678 7.17975C16.5055 7.44878 16.4339 7.94024 16.8778 8.1154C17.0193 8.17644 17.1461 8.19459 17.275 8.18798C17.4111 8.18048 17.5372 8.11136 17.654 8.01185C17.6435 8.05274 17.633 8.09362 17.6224 8.13467L17.6425 8.16096C17.9617 8.14733 18.0608 8.14733 18.4067 8.14999L18.438 8.1258C18.4886 7.82499 18.5362 7.5329 18.6674 6.95733C18.7313 6.68169 18.7952 6.40862 18.8608 6.13411L18.8505 6.10386C18.4934 6.17096 18.398 6.18524 18.0544 6.23459L18.0284 6.25612C18.0249 6.28411 18.0213 6.31096 18.0179 6.33782C17.9645 6.2504 17.8871 6.17572 17.7676 6.12919C17.6149 6.0683 17.2561 6.14677 16.9477 6.43128C16.7309 6.63443 16.6269 6.91273 16.5678 7.17975ZM17.3179 7.1962C17.3943 6.86451 17.4821 6.58394 17.7097 6.58394C17.8535 6.58394 17.9293 6.71846 17.9139 6.9479C17.9017 7.00515 17.8885 7.0654 17.8728 7.13362C17.8501 7.23217 17.8253 7.32983 17.8014 7.42773C17.7769 7.49459 17.7485 7.55773 17.7172 7.59975C17.6587 7.68386 17.5195 7.73596 17.4392 7.73596C17.4165 7.73596 17.2761 7.73596 17.2712 7.52628C17.2701 7.42177 17.2913 7.31427 17.3179 7.1962ZM21.2346 6.1012L21.207 6.06927C20.8536 6.14185 20.7896 6.15338 20.465 6.19773L20.4411 6.22193C20.44 6.22588 20.439 6.23193 20.4374 6.23741L20.4363 6.23193C20.1946 6.79693 20.2017 6.67507 20.0049 7.11983C20.0038 7.09959 20.0038 7.08693 20.0027 7.0654L19.9535 6.1012L19.9225 6.06927C19.5524 6.14185 19.5436 6.15338 19.2018 6.19773L19.1751 6.22193C19.1714 6.23346 19.1714 6.24612 19.1692 6.25991L19.1714 6.26483C19.2141 6.48612 19.2039 6.43677 19.2467 6.78596C19.2667 6.95733 19.2933 7.12967 19.3133 7.29894C19.347 7.58217 19.3659 7.72161 19.4071 8.15394C19.1762 8.53999 19.1216 8.68604 18.8993 9.02483L18.9009 9.02822L18.7443 9.27894C18.7264 9.3054 18.7102 9.32354 18.6875 9.33128C18.6625 9.34378 18.63 9.34604 18.5849 9.34604H18.4982L18.3693 9.7804L18.8115 9.78814C19.0711 9.78701 19.2343 9.66403 19.3221 9.4987L19.6001 9.01596H19.5957L19.6249 8.98193C19.8119 8.57394 21.2346 6.1012 21.2346 6.1012ZM16.5678 11.8062H16.3802L17.0745 9.47951H17.3048L17.3779 9.23983L17.3849 9.50636C17.3763 9.67112 17.5043 9.81717 17.8404 9.79298H18.2289L18.3627 9.34499H18.2164C18.1324 9.34499 18.0934 9.32346 18.0982 9.27733L18.0912 9.0062H17.3715V9.00757C17.1388 9.01249 16.444 9.03023 16.3034 9.06814C16.1331 9.11257 15.9537 9.2433 15.9537 9.2433L16.0242 9.00338H15.351L15.2107 9.47951L14.5071 11.8418H14.3706L14.2368 12.2866H15.5776L15.5326 12.4349H16.1933L16.2372 12.2866H16.4225L16.5678 11.8062ZM16.0176 9.95225C15.9099 9.98249 15.7092 10.0742 15.7092 10.0742L15.8877 9.47951H16.4225L16.2935 9.91282C16.2935 9.91282 16.1283 9.92265 16.0176 9.95225ZM16.0279 10.8018C16.0279 10.8018 15.8599 10.8231 15.7493 10.8485C15.6405 10.8819 15.4362 10.9873 15.4362 10.9873L15.6205 10.3685H16.158L16.0279 10.8018ZM15.7282 11.8117H15.1917L15.3472 11.2894H15.8821L15.7282 11.8117ZM17.0203 10.3685H17.7936L17.6825 10.7332H16.8989L16.7812 11.1318H17.4669L16.9477 11.8726C16.9114 11.927 16.8788 11.9463 16.8426 11.9616C16.8062 11.9802 16.7585 12.0022 16.7032 12.0022H16.5131L16.3824 12.4389H16.8799C17.1385 12.4389 17.2913 12.3196 17.404 12.1631L17.7601 11.6694L17.8366 12.1707C17.8528 12.2647 17.9193 12.3196 17.9645 12.341C18.0143 12.3663 18.0657 12.4098 18.1384 12.4162C18.2164 12.4196 18.2727 12.4223 18.3102 12.4223H18.5546L18.7015 11.9336H18.605C18.5497 11.9336 18.4543 11.9242 18.4381 11.9066C18.4219 11.8852 18.4219 11.8523 18.4131 11.8023L18.3356 11.2998H18.018L18.1573 11.1318H18.9394L19.0597 10.7332H18.3356L18.4484 10.3685H19.1703L19.3041 9.91878H17.152L17.0203 10.3685ZM10.4886 11.9132L10.6691 11.3048H11.4109L11.5465 10.8523H10.8039L10.9172 10.4778H11.6429L11.7773 10.0396H9.96173L9.83009 10.4778H10.2425L10.1325 10.8523H9.71898L9.58184 11.3126H9.99421L9.7536 12.1175C9.72113 12.2241 9.76888 12.2647 9.79913 12.3142C9.83009 12.3624 9.86145 12.3943 9.93189 12.4124C10.0046 12.4289 10.0545 12.4387 10.1221 12.4387H10.9585L11.1075 11.9374L10.7368 11.989C10.6652 11.989 10.4669 11.9803 10.4886 11.9132ZM10.5736 9.00064L10.3856 9.34491C10.3454 9.42015 10.3092 9.46677 10.2766 9.4883C10.2479 9.50644 10.191 9.51403 10.1086 9.51403H10.0105L9.87936 9.95443H10.2051C10.3618 9.95443 10.4821 9.89628 10.5395 9.86717C10.6013 9.8337 10.6175 9.85282 10.6652 9.80612L10.7752 9.70959H11.7925L11.9275 9.25096H11.1828L11.3129 9.00064H10.5736ZM12.0755 11.9221C12.0581 11.8968 12.0706 11.8523 12.0971 11.7594L12.3751 10.827H13.3642C13.5083 10.8249 13.6125 10.8232 13.6802 10.8183C13.7529 10.8106 13.832 10.7843 13.9181 10.737C14.007 10.6876 14.0525 10.6354 14.091 10.5755C14.1339 10.5157 14.2026 10.385 14.2618 10.1834L14.6112 9.00338L13.5848 9.00943C13.5848 9.00943 13.2688 9.05669 13.1296 9.10886C12.9892 9.16701 12.7886 9.32951 12.7886 9.32951L12.8812 9.00604H12.2472L11.3595 11.989C11.328 12.1048 11.3069 12.1889 11.3021 12.2393C11.3005 12.2938 11.3698 12.3477 11.4148 12.3882C11.4679 12.4289 11.5464 12.4223 11.6218 12.4289C11.701 12.4349 11.8137 12.4387 11.9692 12.4387H12.4565L12.606 11.927L12.1698 11.9688C12.1232 11.9688 12.0895 11.9435 12.0755 11.9221ZM12.5545 10.1972H13.5934L13.5274 10.4069C13.5181 10.4118 13.4959 10.3965 13.3902 10.4092H12.4905L12.5545 10.1972ZM12.7626 9.4937H13.8103L13.7349 9.74636C13.7349 9.74636 13.2412 9.74145 13.162 9.7562C12.8141 9.81717 12.6109 10.0056 12.6109 10.0056L12.7626 9.4937ZM13.5506 11.1093C13.542 11.1406 13.5285 11.1598 13.5095 11.1741C13.4884 11.1879 13.4542 11.1928 13.4033 11.1928H13.2552L13.264 10.9374H12.6483L12.6233 12.1861C12.6223 12.2763 12.6309 12.3284 12.696 12.3702C12.7611 12.4223 12.9616 12.4289 13.2314 12.4289H13.6172L13.7565 11.9615L13.4206 11.9802L13.309 11.9868C13.2937 11.9802 13.2791 11.9742 13.2629 11.9577C13.2487 11.9435 13.2248 11.9523 13.2287 11.8621L13.2314 11.542L13.5836 11.5273C13.7739 11.5273 13.8552 11.4646 13.9245 11.4048C13.9908 11.3476 14.0124 11.2818 14.0374 11.1928L14.0964 10.9094H13.6124L13.5506 11.1093Z" fill="#FEFEFE"/>
</svg>
