<svg width="18" height="17" viewBox="0 0 18 17" fill="none" xmlns="http://www.w3.org/2000/svg">
<path d="M13.3655 7.09863C15.8248 7.09863 17.8237 9.15812 17.8237 11.6919C17.8237 14.2256 15.8248 16.2851 13.3655 16.2851C10.9062 16.2851 8.90735 14.2381 8.90735 11.6919C8.90735 9.15812 10.9062 7.09863 13.3655 7.09863Z" fill="#F0B90B"/>
<path d="M12.2145 11.205L12.893 10.5061L13.0262 10.3563L13.3654 10.0068L14.5163 11.205L15.1826 10.5061L13.3654 8.63379L11.5482 10.5061L12.2145 11.205Z" fill="white"/>
<path d="M13.3658 11.0073L12.6977 11.6958L13.3658 12.3842L14.034 11.6958L13.3658 11.0073Z" fill="white"/>
<path d="M14.5163 12.1912L13.3654 13.3769L12.9656 12.9526L12.893 12.8776L12.2145 12.1912L11.5482 12.8776L13.3654 14.7499L15.1826 12.8776L14.5163 12.1912Z" fill="white"/>
<path d="M11.0621 11.0061L10.3939 11.6945L11.0621 12.3829L11.7302 11.6945L11.0621 11.0061Z" fill="white"/>
<path d="M15.6659 11.0066L14.9977 11.695L15.6659 12.3834L16.3341 11.695L15.6659 11.0066Z" fill="white"/>
<path d="M9.60993 9.91962C12.0721 9.91962 14.068 7.86315 14.068 5.32638C14.068 2.78961 12.0721 0.733154 9.60993 0.733154C7.14772 0.733154 5.15176 2.78961 5.15176 5.32638C5.15176 7.86315 7.14772 9.91962 9.60993 9.91962Z" fill="#627EEA"/>
<path d="M9.75568 1.88135V4.42755L11.8515 5.38866L9.75568 1.88135Z" fill="white" fill-opacity="0.602"/>
<path d="M9.75545 1.88135L7.65964 5.38864L9.75545 4.42761V1.88135Z" fill="white"/>
<path d="M9.75568 7.0487V8.7837L11.8515 5.80054L9.75568 7.0487Z" fill="white" fill-opacity="0.602"/>
<path d="M9.75566 8.7712V7.0487L7.65985 5.80054L9.75566 8.7712Z" fill="white"/>
<path d="M9.75568 6.63693L11.8515 5.38876L9.75568 4.42773V6.63693Z" fill="white" fill-opacity="0.2"/>
<path d="M7.65985 5.38876L9.75566 6.63693V4.42773L7.65985 5.38876Z" fill="white" fill-opacity="0.602"/>
<path d="M9.69421 12.8021C9.10061 15.261 6.67774 16.7588 4.29119 16.1472C1.90458 15.5356 0.4509 13.0393 1.0445 10.5804C1.63811 8.12154 4.06097 6.62374 6.44752 7.23536C8.83406 7.8469 10.2878 10.3432 9.69421 12.8021Z" fill="#E8850E"/>
<path d="M7.34399 11.0423C7.42877 10.4308 6.98053 10.1062 6.36267 9.88161L6.56862 9.05779L6.08406 8.93301L5.87811 9.73183C5.74487 9.69433 5.61156 9.6694 5.49046 9.63198L5.68428 8.82065L5.19972 8.6958L4.99377 9.51963C4.88473 9.49463 4.78781 9.4697 4.67877 9.4447L4.00039 9.26999L3.86708 9.80668C3.86708 9.80668 4.23053 9.89404 4.2184 9.89404C4.41222 9.94396 4.44862 10.0813 4.44862 10.1812L4.2184 11.1298L3.90348 12.4653C3.87921 12.5276 3.81862 12.6151 3.67325 12.5901C3.67325 12.6026 3.32193 12.5027 3.32193 12.5027L3.07965 13.0768L3.72171 13.2391C3.84289 13.2641 3.95193 13.3015 4.07303 13.3265L3.86708 14.1628L4.35171 14.2876L4.55767 13.4638C4.6909 13.5012 4.82414 13.5387 4.94531 13.5637L4.75149 14.3874L5.23605 14.5123L5.442 13.6759C6.27789 13.8382 6.90781 13.7758 7.16223 12.9895C7.38031 12.3654 7.15017 12.0034 6.71399 11.7663C7.02899 11.7039 7.27127 11.4917 7.34399 11.0423ZM6.2173 12.6525C6.07193 13.2765 5.04223 12.9396 4.71509 12.8522L4.98164 11.7413C5.30877 11.8287 6.3748 12.0034 6.2173 12.6525ZM6.3748 11.0299C6.24156 11.604 5.38142 11.3045 5.10281 11.2421L5.34509 10.2311C5.6237 10.3059 6.52017 10.4308 6.3748 11.0299Z" fill="white"/>
</svg>
