<svg width="15" height="15" viewBox="0 0 15 15" fill="none" xmlns="http://www.w3.org/2000/svg">
<path d="M12.3804 0.290039H2.88508C1.64846 0.290039 0.647064 1.33091 0.647064 2.61572V12.4817C0.647064 13.7656 1.64846 14.8069 2.88508 14.8069H12.3804C13.6168 14.8069 14.6177 13.7656 14.6177 12.4817V2.61572C14.6177 1.33091 13.6168 0.290039 12.3804 0.290039Z" fill="#1677FF"/>
<path d="M4.42199 11.4534C2.24854 11.4534 1.60596 9.67455 2.68008 8.70124C3.03846 8.37234 3.69346 8.21175 4.04266 8.17572C5.33376 8.04315 6.52891 8.55492 7.93927 9.27028C6.94795 10.6141 5.68523 11.4534 4.42199 11.4534ZM12.1495 9.40521C11.5904 9.21058 10.8403 8.91308 10.0048 8.59903C10.5066 7.69264 10.9074 6.66043 11.1707 5.53867H8.41692V4.508H11.7904V3.93271H8.41692V2.2146H7.04015C6.79868 2.2146 6.79868 2.46234 6.79868 2.46234V3.93271H3.38677V4.508H6.79868V5.53867H3.9817V6.11389H9.44508C9.24515 6.82962 8.9767 7.50161 8.65817 8.11212C6.88538 7.50433 4.99368 7.01168 3.80523 7.31492C3.04523 7.50947 2.55574 7.85675 2.26817 8.22058C0.948317 9.88925 1.89493 12.4237 4.68236 12.4237C6.33045 12.4237 7.91802 11.469 9.14854 9.8955C10.9839 10.8122 14.6176 12.3862 14.6176 12.3862V10.1429C14.6176 10.1429 14.1613 10.1051 12.1495 9.40521Z" fill="white"/>
</svg>
