<svg width="193" height="194" viewBox="0 0 193 194" fill="none" xmlns="http://www.w3.org/2000/svg">
<path d="M96.4193 193.285C43.338 192.828 0.614006 155.359 0.00475134 96.4135C-0.528346 42.4183 43.8711 0.455895 96.5716 0.379738C149.501 0.303581 193.9 44.0176 192.986 96.642C191.92 156.197 148.739 193.057 96.4193 193.285ZM148.739 76.9935C148.739 72.8049 147.673 69.3778 144.703 66.2554C138.991 60.3152 133.355 54.3749 127.263 48.8155C120.789 42.8752 111.651 43.1799 105.177 49.1201C102.36 51.7094 99.7702 54.4511 97.1047 57.1927C81.5687 72.6526 66.1089 88.1124 50.5729 103.496C48.3643 105.628 47.0697 107.989 46.8412 111.112C46.0035 121.85 44.9373 132.512 43.9472 143.174C43.5665 147.362 46.0796 149.876 50.3444 149.495C61.4633 148.505 72.5061 147.515 83.6249 146.296C85.3004 146.144 87.2805 145.306 88.499 144.088C107.157 125.582 125.664 106.923 144.246 88.3409C147.292 85.2946 148.739 81.4106 148.739 76.9935Z" fill="#1D3281"/>
<path d="M124.978 92.8342C111.879 106.009 98.9325 119.032 85.6051 132.436C79.4364 122.459 71.5922 114.158 61.0064 107.989C61.9203 106.923 62.4534 106.085 63.215 105.4C74.867 93.6719 86.5951 82.0961 98.1709 70.2918C99.9987 68.3879 101.065 68.5402 102.817 70.3679C109.442 77.1459 116.22 83.7715 122.846 90.4733C123.607 91.3111 124.369 92.1488 124.978 92.8342Z" fill="#1D3281"/>
<path d="M107.767 60.2391C109.137 59.0206 110.737 57.4213 112.488 56.0505C114.925 54.1465 118.429 54.2227 120.789 56.5074C126.273 61.7622 131.604 67.1694 136.935 72.6526C139.524 75.3181 139.296 78.8975 136.859 81.6392C135.564 83.0861 134.269 84.5331 133.203 85.6755C124.75 77.1459 116.525 68.9971 107.767 60.2391Z" fill="#1D3281"/>
<path d="M76.2377 137.005C69.2313 137.614 62.9103 138.224 56.6654 138.68C56.0562 138.757 54.8376 137.614 54.8376 137.081C55.2946 130.684 55.9038 124.363 56.5131 117.357C65.0427 122.231 71.1352 128.399 76.2377 137.005Z" fill="#1D3281"/>
</svg>
